<?xml version="1.0" encoding="UTF-8"?>
<svg id="Layer_1" data-name="Layer 1" xmlns="http://www.w3.org/2000/svg" viewBox="0 0 2965.78 3039.32">
  <defs>
    <style>
      .cls-1 {
        fill: #7e7050;
      }

      .cls-2 {
        fill: #fff;
      }

      .cls-3 {
        fill: #7e6e4e;
      }

      .cls-4 {
        fill: none;
      }

      .cls-5 {
        fill: #231f20;
      }
    </style>
  </defs>
  <rect class="cls-2" width="2965.78" height="3039.32"/>
  <g>
    <g>
      <g>
        <path class="cls-5" d="M154.59,1623.93l41.42-113.98,31.25,83.12,11.79,30.86h4.17l17.09-48.68,10.89-31.05,28.27-80.43c2.28-6.24,5.69-10.61,10.27-13.18,2.53-1.5,6.23-2.6,11.07-3.31v-4.99h-53.57v4.99c5.27,.18,9.21,.86,11.85,1.96,4.76,1.96,7.11,5.41,7.11,10.44,0,1.39-.21,3.25-.65,5.52-.7,4.04-2,8.68-3.94,13.84l-33.75,91.54-38.99-101.17c-1.41-3.66-2.3-6.12-2.64-7.31-.35-1.17-.54-2.56-.54-4.17,0-4.58,2.02-7.69,6.06-9.18,2.55-.9,7.2-1.36,13.97-1.46v-4.99h-72.25v4.99c5.72,.1,9.98,.74,12.77,1.96,4.77,2.02,8.3,6.05,10.68,12l12.63,33.08-28.51,75.6-39.03-101.41c-.97-2.66-1.7-4.81-2.17-6.47-.48-1.68-.73-3.39-.73-5.15,0-3.94,2.04-6.66,6.08-8.15,2.26-.8,6.09-1.29,11.45-1.46v-4.99H70.53v4.99c7.91,.45,13.74,3.63,17.47,9.54,3.72,5.92,10.3,21.92,19.65,47.96l22.76,63.28,20.1,55.87h4.08Z"/>
        <path class="cls-5" d="M2865.22,1622.11c-8.69,4-22.21,5.98-40.51,5.98-16.87,0-27.01-.5-30.4-1.46-3.38-.96-5.08-4.13-5.08-9.47v-66.79h41.63c11.42,0,18.69,1.71,21.86,5.05,3.16,3.39,5.75,10.31,7.77,20.76h6.34v-62.3h-6.34c-1.92,10.39-4.47,17.28-7.64,20.7-3.15,3.37-10.5,5.13-21.99,5.13h-41.63v-60.19c0-3.54,.47-5.96,1.39-7.2,.93-1.29,3.36-1.93,7.34-1.93h36.71c15.83,0,25.99,1.79,30.57,5.28,4.58,3.45,7.97,11.15,10.28,23.06h6.84l-.92-38.61h-143.32v5.03c9.99,.71,16.46,2.53,19.37,5.45,2.9,2.96,4.36,9.23,4.36,18.79v119.94c0,10.2-1.49,16.47-4.44,18.97-2.93,2.5-9.36,4.24-19.28,5.31v4.99h145.81l12.26-45.55h-7.51c-6.95,15.36-14.77,25.02-23.48,29.05Z"/>
      </g>
      <g>
        <path class="cls-5" d="M1485.77,297.75c-9.75-1.03-16.03-3.07-18.83-5.95-4.32-4.5-6.47-14.05-6.47-28.77v-105.05l119.36,147.93h4.61V163.89c0-14.11,1.71-23.16,5.13-27.12,3.42-3.96,10.26-6.45,20.56-7.52v-4.99h-63.37v4.99c9.92,.89,16.35,2.75,19.25,5.63,4.38,4.44,6.57,14.03,6.57,28.79v89.63l-104.13-129.05h-46.02v4.99c5.54,.18,9.7,.82,12.44,1.93,2.78,1.09,6.13,3.96,10.08,8.62l3.69,4.35v118.81c0,14.27-1.58,23.31-4.74,27.2-3.15,3.92-10.31,6.45-21.47,7.59v4.99h63.36v-4.99Z"/>
        <path class="cls-5" d="M1510.08,2914.08c-15.88,0-29.15-6.28-39.85-18.86-6.15-7.2-11.49-16.86-16.05-28.98h-6.19l8.02,57.45h5.96c.34-2.2,1.07-4.23,2.14-6.2,1.11-1.93,3.24-2.88,6.41-2.88,1.31,0,6.51,1.56,15.6,4.74,9.08,3.14,17.8,4.74,26.14,4.74,16.61,0,30.24-4.74,40.92-14.21,10.65-9.47,15.98-21.33,15.98-35.43,0-10.55-2.97-19.71-8.98-27.41-6.1-7.65-16.54-16.03-31.38-25.16l-23.68-14.64c-8.88-5.43-15.4-10.66-19.61-15.69-4.2-4.88-6.31-10.8-6.31-17.75,0-7.73,2.76-13.79,8.22-18.14,5.51-4.31,11.94-6.48,19.32-6.48,9.47,0,19.07,3.42,28.78,10.26,9.71,6.84,16.74,18.92,21.14,36.21h6.46l-5.94-57.42h-5.55c-.69,2.89-1.68,5.13-2.95,6.71-1.27,1.6-3.59,2.38-6.91,2.38-1.24,0-6.17-1.52-14.8-4.56-8.68-3.02-16.06-4.52-22.21-4.52-14.93,0-26.92,4.49-35.96,13.55-9.05,9.05-13.59,20.37-13.59,34,0,10.26,3.84,19.67,11.46,28.19,4.13,4.45,9.66,8.95,16.59,13.29l23,14.37c13.25,8.27,21.9,14.43,26.03,18.57,6.31,6.52,9.47,14.14,9.47,22.91,0,9.77-3.15,17.35-9.42,22.81-6.24,5.45-13.69,8.17-22.28,8.17Z"/>
      </g>
    </g>
    <g>
      <path class="cls-4" d="M1384.54,1287.93l41.74-322.62c-118.28,19.06-224.44,74.61-306.66,154.69l264.92,167.93Z"/>
      <path class="cls-4" d="M1106.81,1111.87c85.69-84.45,197.17-142.81,321.46-161.87l4.56-35.22c-138.25,18.95-262.11,83.56-355.75,178.24l29.73,18.85Z"/>
      <g>
        <rect class="cls-5" x="556.95" y="1417.16" width="5.99" height="69.86" transform="translate(-930.67 1899.48) rotate(-85.62)"/>
        <rect class="cls-5" x="564.73" y="1346.46" width="5.98" height="69.86" transform="translate(-883.29 1735.09) rotate(-81.36)"/>
        <rect class="cls-5" x="578.3" y="1276.64" width="5.99" height="69.87" transform="translate(-827.09 1584.65) rotate(-77.07)"/>
        <rect class="cls-5" x="596.54" y="1207.89" width="5.99" height="69.86" transform="translate(-765.1 1447.33) rotate(-72.77)"/>
        <rect class="cls-5" x="620.39" y="1140.88" width="5.99" height="69.87" transform="translate(-699.17 1324.14) rotate(-68.47)"/>
        <rect class="cls-5" x="648.74" y="1075.65" width="5.99" height="69.87" transform="translate(-631.85 1213.35) rotate(-64.17)"/>
        <rect class="cls-5" x="689.59" y="1000.07" width="5.99" height="69.87" transform="translate(-550.2 1115) rotate(-59.89)"/>
        <rect class="cls-5" x="720.11" y="952.71" width="5.99" height="69.86" transform="translate(-500.32 1026.83) rotate(-55.62)"/>
        <rect class="cls-5" x="762.53" y="895.61" width="5.99" height="69.86" transform="translate(-439.32 947.54) rotate(-51.37)"/>
        <rect class="cls-5" x="808.91" y="841.71" width="5.99" height="69.86" transform="translate(-382.95 874.83) rotate(-47.11)"/>
      </g>
      <rect class="cls-5" x="859.21" y="791.41" width="5.99" height="69.87" transform="translate(-331.9 807.75) rotate(-42.89)"/>
      <rect class="cls-5" x="913.11" y="745.02" width="5.99" height="69.86" transform="translate(-286.47 742.61) rotate(-38.63)"/>
      <rect class="cls-5" x="970.21" y="702.61" width="5.99" height="69.86" transform="translate(-246.46 678.29) rotate(-34.38)"/>
      <rect class="cls-5" x="1030.45" y="664.8" width="5.98" height="69.86" transform="translate(-211.58 612.89) rotate(-30.11)"/>
      <rect class="cls-5" x="1093.15" y="631.23" width="5.99" height="69.86" transform="translate(-180.72 544.04) rotate(-25.82)"/>
      <rect class="cls-5" x="1158.39" y="602.89" width="5.99" height="69.86" transform="translate(-153.05 470.81) rotate(-21.53)"/>
      <rect class="cls-5" x="1225.39" y="579.03" width="5.99" height="69.86" transform="translate(-126.75 391.48) rotate(-17.23)"/>
      <rect class="cls-5" x="1294.14" y="560.8" width="5.99" height="69.86" transform="translate(-100.42 305.38) rotate(-12.93)"/>
      <rect class="cls-5" x="1363.96" y="547.22" width="5.98" height="69.86" transform="translate(-71.93 211.91) rotate(-8.64)"/>
      <rect class="cls-5" x="1434.66" y="539.45" width="5.99" height="69.86" transform="translate(-39.67 111.5) rotate(-4.38)"/>
      <rect class="cls-5" x="1550.55" y="571.38" width="69.86" height="5.99" transform="translate(891.54 2111.29) rotate(-85.61)"/>
      <rect class="cls-5" x="1621.25" y="579.16" width="69.86" height="5.98" transform="translate(832.21 2132.28) rotate(-81.37)"/>
      <rect class="cls-5" x="1691.06" y="592.73" width="69.87" height="5.99" transform="translate(760.38 2145.42) rotate(-77.12)"/>
      <rect class="cls-5" x="1759.81" y="610.97" width="69.87" height="5.99" transform="translate(676.87 2146.42) rotate(-72.78)"/>
      <rect class="cls-5" x="1826.81" y="634.82" width="69.87" height="5.99" transform="translate(584.46 2134.97) rotate(-68.44)"/>
      <rect class="cls-5" x="1892.05" y="663.16" width="69.87" height="5.99" transform="translate(487.25 2109.83) rotate(-64.15)"/>
      <rect class="cls-5" x="1954.76" y="696.73" width="69.87" height="5.99" transform="translate(387.13 2070.96) rotate(-59.93)"/>
      <rect class="cls-5" x="2014.99" y="734.55" width="69.87" height="5.99" transform="translate(283.43 2012.55) rotate(-55.61)"/>
      <rect class="cls-5" x="2072.09" y="776.95" width="69.86" height="5.99" transform="translate(181.79 1938.11) rotate(-51.34)"/>
      <rect class="cls-5" x="2126" y="823.35" width="69.86" height="5.99" transform="translate(84.87 1847.34) rotate(-47.11)"/>
      <rect class="cls-5" x="2176.29" y="873.64" width="69.87" height="5.99" transform="translate(-5.68 1738.8) rotate(-42.88)"/>
      <rect class="cls-5" x="2222.68" y="927.54" width="69.87" height="5.99" transform="translate(-86.94 1613.04) rotate(-38.63)"/>
      <rect class="cls-5" x="2265.09" y="984.64" width="69.86" height="5.99" transform="translate(-155.94 1471.12) rotate(-34.38)"/>
      <rect class="cls-5" x="2302.91" y="1044.88" width="69.86" height="5.98" transform="translate(-210.21 1314.27) rotate(-30.11)"/>
      <rect class="cls-5" x="2336.47" y="1107.59" width="69.86" height="5.99" transform="translate(-246.96 1143.95) rotate(-25.82)"/>
      <rect class="cls-5" x="2364.81" y="1172.82" width="69.86" height="5.99" transform="translate(-264.08 962.91) rotate(-21.53)"/>
      <rect class="cls-5" x="2388.67" y="1239.83" width="69.86" height="5.99" transform="translate(-259.4 773.82) rotate(-17.23)"/>
      <rect class="cls-5" x="2406.91" y="1308.57" width="69.86" height="5.99" transform="translate(-231.58 579.7) rotate(-12.93)"/>
      <rect class="cls-5" x="2420.48" y="1378.39" width="69.87" height="5.98" transform="translate(-179.68 384.6) rotate(-8.64)"/>
      <rect class="cls-5" x="2428.26" y="1449.09" width="69.86" height="5.99" transform="translate(-103.7 192.36) rotate(-4.38)"/>
      <rect class="cls-5" x="2460.19" y="1564.98" width="5.99" height="69.86" transform="translate(679.83 3933.72) rotate(-85.62)"/>
      <rect class="cls-5" x="2452.43" y="1635.68" width="5.98" height="69.86" transform="translate(434.86 3847.15) rotate(-81.36)"/>
      <rect class="cls-5" x="2438.85" y="1705.49" width="5.99" height="69.87" transform="translate(199.15 3730.91) rotate(-77.07)"/>
      <rect class="cls-5" x="2420.61" y="1774.24" width="5.99" height="69.87" transform="translate(-22.19 3588.24) rotate(-72.77)"/>
      <rect class="cls-5" x="2396.75" y="1841.25" width="5.99" height="69.87" transform="translate(-226.27 3419.83) rotate(-68.47)"/>
      <rect class="cls-5" x="2368.41" y="1906.48" width="5.99" height="69.86" transform="translate(-409.28 3229.99) rotate(-64.17)"/>
      <rect class="cls-5" x="2334.84" y="1969.19" width="5.99" height="69.86" transform="translate(-568.6 3021.28) rotate(-59.89)"/>
      <rect class="cls-5" x="2297.03" y="2029.43" width="5.99" height="69.87" transform="translate(-702.47 2796.98) rotate(-55.62)"/>
      <rect class="cls-5" x="2254.62" y="2086.53" width="5.99" height="69.87" transform="translate(-809.06 2560.65) rotate(-51.37)"/>
      <rect class="cls-5" x="2208.23" y="2140.43" width="5.99" height="69.86" transform="translate(-887.5 2315.45) rotate(-47.12)"/>
      <rect class="cls-5" x="2157.94" y="2190.72" width="5.99" height="69.87" transform="translate(-937.03 2065) rotate(-42.88)"/>
      <rect class="cls-5" x="2104.03" y="2237.11" width="5.99" height="69.87" transform="translate(-957.39 1812.57) rotate(-38.63)"/>
      <rect class="cls-5" x="2046.94" y="2279.52" width="5.99" height="69.87" transform="translate(-948.72 1561.46) rotate(-34.37)"/>
      <rect class="cls-5" x="1986.7" y="2317.34" width="5.98" height="69.87" transform="translate(-911.56 1315.55) rotate(-30.11)"/>
      <rect class="cls-5" x="1923.99" y="2350.9" width="5.99" height="69.87" transform="translate(-846.98 1077.93) rotate(-25.83)"/>
      <rect class="cls-5" x="1858.76" y="2379.24" width="5.99" height="69.86" transform="translate(-756.19 851.9) rotate(-21.53)"/>
      <rect class="cls-5" x="1791.75" y="2403.1" width="5.99" height="69.86" transform="translate(-641.73 641.17) rotate(-17.23)"/>
      <rect class="cls-5" x="1723.01" y="2421.34" width="5.99" height="69.86" transform="translate(-505.89 448.53) rotate(-12.93)"/>
      <rect class="cls-5" x="1653.19" y="2434.91" width="5.98" height="69.87" transform="translate(-352.29 276.88) rotate(-8.64)"/>
      <rect class="cls-5" x="1582.49" y="2442.69" width="5.99" height="69.86" transform="translate(-184.59 128.32) rotate(-4.38)"/>
      <rect class="cls-5" x="1402.73" y="2474.62" width="69.86" height="5.99" transform="translate(-1142.62 3721.65) rotate(-85.62)"/>
      <rect class="cls-5" x="1332.02" y="2466.86" width="69.86" height="5.98" transform="translate(-1279.77 3451.45) rotate(-81.39)"/>
      <rect class="cls-5" x="1262.21" y="2453.28" width="69.87" height="5.99" transform="translate(-1386.51 3173.12) rotate(-77.12)"/>
      <rect class="cls-5" x="1193.46" y="2435.04" width="69.87" height="5.99" transform="translate(-1464.12 2888.98) rotate(-72.77)"/>
      <rect class="cls-5" x="1126.45" y="2411.18" width="69.87" height="5.99" transform="translate(-1510.66 2607.2) rotate(-68.44)"/>
      <rect class="cls-5" x="1061.22" y="2382.84" width="69.87" height="5.99" transform="translate(-1528.88 2331.39) rotate(-64.14)"/>
      <rect class="cls-5" x="998.51" y="2349.28" width="69.86" height="5.99" transform="translate(-1519.88 2066.39) rotate(-59.89)"/>
      <rect class="cls-5" x="938.28" y="2311.46" width="69.86" height="5.99" transform="translate(-1486.45 1810.54) rotate(-55.62)"/>
      <rect class="cls-5" x="881.18" y="2269.05" width="69.87" height="5.99" transform="translate(-1430.31 1567.95) rotate(-51.34)"/>
      <rect class="cls-5" x="827.27" y="2222.67" width="69.86" height="5.99" transform="translate(-1355.24 1342.55) rotate(-47.11)"/>
      <rect class="cls-5" x="776.98" y="2172.37" width="69.87" height="5.99" transform="translate(-1263.25 1133.68) rotate(-42.88)"/>
      <rect class="cls-5" x="730.59" y="2118.46" width="69.86" height="5.99" transform="translate(-1156.93 942.14) rotate(-38.63)"/>
      <rect class="cls-5" x="688.18" y="2061.37" width="69.86" height="5.99" transform="translate(-1039.26 768.78) rotate(-34.37)"/>
      <rect class="cls-5" x="650.36" y="2001.13" width="69.87" height="5.98" transform="translate(-912.91 614.2) rotate(-30.11)"/>
      <rect class="cls-5" x="616.8" y="1938.42" width="69.86" height="5.99" transform="translate(-780.63 477.8) rotate(-25.82)"/>
      <rect class="cls-5" x="588.46" y="1873.19" width="69.86" height="5.99" transform="translate(-645.17 359.79) rotate(-21.53)"/>
      <rect class="cls-5" x="564.6" y="1806.18" width="69.86" height="5.99" transform="translate(-508.95 258.75) rotate(-17.23)"/>
      <rect class="cls-5" x="546.37" y="1737.44" width="69.86" height="5.99" transform="translate(-374.73 174.22) rotate(-12.93)"/>
      <rect class="cls-5" x="532.79" y="1667.62" width="69.86" height="5.98" transform="translate(-244.56 104.26) rotate(-8.64)"/>
      <rect class="cls-5" x="525.01" y="1596.92" width="69.86" height="5.99" transform="translate(-120.58 47.45) rotate(-4.38)"/>
      <g>
        <path class="cls-5" d="M2261.55,2255.27l-293.32-270.94-.43-.4-6.64,7.19-.5,.54-2.85,3.09,3.51,3.24,289.89,267.78c-188.33,187.45-447.8,303.48-733.86,303.48-.28,0-.57,0-.85,0l-1.87,14.69c.91,0,1.81,.03,2.72,.03,578.26,0,1049.3-467.4,1055.38-1044.25l-14.73,1.88c-3.46,277.34-115.91,528.87-296.45,713.68Z"/>
        <path class="cls-5" d="M461.98,1515.87l14.75-1.92c3.88-282.81,121.09-538.73,308.24-724.27l261.29,283.72,19.02,20.65,5.47-5.03,6.32,4.01c93.65-94.68,217.5-159.29,355.75-178.24l1.94-15.06c-141.02,18.43-267.64,83.19-363.89,178.67l-275.4-298.99c180.71-174.21,424.06-283.85,692.54-291.31l1.92-14.81c-565.23,14.47-1021.3,475.49-1027.97,1042.59Z"/>
        <path class="cls-5" d="M1488.03,2583.54l-1.89-14.8c-278.95-8.26-530.65-126.82-712.98-313.46l294.84-279.62-21.01,5.76,7.43-20.01-291.49,283.31c-174.27-183.45-282.45-430.2-286.2-701.73l-14.75-1.92c6.69,566.43,461.74,1026.98,1026.05,1042.45Z"/>
        <path class="cls-5" d="M1517.35,472.94c-1.55,0-3.09,.05-4.63,.06l1.9,14.7c.91,0,1.82-.03,2.73-.03,279.77,0,534.09,111,721.32,291.22l-287.24,287.7,7.74-5.08,4.38,16.64,6.27-9.55,279.39-279.41c187.77,185.89,305.28,442.55,308.8,726.18l14.73,1.88c-6.05-576.85-477.1-1044.29-1055.38-1044.29Z"/>
      </g>
      <path class="cls-1" d="M2646.98,1539.7c2.62-2.61,4.29-4.29,4.29-4.29,0,0-.05-2.08-.14-5.67l-4.04,.52c0,3.16-.09,6.29-.12,9.44Z"/>
      <path class="cls-5" d="M2082.94,1602.07c-16.06,124.03-72.06,235.65-154.71,321.56l8.31,12.61c86.9-89.31,145.51-206.16,161.46-336.09l-15.06,1.92Z"/>
      <path class="cls-5" d="M952.11,1452.04c15.63-116.21,66.27-221.45,141.08-304.64l-8.21-12.94c-79.13,86.74-132.4,197.34-148,319.55l15.12-1.97Z"/>
      <path class="cls-5" d="M1090.25,1906.1c-73.15-82.64-122.68-186.53-138.12-301.15l-15.12-1.97c15.4,120.57,67.51,229.8,144.9,316l8.34-12.88Z"/>
      <path class="cls-5" d="M1927.7,1132.72c82.95,86,139.16,197.84,155.24,322.18l15.06,1.91c-15.97-130.22-74.8-247.32-162.02-336.72l-8.28,12.62Z"/>
      <path class="cls-5" d="M1895.81,1954.84c-86.86,77.19-197.31,128.37-319.08,141.03l-1.9,14.96c127.67-12.51,243.4-66.19,333.75-147.58l-12.77-8.41Z"/>
      <path class="cls-5" d="M1575.78,960.93c122.46,12.51,233.5,64,320.69,141.71l12.78-8.39c-90.67-81.92-207.04-135.87-335.4-148.23l1.93,14.91Z"/>
      <path class="cls-5" d="M1119.62,1120c82.22-80.09,188.39-135.64,306.66-154.69l1.98-15.3c-124.29,19.06-235.77,77.41-321.46,161.87l12.82,8.12Z"/>
      <path class="cls-5" d="M1425.37,2091.44c-116.33-18.94-220.88-73.2-302.41-151.36l-12.71,8.24c85.01,82.44,194.8,139.47,317.08,158.43l-1.95-15.3Z"/>
      <path class="cls-5" d="M1062.64,1948.73c-87.32-94.4-145.65-215.9-160.83-350.33l-15.06-1.96c15.03,140.38,76.08,267.12,167.67,364.99l8.22-12.7Z"/>
      <path class="cls-5" d="M2133.23,1595.66c-15.58,143.68-80.41,272.79-177.31,369.98l.98,1.5,7.27,11.03c101.18-100.54,168.76-234.85,184.13-384.43l-15.07,1.92Z"/>
      <path class="cls-5" d="M1569.36,911.22c142.11,11.88,270.71,71.84,369.44,163.64l12.62-8.28c-102.15-96.04-235.98-158.61-383.99-170.24l1.93,14.88Z"/>
      <path class="cls-5" d="M1938.1,1982.7c-98.39,91.2-226.33,150.84-367.7,162.89l-1.9,14.92c147.24-11.82,280.4-74.06,382.21-169.51l-12.61-8.3Z"/>
      <path class="cls-5" d="M1431.8,2141.97c-136.08-18.88-258.19-82-351.17-174.49l-12.64,8.18c96.35,96.82,223.72,162.61,365.72,181.4l-1.92-15.1Z"/>
      <path class="cls-5" d="M901.8,1458.6c15.36-136.19,75.04-259.08,164.25-354l-8.11-12.79c-93.55,98.38-156,226.56-171.2,368.75l15.06-1.96Z"/>
      <path class="cls-5" d="M1955.33,1090.63c97.24,97.28,162.3,226.67,177.9,370.67l15.06,1.92c-15.38-149.91-83.22-284.47-184.77-385.08l-8.2,12.5Z"/>
      <polygon class="cls-5" points="1639.59 1398.47 1960.42 1066.57 1618.44 1290.99 1632.22 1397.53 1639.59 1398.47"/>
      <polygon class="cls-5" points="1056.85 1977.03 1383.84 1765.3 1372.01 1672.37 1056.85 1977.03"/>
      <polygon class="cls-5" points="1645.72 1657.72 1964.3 1987.26 1739.34 1645.8 1645.72 1657.72"/>
      <polygon class="cls-5" points="1370.36 1397.58 1371.24 1390.81 1067.45 1097.57 1266.26 1411.14 1370.36 1397.58"/>
      <polygon class="cls-3" points="1501.36 2688.18 1501.59 2686.32 1501.12 2686.3 1501.36 2688.18"/>
      <path class="cls-5" d="M1503.79,2669.06h0l1.4-10.98,9.43-74.15,1.87-14.69,52.01-408.73,1.9-14.92,4.43-34.76,1.9-14.96,41.23-324.01,277.85,182.98,12.77,8.41,29.52,19.45,12.61,8.3,10.6,6.98-3.51-3.24,2.85-3.09-342.01-225.22,13.62-107.01,7.37-.94,321.52,332.63,6.64-7.19,.43,.4-4.06-6.15-7.27-11.03-.98-1.5-19.38-29.41-8.31-12.61-183.46-278.51,338.17-43.04,15.06-1.92,35.23-4.48,15.07-1.92,409.7-52.15,14.73-1.88,74.38-9.46,4.04-.52c-.02-.78-.04-1.59-.06-2.52l-3.98-.51-5.2-.66h0s-69.17-8.81-69.17-8.81l-14.73-1.88-214.19-27.25-195.51-24.88-15.06-1.92-35.23-4.48-15.06-1.91-338.48-43.08,183.24-279.1,8.28-12.62,19.35-29.46,8.2-12.5,6.27-9.55-1.77,1.77-8.87-8.86-7.74,5.08-12.62,8.28-29.54,19.39-12.78,8.39-278.73,182.93-41.96-324.64-1.93-14.91-4.5-34.8-1.93-14.88-52.82-408.64-1.9-14.7-8.88-68.69v-.14h-.01l-.69-5.31-3.58,.15-9.61,74.28-1.92,14.81-53.26,411.63-1.94,15.06-4.56,35.22-1.98,15.3-41.74,322.62-264.92-167.93-12.82-8.12-29.73-18.85-6.32-4.01-5.47,5.03-19.02-20.65,11.67,18.4,8.11,12.79,18.94,29.86,8.21,12.94,167.68,264.44-308.76,40.21-15.12,1.97-35.2,4.59-15.06,1.96-410.01,53.39-14.75,1.92-74.38,9.68-3.77,5.35h0s3.77,.5,3.77,.5l66.74,8.69,7.64,.99,14.75,1.92,410.02,53.42,15.06,1.96,35.2,4.59,15.12,1.97,307.25,40.03-169.13,261.12-8.34,12.88-19.27,29.75-8.22,12.7-19.15,29.57,3.48,3.62,29.26-18.94,12.64-8.18,29.61-19.17,12.71-8.24,77.97-50.49,183.6-118.88,40.84,320.73,1.95,15.3,4.48,35.23,1.92,15.1,52.42,411.68,1.89,14.8,9.48,74.45,6.28,11.08Zm.5-42.68l12.06-1103.72,111.11,135.29-123.18,968.43Zm460.01-639.12l-318.58-329.55,93.62-11.92,224.96,341.46Zm-333.23-332.64l-111.85-136.2,1086.94,12.09-975.09,124.11Zm968.09-129.08l-1079.31-12.04,.13-.13h-.03l110.99-111.04,968.22,123.21Zm-860.11-114.42l-93.39-11.89,315.48-326.4-222.09,338.28Zm221.36-344.56l-320.83,331.9-7.37-.94-13.77-106.54,341.97-224.42Zm-332.96,332.34l-111.1,111.15-12.04-1063.83,123.14,952.68Zm-128.15-959.67l12.19,1071.42-136.31-111.94,124.12-959.48Zm-115.46,854.08l-11.83,91.46-298.59-288.21,310.42,196.74Zm-316.4-195.74l303.78,293.25-.88,6.76-104.1,13.56-198.81-313.57Zm304.39,304.74l135.35,111.21-1081.67,12.05,946.32-123.26Zm-952.85,128.24l1088.98-12.13-136.26,136.21-952.72-124.08Zm845.78,115.12l105.59,13.76,.88,6.87-320.56,309.92,214.09-330.55Zm-207.92,331.36l315.16-304.67,11.83,92.93-326.99,211.74Zm442.43,655.96l-124.13-974.88,136.31-136.21-12.18,1111.09Z"/>
      <polygon class="cls-5" points="1511.5 1510.65 1499.3 439.23 1375.19 1398.71 1511.5 1510.65"/>
      <polygon class="cls-5" points="1504.29 2626.39 1627.46 1657.95 1516.35 1522.67 1504.29 2626.39"/>
      <polygon class="cls-5" points="1519.95 1513.38 1519.98 1513.38 1519.85 1513.51 2599.16 1525.55 1630.94 1402.34 1519.95 1513.38"/>
      <polygon class="cls-5" points="1507.97 1518.42 418.99 1530.55 1371.71 1654.64 1507.97 1518.42"/>
      <path class="cls-5" d="M1516.27,2671.03c-304.28,0-590.35-118.49-805.5-333.65-215.16-215.16-333.65-501.22-333.65-805.5s118.49-590.35,333.65-805.51c215.16-215.16,501.23-333.65,805.5-333.65s590.35,118.49,805.5,333.65c215.16,215.16,333.65,501.23,333.65,805.51s-118.49,590.35-333.65,805.5c-215.16,215.16-501.23,333.65-805.5,333.65Zm0-2263.92c-620.2,0-1124.76,504.57-1124.76,1124.76s504.57,1124.76,1124.76,1124.76,1124.76-504.57,1124.76-1124.76S2136.46,407.11,1516.27,407.11Z"/>
    </g>
    <g>
      <g>
        <g>
          <path class="cls-5" d="M2338.3,2430.44c1.16-4.6,4.61-10.42,10.32-17.44,5.27-6.47,8.63-10.2,10.07-11.2,1.43-.99,3.2-.64,5.28,1.06l26,21.19-13.01,15.97c-3.57,4.38-6.5,6.63-8.8,6.79-2.31,.14-5.81-1.07-10.51-3.61l-1.98,2.43,24.26,19.77,1.98-2.43c-3.45-4.03-5.33-7.2-5.67-9.5-.33-2.28,1.28-5.65,4.87-10.06l13.01-15.97,23.44,19.09c1.38,1.12,2.17,2.07,2.37,2.82,.21,.76-.3,1.9-1.54,3.43l-11.47,14.08c-4.95,6.07-8.82,9.4-11.61,10.05-2.77,.66-6.83-.48-12.19-3.37l-2.14,2.63,15.32,11.9,44.77-54.99-1.96-1.6c-3.4,3.61-6.13,5.51-8.17,5.7-2.06,.17-4.96-1.26-8.68-4.29l-46.7-38.05c-3.97-3.23-5.95-5.8-6-7.72-.06-1.92,1.27-4.93,3.95-9.08l-1.94-1.58-45.55,55.94,13.9,19.15,2.34-2.88c-3.81-7.54-5.13-13.6-3.97-18.22Z"/>
          <path class="cls-5" d="M2410.58,2337.24c4.96-6.09,11.55-9.19,19.79-9.3,4.73-.07,10.16,.94,16.3,3.03l1.93-2.37-24.87-15.15-1.86,2.28c.75,.83,1.31,1.75,1.74,2.79,.4,1.04,.11,2.16-.88,3.38-.41,.5-2.64,2-6.72,4.48-4.06,2.49-7.4,5.33-10.01,8.53-5.19,6.37-7.6,13.11-7.25,20.21,.36,7.09,3.31,12.89,8.8,17.37,4.11,3.35,8.6,5.11,13.48,5.25,4.89,.09,11.41-1.26,19.6-4.06l13.1-4.44c4.89-1.68,8.96-2.53,12.24-2.55,3.21-.06,6.18,1.01,8.88,3.21,3.01,2.45,4.51,5.43,4.5,8.91-.04,3.48-1.21,6.64-3.51,9.47-2.96,3.63-7.29,6.23-12.99,7.79-5.7,1.55-12.6,.42-20.7-3.38l-2.02,2.48,24.21,15.94,1.73-2.13c-.91-1.18-1.47-2.27-1.69-3.26-.23-.99,.19-2.13,1.23-3.41,.39-.47,2.52-1.88,6.4-4.23,3.89-2.37,6.78-4.73,8.7-7.09,4.66-5.73,6.66-11.75,5.96-18.09-.69-6.34-3.69-11.68-8.99-16-4-3.26-8.86-4.77-14.56-4.55-3.03,.17-6.5,.87-10.36,2.15l-12.78,4.27c-7.36,2.46-12.46,3.83-15.36,4.1-4.51,.35-8.47-.85-11.88-3.64-3.8-3.1-5.77-6.71-5.94-10.85-.17-4.12,1.1-7.85,3.78-11.14Z"/>
        </g>
        <g>
          <path class="cls-5" d="M590.96,2310.08l-25.58,56.62,41.2-19.3,15.36-7.1,1.53,1.49-11.15,23.96-7.12,15.28-18.41,39.61c-1.4,3.1-1.71,5.93-.95,8.51,.39,1.46,1.35,3.18,2.87,5.18l-1.79,1.83-19.64-19.16,1.79-1.83c2,1.82,3.68,2.98,5.05,3.52,2.44,.98,4.54,.56,6.34-1.29,.5-.51,1.08-1.27,1.73-2.26,1.19-1.73,2.37-3.9,3.51-6.48l20.37-45.64-50.49,23.15c-1.83,.84-3.03,1.42-3.58,1.74-.55,.3-1.11,.75-1.69,1.34-1.64,1.68-2.01,3.54-1.06,5.54,.62,1.24,2.15,3.08,4.6,5.53l-1.79,1.83-26.5-25.85,1.79-1.83c2.13,2.01,3.93,3.3,5.38,3.85,2.47,.97,5.21,.75,8.21-.58l16.47-7.61,16.59-37.92-50.59,23.23c-1.31,.63-2.34,1.16-3.11,1.6-.77,.44-1.48,.98-2.11,1.63-1.41,1.44-1.63,3.17-.68,5.16,.54,1.1,1.77,2.65,3.68,4.63l-1.79,1.83-24.24-23.65,1.79-1.83c3.06,2.67,6.34,3.59,9.82,2.75,3.48-.84,11.62-4.35,24.36-10.56l30.98-15.06,27.36-13.3,1.5,1.46Z"/>
          <path class="cls-5" d="M688.16,2409.05c-5.82-5.68-12.94-8.13-21.36-7.34-4.83,.44-10.25,2.07-16.25,4.88l-2.27-2.21,23.49-18.2,2.18,2.13c-.66,.93-1.12,1.93-1.43,3.04-.28,1.11,.15,2.22,1.32,3.35,.48,.47,2.95,1.76,7.42,3.85,4.45,2.1,8.22,4.63,11.28,7.61,6.09,5.94,9.4,12.56,9.92,19.85,.52,7.29-1.77,13.54-6.82,18.71-3.77,3.87-8.14,6.16-13.1,6.84-4.97,.62-11.8-.04-20.51-2l-13.92-3.1c-5.2-1.19-9.46-1.6-12.81-1.26-3.29,.29-6.18,1.7-8.66,4.25-2.77,2.83-3.92,6.04-3.48,9.59,.48,3.55,2.06,6.65,4.77,9.29,3.47,3.39,8.22,5.57,14.23,6.53,6.01,.96,12.91-.95,20.71-5.72l2.37,2.31-22.72,18.93-2.03-1.98c.78-1.31,1.22-2.48,1.32-3.52,.11-1.04-.46-2.16-1.68-3.34-.45-.44-2.81-1.65-7.06-3.62-4.26-2-7.51-4.09-9.76-6.29-5.48-5.34-8.26-11.28-8.34-17.83-.08-6.56,2.31-12.33,7.18-17.33,3.67-3.76,8.44-5.84,14.29-6.24,3.11-.15,6.74,.17,10.84,1.06l13.58,2.96c7.81,1.71,13.19,2.55,16.19,2.5,4.65-.14,8.53-1.8,11.67-5.01,3.49-3.58,5.05-7.49,4.7-11.74-.34-4.23-2.1-7.89-5.25-10.97Z"/>
        </g>
      </g>
      <g>
        <g>
          <path class="cls-5" d="M2307.66,614.43c-3.18-3.7-4.76-6.59-4.79-8.59-.02-3.11,2.46-7.3,7.49-12.63l35.89-38.03-7.32,94.33,1.67,1.57,48.52-51.41c4.82-5.11,8.53-7.8,11.12-8.06,2.59-.26,5.92,1.17,10.01,4.3l1.7-1.81-22.94-21.65-1.7,1.81c3.29,3.71,4.98,6.58,5.04,8.62,.07,3.1-2.42,7.32-7.46,12.67l-30.62,32.45,6.39-82.29-16.66-15.72-1.7,1.81c1.94,1.95,3.23,3.61,3.84,4.95,.63,1.34,.87,3.53,.71,6.56l-.15,2.84-40.59,43.01c-4.87,5.17-8.54,7.9-11.01,8.23-2.48,.34-5.94-1.19-10.37-4.59l-1.7,1.81,22.94,21.65,1.7-1.81Z"/>
          <path class="cls-5" d="M2418.73,715.33c-4.51-1.52-10.09-5.42-16.71-11.67-6.11-5.76-9.61-9.41-10.51-10.91-.9-1.5-.43-3.23,1.4-5.16l22.81-24.18,15.07,14.22c4.14,3.9,6.18,7,6.19,9.3-.02,2.31-1.44,5.7-4.28,10.17l2.29,2.16,21.28-22.55-2.29-2.16c-4.24,3.11-7.52,4.73-9.84,4.88-2.29,.15-5.55-1.73-9.71-5.66l-15.07-14.22,20.56-21.79c1.21-1.28,2.2-2,2.97-2.13,.77-.15,1.88,.45,3.32,1.81l13.29,12.54c5.73,5.41,8.8,9.53,9.26,12.35,.48,2.81-.92,6.76-4.16,11.86l2.48,2.34,12.86-14.29-51.88-48.96-1.72,1.82c3.37,3.67,5.09,6.54,5.15,8.59,.04,2.06-1.58,4.83-4.84,8.29l-40.97,43.42c-3.48,3.69-6.17,5.45-8.09,5.35-1.91-.1-4.84-1.66-8.79-4.66l-1.7,1.81,52.79,49.81,20-12.3-2.72-2.56c-7.76,3.19-13.89,4.01-18.42,2.49Z"/>
        </g>
        <g>
          <path class="cls-5" d="M638.71,729.88c-3.67,3.21-6.54,4.82-8.54,4.87-3.1,.05-7.32-2.39-12.7-7.37l-38.37-35.53,94.39,6.43,1.56-1.68-51.87-48.03c-5.15-4.77-7.88-8.45-8.17-11.04-.29-2.59,1.11-5.93,4.2-10.05l-1.82-1.69-21.43,23.15,1.82,1.69c3.68-3.32,6.53-5.04,8.57-5.13,3.1-.1,7.35,2.35,12.74,7.34l32.74,30.31-82.35-5.61-15.56,16.81,1.82,1.69c1.94-1.96,3.58-3.27,4.91-3.89,1.34-.65,3.52-.9,6.55-.77l2.84,.12,43.39,40.18c5.21,4.83,7.98,8.46,8.33,10.93,.37,2.48-1.13,5.95-4.49,10.41l1.82,1.69,21.43-23.14-1.82-1.69Z"/>
          <path class="cls-5" d="M723.48,657.09l-23.47-57.53,40.45,20.82,15.09,7.66,1.58-1.43-10.25-24.36-6.55-15.54-16.93-40.26c-1.28-3.15-1.49-5.99-.63-8.54,.45-1.44,1.47-3.13,3.06-5.07l-1.72-1.9-20.34,18.42,1.72,1.89c2.06-1.75,3.79-2.84,5.17-3.33,2.48-.89,4.56-.39,6.29,1.52,.48,.53,1.03,1.31,1.65,2.32,1.12,1.77,2.22,3.98,3.27,6.61l18.66,46.37-49.6-25.01c-1.8-.91-2.98-1.53-3.52-1.87-.54-.32-1.08-.79-1.64-1.4-1.58-1.74-1.88-3.61-.86-5.57,.66-1.22,2.27-3,4.8-5.36l-1.72-1.89-27.44,24.85,1.72,1.89c2.21-1.93,4.04-3.15,5.52-3.65,2.5-.87,5.24-.56,8.18,.88l16.17,8.22,15.17,38.51-49.69-25.08c-1.28-.68-2.3-1.24-3.05-1.71-.76-.47-1.44-1.04-2.05-1.7-1.35-1.5-1.52-3.23-.49-5.19,.58-1.08,1.87-2.58,3.85-4.49l-1.72-1.89-25.1,22.74,1.72,1.89c3.16-2.55,6.47-3.35,9.91-2.38,3.45,.97,11.45,4.78,23.96,11.46l30.4,16.2,26.85,14.3,1.55-1.4Z"/>
        </g>
      </g>
    </g>
    <g>
      <g>
        <polygon class="cls-5" points="731.21 727.14 695.47 678.11 744.93 713.98 731.21 727.14"/>
        <polygon class="cls-5" points="2315.69 721.44 2351.44 672.41 2301.98 708.27 2315.69 721.44"/>
      </g>
      <polygon class="cls-5" points="685.98 2311.71 647.89 2358.94 699.04 2325.52 685.98 2311.71"/>
      <polygon class="cls-5" points="2344.49 2313.45 2382.5 2360.75 2331.41 2327.24 2344.49 2313.45"/>
    </g>
  </g>
</svg>