<svg id="Lager_2" data-name="Lager 2" xmlns="http://www.w3.org/2000/svg" viewBox="0 0 1846.26 531.1">
  <defs>
    <style>
      .cls-1, .cls-2, .cls-3, .cls-5, .cls-7 {
        fill: none;
      }

      .cls-1, .cls-2, .cls-3, .cls-4, .cls-5, .cls-7 {
        stroke: #000;
        stroke-miterlimit: 10;
      }

      .cls-1 {
        stroke-width: 2px;
      }

      .cls-2 {
        stroke-width: 4px;
      }

      .cls-3 {
        stroke-width: 6px;
      }

      .cls-4, .cls-6 {
        fill: #fff;
      }

      .cls-4, .cls-5 {
        stroke-width: 0.5px;
      }

      .cls-7 {
        stroke-width: 3px;
      }

      .cls-8 {
        font-size: 17px;
      }

      .cls-10, .cls-11, .cls-12, .cls-13, .cls-14, .cls-8 {
        font-family: ArialRoundedMTBold, Arial Rounded MT Bold;
      }

      .cls-9 {
        letter-spacing: -0.01em;
      }

      .cls-10 {
        font-size: 20px;
      }

      .cls-11 {
        font-size: 21px;
      }

      .cls-12 {
        font-size: 18px;
      }

      .cls-13 {
        font-size: 19px;
      }

      .cls-14 {
        font-size: 16px;
      }
    </style>
  </defs>
  <polyline class="cls-1" points="1552.95 176.53 1544.02 133.86 1557.39 131.07"/>
  <polygon class="cls-2" points="242.1 455.08 792.1 529.08 1271.1 449.08 1233.1 205.08 1526.1 184.08 1820.1 124.08 1820.1 2 953.62 2 954.1 117.08 886.1 118.08 886.1 148.08 887.1 209.08 911.1 209.08 911.4 265.08 737.1 292.08 680.1 288.08 679.1 302.08 327.76 265.08 330.1 223.08 25.1 194.08 11.1 329.08 253.1 349.08 242.1 455.08"/>
  <polyline class="cls-1" points="954.1 2.08 879.1 2.08 879.1 114.66 886.27 114.66 886.1 118.08"/>
  <path class="cls-1" d="M925,720a33.58,33.58,0,0,0,61-1" transform="translate(-36.9 -274.92)"/>
  <line class="cls-1" x1="888.1" y1="445.08" x2="878.1" y2="407.08"/>
  <line class="cls-1" x1="907.1" y1="438.08" x2="892.1" y2="392.08"/>
  <line class="cls-1" x1="932.1" y1="433.08" x2="928.1" y2="386.08"/>
  <polyline class="cls-1" points="890.1 449.08 899.1 470.08 949.1 464.12 949.1 444.08 949.1 395.08"/>
  <polyline class="cls-1" points="886.1 148.08 596.1 198.08 597.36 293.47"/>
  <polyline class="cls-1" points="11.1 329.08 1.1 430.08 242.68 449.46"/>
  <line class="cls-1" x1="1310.56" y1="430.24" x2="1268.66" y2="437.69"/>
  <polyline class="cls-1" points="1526.1 184.08 1565.1 385.08 1310.56 430.24"/>
  <line class="cls-1" x1="1814.1" y1="313.08" x2="1799.1" y2="225.08"/>
  <polyline class="cls-1" points="1820.1 124.08 1827.1 122.08 1845.1 215.08 1544.25 277.64"/>
  <polyline class="cls-1" points="1774.1 230.08 1814.1 313.08 1560.75 362.66"/>
  <line class="cls-1" x1="1535.1" y1="232.08" x2="1836.1" y2="169.08"/>
  <line class="cls-1" x1="116.1" y1="338.08" x2="118.1" y2="315.08"/>
  <polyline class="cls-1" points="119.1 306.08 120.1 280.08 16.98 272.33"/>
  <line class="cls-1" x1="146.1" y1="294.08" x2="152.1" y2="206.08"/>
  <polyline class="cls-1" points="164.1 294.08 212.1 297.08 263.1 263.08 267.36 217.11"/>
  <polyline class="cls-1" points="252.1 362.08 338.1 371.08 326.86 466.48"/>
  <line class="cls-1" x1="663.1" y1="411.08" x2="361.1" y2="373.08"/>
  <polyline class="cls-1" points="378.1 448.08 352.1 444.08 361.1 373.08"/>
  <polyline class="cls-1" points="397.83 378.27 388.83 449.27 414.83 453.27"/>
  <polyline class="cls-1" points="436.16 383.56 427.16 454.56 453.16 458.56"/>
  <polyline class="cls-1" points="473.16 387.86 464.16 458.86 490.16 462.86"/>
  <polyline class="cls-1" points="511.33 392.31 502.33 463.31 528.33 467.31"/>
  <polyline class="cls-1" points="549.33 397.86 540.33 468.86 566.33 472.86"/>
  <polyline class="cls-1" points="585.88 402.56 576.88 473.56 602.88 477.56"/>
  <polyline class="cls-1" points="623.17 406.61 614.17 477.61 640.17 481.61"/>
  <line class="cls-1" x1="663.1" y1="411.08" x2="654.1" y2="485.08"/>
  <polyline class="cls-1" points="389.1 376.08 397.1 293.08 623.1 321.08 614.17 404.92"/>
  <polyline class="cls-1" points="395.1 311.08 367.1 309.08 365.1 342.73"/>
  <polyline class="cls-1" points="363.1 373.08 365.1 353.08 391.04 355.88"/>
  <line class="cls-1" x1="509.1" y1="307.08" x2="500.1" y2="390.08"/>
  <polyline class="cls-1" points="638.1 407.08 644.1 353.08 619.69 353.08"/>
  <polyline class="cls-1" points="663.1 411.08 667.1 378.08 640.17 375.68"/>
  <line class="cls-1" x1="638.1" y1="407.08" x2="667.1" y2="378.08"/>
  <line class="cls-1" x1="675.1" y1="444.08" x2="714.1" y2="446.08"/>
  <polyline class="cls-1" points="704.1 517.08 718.1 407.08 806.1 415.08 802.87 462.08 873.32 448.08 885.1 512.08"/>
  <polyline class="cls-1" points="797.1 285.08 807.1 365.08 898.1 351.08"/>
  <polyline class="cls-1" points="807.1 365.08 718.1 380.08 722.1 344.08"/>
  <line class="cls-1" x1="679.1" y1="302.08" x2="679.1" y2="325.08"/>
  <line class="cls-1" x1="730.1" y1="293.08" x2="729.1" y2="329.08"/>
  <line class="cls-1" x1="915.1" y1="348.08" x2="909.1" y2="302.08"/>
  <line class="cls-1" x1="886.1" y1="269.08" x2="909.1" y2="302.08"/>
  <line class="cls-1" x1="947.1" y1="298.08" x2="909.1" y2="302.08"/>
  <line class="cls-1" x1="954.1" y1="259.08" x2="910.1" y2="302.08"/>
  <line class="cls-1" x1="911.1" y1="265.08" x2="954.1" y2="259.08"/>
  <line class="cls-1" x1="966.1" y1="338.08" x2="954.1" y2="259.08"/>
  <line class="cls-1" x1="928.1" y1="345.08" x2="967.1" y2="338.08"/>
  <polyline class="cls-1" points="952.1 244.08 991.1 244.08 991.1 273.16"/>
  <line class="cls-1" x1="952.1" y1="244.08" x2="952.1" y2="259.08"/>
  <polyline class="cls-1" points="952.1 213.08 991.1 213.08 991.1 176.39 940.13 176.39 940.1 186.08 940.1 206.08 940.1 209.82"/>
  <line class="cls-3" x1="885.1" y1="209.08" x2="992.1" y2="209.08"/>
  <line class="cls-1" x1="915.1" y1="183.08" x2="915.1" y2="207.08"/>
  <polyline class="cls-1" points="978.1 154.08 991.1 154.08 991.1 118.08 957.1 154.08"/>
  <line class="cls-1" x1="908.1" y1="154.08" x2="969.1" y2="154.08"/>
  <line class="cls-1" x1="991.1" y1="118.08" x2="956.1" y2="118.08"/>
  <polyline class="cls-1" points="886.1 269.08 886.1 251.08 912.1 251.08"/>
  <polyline class="cls-1" points="991.1 285.08 991.1 306.08 961.86 310.22"/>
  <polyline class="cls-1" points="1033.1 247.08 1177.1 223.08 1177.1 290.08 1045.1 313.08 1039.49 280.58"/>
  <line class="cls-1" x1="1037.1" y1="268.08" x2="1033.1" y2="247.08"/>
  <line class="cls-1" x1="1048.1" y1="339.08" x2="1178.1" y2="317.08"/>
  <line class="cls-1" x1="1105.1" y1="407.08" x2="1094.1" y2="331.08"/>
  <polyline class="cls-1" points="1048.1 339.08 1062.1 414.08 1158.1 396.08 1144.59 322.75"/>
  <polyline class="cls-1" points="1099.1 368.08 1184.55 353.17 1181.56 339.17"/>
  <line class="cls-1" x1="1181.1" y1="332.08" x2="1178.1" y2="317.08"/>
  <polyline class="cls-1" points="1062.1 414.08 997.1 426.08 1009.29 492.8"/>
  <line class="cls-1" x1="1055.1" y1="485.08" x2="1044.1" y2="417.08"/>
  <line class="cls-1" x1="1094.1" y1="428.08" x2="1102.1" y2="476.08"/>
  <line class="cls-1" x1="1129.45" y1="422.02" x2="1137.45" y2="470.02"/>
  <line class="cls-1" x1="1157.53" y1="417.43" x2="1165.53" y2="465.43"/>
  <line class="cls-1" x1="1187.23" y1="412" x2="1195.23" y2="460"/>
  <line class="cls-1" x1="1213.1" y1="407.08" x2="1221.23" y2="456"/>
  <polyline class="cls-1" points="1206.1 377.08 1209.1 392.08 1260.62 381.83"/>
  <polyline class="cls-1" points="1201.05 345.66 1204.05 360.66 1255.58 350.42"/>
  <polyline class="cls-1" points="1250.15 319.88 1198.62 330.12 1195.62 315.12 1195.62 305.92"/>
  <line class="cls-1" x1="1196.1" y1="293.08" x2="1196.1" y2="259.08"/>
  <line class="cls-1" x1="1196.1" y1="270.08" x2="1242.1" y2="262.08"/>
  <line class="cls-1" x1="1196.1" y1="210.08" x2="1196.1" y2="176.08"/>
  <polyline class="cls-1" points="1196.1 167.08 1196.1 159.08 1235.2 159.08 1235.2 204.93 1196.1 210.08 1196.1 245.08"/>
  <line class="cls-1" x1="1235.1" y1="159.08" x2="1263.1" y2="159.08"/>
  <polyline class="cls-1" points="1279.1 202.08 1279.1 159.08 1306.71 159.08"/>
  <polyline class="cls-1" points="1321.94 199.18 1321.94 155.08 1336.1 155.08"/>
  <polyline class="cls-1" points="1350.89 197.34 1350.89 152.08 1365.1 152.08"/>
  <polyline class="cls-1" points="1379.48 195.06 1379.48 151.08 1393.1 151.08"/>
  <polyline class="cls-1" points="1408 193.55 1408 149.57 1421.62 149.57"/>
  <polyline class="cls-1" points="1437.46 191.71 1437.46 147.72 1451.08 147.72"/>
  <polyline class="cls-1" points="1466.62 189.85 1466.62 145.86 1480.24 145.86"/>
  <polyline class="cls-1" points="1496.26 188.44 1493.27 143.47 1503.59 142.78"/>
  <polyline class="cls-1" points="1525.66 182.54 1516.73 139.87 1530.1 137.08"/>
  <polyline class="cls-1" points="1552.95 176.53 1544.02 133.86 1557.39 131.07"/>
  <polyline class="cls-1" points="1582.63 172.65 1573.24 127.77 1586.1 125.08"/>
  <polyline class="cls-1" points="1610.58 167.67 1601.19 122.79 1614.05 120.1"/>
  <polyline class="cls-1" points="1639.02 159.12 1630.09 116.46 1643.46 113.66"/>
  <polyline class="cls-1" points="1668.7 155.24 1659.31 110.36 1672.16 107.67"/>
  <polyline class="cls-1" points="1696.65 150.26 1687.26 105.38 1700.12 102.69"/>
  <polyline class="cls-1" points="1724.92 143.16 1715.53 98.28 1728.39 95.59"/>
  <polyline class="cls-1" points="1754.92 137.16 1745.53 92.28 1758.39 89.59"/>
  <polyline class="cls-1" points="1782.8 131.8 1773.47 87.25 1779.1 86.08"/>
  <line class="cls-1" x1="1790.1" y1="83.08" x2="1821.1" y2="75.08"/>
  <line class="cls-1" x1="1783.1" y1="2.08" x2="1783.1" y2="46.08"/>
  <line class="cls-1" x1="1770.1" y1="45.08" x2="1789.1" y2="45.08"/>
  <line class="cls-1" x1="1754.1" y1="2.08" x2="1754.1" y2="46.08"/>
  <line class="cls-1" x1="1741.1" y1="45.08" x2="1760.1" y2="45.08"/>
  <line class="cls-1" x1="1726.1" y1="2.08" x2="1726.1" y2="46.08"/>
  <line class="cls-1" x1="1713.1" y1="45.08" x2="1732.1" y2="45.08"/>
  <line class="cls-1" x1="1697.1" y1="2.08" x2="1697.1" y2="46.08"/>
  <line class="cls-1" x1="1684.1" y1="45.08" x2="1703.1" y2="45.08"/>
  <line class="cls-1" x1="1668.1" y1="2.08" x2="1668.1" y2="46.08"/>
  <line class="cls-1" x1="1655.1" y1="45.08" x2="1674.1" y2="45.08"/>
  <line class="cls-1" x1="1639.1" y1="2.08" x2="1639.1" y2="46.08"/>
  <line class="cls-1" x1="1626.1" y1="45.08" x2="1645.1" y2="45.08"/>
  <line class="cls-1" x1="1611.1" y1="2.08" x2="1611.1" y2="46.08"/>
  <line class="cls-1" x1="1598.1" y1="45.08" x2="1617.1" y2="45.08"/>
  <line class="cls-1" x1="1582.1" y1="2.08" x2="1582.1" y2="46.08"/>
  <line class="cls-1" x1="1569.1" y1="45.08" x2="1588.1" y2="45.08"/>
  <line class="cls-1" x1="1553.1" y1="2.08" x2="1553.1" y2="46.08"/>
  <line class="cls-1" x1="1540.1" y1="45.08" x2="1559.1" y2="45.08"/>
  <line class="cls-1" x1="1524.1" y1="2.08" x2="1524.1" y2="46.08"/>
  <line class="cls-1" x1="1533.1" y1="45.08" x2="1524.1" y2="45.08"/>
  <line class="cls-1" x1="1800.1" y1="45.08" x2="1820.1" y2="45.08"/>
  <polyline class="cls-1" points="1637.1 62.08 1637.1 91.08 1652.58 91.08"/>
  <polyline class="cls-1" points="1661.1 91.08 1677.1 91.08 1677.1 62.08"/>
  <polyline class="cls-1" points="1540.1 63.08 1540.1 104.08 1588.1 103.36"/>
  <polyline class="cls-1" points="1604.1 104.08 1604.1 63.08 1566.13 63.08"/>
  <line class="cls-1" x1="1539.1" y1="63.08" x2="1557.1" y2="63.08"/>
  <polyline class="cls-1" points="1573.1 63.08 1573.1 76.08 1605.01 76.08"/>
  <line class="cls-1" x1="1573.1" y1="76.08" x2="1604.1" y2="63.08"/>
  <line class="cls-1" x1="1583.1" y1="77.08" x2="1583.1" y2="103.08"/>
  <line class="cls-1" x1="1583.1" y1="89.08" x2="1593.1" y2="89.08"/>
  <polyline class="cls-1" points="1523.1 101.08 1523.1 121.08 1477.69 121.08 1477.69 80.68 1523.41 80.68 1523.41 91.81"/>
  <line class="cls-1" x1="1438.1" y1="3.08" x2="1438.1" y2="47.08"/>
  <line class="cls-1" x1="1425.1" y1="46.08" x2="1444.1" y2="46.08"/>
  <line class="cls-1" x1="1409.1" y1="3.08" x2="1409.1" y2="47.08"/>
  <line class="cls-1" x1="1396.1" y1="46.08" x2="1415.1" y2="46.08"/>
  <line class="cls-1" x1="1381.1" y1="3.08" x2="1381.1" y2="47.08"/>
  <line class="cls-1" x1="1368.1" y1="46.08" x2="1387.1" y2="46.08"/>
  <line class="cls-1" x1="1352.1" y1="3.08" x2="1352.1" y2="47.08"/>
  <line class="cls-1" x1="1339.1" y1="46.08" x2="1358.1" y2="46.08"/>
  <line class="cls-1" x1="1323.1" y1="3.08" x2="1323.1" y2="47.08"/>
  <line class="cls-1" x1="1310.1" y1="46.08" x2="1329.1" y2="46.08"/>
  <line class="cls-1" x1="1295.1" y1="4.08" x2="1295.1" y2="48.08"/>
  <line class="cls-1" x1="1282.1" y1="47.08" x2="1301.1" y2="47.08"/>
  <line class="cls-1" x1="1266.1" y1="4.08" x2="1266.1" y2="48.08"/>
  <line class="cls-1" x1="1253.1" y1="47.08" x2="1272.1" y2="47.08"/>
  <line class="cls-1" x1="1467.1" y1="3.08" x2="1467.1" y2="47.08"/>
  <line class="cls-1" x1="1454.1" y1="46.08" x2="1473.1" y2="46.08"/>
  <line class="cls-1" x1="1237.1" y1="4.08" x2="1237.1" y2="55.08"/>
  <line class="cls-1" x1="1208.1" y1="55.08" x2="1238.1" y2="55.08"/>
  <line class="cls-1" x1="1180.1" y1="55.08" x2="1199.1" y2="55.08"/>
  <line class="cls-1" x1="1153.1" y1="55.08" x2="1172.1" y2="55.08"/>
  <line class="cls-1" x1="1114.1" y1="55.08" x2="1145.1" y2="55.08"/>
  <line class="cls-1" x1="1087.1" y1="55.08" x2="1106.1" y2="55.08"/>
  <line class="cls-1" x1="1060.1" y1="55.08" x2="1079.1" y2="55.08"/>
  <line class="cls-1" x1="1019.1" y1="55.08" x2="1052.1" y2="55.08"/>
  <line class="cls-1" x1="1001.1" y1="55.08" x2="1011.1" y2="55.08"/>
  <line class="cls-1" x1="1001.1" y1="4.08" x2="1001.1" y2="75.08"/>
  <line class="cls-1" x1="1044.1" y1="4.08" x2="1044.1" y2="56.08"/>
  <line class="cls-1" x1="1071.1" y1="4.08" x2="1071.1" y2="56.08"/>
  <line class="cls-1" x1="1098.1" y1="4.08" x2="1098.1" y2="56.08"/>
  <line class="cls-1" x1="1137.1" y1="4.08" x2="1137.1" y2="56.08"/>
  <line class="cls-1" x1="1164.1" y1="4.08" x2="1164.1" y2="56.08"/>
  <line class="cls-1" x1="1191.1" y1="4.08" x2="1191.1" y2="56.08"/>
  <polyline class="cls-1" points="1033.1 247.08 1022.45 182.03 1034.1 180.08"/>
  <line class="cls-1" x1="1048.1" y1="178.08" x2="1094.1" y2="171.08"/>
  <line class="cls-1" x1="1105.1" y1="169.08" x2="1145.1" y2="163.08"/>
  <polyline class="cls-1" points="1177.1 223.08 1169.1 159.08 1156.1 161.08"/>
  <line class="cls-1" x1="1118.1" y1="167.08" x2="1127.1" y2="231.08"/>
  <polyline class="cls-1" points="1086.1 74.08 1086.1 106.08 1125.16 106.08 1125.1 122.77"/>
  <line class="cls-1" x1="1125.1" y1="106.08" x2="1125.1" y2="74.08"/>
  <line class="cls-1" x1="1101.1" y1="130.08" x2="1125.1" y2="106.08"/>
  <line class="cls-1" x1="1101.1" y1="123.08" x2="1101.1" y2="105.08"/>
  <path class="cls-1" d="M843,694c34.06,1,33,36,33,36" transform="translate(-36.9 -274.92)"/>
  <polyline class="cls-1" points="1001.1 88.08 1001.1 91.08 1007.7 91.08 1019.1 154.08"/>
  <polyline class="cls-1" points="1062.04 74.08 1044.1 74.08 1044.1 116.08 1052.1 116.08 1052.1 123.19 1100.86 123.19 1100.86 130.13 1125.1 130.13 1125.1 122.77 1169.1 123.08 1168.57 74.08 1112.14 74.08"/>
  <line class="cls-1" x1="1071.1" y1="74.08" x2="1104.1" y2="74.08"/>
  <line class="cls-1" x1="997.1" y1="426.08" x2="988.1" y2="365.08"/>
  <line class="cls-1" x1="1056.1" y1="382.08" x2="993.1" y2="396.08"/>
  <line class="cls-1" x1="1029.1" y1="389.08" x2="1034.1" y2="419.08"/>
  <line class="cls-1" x1="1056.1" y1="382.08" x2="1034.1" y2="419.08"/>
  <line class="cls-1" x1="1016.1" y1="391.08" x2="1011.33" y2="360.28"/>
  <line class="cls-1" x1="997.1" y1="364.08" x2="988.1" y2="366.08"/>
  <polyline class="cls-1" points="1002.33 362.78 1012.1 361.08 1031.6 357.47"/>
  <line class="cls-1" x1="1051.1" y1="354.08" x2="1039.1" y2="356.08"/>
  <line class="cls-1" x1="1047.1" y1="434.08" x2="1080.1" y2="430.08"/>
  <line class="cls-1" x1="1087.63" y1="428.68" x2="1115.1" y2="424.08"/>
  <line class="cls-1" x1="1121.39" y1="422.98" x2="1146.1" y2="419.08"/>
  <line class="cls-1" x1="1152.77" y1="417.63" x2="1173.1" y2="414.08"/>
  <line class="cls-1" x1="1180.1" y1="413.08" x2="1197.1" y2="410.08"/>
  <line class="cls-1" x1="1207.1" y1="408.08" x2="1214.04" y2="406.79"/>
  <line class="cls-4" x1="892.1" y1="393.08" x2="928.1" y2="388.08"/>
  <line class="cls-4" x1="891.95" y1="394.24" x2="927.95" y2="389.24"/>
  <line class="cls-4" x1="894.24" y1="394.99" x2="929.54" y2="390.08"/>
  <line class="cls-4" x1="894.1" y1="396.11" x2="929.4" y2="391.21"/>
  <line class="cls-4" x1="894.38" y1="397.4" x2="928.11" y2="392.58"/>
  <line class="cls-4" x1="893.12" y1="398.65" x2="928.62" y2="393.72"/>
  <line class="cls-4" x1="892.98" y1="399.81" x2="928.48" y2="394.88"/>
  <line class="cls-4" x1="895.24" y1="400.57" x2="930.05" y2="395.73"/>
  <line class="cls-4" x1="895.1" y1="401.69" x2="929.91" y2="396.86"/>
  <line class="cls-4" x1="895.38" y1="402.98" x2="928.64" y2="398.23"/>
  <line class="cls-4" x1="895.09" y1="403.97" x2="928.76" y2="399.3"/>
  <line class="cls-4" x1="894.96" y1="405.13" x2="928.63" y2="400.45"/>
  <line class="cls-4" x1="897.11" y1="405.9" x2="930.13" y2="401.32"/>
  <line class="cls-4" x1="896.99" y1="407.02" x2="930.01" y2="402.44"/>
  <line class="cls-4" x1="897.27" y1="408.31" x2="928.81" y2="403.8"/>
  <line class="cls-4" x1="898.11" y1="409.25" x2="929.22" y2="404.93"/>
  <line class="cls-4" x1="898" y1="410.41" x2="929.12" y2="406.09"/>
  <line class="cls-4" x1="897.6" y1="411.58" x2="930.51" y2="406.96"/>
  <line class="cls-4" x1="898.6" y1="412.58" x2="930.41" y2="408.08"/>
  <line class="cls-4" x1="898.6" y1="413.58" x2="929.32" y2="409.43"/>
  <line class="cls-4" x1="897.86" y1="414.74" x2="929.4" y2="410.24"/>
  <line class="cls-4" x1="898.7" y1="415.69" x2="929.81" y2="411.37"/>
  <line class="cls-4" x1="898.59" y1="416.85" x2="929.71" y2="412.52"/>
  <line class="cls-4" x1="898.19" y1="418.01" x2="931.1" y2="413.4"/>
  <line class="cls-4" x1="899.19" y1="419.01" x2="931" y2="414.52"/>
  <line class="cls-4" x1="899.19" y1="420.01" x2="929.91" y2="415.87"/>
  <line class="cls-4" x1="900.44" y1="420.89" x2="931.99" y2="416.38"/>
  <line class="cls-4" x1="901.28" y1="421.83" x2="931.6" y2="417.58"/>
  <line class="cls-4" x1="901.17" y1="422.99" x2="931.6" y2="418.58"/>
  <line class="cls-4" x1="900.77" y1="424.16" x2="931.6" y2="419.58"/>
  <line class="cls-4" x1="902.63" y1="424.79" x2="931.56" y2="420.37"/>
  <line class="cls-4" x1="902.6" y1="426.58" x2="932.49" y2="422.01"/>
  <line class="cls-4" x1="902.6" y1="427.58" x2="931.79" y2="422.89"/>
  <line class="cls-4" x1="903.6" y1="428.58" x2="932.22" y2="424.18"/>
  <line class="cls-4" x1="903.6" y1="429.58" x2="932.12" y2="425.34"/>
  <line class="cls-4" x1="903.6" y1="430.58" x2="932.6" y2="426.58"/>
  <line class="cls-4" x1="904.6" y1="431.58" x2="932.6" y2="427.58"/>
  <line class="cls-4" x1="904.6" y1="432.58" x2="932.32" y2="428.68"/>
  <line class="cls-4" x1="904.6" y1="433.58" x2="932.6" y2="429.58"/>
  <line class="cls-4" x1="904.6" y1="434.58" x2="932.6" y2="430.58"/>
  <line class="cls-4" x1="905.6" y1="435.58" x2="932.6" y2="431.58"/>
  <line class="cls-4" x1="905.6" y1="436.58" x2="932.6" y2="432.58"/>
  <line class="cls-4" x1="903.31" y1="425.61" x2="932.25" y2="421.19"/>
  <line class="cls-5" x1="878.1" y1="408.08" x2="892.1" y2="393.08"/>
  <line class="cls-5" x1="878.1" y1="409.08" x2="892.1" y2="394.08"/>
  <line class="cls-5" x1="879.1" y1="409.08" x2="893.1" y2="394.08"/>
  <line class="cls-5" x1="879.1" y1="410.08" x2="893.1" y2="395.08"/>
  <line class="cls-5" x1="879.22" y1="411.19" x2="893.22" y2="396.19"/>
  <line class="cls-5" x1="879.22" y1="412.19" x2="893.22" y2="397.19"/>
  <line class="cls-5" x1="880.22" y1="412.19" x2="894.22" y2="397.19"/>
  <line class="cls-5" x1="880.22" y1="413.19" x2="894.22" y2="398.19"/>
  <line class="cls-5" x1="880.22" y1="414.19" x2="894.22" y2="399.19"/>
  <line class="cls-5" x1="880.22" y1="415.19" x2="894.22" y2="400.19"/>
  <line class="cls-5" x1="881.22" y1="415.19" x2="895.22" y2="400.19"/>
  <line class="cls-5" x1="881.22" y1="416.19" x2="895.22" y2="401.19"/>
  <line class="cls-6" x1="137.1" y1="293.08" x2="154.1" y2="294.08"/>
  <polyline class="cls-7" points="1235.6 68.58 1235.6 138.58 1279.1 138.58"/>
  <line class="cls-7" x1="1235.1" y1="69.08" x2="1279.1" y2="69.08"/>
  <polyline class="cls-7" points="1294.6 68.58 1324.6 68.58 1324.6 62.7 1350.89 62.7 1350.89 69.66"/>
  <polyline class="cls-7" points="1294.6 138.58 1351.6 138.58 1351.6 130.13"/>
  <polyline class="cls-7" points="1351.6 116.58 1351.6 102.58 1324.6 102.58"/>
  <line class="cls-7" x1="1350.6" y1="90.58" x2="1350.6" y2="82.58"/>
  <line class="cls-7" x1="1324.6" y1="68.58" x2="1324.6" y2="138.58"/>
  <line class="cls-7" x1="1294.6" y1="139.58" x2="1294.6" y2="67.58"/>
  <line class="cls-7" x1="1324.6" y1="68.58" x2="1294.6" y2="138.58"/>
  <line class="cls-7" x1="1350.6" y1="88.58" x2="1325.6" y2="88.58"/>
  <polyline class="cls-1" points="1379.1 130.08 1446.1 130.08 1446.1 107.24"/>
  <polyline class="cls-1" points="1407.1 130.08 1407.1 64.08 1368.6 64.11 1368.6 64.58 1368.6 130.58"/>
  <polyline class="cls-1" points="1407.1 71.08 1446.1 71.08 1446.1 98.61 1446.1 99.5 1446.1 64.08 1446.1 63.27"/>
  <line class="cls-7" x1="1466.6" y1="63.58" x2="1523.6" y2="63.58"/>
  <line class="cls-1" x1="1636.6" y1="71.58" x2="1676.6" y2="71.58"/>
  <line class="cls-1" x1="715.1" y1="433.08" x2="684.1" y2="430.08"/>
  <polyline class="cls-1" points="718.1 407.08 688.1 405.08 686.1 418.08"/>
  <polyline class="cls-1" points="338.1 371.08 341.1 347.08 276.1 340.08 273 364.26"/>
  <line class="cls-1" x1="273.1" y1="364.08" x2="308.1" y2="344.08"/>
  <line class="cls-1" x1="305.1" y1="367.08" x2="308.1" y2="344.08"/>
  <line class="cls-7" x1="253.1" y1="349.08" x2="275.1" y2="351.08"/>
  <line class="cls-7" x1="259.6" y1="300.58" x2="253.6" y2="349.58"/>
  <line class="cls-7" x1="261.6" y1="284.58" x2="267.6" y2="217.58"/>
  <line class="cls-1" x1="262.1" y1="278.08" x2="297.1" y2="281.08"/>
  <line class="cls-1" x1="266.1" y1="251.08" x2="309.1" y2="255.08"/>
  <polyline class="cls-1" points="292.1 342.08 295.1 309.08 318.1 310.08 314.1 343.08"/>
  <line class="cls-1" x1="276.1" y1="340.08" x2="277.6" y2="305.58"/>
  <line class="cls-1" x1="258.1" y1="301.08" x2="278.1" y2="307.08"/>
  <g id="bakgrund">
    <polygon id="K2516" class="cls-6" points="399.84 379.72 390.75 448.37 425.43 453.37 433.84 383.72 399.84 379.72"/>
    <polygon id="K2517" class="cls-6" points="437.49 384.07 428.32 453.31 463 458.31 471.49 388.06 437.49 384.07"/>
    <polygon id="K2524" class="cls-6" points="474.89 388.51 465.81 457.16 500.48 462.16 508.89 392.51 474.89 388.51"/>
    <polygon id="K2525" class="cls-6" points="512.54 392.86 503.38 462.1 538.05 467.11 546.54 396.85 512.54 392.86"/>
    <polygon id="K2526" class="cls-6" points="550.42 398.23 541.26 467.43 575.94 472.44 584.42 402.22 550.42 398.23"/>
    <polygon id="K2527" class="cls-6" points="586.69 402.39 577.45 472.19 613.51 477.38 622.04 406.56 586.69 402.39"/>
    <polygon id="K2528" class="cls-6" points="624.32 407.12 615.08 476.91 653.29 482.39 661.77 411.56 624.32 407.12"/>
    <polygon id="K2509_musik" class="cls-6" points="398.1 295.08 507.1 308.08 498.45 388.51 390.75 375.08 398.1 295.08"/>
    <polygon id="K51" class="cls-6" points="508.92 308.61 622.48 322.15 613.74 403.71 501.54 389.73 508.92 308.61"/>
    <polygon class="cls-6" points="731.1 294.08 731.1 329.08 738.04 329.08 738.04 348.88 723.13 348.88 719.1 378.08 806.1 364.08 795.1 286.08 737.1 295.08 731.1 294.08"/>
    <polygon id="K4504" class="cls-6" points="797.8 284.89 887.71 271.46 909.33 302.92 915.42 346.63 807.94 364.17 797.8 284.89"/>
    <polygon id="K501" class="cls-6" points="1048.85 340.32 1063.18 413 1104.72 405.4 1093.12 332.7 1048.85 340.32"/>
    <polygon id="K502" class="cls-6" points="1095.1 332.08 1144.1 324.08 1150.1 358.08 1100.1 367.08 1095.1 332.08"/>
    <polygon id="K4507" class="cls-6" points="1034.04 248.28 1046.24 312.36 1176.22 289.2 1176.11 224.74 1034.04 248.28"/>
    <polygon id="K505" class="cls-6" points="1197.1 160.08 1234.1 160.08 1234.1 203.5 1197.1 208.99 1197.1 160.08"/>
    <path class="cls-6" d="M1229,429" transform="translate(-36.9 -274.92)"/>
    <polygon id="K52_bild" class="cls-6" points="719.1 409.08 706.1 515.08 792.1 527.08 883.1 511.25 872.1 450.08 801.49 464.12 804.45 415.71 719.1 409.08"/>
    <polygon id="K2511_musik" class="cls-6" points="335.54 372.17 253.97 363.91 244.66 453.92 325.41 465.06 335.54 372.17"/>
    <polygon id="K2515" class="cls-6" points="362.19 374.35 353.1 443.07 387.78 448.08 396.19 378.34 362.19 374.35"/>
  </g>
  <g id="text">
    <text class="cls-8" transform="translate(421.76 336.06) rotate(6)"><tspan xml:space="preserve">K2509   </tspan><tspan x="0" y="20.4">_</tspan><tspan class="cls-9" x="8.5" y="20.4">m</tspan><tspan x="23.32" y="20.4">usik</tspan></text>
    <text class="cls-10" transform="translate(541.53 364.23) rotate(6)">K51</text>
    <text class="cls-8" transform="translate(411.72 389.4) rotate(98)">K2516</text>
    <text class="cls-8" transform="translate(449.19 393.23) rotate(98)">K2517</text>
    <text class="cls-8" transform="translate(486.82 399.21) rotate(98)">K2524</text>
    <text class="cls-8" transform="translate(525.11 403.47) rotate(98)">K2525</text>
    <text class="cls-8" transform="translate(562.47 407.95) rotate(98)">K2526</text>
    <text class="cls-8" transform="translate(598.2 412.89) rotate(98)">K2527</text>
    <text class="cls-8" transform="translate(636.59 417.74) rotate(98)">K2528</text>
    <text class="cls-11" transform="translate(742.69 495.3) rotate(5)">K52_bild</text>
    <text class="cls-10" transform="translate(825.78 330.93) rotate(-8)">K4504</text>
    <text class="cls-10" transform="translate(1078.71 278.12) rotate(-8)">K4507</text>
    <text class="cls-8" transform="translate(1210.09 161.78) rotate(88)">K505</text>
    <text class="cls-12" transform="translate(1100.83 356.65) rotate(-8)">K502</text>
    <text class="cls-13" transform="translate(1066.25 349.96) rotate(79)">K501</text>
    <text class="cls-14" transform="translate(264.73 404.72) rotate(6)"><tspan xml:space="preserve">K2511   </tspan><tspan x="0" y="19.2">_</tspan><tspan class="cls-9" x="8" y="19.2">m</tspan><tspan x="21.95" y="19.2">usik</tspan></text>
    <text class="cls-8" transform="translate(373.59 384.47) rotate(98)">K2515</text>
  </g>
</svg>
