<svg id="Lager_1" data-name="Lager 1" xmlns="http://www.w3.org/2000/svg" viewBox="0 0 1846.26 531.1">
  <defs>
    <style>
      .cls-1, .cls-2, .cls-3, .cls-4, .cls-6 {
        fill: none;
      }

      .cls-1, .cls-2, .cls-3, .cls-4, .cls-5, .cls-6 {
        stroke: #000;
        stroke-miterlimit: 10;
      }

      .cls-1 {
        stroke-width: 2px;
      }

      .cls-2 {
        stroke-width: 4px;
      }

      .cls-3 {
        stroke-width: 6px;
      }

      .cls-4 {
        stroke-width: 3px;
      }

      .cls-5, .cls-7 {
        fill: #fff;
      }

      .cls-5, .cls-6 {
        stroke-width: 0.5px;
      }

      .cls-8 {
        font-size: 16px;
      }

      .cls-10, .cls-8, .cls-9 {
        font-family: ArialRoundedMTBold, Arial Rounded MT Bold;
      }

      .cls-9 {
        font-size: 17px;
      }

      .cls-10 {
        font-size: 21px;
      }
    </style>
  </defs>
  <polyline class="cls-1" points="1552.95 176.53 1544.02 133.86 1557.39 131.07"/>
  <polygon class="cls-2" points="242.1 455.08 792.1 529.08 1271.1 449.08 1233.1 205.08 1526.1 184.08 1820.1 124.08 1820.1 2 953.62 2 954.1 117.08 886.1 118.08 886.1 148.08 887.1 209.08 911.1 209.08 911.4 265.08 737.1 292.08 680.1 288.08 679.1 302.08 327.76 265.08 330.1 223.08 25.1 194.08 11.1 329.08 253.1 349.08 242.1 455.08"/>
  <polyline class="cls-1" points="954.1 2.08 879.1 2.08 879.1 114.66 886.27 114.66 886.1 118.08"/>
  <path class="cls-1" d="M933.34,767a33.58,33.58,0,0,0,61-1" transform="translate(-45.25 -321.89)"/>
  <line class="cls-1" x1="888.1" y1="445.08" x2="878.1" y2="407.08"/>
  <line class="cls-1" x1="907.1" y1="438.08" x2="892.1" y2="392.08"/>
  <line class="cls-1" x1="932.1" y1="433.08" x2="928.1" y2="386.08"/>
  <polyline class="cls-1" points="890.1 449.08 899.1 470.08 949.1 464.12 949.1 444.08 949.1 395.08"/>
  <polyline class="cls-1" points="886.1 148.08 596.1 198.08 597.36 293.47"/>
  <polyline class="cls-1" points="11.1 329.08 1.1 430.08 242.68 449.46"/>
  <line class="cls-1" x1="1310.56" y1="430.24" x2="1268.66" y2="437.69"/>
  <polyline class="cls-1" points="1526.1 184.08 1565.1 385.08 1310.56 430.24"/>
  <line class="cls-1" x1="1814.1" y1="313.08" x2="1799.1" y2="225.08"/>
  <polyline class="cls-1" points="1820.1 124.08 1827.1 122.08 1845.1 215.08 1544.25 277.64"/>
  <polyline class="cls-1" points="1774.1 230.08 1814.1 313.08 1560.75 362.66"/>
  <line class="cls-1" x1="1535.1" y1="232.08" x2="1836.1" y2="169.08"/>
  <line class="cls-1" x1="116.1" y1="338.08" x2="118.1" y2="315.08"/>
  <polyline class="cls-1" points="119.1 306.08 120.1 280.08 16.98 272.33"/>
  <line class="cls-1" x1="146.1" y1="294.08" x2="152.1" y2="206.08"/>
  <polyline class="cls-1" points="164.1 294.08 212.1 297.08 263.1 263.08 267.36 217.11"/>
  <polyline class="cls-1" points="252.1 362.08 338.1 371.08 326.86 466.48"/>
  <line class="cls-1" x1="663.1" y1="411.08" x2="361.1" y2="373.08"/>
  <polyline class="cls-1" points="361.79 445.31 353.09 443.69 360.5 373.2 365.37 323.4"/>
  <polyline class="cls-1" points="399.97 378.37 392.49 449.54 416.22 452.74"/>
  <polyline class="cls-1" points="435.6 382.45 428.32 454.85 455.65 458.31"/>
  <polyline class="cls-1" points="519.03 393.9 511.55 465.08 529.07 467.62"/>
  <polyline class="cls-1" points="548.58 397.73 541.1 468.91 567.18 472.35"/>
  <polyline class="cls-1" points="632.29 407.76 623.29 478.76 640.17 481.61"/>
  <line class="cls-1" x1="509.1" y1="307.08" x2="500.1" y2="390.08"/>
  <polyline class="cls-1" points="663.1 411.08 667.1 378.08 640.17 375.68"/>
  <line class="cls-1" x1="638.1" y1="407.08" x2="667.1" y2="378.08"/>
  <line class="cls-1" x1="675.55" y1="441.49" x2="714.1" y2="446.08"/>
  <polyline class="cls-1" points="704.1 517.08 718.1 407.08 806.1 415.08 802.87 462.08 873.32 448.08 885.1 512.08"/>
  <polyline class="cls-1" points="797.1 285.08 807.1 365.08 857.93 356.1"/>
  <polyline class="cls-1" points="807.1 365.08 718.1 380.08 722.1 344.08"/>
  <line class="cls-1" x1="679.1" y1="302.08" x2="679.1" y2="325.08"/>
  <line class="cls-1" x1="730.1" y1="293.08" x2="729.1" y2="329.08"/>
  <line class="cls-1" x1="911.1" y1="265.08" x2="1002.94" y2="251.55"/>
  <line class="cls-1" x1="966.1" y1="338.08" x2="957.84" y2="283.74"/>
  <line class="cls-1" x1="941.33" y1="342.7" x2="967.1" y2="338.08"/>
  <polyline class="cls-1" points="952.1 209.08 991.1 209.08 991.1 176.39 940.13 176.39 940.1 185.02 940.1 202.85 940.1 206.18"/>
  <line class="cls-3" x1="885.1" y1="209.08" x2="992.1" y2="209.08"/>
  <line class="cls-1" x1="915.1" y1="183.08" x2="915.1" y2="207.08"/>
  <polyline class="cls-1" points="978.1 154.08 991.1 154.08 991.1 118.08 957.1 154.08"/>
  <line class="cls-1" x1="908.1" y1="154.08" x2="969.1" y2="154.08"/>
  <line class="cls-1" x1="991.1" y1="118.08" x2="956.1" y2="118.08"/>
  <polyline class="cls-1" points="886.1 269.08 886.1 251.08 912.1 251.08"/>
  <polyline class="cls-1" points="1015.49 391.24 973.69 398.96 991.56 496.14"/>
  <line class="cls-1" x1="1078.84" y1="479.84" x2="1071.6" y2="435.1"/>
  <line class="cls-1" x1="1196.1" y1="270.08" x2="1242.1" y2="262.08"/>
  <polyline class="cls-4" points="1516.77 184.08 1516.77 134.35 1530.42 134.35"/>
  <polyline class="cls-1" points="1552.95 176.53 1544.02 133.86 1557.39 131.07"/>
  <polyline class="cls-1" points="1582.63 172.65 1573.24 127.77 1586.1 125.08"/>
  <polyline class="cls-1" points="1610.58 167.67 1601.19 122.79 1614.05 120.1"/>
  <polyline class="cls-1" points="1639.02 159.12 1630.09 116.46 1643.46 113.66"/>
  <polyline class="cls-1" points="1668.7 155.24 1659.31 110.36 1672.16 107.67"/>
  <polyline class="cls-1" points="1696.65 150.26 1687.26 105.38 1700.12 102.69"/>
  <polyline class="cls-1" points="1724.92 143.16 1715.53 98.28 1728.39 95.59"/>
  <polyline class="cls-1" points="1750.49 137.45 1741.08 92.51 1760.1 88.53"/>
  <polyline class="cls-1" points="1772.25 77.77 1772.25 68.74 1820.1 68.74"/>
  <line class="cls-1" x1="1766.25" y1="2.08" x2="1766.25" y2="46.08"/>
  <polyline class="cls-1" points="1753.25 45.08 1772.25 45.08 1772.25 52.62"/>
  <line class="cls-1" x1="1726.1" y1="2.08" x2="1726.1" y2="46.08"/>
  <line class="cls-1" x1="1713.1" y1="45.08" x2="1732.1" y2="45.08"/>
  <line class="cls-1" x1="1697.1" y1="2.08" x2="1697.1" y2="46.08"/>
  <line class="cls-1" x1="1684.1" y1="45.08" x2="1703.1" y2="45.08"/>
  <line class="cls-1" x1="1668.1" y1="2.08" x2="1668.1" y2="46.08"/>
  <line class="cls-1" x1="1655.1" y1="45.08" x2="1674.1" y2="45.08"/>
  <line class="cls-1" x1="1639.1" y1="2.08" x2="1639.1" y2="46.08"/>
  <line class="cls-1" x1="1626.1" y1="45.08" x2="1645.1" y2="45.08"/>
  <line class="cls-1" x1="1611.1" y1="2.08" x2="1611.1" y2="46.08"/>
  <line class="cls-1" x1="1598.1" y1="45.08" x2="1617.1" y2="45.08"/>
  <line class="cls-1" x1="1582.1" y1="2.08" x2="1582.1" y2="46.08"/>
  <line class="cls-1" x1="1569.1" y1="45.08" x2="1588.1" y2="45.08"/>
  <line class="cls-1" x1="1553.1" y1="2.08" x2="1553.1" y2="46.08"/>
  <line class="cls-1" x1="1540.1" y1="45.08" x2="1559.1" y2="45.08"/>
  <line class="cls-1" x1="1520.1" y1="2.08" x2="1520.1" y2="46.08"/>
  <line class="cls-1" x1="1529.1" y1="45.08" x2="1520.1" y2="45.08"/>
  <line class="cls-1" x1="1409.1" y1="3.08" x2="1409.1" y2="47.08"/>
  <line class="cls-1" x1="1295.1" y1="4.08" x2="1295.1" y2="48.08"/>
  <line class="cls-1" x1="1467.1" y1="3.08" x2="1467.1" y2="47.08"/>
  <polyline class="cls-1" points="1032.46 248.28 1032.46 155.94 1039.74 155.88"/>
  <polyline class="cls-1" points="1112.88 155.88 1149.82 155.92 1150.14 158.53 1156.46 225.89"/>
  <line class="cls-1" x1="1091.3" y1="155.88" x2="1100.34" y2="235.72"/>
  <path class="cls-1" d="M851.34,741c34.06,1,33,36,33,36" transform="translate(-45.25 -321.89)"/>
  <line class="cls-1" x1="1058.67" y1="352.48" x2="1010.83" y2="360.79"/>
  <line class="cls-5" x1="892.1" y1="393.08" x2="928.1" y2="388.08"/>
  <line class="cls-5" x1="891.95" y1="394.24" x2="927.95" y2="389.24"/>
  <line class="cls-5" x1="894.24" y1="394.99" x2="929.54" y2="390.08"/>
  <line class="cls-5" x1="894.1" y1="396.11" x2="929.4" y2="391.21"/>
  <line class="cls-5" x1="894.38" y1="397.4" x2="928.11" y2="392.58"/>
  <line class="cls-5" x1="893.12" y1="398.65" x2="928.62" y2="393.72"/>
  <line class="cls-5" x1="892.98" y1="399.81" x2="928.48" y2="394.88"/>
  <line class="cls-5" x1="895.24" y1="400.57" x2="930.05" y2="395.73"/>
  <line class="cls-5" x1="895.1" y1="401.69" x2="929.91" y2="396.86"/>
  <line class="cls-5" x1="895.38" y1="402.98" x2="928.64" y2="398.23"/>
  <line class="cls-5" x1="895.09" y1="403.97" x2="928.76" y2="399.3"/>
  <line class="cls-5" x1="894.96" y1="405.13" x2="928.63" y2="400.45"/>
  <line class="cls-5" x1="897.11" y1="405.9" x2="930.13" y2="401.32"/>
  <line class="cls-5" x1="896.99" y1="407.02" x2="930.01" y2="402.44"/>
  <line class="cls-5" x1="897.27" y1="408.31" x2="928.81" y2="403.8"/>
  <line class="cls-5" x1="898.11" y1="409.25" x2="929.22" y2="404.93"/>
  <line class="cls-5" x1="898" y1="410.41" x2="929.12" y2="406.09"/>
  <line class="cls-5" x1="897.6" y1="411.58" x2="930.51" y2="406.96"/>
  <line class="cls-5" x1="898.6" y1="412.58" x2="930.41" y2="408.08"/>
  <line class="cls-5" x1="898.6" y1="413.58" x2="929.32" y2="409.43"/>
  <line class="cls-5" x1="897.86" y1="414.74" x2="929.4" y2="410.24"/>
  <line class="cls-5" x1="898.7" y1="415.69" x2="929.81" y2="411.37"/>
  <line class="cls-5" x1="898.59" y1="416.85" x2="929.71" y2="412.52"/>
  <line class="cls-5" x1="898.19" y1="418.01" x2="931.1" y2="413.4"/>
  <line class="cls-5" x1="899.19" y1="419.01" x2="931" y2="414.52"/>
  <line class="cls-5" x1="899.19" y1="420.01" x2="929.91" y2="415.87"/>
  <line class="cls-5" x1="900.44" y1="420.89" x2="931.99" y2="416.38"/>
  <line class="cls-5" x1="901.28" y1="421.83" x2="931.6" y2="417.58"/>
  <line class="cls-5" x1="901.17" y1="422.99" x2="931.6" y2="418.58"/>
  <line class="cls-5" x1="900.77" y1="424.16" x2="931.6" y2="419.58"/>
  <line class="cls-5" x1="902.63" y1="424.79" x2="931.56" y2="420.37"/>
  <line class="cls-5" x1="902.6" y1="426.58" x2="932.49" y2="422.01"/>
  <line class="cls-5" x1="902.6" y1="427.58" x2="931.79" y2="422.89"/>
  <line class="cls-5" x1="903.6" y1="428.58" x2="932.22" y2="424.18"/>
  <line class="cls-5" x1="903.6" y1="429.58" x2="932.12" y2="425.34"/>
  <line class="cls-5" x1="903.6" y1="430.58" x2="932.6" y2="426.58"/>
  <line class="cls-5" x1="904.6" y1="431.58" x2="932.6" y2="427.58"/>
  <line class="cls-5" x1="904.6" y1="432.58" x2="932.32" y2="428.68"/>
  <line class="cls-5" x1="904.6" y1="433.58" x2="932.6" y2="429.58"/>
  <line class="cls-5" x1="904.6" y1="434.58" x2="932.6" y2="430.58"/>
  <line class="cls-5" x1="905.6" y1="435.58" x2="932.6" y2="431.58"/>
  <line class="cls-5" x1="905.6" y1="436.58" x2="932.6" y2="432.58"/>
  <line class="cls-5" x1="903.31" y1="425.61" x2="932.25" y2="421.19"/>
  <line class="cls-6" x1="878.1" y1="408.08" x2="892.1" y2="393.08"/>
  <line class="cls-6" x1="878.1" y1="409.08" x2="892.1" y2="394.08"/>
  <line class="cls-6" x1="879.1" y1="409.08" x2="893.1" y2="394.08"/>
  <line class="cls-6" x1="879.1" y1="410.08" x2="893.1" y2="395.08"/>
  <line class="cls-6" x1="879.22" y1="411.19" x2="893.22" y2="396.19"/>
  <line class="cls-6" x1="879.22" y1="412.19" x2="893.22" y2="397.19"/>
  <line class="cls-6" x1="880.22" y1="412.19" x2="894.22" y2="397.19"/>
  <line class="cls-6" x1="880.22" y1="413.19" x2="894.22" y2="398.19"/>
  <line class="cls-6" x1="880.22" y1="414.19" x2="894.22" y2="399.19"/>
  <line class="cls-6" x1="880.22" y1="415.19" x2="894.22" y2="400.19"/>
  <line class="cls-6" x1="881.22" y1="415.19" x2="895.22" y2="400.19"/>
  <line class="cls-6" x1="881.22" y1="416.19" x2="895.22" y2="401.19"/>
  <line class="cls-7" x1="137.1" y1="293.08" x2="154.1" y2="294.08"/>
  <polyline class="cls-4" points="1235.6 68.58 1235.6 138.58 1279.1 138.58"/>
  <line class="cls-4" x1="1235.1" y1="69.08" x2="1279.1" y2="69.08"/>
  <line class="cls-4" x1="1324.6" y1="68.58" x2="1324.6" y2="138.58"/>
  <line class="cls-4" x1="1294.6" y1="139.58" x2="1294.6" y2="67.58"/>
  <line class="cls-4" x1="1324.6" y1="68.58" x2="1294.6" y2="138.58"/>
  <polyline class="cls-4" points="1466.6 63.58 1516.77 63.58 1516.77 116.58"/>
  <line class="cls-1" x1="715.1" y1="433.08" x2="684.37" y2="429.05"/>
  <polyline class="cls-1" points="338.1 371.08 341.1 347.08 276.1 340.08 273 364.26"/>
  <line class="cls-1" x1="273.1" y1="364.08" x2="308.1" y2="344.08"/>
  <line class="cls-1" x1="305.1" y1="367.08" x2="308.1" y2="344.08"/>
  <line class="cls-4" x1="253.1" y1="349.08" x2="275.1" y2="351.08"/>
  <line class="cls-4" x1="259.6" y1="300.58" x2="253.6" y2="349.58"/>
  <line class="cls-4" x1="261.6" y1="284.58" x2="267.6" y2="217.58"/>
  <line class="cls-1" x1="262.1" y1="278.08" x2="297.1" y2="281.08"/>
  <line class="cls-1" x1="266.1" y1="251.08" x2="309.1" y2="255.08"/>
  <polyline class="cls-1" points="292.1 342.08 295.1 309.08 318.1 310.08 314.1 343.08"/>
  <line class="cls-1" x1="276.1" y1="340.08" x2="277.6" y2="305.58"/>
  <line class="cls-1" x1="258.1" y1="301.08" x2="278.1" y2="307.08"/>
  <line class="cls-1" x1="569.44" y1="398.43" x2="578.55" y2="316.92"/>
  <line class="cls-1" x1="425.23" y1="380.18" x2="433.51" y2="297.86"/>
  <line class="cls-1" x1="389.1" y1="376.08" x2="397.1" y2="293.08"/>
  <polyline class="cls-1" points="397.1 293.08 578.55 316.92 632.18 323.24 629.39 349.74"/>
  <polyline class="cls-1" points="635.96 406.61 640.17 375.68 641.88 362.08"/>
  <polyline class="cls-1" points="572.72 369.07 625.75 374.13 627.17 362.08 627.55 359.3"/>
  <line class="cls-1" x1="427.16" y1="349.74" x2="403.55" y2="347.34"/>
  <line class="cls-1" x1="395.08" y1="313.94" x2="367.18" y2="311.29"/>
  <line class="cls-1" x1="657.18" y1="449.66" x2="653.17" y2="483.18"/>
  <line class="cls-1" x1="660.34" y1="434.17" x2="663.19" y2="410.38"/>
  <line class="cls-1" x1="640.17" y1="481.61" x2="654.13" y2="483.72"/>
  <line class="cls-1" x1="511.55" y1="465.08" x2="468.5" y2="459.84"/>
  <line class="cls-1" x1="623.29" y1="478.76" x2="582.87" y2="474.45"/>
  <polyline class="cls-1" points="377.34 375.36 369.9 446.19 381.73 448.13"/>
  <line class="cls-1" x1="802.87" y1="462.08" x2="797.8" y2="528.12"/>
  <polyline class="cls-1" points="957.84 283.74 996.71 279.16 999.03 299.84"/>
  <polyline class="cls-1" points="967.1 338.08 1002.33 332.7 1000.38 313.08"/>
  <line class="cls-1" x1="869.84" y1="354.05" x2="930.1" y2="344.08"/>
  <line class="cls-1" x1="1033.1" y1="247.08" x2="1177.1" y2="223.08"/>
  <line class="cls-1" x1="1196.1" y1="270.08" x2="1196.1" y2="255.32"/>
  <line class="cls-1" x1="1033.1" y1="247.08" x2="1047.39" y2="331.93"/>
  <polyline class="cls-1" points="1010.83 360.79 1016.1 391.08 1062.96 382.93 1058.67 352.49"/>
  <polyline class="cls-1" points="1035.62 387.68 1041 420.78 1068.64 416.76 1062.96 382.93"/>
  <line class="cls-1" x1="1041" y1="420.78" x2="1062.96" y2="382.93"/>
  <line class="cls-1" x1="1086.19" y1="352.29" x2="1200.7" y2="333.83"/>
  <line class="cls-1" x1="1058.3" y1="356.79" x2="1072.93" y2="354.43"/>
  <line class="cls-1" x1="1214.53" y1="331.6" x2="1251.86" y2="325.58"/>
  <polyline class="cls-1" points="1050.16 155.88 1091.3 155.88 1104.1 155.88"/>
  <line class="cls-4" x1="1235.6" y1="47.08" x2="1235.1" y2="2"/>
  <polyline class="cls-1" points="1196.1 245.08 1196.1 210.08 1233.1 205.08"/>
  <line class="cls-4" x1="1235.6" y1="155.88" x2="1235.6" y2="205.08"/>
  <line class="cls-4" x1="1293.22" y1="67.57" x2="1326.07" y2="67.89"/>
  <line class="cls-4" x1="1293.21" y1="138.58" x2="1326.07" y2="138.58"/>
  <line class="cls-1" x1="1772.25" y1="87.32" x2="1772.25" y2="133.84"/>
  <line class="cls-1" x1="1772.25" y1="68.74" x2="1772.25" y2="63.15"/>
  <line class="cls-4" x1="1516.77" y1="184.08" x2="1516.77" y2="134.35"/>
  <g id="bakgrund">
    <polygon id="K42_drama" class="cls-7" points="719.11 408.56 804.81 416.13 796.85 526.17 792.06 526.97 705.54 515.32 719.11 408.56"/>
    <polygon id="K2426" class="cls-7" points="401.96 380.18 393.67 448.29 426.82 452.74 434.46 383.64 401.96 380.18"/>
    <polygon id="K2414" class="cls-7" points="434.98 300.34 507.31 308.96 498.45 388.51 427.01 379.41 434.98 300.34"/>
    <polygon id="K2415" class="cls-7" points="510.08 310.45 576.51 318.37 567.62 397.75 502.01 389.34 510.08 310.45"/>
    <polygon class="cls-7" points="731.1 294.08 731.1 329.08 738.04 329.08 738.04 348.88 723.13 348.88 719.1 378.08 806.1 364.08 795.1 286.08 737.1 295.08 731.1 294.08"/>
    <path class="cls-7" d="M1237.34,476" transform="translate(-45.25 -321.89)"/>
    <polygon id="K2411" class="cls-7" points="335.54 372.17 253.97 363.91 244.66 453.92 325.41 465.06 335.54 372.17"/>
    <polyline id="K2429" class="cls-7" points="549.85 398.05 630.99 408.24 622.32 477.63 542.35 468 549.85 398.05"/>
    <polygon id="K2427" class="cls-7" points="436.54 383.76 517.59 394.3 510.56 463.86 429.5 453.9 436.54 383.76"/>
    <polyline class="cls-1" points="718.1 407.08 687.91 403.84 686.07 416.92"/>
  </g>
  <g id="Lager_3" data-name="Lager 3">
    <text class="cls-8" transform="translate(442.48 349.2) rotate(6)">K2414</text>
    <text class="cls-8" transform="translate(514.94 359.48) rotate(6)">K2415</text>
    <text class="cls-8" transform="translate(446.53 428.79) rotate(6)">K2427</text>
    <text class="cls-9" transform="translate(411.73 389.4) rotate(98)">K2426</text>
    <text class="cls-10" transform="translate(731.54 479.02) rotate(5)">K42</text>
    <text class="cls-8" transform="translate(263.66 415.05) rotate(6)">K2411</text>
    <text class="cls-8" transform="translate(559.33 443.94) rotate(6)">K2429</text>
  </g>
</svg>
