<?xml version="1.0" encoding="UTF-8"?>
<svg id="Lager_1" data-name="Lager 1" xmlns="http://www.w3.org/2000/svg" viewBox="0 0 1463.82 879.72">
  <defs>
    <style>
      .cls-1 {
        stroke-width: 6px;
      }

      .cls-1, .cls-2, .cls-3, .cls-4, .cls-5, .cls-6, .cls-7, .cls-8, .cls-9, .cls-10, .cls-11, .cls-12 {
        fill: none;
      }

      .cls-1, .cls-2, .cls-3, .cls-4, .cls-5, .cls-6, .cls-7, .cls-9, .cls-10, .cls-11, .cls-12 {
        stroke-miterlimit: 10;
      }

      .cls-1, .cls-2, .cls-3, .cls-5, .cls-6, .cls-7, .cls-9, .cls-10, .cls-11 {
        stroke: #1e1e1c;
      }

      .cls-13 {
        font-size: 30px;
      }

      .cls-13, .cls-14 {
        font-family: MyriadPro-Regular, 'Myriad Pro';
      }

      .cls-13, .cls-14, .cls-15 {
        fill: #010101;
      }

      .cls-16 {
        fill: #fff;
      }

      .cls-2 {
        stroke-width: 1.5px;
      }

      .cls-17 {
        letter-spacing: 0em;
      }

      .cls-18 {
        letter-spacing: 0em;
      }

      .cls-3 {
        stroke-width: 10px;
      }

      .cls-4 {
        stroke-width: .25px;
      }

      .cls-4, .cls-12 {
        stroke: #000;
      }

      .cls-5 {
        stroke-width: 3px;
      }

      .cls-19 {
        letter-spacing: 0em;
      }

      .cls-6 {
        stroke-width: 5px;
      }

      .cls-7 {
        stroke-width: 4px;
      }

      .cls-9 {
        stroke-width: 2px;
      }

      .cls-14 {
        font-size: 20px;
      }

      .cls-10 {
        stroke-width: .75px;
      }

      .cls-20 {
        letter-spacing: 0em;
      }

      .cls-21 {
        letter-spacing: -.04em;
      }

      .cls-12 {
        stroke-width: .5px;
      }
    </style>
  </defs>
  <line class="cls-1" x1="205.95" y1="662.09" x2="214.85" y2="713.57"/>
  <path class="cls-12" d="M764.3,737.83v-21.72l21.12-10.14c-6.22-10.77-19.89-14.64-30.44-8.99-11.18,5.98-14.75,20.43-9.27,30.35,5.05,9.15,16.46,10.4,17.61,10.51h.98Z"/>
  <line class="cls-4" x1="764.3" y1="716.11" x2="783.93" y2="703.71"/>
  <line class="cls-4" x1="781.71" y1="701.14" x2="764.3" y2="716.11"/>
  <line class="cls-4" x1="764.3" y1="716.47" x2="778.93" y2="698.43"/>
  <line class="cls-4" x1="776" y1="696.71" x2="764.3" y2="716.47"/>
  <line class="cls-4" x1="764.3" y1="716.6" x2="773.44" y2="696.06"/>
  <line class="cls-4" x1="770.18" y1="695.15" x2="764.3" y2="716.6"/>
  <line class="cls-4" x1="764.6" y1="716.18" x2="766.29" y2="694.41"/>
  <line class="cls-4" x1="762.96" y1="694.14" x2="764.6" y2="716.18"/>
  <line class="cls-4" x1="764.88" y1="716.39" x2="759.28" y2="695.23"/>
  <line class="cls-4" x1="756.2" y1="696.37" x2="764.88" y2="716.39"/>
  <line class="cls-4" x1="764.99" y1="716.47" x2="754.01" y2="697.62"/>
  <line class="cls-4" x1="751.34" y1="699.62" x2="764.99" y2="716.47"/>
  <line class="cls-4" x1="764.55" y1="716.09" x2="749.14" y2="701.2"/>
  <line class="cls-4" x1="747.08" y1="703.94" x2="764.55" y2="716.09"/>
  <line class="cls-4" x1="764.89" y1="716" x2="745.39" y2="707.1"/>
  <line class="cls-4" x1="744.31" y1="710.06" x2="764.89" y2="716"/>
  <line class="cls-4" x1="765.01" y1="715.97" x2="743.68" y2="712.42"/>
  <line class="cls-4" x1="743.62" y1="715.69" x2="765.01" y2="715.97"/>
  <line class="cls-4" x1="764.55" y1="715.8" x2="743.38" y2="719.58"/>
  <line class="cls-4" x1="743.98" y1="722.83" x2="764.55" y2="715.81"/>
  <line class="cls-4" x1="764.67" y1="715.48" x2="745.49" y2="726.32"/>
  <line class="cls-4" x1="747.02" y1="729.33" x2="764.67" y2="715.48"/>
  <line class="cls-4" x1="764.72" y1="715.36" x2="749.33" y2="731.87"/>
  <line class="cls-4" x1="751.37" y1="733.5" x2="764.72" y2="715.36"/>
  <line class="cls-4" x1="754.48" y1="735.3" x2="764.31" y2="716.24"/>
  <line class="cls-4" x1="764.3" y1="716.11" x2="758.05" y2="736.71"/>
  <line class="cls-4" x1="761.24" y1="737.52" x2="764.3" y2="716.11"/>
  <polyline class="cls-5" points="349.24 826.63 244.96 845.99 242.3 830.81 218.45 835.33"/>
  <line class="cls-5" x1="509.55" y1="795.42" x2="385.07" y2="818.53"/>
  <line class="cls-3" x1="1289.89" y1="249.42" x2="1288.54" y2="21.94"/>
  <line class="cls-3" x1="1109.79" y1="143.64" x2="1109.15" y2="30.83"/>
  <line class="cls-5" x1="671.77" y1="763.3" x2="547.28" y2="786.42"/>
  <polyline class="cls-5" points="707.08 756.74 798.42 739.78 795.73 724.17"/>
  <path class="cls-6" d="M304.52,418.53c3.62-.58,7.24-1.1,10.88-1.52,.06,1.34,3,13,3.65,18.21,2.66-.65-1.15-5.07,0,0,84.35-15.21,164.35-34.21,250.35-49.21,15-3,29-7,44-9,9-2,16-6,25-5,2,1,2,4,1.79,5.75-4.5,.57-.29-1.51,0,0-4.79,.25-10.79-.75-15.79,2.25-1,1,0,4,0,6,5,22,9,43,12,65,4,5,11,0,17,1,1,0,1,1,2,1,2,2,1,5,1.29,7.5"/>
  <path class="cls-6" d="M341.41,751.96c-4.31,.78-8.62,1.55-12.93,2.33-.78-5.21-1.56-10.43-2.35-15.64,.27-.65-.73-1.65-.73-1.65-12,0-23,5-35,7-1,0-3-1-3-2-14-87-33-168-48.2-251.7,4.91-.69,9.82-1.37,14.73-2.06-.98-6.29-1.96-12.57-2.95-18.86-5.21,.98-10.41,1.96-15.62,2.95-1.18-7.37-2.36-14.73-3.54-22.1,12.6-.24,24.54-5.22,37.12-5.6-1.47-6.19-2.95-12.37-4.42-18.56,4.06-.74,8.11-1.53,12.16-2.33"/>
  <path class="cls-6" d="M694.4,645l-.38-2.47c.63,4.15,1.26,8.31,1.88,12.47,.5,3.31,1.01,6.69,1.5,10-61,12-120,23-183,36-47,9-91,18-137,26,1.19,5.87,2.37,11.75,3.56,17.62-3.94,.78-7.88,1.56-11.82,2.34"/>
  <line class="cls-6" x1="694.33" y1="644.11" x2="661.4" y2="478.22"/>
  <polyline class="cls-6" points="811.56 681.97 1273.17 589.74 1238.07 425.45 1327.68 406.51 1298.3 250.99 1290.75 253.18 1290.12 242.48"/>
  <line class="cls-1" x1="1108.69" y1="40.48" x2="1292.5" y2="39.1"/>
  <line class="cls-1" x1="941.19" y1="44.38" x2="1107.98" y2="44.38"/>
  <line class="cls-3" x1="943.44" y1="143.64" x2="942.81" y2="30.83"/>
  <line class="cls-3" x1="778.27" y1="139.28" x2="777.66" y2="31.76"/>
  <line class="cls-3" x1="613.54" y1="140.2" x2="612.93" y2="32.69"/>
  <polyline class="cls-1" points="613.87 43.7 554.32 43.59 554.2 10.14 172.38 9.94 172.38 104.76 172.38 107.02"/>
  <line class="cls-3" x1="501.94" y1="132.51" x2="501.25" y2="9.94"/>
  <line class="cls-3" x1="282.09" y1="132.51" x2="281.4" y2="9.94"/>
  <line class="cls-1" x1="273.28" y1="130.1" x2="402.49" y2="130.1"/>
  <line class="cls-1" x1="437.41" y1="130.1" x2="506.89" y2="130.1"/>
  <polyline class="cls-5" points="249.6 130.1 172.38 130.1 172.38 182.76 236.43 182.76 236.43 163.33"/>
  <polyline class="cls-9" points="172.38 88.75 226.45 88.89 226.59 130.1"/>
  <polyline class="cls-9" points="172.38 63.79 205.8 63.79 205.8 54.12"/>
  <line class="cls-9" x1="205.8" y1="9.94" x2="205.8" y2="22.91"/>
  <polygon class="cls-9" points="195.67 236.94 195.91 208.99 252.99 209.23 252.99 236.94 195.67 236.94"/>
  <line class="cls-9" x1="195.67" y1="236.94" x2="252.99" y2="209.23"/>
  <line class="cls-5" x1="172.38" y1="182.76" x2="172.38" y2="264.17"/>
  <line class="cls-1" x1="285.95" y1="130.1" x2="286.43" y2="265.6"/>
  <polyline class="cls-1" points="281.51 264.05 296.07 263.96 383.42 264.17 614.91 248.85 614.91 189.42"/>
  <line class="cls-1" x1="614.91" y1="154.45" x2="614.91" y2="137.63"/>
  <line class="cls-5" x1="614.91" y1="137.63" x2="652.36" y2="137.63"/>
  <line class="cls-5" x1="674.97" y1="137.63" x2="787.4" y2="137.63"/>
  <line class="cls-5" x1="804.6" y1="137.63" x2="916.54" y2="137.63"/>
  <line class="cls-5" x1="901.29" y1="137.63" x2="901.29" y2="122.93"/>
  <line class="cls-1" x1="852.47" y1="137.63" x2="852.3" y2="66.35"/>
  <line class="cls-5" x1="814.94" y1="68.04" x2="903.28" y2="68.04"/>
  <line class="cls-5" x1="850.2" y1="89.76" x2="903.28" y2="89.76"/>
  <line class="cls-5" x1="814.94" y1="92.07" x2="854.47" y2="92.07"/>
  <line class="cls-5" x1="814.94" y1="114.85" x2="854.47" y2="114.85"/>
  <line class="cls-5" x1="901.29" y1="105.35" x2="901.29" y2="90.64"/>
  <line class="cls-5" x1="901.29" y1="72.9" x2="901.29" y2="68.04"/>
  <line class="cls-5" x1="816.37" y1="96.34" x2="816.37" y2="88.2"/>
  <line class="cls-5" x1="816.37" y1="120.17" x2="816.37" y2="112.03"/>
  <line class="cls-5" x1="816.37" y1="72.9" x2="816.37" y2="68.04"/>
  <line class="cls-5" x1="816.37" y1="138.41" x2="816.37" y2="133.36"/>
  <line class="cls-5" x1="945.76" y1="141.66" x2="993.3" y2="141.66"/>
  <line class="cls-5" x1="1011.64" y1="141.66" x2="1056.48" y2="141.66"/>
  <line class="cls-5" x1="1076.58" y1="141.66" x2="1117.24" y2="141.66"/>
  <polyline class="cls-7" points="1164.75 41.12 1164.75 141.66 1139.34 141.66"/>
  <line class="cls-9" x1="1164.75" y1="272.76" x2="1164.75" y2="170.21"/>
  <polyline class="cls-9" points="987.17 480.48 968.17 384.94 1023 374.62"/>
  <polyline class="cls-9" points="910.64 496.08 891.64 400.53 946.47 390.22"/>
  <polyline class="cls-9" points="834.19 511.08 815.19 415.54 870.02 405.22"/>
  <polyline class="cls-5" points="756.12 526.21 737.12 430.66 791.95 420.35"/>
  <polyline class="cls-5" points="756.12 526.21 1064.38 464.67 1044.16 368.95"/>
  <line class="cls-5" x1="1104.44" y1="457.17" x2="1235.16" y2="431.35"/>
  <polyline class="cls-5" points="1137.19 449.67 1118.99 355.29 1101.03 358.7"/>
  <line class="cls-5" x1="1110.12" y1="404.18" x2="1127.73" y2="400.61"/>
  <line class="cls-9" x1="1137.19" y1="351.42" x2="1216.69" y2="336.79"/>
  <polyline class="cls-9" points="56.74 878.73 221.22 851.92 189.95 664.82 212.57 661.75 202.23 595.56 178.22 597.52 179.05 605.34 156.99 607.85 141.28 515.01 138.98 501.45 25.18 520.16 27.69 535.24 138.84 515.41 140.21 515.14"/>
  <line class="cls-9" x1=".99" y1="549.02" x2="56.74" y2="878.73"/>
  <line class="cls-5" x1="789.02" y1="698.59" x2="776.02" y2="621.64"/>
  <line class="cls-5" x1="756.12" y1="526.21" x2="758.13" y2="536.66"/>
  <line class="cls-7" x1="1164.75" y1="141.66" x2="1164.75" y2="146.19"/>
  <polyline class="cls-9" points="796.3 330.96 939.12 303.19 938.64 247.02 790.08 287.23"/>
  <line class="cls-10" x1="791.25" y1="286.92" x2="798.9" y2="329.65"/>
  <line class="cls-10" x1="795.6" y1="285.74" x2="805.15" y2="329.24"/>
  <line class="cls-10" x1="801.41" y1="284.17" x2="810.42" y2="328.21"/>
  <line class="cls-10" x1="805.91" y1="282.95" x2="816.31" y2="327.07"/>
  <line class="cls-10" x1="811.11" y1="281.54" x2="821.53" y2="326.05"/>
  <line class="cls-10" x1="816.32" y1="280.13" x2="827.87" y2="324.82"/>
  <line class="cls-10" x1="822.09" y1="278.57" x2="832.17" y2="323.99"/>
  <line class="cls-10" x1="827.13" y1="277.21" x2="838.33" y2="322.79"/>
  <line class="cls-10" x1="832.73" y1="275.69" x2="844.25" y2="321.64"/>
  <line class="cls-10" x1="875.47" y1="264.87" x2="886.56" y2="313"/>
  <line class="cls-10" x1="881.02" y1="262.62" x2="891.33" y2="312.18"/>
  <line class="cls-10" x1="886.18" y1="261.22" x2="897.45" y2="310.73"/>
  <line class="cls-10" x1="891.94" y1="259.66" x2="902.65" y2="309.78"/>
  <line class="cls-10" x1="897.3" y1="258.21" x2="907.86" y2="308.66"/>
  <line class="cls-10" x1="902.58" y1="256.78" x2="913.03" y2="307.86"/>
  <line class="cls-10" x1="907.99" y1="256.09" x2="918.06" y2="306.99"/>
  <line class="cls-10" x1="913.47" y1="254.56" x2="924.67" y2="305.64"/>
  <line class="cls-10" x1="918.86" y1="252.86" x2="930.37" y2="304.35"/>
  <line class="cls-2" x1="795.09" y1="309.36" x2="838.61" y2="299.12"/>
  <line class="cls-2" x1="880.68" y1="289.23" x2="924.68" y2="278.89"/>
  <line class="cls-1" x1="27.29" y1="114.86" x2="27.91" y2="156.43"/>
  <line class="cls-1" x1="27.55" y1="132.37" x2="148.13" y2="131.77"/>
  <line class="cls-1" x1="27.52" y1="71.23" x2="27.6" y2="96.41"/>
  <line class="cls-1" x1="27.63" y1="75.84" x2="151.75" y2="75.46"/>
  <line class="cls-1" x1="27.6" y1="171.74" x2="28.22" y2="213.31"/>
  <line class="cls-1" x1="29.41" y1="191.61" x2="149.98" y2="191.61"/>
  <line class="cls-1" x1="26.94" y1="228.62" x2="27.56" y2="270.2"/>
  <line class="cls-1" x1="28.75" y1="248.49" x2="149.33" y2="248.49"/>
  <line class="cls-1" x1="27.87" y1="305.75" x2="27.6" y2="287.76"/>
  <line class="cls-1" x1="27.6" y1="19.02" x2="28.12" y2="54.12"/>
  <line class="cls-1" x1="24.61" y1="19.53" x2="151.75" y2="19.14"/>
  <line class="cls-9" x1="150.7" y1="20.51" x2="150.44" y2="306.05"/>
  <line class="cls-9" x1="24.99" y1="305.07" x2="150.57" y2="305.07"/>
  <line class="cls-9" x1="169.07" y1="549.48" x2="158.44" y2="484.6"/>
  <polyline class="cls-9" points="168.15 549.11 194.38 544.51 184.53 481.64 158.6 485.55"/>
  <polyline class="cls-9" points="159.2 489.24 85.92 501.45 80.32 464.37"/>
  <polyline class="cls-9" points="77.05 448.4 75.07 435.43 149.44 423.74 150.65 433.21 172.24 429.61"/>
  <polyline class="cls-5" points="170.76 264.17 170.91 360.14 149.01 360.1 149.01 346.36 129.85 346.36 129.85 339.58 150.38 339.58 150.38 310.55 22.04 309.97 22.04 305.07 27.25 303.97"/>
  <polyline class="cls-5" points="170.85 430.62 170.76 375.76 149.33 375.84 149.33 395.19 95.72 405 95.72 346.16 110.43 346.16 110.17 338.68 13.4 338.68 13.4 346.42 90.3 346.16 90.17 395.97"/>
  <line class="cls-10" x1="217.87" y1="236.94" x2="217.96" y2="264.17"/>
  <line class="cls-10" x1="213.48" y1="237.81" x2="213.57" y2="265.04"/>
  <line class="cls-10" x1="209.09" y1="236.94" x2="209.19" y2="264.17"/>
  <line class="cls-10" x1="204.71" y1="237.81" x2="204.8" y2="265.04"/>
  <line class="cls-10" x1="200.06" y1="236.57" x2="200.15" y2="263.8"/>
  <line class="cls-10" x1="196.2" y1="237.44" x2="196.3" y2="264.67"/>
  <line class="cls-1" x1="169.38" y1="264.17" x2="255.94" y2="264.17"/>
  <line class="cls-10" x1="172.38" y1="235.66" x2="195.72" y2="235.51"/>
  <line class="cls-10" x1="172.36" y1="232.24" x2="195.69" y2="232.09"/>
  <line class="cls-10" x1="172.33" y1="228.84" x2="195.67" y2="228.69"/>
  <line class="cls-10" x1="172.31" y1="225.42" x2="195.65" y2="225.27"/>
  <line class="cls-10" x1="173.03" y1="221.69" x2="196.37" y2="221.54"/>
  <line class="cls-10" x1="173.01" y1="218.27" x2="196.35" y2="218.12"/>
  <line class="cls-10" x1="172.99" y1="214.86" x2="196.32" y2="214.71"/>
  <line class="cls-10" x1="172.96" y1="211.44" x2="196.3" y2="211.29"/>
  <line class="cls-10" x1="173.06" y1="208.51" x2="195.91" y2="208.51"/>
  <line class="cls-10" x1="221.06" y1="236.57" x2="221.15" y2="263.8"/>
  <line class="cls-10" x1="218.42" y1="181.74" x2="218.51" y2="208.97"/>
  <line class="cls-10" x1="214.03" y1="182.61" x2="214.12" y2="209.84"/>
  <line class="cls-10" x1="209.64" y1="181.74" x2="209.73" y2="208.97"/>
  <line class="cls-10" x1="205.25" y1="182.61" x2="205.35" y2="209.84"/>
  <line class="cls-10" x1="201.09" y1="181.37" x2="201.18" y2="208.6"/>
  <line class="cls-9" x1="197.29" y1="182.24" x2="197.38" y2="209.47"/>
  <line class="cls-10" x1="221.61" y1="181.37" x2="221.7" y2="208.6"/>
  <line class="cls-10" x1="224.29" y1="182.55" x2="224.38" y2="209.78"/>
  <line class="cls-5" x1="196.25" y1="248.81" x2="221.48" y2="248.74"/>
  <line class="cls-9" x1="184.49" y1="235.58" x2="184.49" y2="208.51"/>
  <line class="cls-9" x1="197.34" y1="196.74" x2="224.33" y2="196.88"/>
  <line class="cls-5" x1="286.43" y1="265.6" x2="340.1" y2="130.1"/>
  <line class="cls-5" x1="337.88" y1="264.06" x2="337.88" y2="131.98"/>
  <line class="cls-5" x1="733.4" y1="410.67" x2="726.16" y2="360.17"/>
  <line class="cls-9" x1="727.23" y1="367.67" x2="1042.96" y2="303.99"/>
  <line class="cls-9" x1="1072.41" y1="298.05" x2="1204.03" y2="271.5"/>
  <line class="cls-9" x1="1070.88" y1="290.47" x2="1203.1" y2="264.33"/>
  <line class="cls-9" x1="724.43" y1="360.51" x2="1043" y2="296.26"/>
  <line class="cls-5" x1="824.53" y1="340.33" x2="824.44" y2="348.06"/>
  <line class="cls-5" x1="854.61" y1="333.97" x2="854.52" y2="341.7"/>
  <line class="cls-5" x1="897.34" y1="325.22" x2="897.25" y2="332.96"/>
  <line class="cls-5" x1="928.61" y1="319.52" x2="928.52" y2="327.26"/>
  <line class="cls-5" x1="970.61" y1="310.63" x2="970.52" y2="318.37"/>
  <line class="cls-5" x1="999.27" y1="305.3" x2="999.19" y2="313.04"/>
  <line class="cls-5" x1="1041.77" y1="296.13" x2="1041.69" y2="303.86"/>
  <line class="cls-5" x1="1109.27" y1="282.63" x2="1109.19" y2="290.37"/>
  <line class="cls-5" x1="1146.28" y1="275.31" x2="1146.19" y2="283.04"/>
  <line class="cls-5" x1="1202.26" y1="265.02" x2="1202.17" y2="272.76"/>
  <line class="cls-5" x1="1263.11" y1="251.97" x2="1262.98" y2="263.83"/>
  <line class="cls-9" x1="1223.42" y1="272.76" x2="1289.22" y2="259.48"/>
  <line class="cls-5" x1="1288.27" y1="248.59" x2="1288.14" y2="260.45"/>
  <line class="cls-5" x1="1292.96" y1="241.74" x2="1292.83" y2="253.6"/>
  <line class="cls-9" x1="1222.4" y1="261.16" x2="1288.2" y2="247.89"/>
  <line class="cls-5" x1="1224.58" y1="261.44" x2="1224.45" y2="273.3"/>
  <line class="cls-9" x1="1203.04" y1="271.7" x2="1208.06" y2="294"/>
  <line class="cls-9" x1="1195.48" y1="273.62" x2="1200.51" y2="295.92"/>
  <line class="cls-5" x1="1199.54" y1="295.86" x2="1208.87" y2="293.58"/>
  <line class="cls-9" x1="1204.58" y1="294.63" x2="1204.84" y2="303.67"/>
  <path class="cls-5" d="M1214.86,321.15l17.87,104.52-17.87-104.52Z"/>
  <polyline class="cls-5" points="1027.56 141.66 1027.56 110.83 1044.73 110.83 1044.73 44.38"/>
  <line class="cls-5" x1="735.06" y1="637.67" x2="777.62" y2="631.13"/>
  <polyline class="cls-5" points="743.14 750.08 735.07 696 787.4 686.8"/>
  <polyline class="cls-9" points="244.73 516.78 274.06 466.45 269.18 445.56"/>
  <line class="cls-9" x1="274.06" y1="466.45" x2="282.84" y2="462.11"/>
  <line class="cls-9" x1="306.29" y1="452.56" x2="359.62" y2="428.56"/>
  <line class="cls-9" x1="320.43" y1="446.19" x2="320.18" y2="435.67"/>
  <line class="cls-9" x1="275.69" y1="675.6" x2="321.73" y2="713.83"/>
  <polyline class="cls-9" points="284.08 722.03 321.73 713.83 332.73 713.5"/>
  <line class="cls-9" x1="357.9" y1="715.17" x2="426.06" y2="717.76"/>
  <line class="cls-5" x1="377.4" y1="727" x2="375.24" y2="715.83"/>
  <line class="cls-1" x1="226.62" y1="781.65" x2="235.53" y2="833.13"/>
  <polyline class="cls-5" points="210 784.77 233.59 780.49 221.79 712.55 198.58 716.47"/>
  <line class="cls-8" x1="206.34" y1="662.02" x2="215.24" y2="713.5"/>
  <polygon class="cls-16" points="247.33 515.37 275.08 467.97 283.2 464.28 357.91 430.94 619.85 378.55 634.3 457.26 651.98 455.19 693.53 662.55 421.14 716.47 322.04 712.26 278.56 676.42 247.33 515.37"/>
  <polygon class="cls-16" points="758.11 527.71 788.4 683.81 1265.91 588.29 1232.49 433.65 758.11 527.71"/>
  <polygon class="cls-16" points="739.04 432.1 813.6 418.07 831.89 509.14 757.52 524.13 739.04 432.1"/>
  <line class="cls-10" x1="774.41" y1="82.26" x2="750.89" y2="82.44"/>
  <line class="cls-10" x1="773.64" y1="77.87" x2="750.12" y2="78.06"/>
  <line class="cls-10" x1="774.38" y1="73.48" x2="750.86" y2="73.67"/>
  <line class="cls-10" x1="773.62" y1="69.1" x2="750.09" y2="69.28"/>
  <line class="cls-10" x1="774.67" y1="64.44" x2="751.15" y2="64.63"/>
  <line class="cls-11" x1="764.09" y1="60.68" x2="764.22" y2="85.91"/>
  <line class="cls-10" x1="749.76" y1="36.12" x2="749.85" y2="62.23"/>
  <line class="cls-10" x1="746.34" y1="35.01" x2="746.34" y2="62.24"/>
  <line class="cls-10" x1="743.05" y1="35.76" x2="743.14" y2="61.49"/>
  <line class="cls-11" x1="738.66" y1="49.12" x2="754.03" y2="49.19"/>
  <line class="cls-1" x1="775.71" y1="36.39" x2="942.5" y2="36.39"/>
  <line class="cls-5" x1="614.91" y1="136.26" x2="646.91" y2="37.36"/>
  <line class="cls-5" x1="647.35" y1="138.39" x2="647.48" y2="38.02"/>
  <polyline class="cls-9" points="556.91 8.71 557.11 2.23 1462.82 1 1462.82 12.74 1361.4 25.26 1292.75 25.26"/>
  <line class="cls-5" x1="1294.43" y1="1.23" x2="1294.43" y2="25.26"/>
  <polygon class="cls-16" points="818.67 416.06 890.34 402.57 908.58 493.65 837.11 508.1 818.67 416.06"/>
  <polygon class="cls-16" points="893.62 401.41 966.84 387.64 985.1 478.71 912.07 493.45 893.62 401.41"/>
  <polygon class="cls-16" points="970.97 386.04 1042.44 372.59 1060.68 463.66 989.4 478.08 970.97 386.04"/>
  <polygon class="cls-16" points="1120.9 355.55 1213.57 338.11 1232.23 429.69 1139.75 448.1 1120.9 355.55"/>
  <polygon class="cls-16" points="1290.04 260.74 1290.04 256.61 1296.11 255.07 1324.24 404.1 1234.04 423.45 1216.75 320.74 1205.55 278.29 1290.04 260.74"/>
  <polygon class="cls-16" points="1167.72 44.38 1283.08 44.38 1284.37 247.67 1166.17 270.03 1167.72 44.38"/>
  <line class="cls-10" x1="774.51" y1="107.14" x2="751.12" y2="107.33"/>
  <line class="cls-10" x1="773.74" y1="102.76" x2="750.36" y2="102.94"/>
  <line class="cls-10" x1="774.48" y1="98.37" x2="751.1" y2="98.55"/>
  <line class="cls-10" x1="773.72" y1="93.98" x2="750.33" y2="94.17"/>
  <line class="cls-10" x1="774.77" y1="89.33" x2="751.39" y2="89.51"/>
  <line class="cls-11" x1="764.25" y1="85.56" x2="764.38" y2="110.8"/>
  <line class="cls-7" x1="775.58" y1="85.29" x2="775.71" y2="110.52"/>
  <line class="cls-7" x1="775.42" y1="60.4" x2="775.55" y2="85.64"/>
  <line class="cls-7" x1="751.75" y1="85.35" x2="751.89" y2="110.59"/>
  <polyline class="cls-7" points="741.1 85.5 740.97 60.27 751.6 60.47 751.73 85.7"/>
  <line class="cls-5" x1="715.69" y1="38.42" x2="715.94" y2="85.7"/>
  <line class="cls-10" x1="739.96" y1="82.12" x2="716.44" y2="82.3"/>
  <line class="cls-10" x1="739.19" y1="77.73" x2="715.67" y2="77.92"/>
  <line class="cls-10" x1="739.93" y1="73.34" x2="716.41" y2="73.53"/>
  <line class="cls-10" x1="739.16" y1="68.96" x2="715.64" y2="69.14"/>
  <line class="cls-10" x1="740.22" y1="64.31" x2="716.7" y2="64.49"/>
  <line class="cls-11" x1="729.06" y1="60.75" x2="729.77" y2="85.77"/>
  <line class="cls-10" x1="739.88" y1="35.57" x2="739.97" y2="61.68"/>
  <line class="cls-10" x1="752.85" y1="36.14" x2="752.94" y2="62.24"/>
  <line class="cls-1" x1="611.18" y1="36.39" x2="777.97" y2="36.39"/>
  <text class="cls-14" transform="translate(767.28 482.7) rotate(-11)"><tspan x="0" y="0">K101</tspan></text>
  <text class="cls-14" transform="translate(848.26 468.68) rotate(-11)"><tspan x="0" y="0">K102</tspan></text>
  <text class="cls-14" transform="translate(924.49 453.44) rotate(-11)"><tspan x="0" y="0">K103</tspan></text>
  <text class="cls-14" transform="translate(999.82 438.92) rotate(-11)"><tspan x="0" y="0">K104</tspan></text>
  <text class="cls-14" transform="translate(1160.7 408.78) rotate(-11)"><tspan x="0" y="0">K105</tspan></text>
  <text class="cls-14" transform="translate(1248.92 356.91) rotate(-11)"><tspan x="0" y="0">K106</tspan></text>
  <text class="cls-14" transform="translate(1181.32 149.88)"><tspan class="cls-19" x="0" y="0">S</tspan><tspan x="9.8" y="0">tude</tspan><tspan class="cls-20" x="48.74" y="0">n</tspan><tspan x="59.76" y="0">tkök</tspan></text>
  <text class="cls-13" transform="translate(962.22 578.42) rotate(-11)"><tspan class="cls-21" x="0" y="0">F</tspan><tspan x="13.26" y="0">ä</tspan><tspan class="cls-18" x="27.72" y="0">r</tspan><tspan x="37.29" y="0">ge</tspan><tspan class="cls-17" x="69.09" y="0">r</tspan><tspan x="79.02" y="0">iet</tspan></text>
  <line class="cls-10" x1="48.95" y1="310.41" x2="49.04" y2="337.64"/>
  <line class="cls-10" x1="44.56" y1="311.28" x2="44.65" y2="338.51"/>
  <line class="cls-10" x1="40.17" y1="310.41" x2="40.26" y2="337.64"/>
  <line class="cls-10" x1="35.78" y1="311.28" x2="35.87" y2="338.51"/>
  <line class="cls-10" x1="31.13" y1="310.04" x2="31.22" y2="337.27"/>
  <line class="cls-10" x1="27.28" y1="310.92" x2="27.37" y2="338.14"/>
  <line class="cls-10" x1="52.14" y1="310.04" x2="52.23" y2="337.27"/>
  <line class="cls-5" x1="27.33" y1="322.28" x2="52.56" y2="322.21"/>
  <line class="cls-10" x1="73.85" y1="310.05" x2="73.94" y2="337.87"/>
  <line class="cls-10" x1="69.46" y1="310.95" x2="69.55" y2="338.77"/>
  <line class="cls-10" x1="65.07" y1="310.05" x2="65.17" y2="337.87"/>
  <line class="cls-10" x1="60.69" y1="310.95" x2="60.78" y2="338.77"/>
  <line class="cls-10" x1="56.04" y1="309.68" x2="56.13" y2="337.5"/>
  <line class="cls-10" x1="52.18" y1="310.57" x2="52.28" y2="338.39"/>
  <line class="cls-10" x1="77.04" y1="309.68" x2="77.13" y2="337.5"/>
  <line class="cls-5" x1="52.23" y1="322.19" x2="77.46" y2="322.12"/>
  <path class="cls-12" d="M101.1,462.58l21-5.56,15.21,17.82c8.82-8.77,9.06-22.97,.9-31.73-8.64-9.28-23.53-9.03-31.72-1.19-7.55,7.23-5.84,18.57-5.65,19.71l.25,.95Z"/>
  <line class="cls-4" x1="122.1" y1="457.02" x2="139.12" y2="472.82"/>
  <line class="cls-4" x1="141.03" y1="470.02" x2="122.1" y2="457.02"/>
  <line class="cls-4" x1="121.76" y1="457.11" x2="142.93" y2="466.64"/>
  <line class="cls-4" x1="143.85" y1="463.37" x2="121.76" y2="457.11"/>
  <line class="cls-4" x1="121.62" y1="457.15" x2="143.82" y2="460.73"/>
  <line class="cls-4" x1="143.87" y1="457.34" x2="121.62" y2="457.15"/>
  <line class="cls-4" x1="122.11" y1="457.33" x2="143.59" y2="453.39"/>
  <line class="cls-4" x1="142.99" y1="450.11" x2="122.11" y2="457.33"/>
  <line class="cls-4" x1="121.98" y1="457.66" x2="141" y2="446.83"/>
  <line class="cls-4" x1="139.11" y1="444.14" x2="121.98" y2="457.66"/>
  <line class="cls-4" x1="121.93" y1="457.78" x2="137.34" y2="442.34"/>
  <line class="cls-4" x1="134.72" y1="440.27" x2="121.93" y2="457.78"/>
  <line class="cls-4" x1="122.18" y1="457.26" x2="132.63" y2="438.55"/>
  <line class="cls-4" x1="129.46" y1="437.26" x2="122.18" y2="457.26"/>
  <line class="cls-4" x1="122.35" y1="457.56" x2="125.97" y2="436.43"/>
  <line class="cls-4" x1="122.84" y1="436.15" x2="122.35" y2="457.56"/>
  <line class="cls-4" x1="122.42" y1="457.68" x2="120.39" y2="436.14"/>
  <line class="cls-4" x1="117.21" y1="436.92" x2="122.42" y2="457.68"/>
  <line class="cls-4" x1="122.47" y1="457.18" x2="113.39" y2="437.69"/>
  <line class="cls-4" x1="110.4" y1="439.1" x2="122.46" y2="457.18"/>
  <line class="cls-4" x1="122.8" y1="457.22" x2="107.41" y2="441.45"/>
  <line class="cls-4" x1="104.9" y1="443.7" x2="122.8" y2="457.22"/>
  <line class="cls-4" x1="122.94" y1="457.23" x2="103.03" y2="446.58"/>
  <line class="cls-4" x1="101.98" y1="448.98" x2="122.94" y2="457.23"/>
  <line class="cls-4" x1="101.03" y1="452.44" x2="121.98" y2="457.07"/>
  <line class="cls-4" x1="122.1" y1="457.02" x2="100.59" y2="456.25"/>
  <line class="cls-4" x1="100.62" y1="459.54" x2="122.1" y2="457.02"/>
  <g>
    <ellipse class="cls-15" cx="888.81" cy="103.56" rx="2.5" ry="1.95"/>
    <path class="cls-15" d="M892.71,106h-7.81c-1.21,0-2.19,.76-2.19,1.71v6.34c0,.94,.98,1.71,2.19,1.71h0v-7.44c0-.13,.14-.24,.31-.24h.16v17.01c0,.64,.66,1.16,1.48,1.16s1.48-.52,1.48-1.16v-8.96c0-.2,.21-.37,.47-.37s.47,.16,.47,.37v8.96c0,.64,.66,1.16,1.48,1.16s1.48-.52,1.48-1.16v-17.01h.16c.17,0,.31,.11,.31,.24v7.44h0c1.21,0,2.19-.76,2.19-1.71v-6.34c0-.94-.98-1.71-2.19-1.71Z"/>
    <g>
      <ellipse class="cls-15" cx="867.65" cy="103.56" rx="2.5" ry="1.95"/>
      <path class="cls-15" d="M870.95,108.27l2.08,7.31c1.18-.21,1.93-1.14,1.67-2.06l-1.78-6.19c-.13-.46-.49-.83-.96-1.07-.27-.13-.56-.2-.87-.23-.17-.02-.35-.03-.54-.03h-5.79c-.13,0-.26,0-.38,.01-.37,.03-.72,.09-1.03,.25-.47,.23-.83,.61-.96,1.07l-1.78,6.19c-.27,.92,.49,1.86,1.67,2.06l2.08-7.31c.03-.11,.16-.19,.3-.19h.21l-.65,2.28-2.5,8.7h2.5v6.04c0,.32,.17,.61,.43,.82,.27,.21,.64,.34,1.05,.34,.82,0,1.48-.52,1.48-1.16v-6.04h.94v6.04c0,.32,.17,.61,.43,.82,.27,.21,.64,.34,1.05,.34,.82,0,1.48-.52,1.48-1.16v-6.04h2.5l-2.5-8.7-.65-2.28h.21c.15,0,.27,.08,.3,.19Z"/>
    </g>
    <rect class="cls-15" x="877.56" y="101" width="1.25" height="25.85" rx=".23" ry=".23"/>
  </g>
  <path class="cls-15" d="M654.51,43.17v40.22c0,.34,.56,.61,1.25,.61h50.89c.69,0,1.25-.27,1.25-.61V43.17c0-.34-.56-.61-1.25-.61h-50.89c-.69,0-1.25,.27-1.25,.61Zm45.7,39.54h-17.45v-27.25c0-.34-.56-.61-1.25-.61s-1.25,.27-1.25,.61v27.25h-18.66v-28.89h38.61v28.89Zm5.08,0h-2.59v-29.5c0-.34-.56-.61-1.25-.61h-41.1c-.69,0-1.25,.27-1.25,.61v29.5h-2.1v-31.39h48.28v31.39Zm.12-38.93v6.32h-48.4v-6.32h48.4Z"/>
  <path class="cls-15" d="M671.11,48.89h20.79c.69,0,1.25-.27,1.25-.61v-2.85c0-.34-.56-.61-1.25-.61h-20.79c-.69,0-1.25,.27-1.25,.61v2.85c0,.34,.56,.61,1.25,.61Zm1.25-2.85h18.3v1.63h-18.3v-1.63Z"/>
  <path class="cls-15" d="M179.73,175.17l9.67-.06,41.82-.26h.08c.43,0,.78-.41,.78-.92l-.24-37.36c0-.51-.36-.91-.79-.91l-51.56,.32c-.43,0-.78,.41-.78,.92l.24,37.36c0,.51,.36,.91,.79,.91Zm50.49-33.86l.08,12.81-34.94,.22c-.43,0-.78,.41-.78,.92s.36,.91,.79,.91l34.94-.22,.09,13.7-37.05,.23-.18-28.34,37.05-.23Zm-.02-3.73v1.9s-37.82,.24-37.82,.24c-.43,0-.78,.41-.78,.92l.19,30.17c0,.51,.36,.91,.79,.91l37.83-.24v1.54s-40.24,.25-40.24,.25l-.22-35.44,40.25-.25Zm-49.92,.23l8.1-.05,.22,35.53-8.1,.05-.22-35.53Z"/>
  <path class="cls-15" d="M186.99,162.93l-.1-15.26c0-.51-.36-.91-.79-.91l-3.66,.02c-.43,0-.78,.41-.78,.92l.1,15.26c0,.51,.36,.91,.79,.91l3.66-.02c.43,0,.78-.41,.78-.92Zm-3.66-.89l-.08-13.44h2.09s.08,13.42,.08,13.42h-2.09Z"/>
</svg>