<?xml version="1.0" encoding="UTF-8"?>
<svg id="Lager_1" data-name="Lager 1" xmlns="http://www.w3.org/2000/svg" viewBox="0 0 1846.26 531.1">
  <defs>
    <style>
      .cls-1 {
        font-size: 16px;
      }

      .cls-1, .cls-2, .cls-3 {
        font-family: ArialRoundedMTBold, 'Arial Rounded MT Bold';
      }

      .cls-1, .cls-2, .cls-3, .cls-4 {
        fill: #010101;
      }

      .cls-5 {
        fill: #1e1e1c;
      }

      .cls-5, .cls-6, .cls-7, .cls-8, .cls-9, .cls-10, .cls-11, .cls-12, .cls-13, .cls-14, .cls-15, .cls-16 {
        stroke-miterlimit: 10;
      }

      .cls-5, .cls-9 {
        stroke-width: .25px;
      }

      .cls-5, .cls-13 {
        stroke: #1e1e1c;
      }

      .cls-17, .cls-7 {
        fill: #fff;
      }

      .cls-6, .cls-8, .cls-9, .cls-10, .cls-11, .cls-12, .cls-13, .cls-14, .cls-15, .cls-16 {
        fill: none;
      }

      .cls-6, .cls-9, .cls-10, .cls-16 {
        stroke: #000;
      }

      .cls-7, .cls-8, .cls-11, .cls-12, .cls-14, .cls-15 {
        stroke: #010101;
      }

      .cls-7, .cls-11, .cls-13, .cls-16 {
        stroke-width: .5px;
      }

      .cls-8 {
        stroke-width: 3px;
      }

      .cls-2 {
        font-size: 17px;
      }

      .cls-3 {
        font-size: 21px;
      }

      .cls-10, .cls-15 {
        stroke-width: 2px;
      }

      .cls-12 {
        stroke-width: 6px;
      }

      .cls-14 {
        stroke-width: 4px;
      }
    </style>
  </defs>
  <polyline class="cls-15" points="1552.95 176.53 1544.02 133.86 1557.39 131.07"/>
  <polygon class="cls-14" points="242.1 455.08 792.1 529.08 1271.1 449.08 1233.1 205.08 1526.1 184.08 1820.1 124.08 1820.1 2 953.62 2 954.1 117.08 886.1 118.08 886.1 148.08 887.1 209.08 911.1 209.08 911.4 265.08 737.1 292.08 680.1 288.08 679.1 302.08 327.76 265.08 330.1 223.08 25.1 194.08 11.1 329.08 253.1 349.08 242.1 455.08"/>
  <polyline class="cls-15" points="954.1 2.08 879.1 2.08 879.1 114.66 886.27 114.66 886.1 118.08"/>
  <polyline class="cls-15" points="886.1 148.08 596.1 198.08 597.36 293.47"/>
  <polyline class="cls-15" points="11.1 329.08 1.1 430.08 242.68 449.46"/>
  <line class="cls-15" x1="1310.56" y1="430.24" x2="1268.66" y2="437.69"/>
  <polyline class="cls-15" points="1526.1 184.08 1565.1 385.08 1310.56 430.24"/>
  <line class="cls-15" x1="1814.1" y1="313.08" x2="1799.1" y2="225.08"/>
  <polyline class="cls-15" points="1820.1 124.08 1827.1 122.08 1845.1 215.08 1544.25 277.64"/>
  <polyline class="cls-15" points="1774.1 230.08 1814.1 313.08 1560.75 362.66"/>
  <line class="cls-15" x1="1535.1" y1="232.08" x2="1836.1" y2="169.08"/>
  <line class="cls-15" x1="116.1" y1="338.08" x2="118.1" y2="315.08"/>
  <polyline class="cls-15" points="119.1 306.08 120.1 280.08 16.98 272.34"/>
  <line class="cls-15" x1="146.1" y1="294.08" x2="152.1" y2="206.08"/>
  <polyline class="cls-15" points="164.1 294.08 212.1 297.08 263.1 263.08 267.36 217.11"/>
  <polyline class="cls-15" points="252.1 362.08 338.1 371.08 326.86 466.48"/>
  <line class="cls-15" x1="663.1" y1="411.08" x2="361.1" y2="373.08"/>
  <polyline class="cls-15" points="361.79 445.31 353.09 443.7 360.5 373.2 365.37 323.4"/>
  <polyline class="cls-15" points="399.97 378.37 392.49 449.54 416.22 452.74"/>
  <polyline class="cls-15" points="435.6 382.45 428.32 454.85 455.65 458.31"/>
  <polyline class="cls-15" points="519.03 393.9 511.55 465.08 529.07 467.62"/>
  <polyline class="cls-15" points="548.58 397.73 541.1 468.91 567.18 472.35"/>
  <polyline class="cls-15" points="632.29 407.76 623.29 478.76 640.17 481.61"/>
  <line class="cls-15" x1="509.1" y1="307.08" x2="500.1" y2="390.08"/>
  <polyline class="cls-15" points="663.1 411.08 667.1 378.08 640.17 375.68"/>
  <line class="cls-15" x1="638.1" y1="407.08" x2="667.1" y2="378.08"/>
  <line class="cls-15" x1="675.55" y1="441.49" x2="714.1" y2="446.08"/>
  <polyline class="cls-15" points="704.1 517.08 718.1 407.08 806.1 415.08 802.87 462.08 873.32 448.08 885.1 512.08"/>
  <polyline class="cls-15" points="797.1 285.08 807.1 365.08 857.93 356.1"/>
  <polyline class="cls-15" points="807.1 365.08 718.1 380.08 722.1 344.08"/>
  <line class="cls-15" x1="679.1" y1="302.08" x2="679.1" y2="325.08"/>
  <line class="cls-15" x1="730.1" y1="293.08" x2="729.1" y2="329.08"/>
  <line class="cls-15" x1="911.1" y1="265.08" x2="1002.94" y2="251.55"/>
  <line class="cls-15" x1="966.1" y1="338.08" x2="957.84" y2="283.74"/>
  <line class="cls-15" x1="941.33" y1="342.7" x2="967.1" y2="338.08"/>
  <polyline class="cls-15" points="952.1 209.08 991.1 209.08 991.1 176.39 940.13 176.39 940.1 185.02 940.1 202.85 940.1 206.18"/>
  <line class="cls-12" x1="885.1" y1="209.08" x2="992.1" y2="209.08"/>
  <line class="cls-15" x1="915.1" y1="183.08" x2="915.1" y2="207.08"/>
  <polyline class="cls-15" points="978.1 154.08 991.1 154.08 991.1 118.08 957.1 154.08"/>
  <line class="cls-15" x1="908.1" y1="154.08" x2="969.1" y2="154.08"/>
  <line class="cls-15" x1="991.1" y1="118.08" x2="956.1" y2="118.08"/>
  <polyline class="cls-15" points="886.1 269.08 886.1 251.08 912.1 251.08"/>
  <polyline class="cls-15" points="1015.49 391.24 973.69 398.96 991.56 496.14"/>
  <line class="cls-15" x1="1078.84" y1="479.84" x2="1071.6" y2="435.1"/>
  <line class="cls-15" x1="1196.1" y1="270.08" x2="1242.1" y2="262.08"/>
  <polyline class="cls-8" points="1516.77 184.08 1516.77 134.35 1530.42 134.35"/>
  <polyline class="cls-15" points="1552.95 176.53 1544.02 133.86 1557.39 131.07"/>
  <polyline class="cls-15" points="1582.63 172.65 1573.24 127.77 1586.1 125.08"/>
  <polyline class="cls-15" points="1610.58 167.67 1601.19 122.79 1614.05 120.1"/>
  <polyline class="cls-15" points="1639.02 159.12 1630.09 116.46 1643.46 113.66"/>
  <polyline class="cls-15" points="1668.7 155.24 1659.31 110.36 1672.17 107.67"/>
  <polyline class="cls-15" points="1696.65 150.26 1687.26 105.38 1700.12 102.69"/>
  <polyline class="cls-15" points="1724.92 143.16 1715.53 98.28 1728.39 95.59"/>
  <polyline class="cls-15" points="1750.49 137.45 1741.08 92.51 1760.1 88.53"/>
  <polyline class="cls-15" points="1772.25 77.77 1772.25 68.74 1820.1 68.74"/>
  <line class="cls-15" x1="1766.25" y1="2.08" x2="1766.25" y2="46.08"/>
  <polyline class="cls-15" points="1753.25 45.08 1772.25 45.08 1772.25 52.62"/>
  <line class="cls-15" x1="1726.1" y1="2.08" x2="1726.1" y2="46.08"/>
  <line class="cls-15" x1="1713.1" y1="45.08" x2="1732.1" y2="45.08"/>
  <line class="cls-15" x1="1697.1" y1="2.08" x2="1697.1" y2="46.08"/>
  <line class="cls-15" x1="1684.1" y1="45.08" x2="1703.1" y2="45.08"/>
  <line class="cls-15" x1="1668.1" y1="2.08" x2="1668.1" y2="46.08"/>
  <line class="cls-15" x1="1655.1" y1="45.08" x2="1674.1" y2="45.08"/>
  <line class="cls-15" x1="1639.1" y1="2.08" x2="1639.1" y2="46.08"/>
  <line class="cls-15" x1="1626.1" y1="45.08" x2="1645.1" y2="45.08"/>
  <line class="cls-15" x1="1611.1" y1="2.08" x2="1611.1" y2="46.08"/>
  <line class="cls-15" x1="1598.1" y1="45.08" x2="1617.1" y2="45.08"/>
  <line class="cls-15" x1="1582.1" y1="2.08" x2="1582.1" y2="46.08"/>
  <line class="cls-15" x1="1569.1" y1="45.08" x2="1588.1" y2="45.08"/>
  <line class="cls-15" x1="1553.1" y1="2.08" x2="1553.1" y2="46.08"/>
  <line class="cls-15" x1="1540.1" y1="45.08" x2="1559.1" y2="45.08"/>
  <line class="cls-15" x1="1520.1" y1="2.08" x2="1520.1" y2="46.08"/>
  <line class="cls-15" x1="1529.1" y1="45.08" x2="1520.1" y2="45.08"/>
  <line class="cls-15" x1="1409.1" y1="3.08" x2="1409.1" y2="47.08"/>
  <line class="cls-15" x1="1295.1" y1="4.08" x2="1295.1" y2="48.08"/>
  <line class="cls-15" x1="1467.1" y1="3.08" x2="1467.1" y2="47.08"/>
  <polyline class="cls-15" points="1032.46 248.28 1032.46 155.94 1039.74 155.88"/>
  <polyline class="cls-15" points="1112.88 155.88 1149.82 155.92 1150.14 158.53 1156.46 225.89"/>
  <line class="cls-15" x1="1091.3" y1="155.88" x2="1100.34" y2="235.72"/>
  <path class="cls-15" d="M806.1,419.08c34.06,1.03,33,36,33,36"/>
  <line class="cls-15" x1="1058.67" y1="352.48" x2="1010.83" y2="360.79"/>
  <line class="cls-17" x1="137.1" y1="293.08" x2="154.1" y2="294.08"/>
  <polyline class="cls-8" points="1235.6 68.58 1235.6 138.58 1279.1 138.58"/>
  <line class="cls-8" x1="1235.1" y1="69.08" x2="1279.1" y2="69.08"/>
  <line class="cls-8" x1="1324.6" y1="68.58" x2="1324.6" y2="138.58"/>
  <line class="cls-8" x1="1294.6" y1="139.58" x2="1294.6" y2="67.58"/>
  <line class="cls-8" x1="1324.6" y1="68.58" x2="1294.6" y2="138.58"/>
  <polyline class="cls-8" points="1466.6 63.58 1516.77 63.58 1516.77 116.58"/>
  <line class="cls-15" x1="715.1" y1="433.08" x2="684.37" y2="429.05"/>
  <polyline class="cls-15" points="338.1 371.08 341.1 347.08 276.1 340.08 273 364.26"/>
  <line class="cls-15" x1="273.1" y1="364.08" x2="308.1" y2="344.08"/>
  <line class="cls-15" x1="305.1" y1="367.08" x2="308.1" y2="344.08"/>
  <line class="cls-8" x1="253.1" y1="349.08" x2="275.1" y2="351.08"/>
  <line class="cls-8" x1="259.6" y1="300.58" x2="253.6" y2="349.58"/>
  <line class="cls-8" x1="261.6" y1="284.58" x2="267.6" y2="217.58"/>
  <line class="cls-15" x1="262.1" y1="278.08" x2="297.1" y2="281.08"/>
  <line class="cls-15" x1="266.1" y1="251.08" x2="309.1" y2="255.08"/>
  <polyline class="cls-15" points="292.1 342.08 295.1 309.08 318.1 310.08 314.1 343.08"/>
  <line class="cls-15" x1="276.1" y1="340.08" x2="277.6" y2="305.58"/>
  <line class="cls-15" x1="258.1" y1="301.08" x2="278.1" y2="307.08"/>
  <line class="cls-15" x1="569.44" y1="398.43" x2="578.55" y2="316.92"/>
  <line class="cls-15" x1="425.23" y1="380.18" x2="433.51" y2="297.86"/>
  <line class="cls-15" x1="389.1" y1="376.08" x2="397.1" y2="293.08"/>
  <polyline class="cls-15" points="397.1 293.08 578.55 316.92 632.18 323.24 629.39 349.74"/>
  <polyline class="cls-15" points="635.96 406.61 640.17 375.68 641.87 362.08"/>
  <polyline class="cls-15" points="572.72 369.07 625.75 374.13 627.17 362.08 627.55 359.3"/>
  <line class="cls-15" x1="427.16" y1="349.74" x2="403.55" y2="347.34"/>
  <line class="cls-15" x1="395.08" y1="313.94" x2="367.18" y2="311.29"/>
  <line class="cls-15" x1="657.18" y1="449.66" x2="653.17" y2="483.18"/>
  <line class="cls-15" x1="660.34" y1="434.17" x2="663.19" y2="410.38"/>
  <line class="cls-15" x1="640.17" y1="481.61" x2="654.13" y2="483.72"/>
  <line class="cls-15" x1="511.55" y1="465.08" x2="468.5" y2="459.84"/>
  <line class="cls-15" x1="623.29" y1="478.76" x2="582.87" y2="474.45"/>
  <polyline class="cls-15" points="377.34 375.36 369.9 446.19 381.73 448.13"/>
  <line class="cls-15" x1="802.87" y1="462.08" x2="797.8" y2="528.12"/>
  <polyline class="cls-15" points="957.84 283.74 996.71 279.16 999.03 299.84"/>
  <polyline class="cls-15" points="967.1 338.08 1002.33 332.7 1000.38 313.08"/>
  <line class="cls-15" x1="869.84" y1="354.05" x2="930.1" y2="344.08"/>
  <line class="cls-15" x1="1033.1" y1="247.08" x2="1177.1" y2="223.08"/>
  <line class="cls-15" x1="1196.1" y1="270.08" x2="1196.1" y2="255.32"/>
  <line class="cls-15" x1="1033.1" y1="247.08" x2="1047.39" y2="331.93"/>
  <polyline class="cls-15" points="1010.83 360.79 1016.1 391.08 1062.96 382.93 1058.67 352.48"/>
  <polyline class="cls-15" points="1035.62 387.68 1041 420.78 1068.64 416.77 1062.96 382.93"/>
  <line class="cls-15" x1="1041" y1="420.78" x2="1062.96" y2="382.93"/>
  <line class="cls-15" x1="1086.19" y1="352.29" x2="1200.7" y2="333.83"/>
  <line class="cls-15" x1="1058.3" y1="356.79" x2="1072.93" y2="354.43"/>
  <line class="cls-15" x1="1214.53" y1="331.6" x2="1251.86" y2="325.58"/>
  <polyline class="cls-15" points="1050.16 155.88 1091.3 155.88 1104.1 155.88"/>
  <line class="cls-8" x1="1235.6" y1="47.08" x2="1235.1" y2="2"/>
  <polyline class="cls-15" points="1196.1 245.08 1196.1 210.08 1233.1 205.08"/>
  <line class="cls-8" x1="1235.6" y1="155.88" x2="1235.6" y2="205.08"/>
  <line class="cls-8" x1="1293.22" y1="67.57" x2="1326.07" y2="67.89"/>
  <line class="cls-8" x1="1293.21" y1="138.58" x2="1326.07" y2="138.58"/>
  <line class="cls-15" x1="1772.25" y1="87.32" x2="1772.25" y2="133.84"/>
  <line class="cls-15" x1="1772.25" y1="68.74" x2="1772.25" y2="63.15"/>
  <line class="cls-8" x1="1516.77" y1="184.08" x2="1516.77" y2="134.35"/>
  <polygon class="cls-17" points="719.11 408.56 804.81 416.13 796.85 526.17 792.06 526.97 705.54 515.32 719.11 408.56"/>
  <polygon class="cls-17" points="401.96 380.18 393.67 448.29 426.83 452.74 434.46 383.64 401.96 380.18"/>
  <polygon class="cls-17" points="434.98 300.34 507.31 308.96 498.45 388.51 427.01 379.41 434.98 300.34"/>
  <polygon class="cls-17" points="510.08 310.45 576.51 318.37 567.62 397.75 502.01 389.34 510.08 310.45"/>
  <polygon class="cls-17" points="731.1 294.08 731.1 329.08 738.04 329.08 738.04 348.88 723.13 348.88 719.1 378.08 806.1 364.08 795.1 286.08 737.1 295.08 731.1 294.08"/>
  <polygon class="cls-17" points="335.54 372.17 253.97 363.91 244.66 453.92 325.41 465.06 335.54 372.17"/>
  <polyline class="cls-17" points="549.85 398.04 630.99 408.24 622.32 477.63 542.35 468 549.85 398.04"/>
  <polygon class="cls-17" points="436.54 383.77 517.59 394.3 510.56 463.86 429.5 453.9 436.54 383.77"/>
  <polyline class="cls-15" points="718.1 407.08 687.91 403.84 686.07 416.92"/>
  <text class="cls-1" transform="translate(442.48 349.2) rotate(6)"><tspan x="0" y="0">K2414</tspan></text>
  <text class="cls-1" transform="translate(514.94 359.48) rotate(6)"><tspan x="0" y="0">K2415</tspan></text>
  <text class="cls-1" transform="translate(446.53 428.79) rotate(6)"><tspan x="0" y="0">K2427</tspan></text>
  <text class="cls-2" transform="translate(411.72 389.4) rotate(98)"><tspan x="0" y="0">K2426</tspan></text>
  <text class="cls-3" transform="translate(731.54 479.02) rotate(5)"><tspan x="0" y="0">K42</tspan></text>
  <text class="cls-1" transform="translate(263.66 415.05) rotate(6)"><tspan x="0" y="0">K2411</tspan></text>
  <text class="cls-1" transform="translate(559.33 443.94) rotate(6)"><tspan x="0" y="0">K2429</tspan></text>
  <path class="cls-4" d="M686.4,294.83l-.16,5.89-.71,25.46v.05c0,.26,.39,.49,.9,.5l37.33,1.04c.5,.01,.92-.19,.93-.45l.87-31.4c0-.26-.4-.49-.9-.5l-37.33-1.04c-.5-.01-.92,.19-.93,.45Zm32.66,31.81l-12.8-.36,.59-21.28c0-.26-.4-.49-.9-.5s-.92,.19-.93,.45l-.59,21.28-13.69-.38,.63-22.56,28.32,.79-.63,22.56Zm3.72,.1l-1.9-.05,.64-23.04c0-.26-.4-.49-.9-.5l-30.15-.84c-.5-.01-.92,.19-.93,.45l-.64,23.04-1.54-.04,.68-24.51,35.42,.98-.68,24.51Zm.93-30.4l-.14,4.93-35.51-.99,.14-4.93,35.51,.99Z"/>
  <path class="cls-4" d="M698.45,299.64l15.25,.42c.5,.01,.92-.19,.93-.45l.06-2.23c0-.26-.4-.49-.9-.5l-15.25-.42c-.5-.01-.92,.19-.93,.45l-.06,2.23c0,.26,.4,.49,.9,.5Zm.98-2.2l13.43,.37-.04,1.27-13.43-.37,.04-1.27Z"/>
  <path class="cls-4" d="M265.52,275.66l5.71,.54,24.68,2.35h.04c.26,.03,.49-.19,.51-.48l2.05-21.52c.03-.29-.16-.55-.41-.57l-30.43-2.9c-.26-.02-.49,.19-.51,.48l-2.05,21.52c-.03,.29,.16,.55,.41,.57Zm31.76-16.47l-.7,7.38-20.62-1.96c-.26-.02-.49,.19-.51,.48s.16,.55,.41,.57l20.62,1.96-.75,7.89-21.86-2.08,1.55-16.32,21.86,2.08Zm.2-2.15l-.1,1.09-22.33-2.13c-.26-.02-.49,.19-.51,.48l-1.66,17.38c-.03,.29,.16,.55,.41,.57l22.33,2.13-.08,.89-23.75-2.26,1.94-20.41,23.75,2.26Zm-29.45-2.86l4.78,.46-1.95,20.46-4.78-.46,1.95-20.46Z"/>
  <path class="cls-4" d="M270.52,269.06l.84-8.79c.03-.29-.16-.55-.41-.57l-2.16-.21c-.26-.02-.49,.19-.51,.48l-.84,8.79c-.03,.29,.16,.55,.41,.57l2.16,.21c.26,.02,.49-.19,.51-.48Zm-2.11-.73l.74-7.74,1.23,.12-.74,7.74-1.23-.12Z"/>
  <line class="cls-13" x1="308.02" y1="237.4" x2="306.47" y2="255.03"/>
  <line class="cls-13" x1="305.75" y1="238.08" x2="304.19" y2="255.71"/>
  <line class="cls-13" x1="302.73" y1="237.82" x2="301.17" y2="255.45"/>
  <line class="cls-13" x1="300.72" y1="237.21" x2="299.17" y2="254.84"/>
  <line class="cls-13" x1="297.7" y1="236.95" x2="296.15" y2="254.58"/>
  <line class="cls-13" x1="295.43" y1="237.64" x2="293.98" y2="254.02"/>
  <line class="cls-13" x1="292.41" y1="237.38" x2="290.96" y2="253.76"/>
  <line class="cls-13" x1="290.21" y1="236.24" x2="288.65" y2="253.87"/>
  <line class="cls-13" x1="287.19" y1="235.98" x2="285.63" y2="253.61"/>
  <line class="cls-13" x1="284.92" y1="236.67" x2="283.45" y2="253.33"/>
  <line class="cls-13" x1="281.9" y1="236.41" x2="280.43" y2="253"/>
  <line class="cls-13" x1="277.35" y1="235.54" x2="275.79" y2="253.17"/>
  <line class="cls-13" x1="279.75" y1="235.41" x2="278.19" y2="253.04"/>
  <polyline class="cls-6" points="276.35 235.83 309.68 238.48 311.15 221.18"/>
  <line class="cls-10" x1="283.79" y1="234.21" x2="283.79" y2="234.27"/>
  <line class="cls-13" x1="307.17" y1="221.34" x2="305.61" y2="238.97"/>
  <line class="cls-13" x1="304.15" y1="221.08" x2="302.59" y2="238.71"/>
  <line class="cls-13" x1="302.14" y1="220.47" x2="300.58" y2="238.1"/>
  <line class="cls-13" x1="299.12" y1="220.21" x2="297.57" y2="237.84"/>
  <line class="cls-13" x1="296.85" y1="220.9" x2="295.4" y2="237.28"/>
  <line class="cls-13" x1="293.83" y1="220.64" x2="292.38" y2="237.02"/>
  <line class="cls-13" x1="291.63" y1="219.5" x2="290.07" y2="237.13"/>
  <line class="cls-13" x1="288.61" y1="219.24" x2="287.05" y2="236.87"/>
  <line class="cls-13" x1="286.33" y1="219.93" x2="284.86" y2="236.59"/>
  <line class="cls-13" x1="283.31" y1="219.67" x2="281.85" y2="236.26"/>
  <line class="cls-13" x1="278.76" y1="218.8" x2="277.21" y2="236.43"/>
  <line class="cls-13" x1="281.17" y1="218.67" x2="279.61" y2="236.3"/>
  <line class="cls-13" x1="307.64" y1="246.6" x2="273.38" y2="243.63"/>
  <polygon class="cls-5" points="274.32 242.23 272.1 243.51 274.02 245.22 274.32 242.23"/>
  <line class="cls-13" x1="277.58" y1="228.93" x2="308.3" y2="231.16"/>
  <polygon class="cls-5" points="307.46 232.57 309.45 231.25 307.72 229.58 307.46 232.57"/>
  <path class="cls-4" d="M915.61,254.67h5.89s25.47,0,25.47,0h.05c.26,0,.48-.41,.48-.91v-37.35c0-.5-.21-.91-.48-.91h-31.41c-.26,0-.48,.41-.48,.91v37.35c0,.5,.21,.91,.48,.91Zm30.89-33.53v12.81s-21.28,0-21.28,0c-.26,0-.48,.41-.48,.91s.21,.91,.48,.91h21.28s0,13.7,0,13.7h-22.57s0-28.33,0-28.33h22.57Zm0-3.73v1.9s-23.05,0-23.05,0c-.26,0-.48,.41-.48,.91v30.16c0,.5,.21,.91,.48,.91h23.05s0,1.54,0,1.54h-24.52s0-35.43,0-35.43h24.52Zm-30.41-.09h4.94s0,35.52,0,35.52h-4.94s0-35.52,0-35.52Z"/>
  <path class="cls-4" d="M920.08,242.48v-15.26c0-.5-.21-.91-.48-.91h-2.23c-.26,0-.48,.41-.48,.91v15.26c0,.5,.21,.91,.48,.91h2.23c.26,0,.48-.41,.48-.91Zm-2.23-.91v-13.43s1.27,0,1.27,0v13.43s-1.27,0-1.27,0Z"/>
  <path class="cls-4" d="M917.13,182.9v4.14s0,17.89,0,17.89v.03c0,.19,.22,.34,.49,.34h19.96c.27,0,.49-.15,.49-.34v-22.06c0-.19-.22-.34-.49-.34h-19.96c-.27,0-.49,.15-.49,.34Zm17.92,21.69h-6.85s0-14.95,0-14.95c0-.19-.22-.34-.49-.34s-.49,.15-.49,.34v14.95s-7.32,0-7.32,0v-15.85s15.14,0,15.14,0v15.85Zm1.99,0h-1.01s0-16.19,0-16.19c0-.19-.22-.34-.49-.34h-16.12c-.27,0-.49,.15-.49,.34v16.19s-.82,0-.82,0v-17.22s18.94,0,18.94,0v17.22Zm.05-21.36v3.47s-18.98,0-18.98,0v-3.47s18.98,0,18.98,0Z"/>
  <path class="cls-4" d="M923.64,186.04h8.15c.27,0,.49-.15,.49-.34v-1.56c0-.19-.22-.34-.49-.34h-8.15c-.27,0-.49,.15-.49,.34v1.56c0,.19,.22,.34,.49,.34Zm.49-1.56h7.18s0,.89,0,.89h-7.18s0-.89,0-.89Z"/>
  <line class="cls-14" x1="954.1" y1="117.08" x2="954.59" y2="153.77"/>
  <line class="cls-13" x1="909.84" y1="135.5" x2="909.88" y2="153.2"/>
  <line class="cls-13" x1="912.05" y1="136.38" x2="912.09" y2="154.08"/>
  <line class="cls-13" x1="915.08" y1="136.38" x2="915.12" y2="154.08"/>
  <line class="cls-13" x1="917.13" y1="135.94" x2="917.17" y2="153.64"/>
  <line class="cls-13" x1="920.16" y1="135.94" x2="920.2" y2="153.64"/>
  <line class="cls-13" x1="922.37" y1="136.82" x2="922.41" y2="153.27"/>
  <line class="cls-13" x1="925.4" y1="136.82" x2="925.44" y2="153.27"/>
  <line class="cls-13" x1="927.69" y1="135.88" x2="927.73" y2="153.58"/>
  <line class="cls-13" x1="930.72" y1="135.88" x2="930.76" y2="153.58"/>
  <line class="cls-13" x1="932.93" y1="136.76" x2="932.96" y2="153.48"/>
  <line class="cls-13" x1="935.96" y1="136.76" x2="935.99" y2="153.41"/>
  <line class="cls-13" x1="940.57" y1="136.27" x2="940.61" y2="153.97"/>
  <line class="cls-13" x1="938.18" y1="135.94" x2="938.22" y2="153.64"/>
  <polyline class="cls-6" points="941.53 136.65 908.1 136.44 908.11 119.08"/>
  <line class="cls-10" x1="934.26" y1="134.4" x2="934.26" y2="134.46"/>
  <line class="cls-13" x1="912.07" y1="119.58" x2="912.11" y2="137.28"/>
  <line class="cls-13" x1="915.1" y1="119.58" x2="915.14" y2="137.28"/>
  <line class="cls-13" x1="917.15" y1="119.14" x2="917.19" y2="136.84"/>
  <line class="cls-13" x1="920.18" y1="119.14" x2="920.22" y2="136.84"/>
  <line class="cls-13" x1="922.39" y1="120.02" x2="922.43" y2="136.47"/>
  <line class="cls-13" x1="925.42" y1="120.02" x2="925.46" y2="136.47"/>
  <line class="cls-13" x1="927.71" y1="119.08" x2="927.75" y2="136.78"/>
  <line class="cls-13" x1="930.74" y1="119.08" x2="930.78" y2="136.78"/>
  <line class="cls-13" x1="932.95" y1="119.96" x2="932.98" y2="136.68"/>
  <line class="cls-13" x1="935.98" y1="119.96" x2="936.01" y2="136.61"/>
  <line class="cls-13" x1="940.59" y1="119.47" x2="940.63" y2="137.17"/>
  <line class="cls-13" x1="938.2" y1="119.14" x2="938.24" y2="136.84"/>
  <line class="cls-13" x1="909.44" y1="144.7" x2="943.82" y2="144.67"/>
  <polygon class="cls-5" points="943.01 143.2 945.11 144.67 943.05 146.21 943.01 143.2"/>
  <line class="cls-13" x1="940.9" y1="129.67" x2="910.1" y2="129.26"/>
  <polygon class="cls-5" points="910.81 130.74 908.95 129.25 910.81 127.74 910.81 130.74"/>
  <path class="cls-15" d="M893.82,444.05c6,12.19,18.63,19.69,32,19,12.55-.64,23.77-8.39,29-20"/>
  <line class="cls-15" x1="893.82" y1="444.05" x2="883.82" y2="406.05"/>
  <line class="cls-15" x1="912.82" y1="437.05" x2="897.82" y2="391.05"/>
  <line class="cls-15" x1="937.82" y1="432.05" x2="933.82" y2="385.05"/>
  <polyline class="cls-15" points="895.82 448.05 904.82 469.05 954.82 463.09 954.82 443.05 954.82 394.05"/>
  <line class="cls-7" x1="897.82" y1="392.05" x2="933.82" y2="387.05"/>
  <line class="cls-7" x1="897.68" y1="393.21" x2="933.68" y2="388.21"/>
  <line class="cls-7" x1="899.96" y1="393.96" x2="935.26" y2="389.05"/>
  <line class="cls-7" x1="899.82" y1="395.08" x2="935.13" y2="390.18"/>
  <line class="cls-7" x1="900.1" y1="396.37" x2="933.84" y2="391.55"/>
  <line class="cls-7" x1="898.84" y1="397.62" x2="934.34" y2="392.69"/>
  <line class="cls-7" x1="898.7" y1="398.78" x2="934.2" y2="393.85"/>
  <line class="cls-7" x1="900.96" y1="399.54" x2="935.77" y2="394.7"/>
  <line class="cls-7" x1="900.82" y1="400.66" x2="935.64" y2="395.83"/>
  <line class="cls-7" x1="901.1" y1="401.94" x2="934.37" y2="397.2"/>
  <line class="cls-7" x1="900.81" y1="402.94" x2="934.48" y2="398.27"/>
  <line class="cls-7" x1="900.69" y1="404.1" x2="934.36" y2="399.42"/>
  <line class="cls-7" x1="902.83" y1="404.87" x2="935.85" y2="400.28"/>
  <line class="cls-7" x1="902.72" y1="405.99" x2="935.73" y2="401.41"/>
  <line class="cls-7" x1="902.99" y1="407.28" x2="934.54" y2="402.77"/>
  <line class="cls-7" x1="903.83" y1="408.22" x2="934.95" y2="403.9"/>
  <line class="cls-7" x1="903.73" y1="409.38" x2="934.84" y2="405.06"/>
  <line class="cls-7" x1="903.32" y1="410.55" x2="936.24" y2="405.93"/>
  <line class="cls-7" x1="904.32" y1="411.55" x2="936.14" y2="407.05"/>
  <line class="cls-7" x1="904.32" y1="412.55" x2="935.04" y2="408.4"/>
  <line class="cls-7" x1="904.32" y1="413.55" x2="935.13" y2="409.21"/>
  <line class="cls-7" x1="904.42" y1="414.66" x2="935.54" y2="410.34"/>
  <line class="cls-7" x1="904.32" y1="415.81" x2="935.43" y2="411.49"/>
  <line class="cls-7" x1="905.32" y1="416.55" x2="936.83" y2="412.37"/>
  <line class="cls-7" x1="906.32" y1="417.55" x2="936.73" y2="413.49"/>
  <line class="cls-7" x1="906.32" y1="418.55" x2="935.63" y2="414.84"/>
  <line class="cls-7" x1="906.16" y1="419.86" x2="937.71" y2="415.35"/>
  <line class="cls-7" x1="907" y1="420.8" x2="937.32" y2="416.55"/>
  <line class="cls-7" x1="906.9" y1="421.96" x2="937.32" y2="417.55"/>
  <line class="cls-7" x1="906.49" y1="423.13" x2="937.32" y2="418.55"/>
  <line class="cls-7" x1="908.35" y1="423.76" x2="937.29" y2="419.34"/>
  <line class="cls-7" x1="908.32" y1="425.55" x2="938.22" y2="420.98"/>
  <line class="cls-7" x1="908.32" y1="426.55" x2="937.51" y2="421.85"/>
  <line class="cls-7" x1="909.32" y1="427.55" x2="937.95" y2="423.15"/>
  <line class="cls-7" x1="909.32" y1="428.55" x2="937.84" y2="424.31"/>
  <line class="cls-7" x1="909.32" y1="429.55" x2="938.32" y2="425.55"/>
  <line class="cls-7" x1="910.32" y1="430.55" x2="938.32" y2="426.55"/>
  <line class="cls-7" x1="910.32" y1="431.55" x2="938.04" y2="427.65"/>
  <line class="cls-7" x1="910.32" y1="432.55" x2="938.32" y2="428.55"/>
  <line class="cls-7" x1="910.32" y1="433.55" x2="938.32" y2="429.55"/>
  <line class="cls-7" x1="911.32" y1="434.55" x2="938.32" y2="430.55"/>
  <line class="cls-7" x1="911.32" y1="435.55" x2="938.32" y2="431.55"/>
  <line class="cls-7" x1="909.03" y1="424.58" x2="937.97" y2="420.16"/>
  <line class="cls-11" x1="883.82" y1="407.05" x2="897.82" y2="392.05"/>
  <line class="cls-11" x1="883.82" y1="408.05" x2="897.82" y2="393.05"/>
  <line class="cls-11" x1="884.82" y1="408.05" x2="898.82" y2="393.05"/>
  <line class="cls-11" x1="884.82" y1="409.05" x2="898.82" y2="394.05"/>
  <line class="cls-11" x1="884.94" y1="410.16" x2="898.94" y2="395.16"/>
  <line class="cls-11" x1="884.94" y1="411.16" x2="898.94" y2="396.16"/>
  <line class="cls-11" x1="885.94" y1="411.16" x2="899.94" y2="396.16"/>
  <line class="cls-11" x1="885.94" y1="412.16" x2="899.94" y2="397.16"/>
  <line class="cls-11" x1="885.94" y1="413.16" x2="899.94" y2="398.16"/>
  <line class="cls-11" x1="885.94" y1="414.16" x2="899.94" y2="399.16"/>
  <line class="cls-11" x1="886.94" y1="414.16" x2="900.94" y2="399.16"/>
  <line class="cls-11" x1="886.94" y1="415.16" x2="900.94" y2="400.16"/>
  <line class="cls-11" x1="886.3" y1="417.03" x2="901.01" y2="401.27"/>
  <line class="cls-11" x1="886.3" y1="418.08" x2="901" y2="402.32"/>
  <line class="cls-11" x1="887.34" y1="418.07" x2="902.05" y2="402.32"/>
  <line class="cls-11" x1="887.34" y1="419.12" x2="902.05" y2="403.36"/>
  <line class="cls-11" x1="887.46" y1="420.29" x2="902.17" y2="404.53"/>
  <line class="cls-11" x1="887.46" y1="421.34" x2="902.17" y2="405.58"/>
  <line class="cls-11" x1="888.51" y1="421.33" x2="903.21" y2="405.58"/>
  <line class="cls-11" x1="888.51" y1="422.38" x2="903.21" y2="406.63"/>
  <line class="cls-11" x1="888.5" y1="423.43" x2="903.21" y2="407.67"/>
  <line class="cls-11" x1="888.5" y1="424.48" x2="903.2" y2="408.72"/>
  <line class="cls-11" x1="889.55" y1="424.47" x2="904.25" y2="408.72"/>
  <line class="cls-11" x1="889.54" y1="425.52" x2="904.25" y2="409.77"/>
  <line class="cls-11" x1="889.18" y1="427.08" x2="903.89" y2="411.33"/>
  <line class="cls-11" x1="889.24" y1="428.18" x2="903.94" y2="412.43"/>
  <line class="cls-11" x1="890.35" y1="428.24" x2="905.05" y2="412.48"/>
  <line class="cls-11" x1="890.4" y1="429.34" x2="905.11" y2="413.58"/>
  <line class="cls-11" x1="890.6" y1="430.58" x2="905.3" y2="414.82"/>
  <line class="cls-11" x1="890.65" y1="431.68" x2="905.36" y2="415.92"/>
  <line class="cls-11" x1="891.48" y1="431.7" x2="906.3" y2="415.82"/>
  <line class="cls-11" x1="891.81" y1="432.83" x2="906.52" y2="417.08"/>
  <line class="cls-11" x1="891.87" y1="433.93" x2="906.58" y2="418.18"/>
  <line class="cls-11" x1="891.92" y1="435.03" x2="906.63" y2="419.28"/>
  <line class="cls-11" x1="892.4" y1="435.62" x2="907.66" y2="419.26"/>
  <line class="cls-11" x1="892.37" y1="436.6" x2="907.74" y2="420.38"/>
  <line class="cls-11" x1="892.46" y1="438.11" x2="907.55" y2="421.94"/>
  <line class="cls-11" x1="892.45" y1="439.17" x2="907.53" y2="423"/>
  <line class="cls-11" x1="893.51" y1="439.15" x2="908.59" y2="422.99"/>
  <line class="cls-11" x1="893.49" y1="440.21" x2="908.58" y2="424.05"/>
  <line class="cls-11" x1="893.6" y1="441.4" x2="908.69" y2="425.23"/>
  <line class="cls-11" x1="893.58" y1="442.46" x2="908.67" y2="426.3"/>
  <line class="cls-11" x1="894.32" y1="442.55" x2="909.73" y2="426.28"/>
  <line class="cls-11" x1="894.63" y1="443.51" x2="909.71" y2="427.34"/>
  <line class="cls-11" x1="894.61" y1="444.57" x2="909.7" y2="428.4"/>
  <line class="cls-11" x1="894.59" y1="445.63" x2="909.68" y2="429.46"/>
  <line class="cls-11" x1="895.65" y1="445.61" x2="910.74" y2="429.45"/>
  <line class="cls-11" x1="895.64" y1="446.67" x2="910.72" y2="430.51"/>
  <line class="cls-7" x1="934.96" y1="394.43" x2="955.65" y2="394.42"/>
  <line class="cls-7" x1="934.85" y1="395.42" x2="955.85" y2="395.71"/>
  <line class="cls-7" x1="935.45" y1="396.55" x2="955.74" y2="396.7"/>
  <line class="cls-7" x1="935.34" y1="397.54" x2="955.42" y2="397.75"/>
  <line class="cls-7" x1="935.23" y1="398.53" x2="955.51" y2="398.68"/>
  <line class="cls-7" x1="935.12" y1="399.52" x2="955.4" y2="399.67"/>
  <line class="cls-7" x1="935.71" y1="400.66" x2="955.29" y2="400.66"/>
  <line class="cls-7" x1="935.6" y1="401.64" x2="955.18" y2="401.65"/>
  <line class="cls-7" x1="935.96" y1="402.24" x2="955.8" y2="402.17"/>
  <line class="cls-7" x1="935.85" y1="403.38" x2="955.99" y2="403.67"/>
  <line class="cls-7" x1="936.42" y1="404.69" x2="955.88" y2="404.82"/>
  <line class="cls-7" x1="936.31" y1="405.84" x2="955.58" y2="406.03"/>
  <line class="cls-7" x1="936.2" y1="406.98" x2="955.66" y2="407.11"/>
  <line class="cls-7" x1="936.09" y1="408.13" x2="955.55" y2="408.25"/>
  <line class="cls-7" x1="936.66" y1="409.44" x2="955.45" y2="409.4"/>
  <line class="cls-7" x1="936.55" y1="410.58" x2="955.34" y2="410.54"/>
  <line class="cls-7" x1="936" y1="411.91" x2="954.76" y2="411.88"/>
  <line class="cls-7" x1="935.9" y1="412.9" x2="954.93" y2="413.18"/>
  <line class="cls-7" x1="936.44" y1="414.04" x2="954.83" y2="414.17"/>
  <line class="cls-7" x1="936.34" y1="415.03" x2="954.54" y2="415.22"/>
  <line class="cls-7" x1="936.23" y1="416.02" x2="954.63" y2="416.14"/>
  <line class="cls-7" x1="936.13" y1="417.01" x2="954.53" y2="417.13"/>
  <line class="cls-7" x1="936.67" y1="418.14" x2="954.42" y2="418.12"/>
  <line class="cls-7" x1="936.57" y1="419.13" x2="954.32" y2="419.11"/>
  <line class="cls-7" x1="936.89" y1="419.72" x2="954.89" y2="419.64"/>
  <line class="cls-7" x1="936.79" y1="420.87" x2="955.06" y2="421.13"/>
  <line class="cls-7" x1="937.31" y1="422.18" x2="954.95" y2="422.28"/>
  <line class="cls-7" x1="937.21" y1="423.32" x2="954.67" y2="423.5"/>
  <line class="cls-7" x1="937.11" y1="424.47" x2="954.75" y2="424.57"/>
  <line class="cls-7" x1="937.01" y1="425.61" x2="954.65" y2="425.71"/>
  <line class="cls-7" x1="937.52" y1="426.92" x2="954.55" y2="426.86"/>
  <line class="cls-7" x1="937.42" y1="428.07" x2="954.45" y2="428"/>
  <path class="cls-16" d="M1202.26,230.24l13.98,8.58-2.93,15.99c9.72,.72,18.32-5.51,19.41-13.72,1.16-8.71-6.55-16.44-15.38-17.25-8.15-.74-14.06,5.24-14.64,5.85l-.44,.56Z"/>
  <line class="cls-9" x1="1216.24" y1="238.82" x2="1215.43" y2="254.86"/>
  <line class="cls-9" x1="1218.08" y1="254.61" x2="1216.24" y2="238.82"/>
  <line class="cls-9" x1="1216.01" y1="238.68" x2="1221.06" y2="254.1"/>
  <line class="cls-9" x1="1223.48" y1="253.12" x2="1216.01" y2="238.68"/>
  <line class="cls-9" x1="1215.92" y1="238.62" x2="1225.05" y2="251.92"/>
  <line class="cls-9" x1="1227.1" y1="250.43" x2="1215.92" y2="238.62"/>
  <line class="cls-9" x1="1216.06" y1="238.96" x2="1229.31" y2="248.52"/>
  <line class="cls-9" x1="1230.97" y1="246.73" x2="1216.06" y2="238.96"/>
  <line class="cls-9" x1="1215.8" y1="239.04" x2="1231.92" y2="244.21"/>
  <line class="cls-9" x1="1232.57" y1="242.01" x2="1215.8" y2="239.04"/>
  <line class="cls-9" x1="1215.7" y1="239.07" x2="1232.74" y2="240.27"/>
  <line class="cls-9" x1="1232.65" y1="237.97" x2="1215.7" y2="239.07"/>
  <line class="cls-9" x1="1216.14" y1="238.97" x2="1232.62" y2="236.1"/>
  <line class="cls-9" x1="1231.78" y1="233.85" x2="1216.14" y2="238.97"/>
  <line class="cls-9" x1="1216.05" y1="239.19" x2="1230.51" y2="231.64"/>
  <line class="cls-9" x1="1229.08" y1="229.86" x2="1216.05" y2="239.19"/>
  <line class="cls-9" x1="1216.01" y1="239.28" x2="1227.85" y2="228.57"/>
  <line class="cls-9" x1="1225.77" y1="227.24" x2="1216.01" y2="239.28"/>
  <line class="cls-9" x1="1216.33" y1="239.08" x2="1223.37" y2="225.57"/>
  <line class="cls-9" x1="1221.01" y1="224.63" x2="1216.33" y2="239.08"/>
  <line class="cls-9" x1="1216.48" y1="239.27" x2="1218.09" y2="224.11"/>
  <line class="cls-9" x1="1215.47" y1="223.79" x2="1216.48" y2="239.27"/>
  <line class="cls-9" x1="1216.54" y1="239.35" x2="1212.8" y2="224.09"/>
  <line class="cls-9" x1="1210.84" y1="224.61" x2="1216.54" y2="239.35"/>
  <line class="cls-9" x1="1208.29" y1="225.67" x2="1216.15" y2="238.77"/>
  <line class="cls-9" x1="1216.24" y1="238.82" x2="1205.79" y2="227.13"/>
  <line class="cls-9" x1="1203.84" y1="228.62" x2="1216.24" y2="238.82"/>
</svg>