<svg id="Lager_2" data-name="Lager 2" xmlns="http://www.w3.org/2000/svg" viewBox="0 0 1463.82 879.72">
 <defs>
    <style>
      .cls-1 {
        stroke-width: 6px;
      }

      .cls-1, .cls-2, .cls-3, .cls-4, .cls-5, .cls-6, .cls-7, .cls-8, .cls-9, .cls-10, .cls-11, .cls-12, .cls-13 {
        fill: none;
      }

      .cls-1, .cls-2, .cls-3, .cls-4, .cls-5, .cls-6, .cls-7, .cls-8, .cls-10, .cls-11, .cls-12, .cls-13 {
        stroke-miterlimit: 10;
      }

      .cls-1, .cls-2, .cls-4, .cls-6, .cls-7, .cls-8, .cls-10, .cls-11, .cls-12 {
        stroke: #1e1e1c;
      }

      .cls-14 {
        font-size: 30px;
      }

      .cls-14, .cls-15 {
        font-family: MyriadPro-Regular, 'Myriad Pro';
      }

      .cls-14, .cls-15, .cls-16 {
        fill: #010101;
      }

      .cls-17 {
        fill: #fff;
      }

      .cls-2 {
        stroke-width: 1.5px;
      }

      .cls-18 {
        letter-spacing: 0em;
      }

      .cls-19 {
        letter-spacing: 0em;
      }

      .cls-3 {
        stroke: #010101;
      }

      .cls-4 {
        stroke-width: 10px;
      }

      .cls-5 {
        stroke-width: .25px;
      }

      .cls-5, .cls-13 {
        stroke: #000;
      }

      .cls-6 {
        stroke-width: 3px;
      }

      .cls-20 {
        letter-spacing: 0em;
      }

      .cls-7 {
        stroke-width: 5px;
      }

      .cls-8 {
        stroke-width: 4px;
      }

      .cls-10 {
        stroke-width: 2px;
      }

      .cls-15 {
        font-size: 20px;
      }

      .cls-11 {
        stroke-width: .75px;
      }

      .cls-21 {
        letter-spacing: 0em;
      }

      .cls-22 {
        letter-spacing: -.04em;
      }

      .cls-13 {
        stroke-width: .5px;
      }
    </style>
  </defs>
  <line class="cls-1" x1="217.05" y1="670.58" x2="225.95" y2="722.07"/>
  <path class="cls-13" d="M775.4,746.33v-21.72l21.12-10.14c-6.22-10.77-19.89-14.64-30.44-8.99-11.18,5.98-14.75,20.43-9.27,30.35,5.05,9.15,16.46,10.4,17.61,10.51h.98Z"/>
  <line class="cls-5" x1="775.4" y1="724.61" x2="795.03" y2="712.21"/>
  <line class="cls-5" x1="792.81" y1="709.64" x2="775.4" y2="724.61"/>
  <line class="cls-5" x1="775.4" y1="724.96" x2="790.03" y2="706.93"/>
  <line class="cls-5" x1="787.1" y1="705.21" x2="775.4" y2="724.96"/>
  <line class="cls-5" x1="775.4" y1="725.1" x2="784.54" y2="704.56"/>
  <line class="cls-5" x1="781.28" y1="703.65" x2="775.4" y2="725.1"/>
  <line class="cls-5" x1="775.7" y1="724.68" x2="777.4" y2="702.91"/>
  <line class="cls-5" x1="774.07" y1="702.64" x2="775.7" y2="724.68"/>
  <line class="cls-5" x1="775.99" y1="724.89" x2="770.39" y2="703.73"/>
  <line class="cls-5" x1="767.3" y1="704.87" x2="775.99" y2="724.89"/>
  <line class="cls-5" x1="776.1" y1="724.96" x2="765.11" y2="706.12"/>
  <line class="cls-5" x1="762.44" y1="708.12" x2="776.1" y2="724.96"/>
  <line class="cls-5" x1="775.66" y1="724.59" x2="760.24" y2="709.7"/>
  <line class="cls-5" x1="758.18" y1="712.43" x2="775.66" y2="724.59"/>
  <line class="cls-5" x1="775.99" y1="724.5" x2="756.49" y2="715.6"/>
  <line class="cls-5" x1="755.41" y1="718.56" x2="775.99" y2="724.5"/>
  <line class="cls-5" x1="776.12" y1="724.47" x2="754.78" y2="720.92"/>
  <line class="cls-5" x1="754.72" y1="724.19" x2="776.12" y2="724.47"/>
  <line class="cls-5" x1="775.65" y1="724.29" x2="754.48" y2="728.08"/>
  <line class="cls-5" x1="755.08" y1="731.33" x2="775.65" y2="724.3"/>
  <line class="cls-5" x1="775.77" y1="723.98" x2="756.59" y2="734.82"/>
  <line class="cls-5" x1="758.12" y1="737.83" x2="775.77" y2="723.98"/>
  <line class="cls-5" x1="775.82" y1="723.86" x2="760.43" y2="740.37"/>
  <line class="cls-5" x1="762.48" y1="742" x2="775.82" y2="723.86"/>
  <line class="cls-5" x1="765.58" y1="743.8" x2="775.41" y2="724.74"/>
  <line class="cls-5" x1="775.4" y1="724.61" x2="769.15" y2="745.21"/>
  <line class="cls-5" x1="772.34" y1="746.02" x2="775.4" y2="724.61"/>
  <polyline class="cls-6" points="360.34 835.13 256.06 854.49 253.4 839.31 229.55 843.83"/>
  <line class="cls-6" x1="520.66" y1="803.91" x2="396.17" y2="827.03"/>
  <line class="cls-4" x1="1300.99" y1="257.92" x2="1299.64" y2="30.44"/>
  <line class="cls-4" x1="1120.89" y1="152.13" x2="1120.26" y2="39.33"/>
  <line class="cls-6" x1="682.87" y1="771.8" x2="558.39" y2="794.92"/>
  <polyline class="cls-6" points="718.18 765.24 809.52 748.28 806.83 732.67"/>
  <path class="cls-7" d="M315.62,427.02c3.62-.58,7.24-1.1,10.88-1.52,.06,1.34,3,13,3.65,18.21,2.66-.65-1.15-5.07,0,0,84.35-15.21,164.35-34.21,250.35-49.21,15-3,29-7,44-9,9-2,16-6,25-5,2,1,2,4,1.79,5.75-4.5,.57-.29-1.51,0,0-4.79,.25-10.79-.75-15.79,2.25-1,1,0,4,0,6,5,22,9,43,12,65,4,5,11,0,17,1,1,0,1,1,2,1,2,2,1,5,1.29,7.5"/>
  <path class="cls-7" d="M352.51,760.46c-4.31,.78-8.62,1.55-12.93,2.33-.78-5.21-1.56-10.43-2.35-15.64,.27-.65-.73-1.65-.73-1.65-12,0-23,5-35,7-1,0-3-1-3-2-14-87-33-168-48.2-251.7,4.91-.69,9.82-1.37,14.73-2.06-.98-6.29-1.96-12.57-2.95-18.86-5.21,.98-10.41,1.96-15.62,2.95-1.18-7.37-2.36-14.73-3.54-22.1,12.6-.24,24.54-5.22,37.12-5.6-1.47-6.19-2.95-12.37-4.42-18.56,4.06-.74,8.11-1.53,12.16-2.33"/>
  <path class="cls-7" d="M705.5,653.5l-.38-2.47c.63,4.15,1.26,8.31,1.88,12.47,.5,3.31,1.01,6.69,1.5,10-61,12-120,23-183,36-47,9-91,18-137,26,1.19,5.87,2.37,11.75,3.56,17.62-3.94,.78-7.88,1.56-11.82,2.34"/>
  <line class="cls-7" x1="705.43" y1="652.61" x2="672.51" y2="486.72"/>
  <polyline class="cls-7" points="822.66 690.47 1284.27 598.24 1249.17 433.94 1338.78 415.01 1309.41 259.49 1301.85 261.67 1301.23 250.98"/>
  <line class="cls-1" x1="1119.8" y1="48.98" x2="1303.6" y2="47.6"/>
  <line class="cls-1" x1="952.29" y1="52.88" x2="1119.08" y2="52.88"/>
  <line class="cls-4" x1="954.54" y1="152.13" x2="953.91" y2="39.33"/>
  <line class="cls-4" x1="789.37" y1="147.77" x2="788.77" y2="40.26"/>
  <line class="cls-4" x1="624.64" y1="148.7" x2="624.04" y2="41.19"/>
  <polyline class="cls-1" points="624.97 52.2 565.42 52.09 565.3 18.64 183.48 18.44 183.48 113.26 183.48 115.52"/>
  <line class="cls-4" x1="513.05" y1="141.01" x2="512.35" y2="18.44"/>
  <line class="cls-4" x1="293.19" y1="141.01" x2="292.5" y2="18.44"/>
  <line class="cls-1" x1="284.38" y1="138.6" x2="413.59" y2="138.6"/>
  <line class="cls-1" x1="448.51" y1="138.6" x2="517.99" y2="138.6"/>
  <polyline class="cls-6" points="260.7 138.6 183.48 138.6 183.48 191.26 247.54 191.26 247.54 171.83"/>
  <polyline class="cls-10" points="183.48 97.25 237.55 97.39 237.69 138.6"/>
  <polyline class="cls-10" points="183.48 72.29 216.9 72.29 216.9 62.62"/>
  <line class="cls-10" x1="216.9" y1="18.44" x2="216.9" y2="31.41"/>
  <polygon class="cls-10" points="206.77 245.44 207.01 217.49 264.1 217.73 264.1 245.44 206.77 245.44"/>
  <line class="cls-10" x1="206.77" y1="245.44" x2="264.1" y2="217.73"/>
  <line class="cls-6" x1="183.48" y1="191.26" x2="183.48" y2="272.66"/>
  <line class="cls-1" x1="297.06" y1="138.6" x2="297.53" y2="274.1"/>
  <polyline class="cls-1" points="292.62 272.55 307.17 272.46 394.52 272.66 626.01 257.35 626.01 197.91"/>
  <line class="cls-1" x1="626.01" y1="162.95" x2="626.01" y2="146.13"/>
  <line class="cls-6" x1="626.01" y1="146.13" x2="663.46" y2="146.13"/>
  <line class="cls-6" x1="686.07" y1="146.13" x2="798.5" y2="146.13"/>
  <line class="cls-6" x1="815.71" y1="146.13" x2="927.64" y2="146.13"/>
  <line class="cls-6" x1="912.39" y1="146.13" x2="912.39" y2="131.43"/>
  <line class="cls-1" x1="863.57" y1="146.13" x2="863.4" y2="74.85"/>
  <line class="cls-6" x1="826.04" y1="76.53" x2="914.38" y2="76.53"/>
  <line class="cls-6" x1="861.3" y1="98.26" x2="914.38" y2="98.26"/>
  <line class="cls-6" x1="826.04" y1="100.57" x2="865.58" y2="100.57"/>
  <line class="cls-6" x1="826.04" y1="123.35" x2="865.58" y2="123.35"/>
  <line class="cls-6" x1="912.39" y1="113.84" x2="912.39" y2="99.14"/>
  <line class="cls-6" x1="912.39" y1="81.4" x2="912.39" y2="76.53"/>
  <line class="cls-6" x1="827.48" y1="104.84" x2="827.48" y2="96.7"/>
  <line class="cls-6" x1="827.48" y1="128.66" x2="827.48" y2="120.53"/>
  <line class="cls-6" x1="827.48" y1="81.4" x2="827.48" y2="76.53"/>
  <line class="cls-6" x1="827.48" y1="146.91" x2="827.48" y2="141.86"/>
  <line class="cls-6" x1="956.86" y1="150.16" x2="1004.4" y2="150.16"/>
  <line class="cls-6" x1="1022.74" y1="150.16" x2="1067.58" y2="150.16"/>
  <line class="cls-6" x1="1087.69" y1="150.16" x2="1128.35" y2="150.16"/>
  <polyline class="cls-8" points="1175.85 49.62 1175.85 150.16 1150.44 150.16"/>
  <line class="cls-10" x1="1175.85" y1="281.25" x2="1175.85" y2="178.71"/>
  <polyline class="cls-10" points="998.27 488.98 979.27 393.44 1034.1 383.12"/>
  <polyline class="cls-10" points="921.74 504.58 902.74 409.03 957.58 398.72"/>
  <polyline class="cls-10" points="845.29 519.58 826.29 424.03 881.12 413.72"/>
  <polyline class="cls-6" points="767.22 534.71 748.22 439.16 803.05 428.85"/>
  <polyline class="cls-6" points="767.22 534.71 1075.49 473.17 1055.26 377.45"/>
  <line class="cls-6" x1="1115.54" y1="465.67" x2="1246.26" y2="439.85"/>
  <polyline class="cls-6" points="1148.29 458.16 1130.1 363.79 1112.13 367.2"/>
  <line class="cls-6" x1="1121.23" y1="412.68" x2="1138.83" y2="409.11"/>
  <line class="cls-10" x1="1148.29" y1="359.92" x2="1227.79" y2="345.29"/>
  <polyline class="cls-10" points="67.84 887.23 232.33 860.42 201.05 673.32 223.67 670.24 213.34 604.06 189.32 606.01 190.16 613.83 168.1 616.35 152.38 523.5 150.08 509.95 36.28 528.66 38.8 543.74 149.94 523.91 151.31 523.64"/>
  <line class="cls-10" x1="12.09" y1="557.52" x2="67.84" y2="887.23"/>
  <line class="cls-6" x1="800.12" y1="707.09" x2="787.12" y2="630.14"/>
  <line class="cls-6" x1="767.22" y1="534.71" x2="769.23" y2="545.16"/>
  <line class="cls-8" x1="1175.85" y1="150.16" x2="1175.85" y2="154.69"/>
  <polyline class="cls-10" points="807.41 339.46 950.22 311.69 949.75 255.52 801.18 295.73"/>
  <line class="cls-11" x1="802.36" y1="295.42" x2="810" y2="338.14"/>
  <line class="cls-11" x1="806.7" y1="294.24" x2="816.25" y2="337.74"/>
  <line class="cls-11" x1="812.51" y1="292.67" x2="821.52" y2="336.71"/>
  <line class="cls-11" x1="817.01" y1="291.45" x2="827.42" y2="335.57"/>
  <line class="cls-11" x1="822.22" y1="290.04" x2="832.64" y2="334.55"/>
  <line class="cls-11" x1="827.43" y1="288.63" x2="838.97" y2="333.32"/>
  <line class="cls-11" x1="833.2" y1="287.07" x2="843.27" y2="332.48"/>
  <line class="cls-11" x1="838.23" y1="285.7" x2="849.44" y2="331.29"/>
  <line class="cls-11" x1="843.83" y1="284.19" x2="855.35" y2="330.14"/>
  <line class="cls-11" x1="886.57" y1="273.37" x2="897.66" y2="321.5"/>
  <line class="cls-11" x1="892.12" y1="271.12" x2="902.44" y2="320.67"/>
  <line class="cls-11" x1="897.28" y1="269.72" x2="908.55" y2="319.23"/>
  <line class="cls-11" x1="903.05" y1="268.16" x2="913.75" y2="318.28"/>
  <line class="cls-11" x1="908.4" y1="266.71" x2="918.96" y2="317.16"/>
  <line class="cls-11" x1="913.68" y1="265.28" x2="924.13" y2="316.35"/>
  <line class="cls-11" x1="919.09" y1="264.59" x2="929.16" y2="315.48"/>
  <line class="cls-11" x1="924.57" y1="263.06" x2="935.77" y2="314.14"/>
  <line class="cls-11" x1="929.96" y1="261.36" x2="941.48" y2="312.85"/>
  <line class="cls-2" x1="806.19" y1="317.86" x2="849.71" y2="307.62"/>
  <line class="cls-2" x1="891.79" y1="297.73" x2="935.78" y2="287.38"/>
  <line class="cls-1" x1="38.4" y1="123.36" x2="39.01" y2="164.93"/>
  <line class="cls-1" x1="38.66" y1="140.87" x2="159.23" y2="140.27"/>
  <line class="cls-1" x1="38.62" y1="79.72" x2="38.7" y2="104.9"/>
  <line class="cls-1" x1="38.73" y1="84.34" x2="162.86" y2="83.96"/>
  <line class="cls-1" x1="38.7" y1="180.24" x2="39.32" y2="221.81"/>
  <line class="cls-1" x1="40.51" y1="200.11" x2="161.09" y2="200.11"/>
  <line class="cls-1" x1="38.05" y1="237.12" x2="38.66" y2="278.69"/>
  <line class="cls-1" x1="39.85" y1="256.99" x2="160.43" y2="256.99"/>
  <line class="cls-1" x1="38.97" y1="314.25" x2="38.7" y2="296.26"/>
  <line class="cls-1" x1="38.7" y1="27.52" x2="39.22" y2="62.62"/>
  <line class="cls-1" x1="35.71" y1="28.03" x2="162.86" y2="27.64"/>
  <line class="cls-10" x1="161.8" y1="29.01" x2="161.55" y2="314.55"/>
  <line class="cls-10" x1="36.09" y1="313.57" x2="161.67" y2="313.57"/>
  <line class="cls-10" x1="180.17" y1="557.98" x2="169.55" y2="493.09"/>
  <polyline class="cls-10" points="179.26 557.61 205.48 553.01 195.64 490.14 169.7 494.05"/>
  <polyline class="cls-10" points="170.31 497.74 97.02 509.95 91.43 472.87"/>
  <polyline class="cls-10" points="88.15 456.9 86.17 443.93 160.54 432.24 161.75 441.71 183.34 438.11"/>
  <polyline class="cls-6" points="181.86 272.66 182.01 368.64 160.11 368.6 160.11 354.85 140.95 354.85 140.95 348.08 161.48 348.08 161.48 319.05 33.15 318.47 33.15 313.57 38.35 312.47"/>
  <polyline class="cls-6" points="181.95 439.12 181.86 384.25 160.43 384.34 160.43 403.69 106.82 413.5 106.82 354.66 121.53 354.66 121.27 347.18 24.5 347.18 24.5 354.92 101.4 354.66 101.27 404.47"/>
  <line class="cls-11" x1="228.97" y1="245.44" x2="229.06" y2="272.66"/>
  <line class="cls-11" x1="224.58" y1="246.31" x2="224.68" y2="273.54"/>
  <line class="cls-11" x1="220.2" y1="245.44" x2="220.29" y2="272.66"/>
  <line class="cls-11" x1="215.81" y1="246.31" x2="215.9" y2="273.54"/>
  <line class="cls-11" x1="211.16" y1="245.07" x2="211.25" y2="272.3"/>
  <line class="cls-11" x1="207.31" y1="245.94" x2="207.4" y2="273.17"/>
  <line class="cls-1" x1="180.48" y1="272.66" x2="267.04" y2="272.66"/>
  <line class="cls-11" x1="183.48" y1="244.16" x2="206.82" y2="244.01"/>
  <line class="cls-11" x1="183.46" y1="240.74" x2="206.8" y2="240.59"/>
  <line class="cls-11" x1="183.44" y1="237.34" x2="206.77" y2="237.19"/>
  <line class="cls-11" x1="183.41" y1="233.92" x2="206.75" y2="233.77"/>
  <line class="cls-11" x1="184.13" y1="230.18" x2="207.47" y2="230.04"/>
  <line class="cls-11" x1="184.11" y1="226.76" x2="207.45" y2="226.62"/>
  <line class="cls-11" x1="184.09" y1="223.36" x2="207.43" y2="223.21"/>
  <line class="cls-11" x1="184.07" y1="219.94" x2="207.41" y2="219.79"/>
  <line class="cls-11" x1="184.17" y1="217.01" x2="207.01" y2="217.01"/>
  <line class="cls-11" x1="232.16" y1="245.07" x2="232.26" y2="272.3"/>
  <line class="cls-11" x1="229.52" y1="190.24" x2="229.61" y2="217.47"/>
  <line class="cls-11" x1="225.13" y1="191.11" x2="225.22" y2="218.34"/>
  <line class="cls-11" x1="220.74" y1="190.24" x2="220.84" y2="217.47"/>
  <line class="cls-11" x1="216.36" y1="191.11" x2="216.45" y2="218.34"/>
  <line class="cls-11" x1="212.19" y1="189.87" x2="212.28" y2="217.1"/>
  <line class="cls-10" x1="208.39" y1="190.74" x2="208.48" y2="217.97"/>
  <line class="cls-11" x1="232.71" y1="189.87" x2="232.8" y2="217.1"/>
  <line class="cls-11" x1="235.39" y1="191.05" x2="235.48" y2="218.28"/>
  <line class="cls-6" x1="207.35" y1="257.31" x2="232.59" y2="257.24"/>
  <line class="cls-10" x1="195.59" y1="244.08" x2="195.59" y2="217.01"/>
  <line class="cls-10" x1="208.44" y1="205.24" x2="235.44" y2="205.38"/>
  <line class="cls-6" x1="297.53" y1="274.1" x2="351.2" y2="138.6"/>
  <line class="cls-6" x1="348.99" y1="272.56" x2="348.99" y2="140.48"/>
  <line class="cls-6" x1="744.5" y1="419.17" x2="737.26" y2="368.67"/>
  <line class="cls-10" x1="738.33" y1="376.17" x2="1054.06" y2="312.49"/>
  <line class="cls-10" x1="1083.51" y1="306.55" x2="1215.13" y2="280"/>
  <line class="cls-10" x1="1081.98" y1="298.97" x2="1214.2" y2="272.83"/>
  <line class="cls-10" x1="735.54" y1="369.01" x2="1054.1" y2="304.76"/>
  <line class="cls-6" x1="835.63" y1="348.82" x2="835.55" y2="356.56"/>
  <line class="cls-6" x1="865.71" y1="342.47" x2="865.62" y2="350.2"/>
  <line class="cls-6" x1="908.44" y1="333.72" x2="908.35" y2="341.46"/>
  <line class="cls-6" x1="939.71" y1="328.02" x2="939.62" y2="335.76"/>
  <line class="cls-6" x1="981.71" y1="319.13" x2="981.62" y2="326.87"/>
  <line class="cls-6" x1="1010.38" y1="313.8" x2="1010.29" y2="321.53"/>
  <line class="cls-6" x1="1052.88" y1="304.63" x2="1052.79" y2="312.36"/>
  <line class="cls-6" x1="1120.38" y1="291.13" x2="1120.29" y2="298.87"/>
  <line class="cls-6" x1="1157.38" y1="283.81" x2="1157.29" y2="291.54"/>
  <line class="cls-6" x1="1213.36" y1="273.52" x2="1213.28" y2="281.25"/>
  <line class="cls-6" x1="1274.21" y1="260.47" x2="1274.08" y2="272.33"/>
  <line class="cls-10" x1="1234.52" y1="281.25" x2="1300.32" y2="267.98"/>
  <line class="cls-6" x1="1299.37" y1="257.09" x2="1299.24" y2="268.95"/>
  <line class="cls-6" x1="1304.07" y1="250.24" x2="1303.93" y2="262.1"/>
  <line class="cls-10" x1="1233.51" y1="269.66" x2="1299.3" y2="256.39"/>
  <line class="cls-6" x1="1235.69" y1="269.93" x2="1235.56" y2="281.8"/>
  <line class="cls-10" x1="1214.14" y1="280.2" x2="1219.17" y2="302.5"/>
  <line class="cls-10" x1="1206.58" y1="282.12" x2="1211.61" y2="304.42"/>
  <line class="cls-6" x1="1210.64" y1="304.36" x2="1219.97" y2="302.08"/>
  <line class="cls-10" x1="1215.68" y1="303.13" x2="1215.94" y2="312.17"/>
  <path class="cls-6" d="M1225.96,329.65l17.87,104.52-17.87-104.52Z"/>
  <polyline class="cls-6" points="1038.67 150.16 1038.67 119.33 1055.83 119.33 1055.83 52.88"/>
  <line class="cls-6" x1="746.17" y1="646.17" x2="788.73" y2="639.63"/>
  <polyline class="cls-6" points="754.24 758.58 746.18 704.5 798.5 695.3"/>
  <polyline class="cls-10" points="255.83 525.28 285.17 474.94 280.28 454.06"/>
  <line class="cls-10" x1="285.17" y1="474.94" x2="293.94" y2="470.61"/>
  <line class="cls-10" x1="317.39" y1="461.06" x2="370.72" y2="437.06"/>
  <line class="cls-10" x1="331.54" y1="454.69" x2="331.28" y2="444.17"/>
  <line class="cls-10" x1="286.8" y1="684.1" x2="332.83" y2="722.33"/>
  <polyline class="cls-10" points="295.18 730.53 332.83 722.33 343.83 722"/>
  <line class="cls-10" x1="369" y1="723.67" x2="437.17" y2="726.26"/>
  <line class="cls-6" x1="388.5" y1="735.5" x2="386.34" y2="724.33"/>
  <line class="cls-1" x1="237.73" y1="790.15" x2="246.63" y2="841.63"/>
  <polyline class="cls-6" points="221.1 793.27 244.69 788.98 232.9 721.05 209.68 724.96"/>
  <line class="cls-9" x1="217.44" y1="670.52" x2="226.34" y2="722"/>
  <polygon class="cls-17" points="258.44 523.87 286.18 476.47 294.31 472.78 369.02 439.44 630.95 387.05 645.4 465.76 663.08 463.69 704.63 671.05 432.24 724.96 333.15 720.76 289.66 684.92 258.44 523.87"/>
  <polygon class="cls-17" points="769.21 536.21 799.5 692.31 1277.02 596.79 1243.6 442.15 769.21 536.21"/>
  <polygon class="cls-17" points="750.15 440.6 824.71 426.57 842.99 517.63 768.62 532.63 750.15 440.6"/>
  <line class="cls-11" x1="785.51" y1="90.76" x2="761.99" y2="90.94"/>
  <line class="cls-11" x1="784.74" y1="86.37" x2="761.22" y2="86.55"/>
  <line class="cls-11" x1="785.49" y1="81.98" x2="761.96" y2="82.16"/>
  <line class="cls-11" x1="784.72" y1="77.6" x2="761.2" y2="77.78"/>
  <line class="cls-11" x1="785.78" y1="72.94" x2="762.26" y2="73.13"/>
  <line class="cls-12" x1="775.19" y1="69.18" x2="775.32" y2="94.41"/>
  <line class="cls-11" x1="760.87" y1="44.62" x2="760.95" y2="70.72"/>
  <line class="cls-11" x1="757.45" y1="43.51" x2="757.45" y2="70.74"/>
  <line class="cls-11" x1="754.16" y1="44.26" x2="754.24" y2="69.99"/>
  <line class="cls-12" x1="749.76" y1="57.61" x2="765.13" y2="57.69"/>
  <line class="cls-1" x1="786.81" y1="44.89" x2="953.6" y2="44.89"/>
  <line class="cls-6" x1="626.01" y1="144.76" x2="658.02" y2="45.85"/>
  <line class="cls-6" x1="658.45" y1="146.89" x2="658.58" y2="46.52"/>
  <polyline class="cls-10" points="568.02 17.21 568.21 10.73 1473.92 9.5 1473.92 21.24 1372.5 33.76 1303.85 33.76"/>
  <line class="cls-6" x1="1305.53" y1="9.73" x2="1305.53" y2="33.76"/>
  <polygon class="cls-17" points="829.78 424.55 901.44 411.07 919.68 502.15 848.21 516.6 829.78 424.55"/>
  <polygon class="cls-17" points="904.72 409.91 977.94 396.13 996.2 487.2 923.17 501.95 904.72 409.91"/>
  <polygon class="cls-17" points="982.07 394.54 1053.55 381.09 1071.78 472.16 1000.5 486.58 982.07 394.54"/>
  <polygon class="cls-17" points="1132 364.05 1224.67 346.61 1243.33 438.19 1150.86 456.6 1132 364.05"/>
  <polygon class="cls-17" points="1301.15 269.24 1301.15 265.11 1307.21 263.56 1335.34 412.6 1245.15 431.95 1227.85 329.24 1216.65 286.79 1301.15 269.24"/>
  <polygon class="cls-17" points="1178.82 52.88 1294.18 52.88 1295.47 256.17 1177.27 278.53 1178.82 52.88"/>
  <line class="cls-11" x1="785.61" y1="115.64" x2="762.22" y2="115.82"/>
  <line class="cls-11" x1="784.85" y1="111.26" x2="761.46" y2="111.44"/>
  <line class="cls-11" x1="785.58" y1="106.87" x2="762.2" y2="107.05"/>
  <line class="cls-11" x1="784.82" y1="102.48" x2="761.43" y2="102.66"/>
  <line class="cls-11" x1="785.87" y1="97.83" x2="762.49" y2="98.01"/>
  <line class="cls-12" x1="775.35" y1="94.06" x2="775.48" y2="119.3"/>
  <line class="cls-8" x1="786.68" y1="93.79" x2="786.81" y2="119.02"/>
  <line class="cls-8" x1="786.52" y1="68.9" x2="786.66" y2="94.14"/>
  <line class="cls-8" x1="762.86" y1="93.85" x2="762.99" y2="119.09"/>
  <polyline class="cls-8" points="752.2 94 752.07 68.76 762.7 68.97 762.83 94.2"/>
  <line class="cls-6" x1="726.79" y1="46.92" x2="727.04" y2="94.2"/>
  <line class="cls-11" x1="751.06" y1="90.62" x2="727.54" y2="90.8"/>
  <line class="cls-11" x1="750.29" y1="86.23" x2="726.77" y2="86.42"/>
  <line class="cls-11" x1="751.03" y1="81.84" x2="727.51" y2="82.03"/>
  <line class="cls-11" x1="750.27" y1="77.46" x2="726.74" y2="77.64"/>
  <line class="cls-11" x1="751.33" y1="72.8" x2="727.8" y2="72.99"/>
  <line class="cls-12" x1="740.17" y1="69.25" x2="740.87" y2="94.27"/>
  <line class="cls-11" x1="750.98" y1="44.07" x2="751.07" y2="70.18"/>
  <line class="cls-11" x1="763.95" y1="44.63" x2="764.04" y2="70.74"/>
  <line class="cls-1" x1="622.28" y1="44.89" x2="789.07" y2="44.89"/>
  <text class="cls-15" transform="translate(778.38 491.2) rotate(-11)"><tspan x="0" y="0">K101</tspan></text>
  <text class="cls-15" transform="translate(859.37 477.18) rotate(-11)"><tspan x="0" y="0">K102</tspan></text>
  <text class="cls-15" transform="translate(935.59 461.93) rotate(-11)"><tspan x="0" y="0">K103</tspan></text>
  <text class="cls-15" transform="translate(1010.92 447.42) rotate(-11)"><tspan x="0" y="0">K104</tspan></text>
  <text class="cls-15" transform="translate(1171.8 417.28) rotate(-11)"><tspan x="0" y="0">K105</tspan></text>
  <text class="cls-15" transform="translate(1260.02 365.41) rotate(-11)"><tspan x="0" y="0">K106</tspan></text>
  <text class="cls-15" transform="translate(1192.43 158.38)"><tspan class="cls-20" x="0" y="0">S</tspan><tspan x="9.8" y="0">tude</tspan><tspan class="cls-21" x="48.74" y="0">n</tspan><tspan x="59.76" y="0">tkök</tspan></text>
  <text class="cls-14" transform="translate(973.32 586.92) rotate(-11)"><tspan class="cls-22" x="0" y="0">F</tspan><tspan x="13.26" y="0">ä</tspan><tspan class="cls-19" x="27.72" y="0">r</tspan><tspan x="37.29" y="0">ge</tspan><tspan class="cls-18" x="69.09" y="0">r</tspan><tspan x="79.02" y="0">iet</tspan></text>
  <line class="cls-11" x1="60.05" y1="318.91" x2="60.14" y2="346.14"/>
  <line class="cls-11" x1="55.66" y1="319.78" x2="55.75" y2="347.01"/>
  <line class="cls-11" x1="51.27" y1="318.91" x2="51.36" y2="346.14"/>
  <line class="cls-11" x1="46.88" y1="319.78" x2="46.98" y2="347.01"/>
  <line class="cls-11" x1="42.24" y1="318.54" x2="42.33" y2="345.77"/>
  <line class="cls-11" x1="38.38" y1="319.41" x2="38.47" y2="346.64"/>
  <line class="cls-11" x1="63.24" y1="318.54" x2="63.33" y2="345.77"/>
  <line class="cls-6" x1="38.43" y1="330.78" x2="63.66" y2="330.71"/>
  <line class="cls-11" x1="84.95" y1="318.55" x2="85.04" y2="346.37"/>
  <line class="cls-11" x1="80.56" y1="319.45" x2="80.66" y2="347.26"/>
  <line class="cls-11" x1="76.18" y1="318.55" x2="76.27" y2="346.37"/>
  <line class="cls-11" x1="71.79" y1="319.45" x2="71.88" y2="347.26"/>
  <line class="cls-11" x1="67.14" y1="318.18" x2="67.23" y2="346"/>
  <line class="cls-11" x1="63.29" y1="319.07" x2="63.38" y2="346.89"/>
  <line class="cls-11" x1="88.14" y1="318.18" x2="88.24" y2="346"/>
  <line class="cls-6" x1="63.33" y1="330.69" x2="88.57" y2="330.61"/>
  <path class="cls-13" d="M112.21,471.08l21-5.56,15.21,17.82c8.82-8.77,9.06-22.97,.9-31.73-8.64-9.28-23.53-9.03-31.72-1.19-7.55,7.23-5.84,18.57-5.65,19.71l.25,.95Z"/>
  <line class="cls-5" x1="133.21" y1="465.52" x2="150.22" y2="481.32"/>
  <line class="cls-5" x1="152.13" y1="478.52" x2="133.21" y2="465.52"/>
  <line class="cls-5" x1="132.86" y1="465.61" x2="154.04" y2="475.14"/>
  <line class="cls-5" x1="154.95" y1="471.87" x2="132.86" y2="465.61"/>
  <line class="cls-5" x1="132.73" y1="465.65" x2="154.92" y2="469.23"/>
  <line class="cls-5" x1="154.97" y1="465.83" x2="132.73" y2="465.65"/>
  <line class="cls-5" x1="133.21" y1="465.83" x2="154.69" y2="461.89"/>
  <line class="cls-5" x1="154.1" y1="458.61" x2="133.21" y2="465.83"/>
  <line class="cls-5" x1="133.08" y1="466.16" x2="152.1" y2="455.33"/>
  <line class="cls-5" x1="150.21" y1="452.63" x2="133.08" y2="466.16"/>
  <line class="cls-5" x1="133.04" y1="466.28" x2="148.44" y2="450.84"/>
  <line class="cls-5" x1="145.83" y1="448.77" x2="133.04" y2="466.28"/>
  <line class="cls-5" x1="133.29" y1="465.76" x2="143.73" y2="447.05"/>
  <line class="cls-5" x1="140.56" y1="445.76" x2="133.29" y2="465.76"/>
  <line class="cls-5" x1="133.46" y1="466.06" x2="137.07" y2="444.93"/>
  <line class="cls-5" x1="133.94" y1="444.65" x2="133.46" y2="466.06"/>
  <line class="cls-5" x1="133.52" y1="466.17" x2="131.49" y2="444.64"/>
  <line class="cls-5" x1="128.32" y1="445.42" x2="133.52" y2="466.17"/>
  <line class="cls-5" x1="133.57" y1="465.68" x2="124.49" y2="446.19"/>
  <line class="cls-5" x1="121.5" y1="447.6" x2="133.56" y2="465.68"/>
  <line class="cls-5" x1="133.91" y1="465.72" x2="118.52" y2="449.95"/>
  <line class="cls-5" x1="116" y1="452.2" x2="133.91" y2="465.72"/>
  <line class="cls-5" x1="134.04" y1="465.73" x2="114.13" y2="455.08"/>
  <line class="cls-5" x1="113.08" y1="457.48" x2="134.04" y2="465.73"/>
  <line class="cls-5" x1="112.14" y1="460.94" x2="133.08" y2="465.57"/>
  <line class="cls-5" x1="133.21" y1="465.52" x2="111.69" y2="464.75"/>
  <line class="cls-5" x1="111.72" y1="468.04" x2="133.21" y2="465.52"/>
  <g>
    <ellipse class="cls-16" cx="899.91" cy="112.06" rx="2.5" ry="1.95"/>
    <path class="cls-16" d="M903.81,114.5h-7.81c-1.21,0-2.19,.76-2.19,1.71v6.34c0,.94,.98,1.71,2.19,1.71h0v-7.44c0-.13,.14-.24,.31-.24h.16v17.01c0,.64,.66,1.16,1.48,1.16s1.48-.52,1.48-1.16v-8.96c0-.2,.21-.37,.47-.37s.47,.16,.47,.37v8.96c0,.64,.66,1.16,1.48,1.16s1.48-.52,1.48-1.16v-17.01h.16c.17,0,.31,.11,.31,.24v7.44h0c1.21,0,2.19-.76,2.19-1.71v-6.34c0-.94-.98-1.71-2.19-1.71Z"/>
    <g>
      <ellipse class="cls-16" cx="878.75" cy="112.06" rx="2.5" ry="1.95"/>
      <path class="cls-16" d="M882.05,116.76l2.08,7.31c1.18-.21,1.93-1.14,1.67-2.06l-1.78-6.19c-.13-.46-.49-.83-.96-1.07-.27-.13-.56-.2-.87-.23-.17-.02-.35-.03-.54-.03h-5.79c-.13,0-.26,0-.38,.01-.37,.03-.72,.09-1.03,.25-.47,.23-.83,.61-.96,1.07l-1.78,6.19c-.27,.92,.49,1.86,1.67,2.06l2.08-7.31c.03-.11,.16-.19,.3-.19h.21l-.65,2.28-2.5,8.7h2.5v6.04c0,.32,.17,.61,.43,.82,.27,.21,.64,.34,1.05,.34,.82,0,1.48-.52,1.48-1.16v-6.04h.94v6.04c0,.32,.17,.61,.43,.82,.27,.21,.64,.34,1.05,.34,.82,0,1.48-.52,1.48-1.16v-6.04h2.5l-2.5-8.7-.65-2.28h.21c.15,0,.27,.08,.3,.19Z"/>
    </g>
    <rect class="cls-16" x="888.67" y="109.5" width="1.25" height="25.85" rx=".23" ry=".23"/>
  </g>
  <path class="cls-16" d="M665.62,51.67v40.22c0,.34,.56,.61,1.25,.61h50.89c.69,0,1.25-.27,1.25-.61V51.67c0-.34-.56-.61-1.25-.61h-50.89c-.69,0-1.25,.27-1.25,.61Zm45.7,39.54h-17.45v-27.25c0-.34-.56-.61-1.25-.61s-1.25,.27-1.25,.61v27.25h-18.66v-28.89h38.61v28.89Zm5.08,0h-2.59v-29.5c0-.34-.56-.61-1.25-.61h-41.1c-.69,0-1.25,.27-1.25,.61v29.5h-2.1v-31.39h48.28v31.39Zm.12-38.93v6.32h-48.4v-6.32h48.4Z"/>
  <path class="cls-16" d="M682.21,57.39h20.79c.69,0,1.25-.27,1.25-.61v-2.85c0-.34-.56-.61-1.25-.61h-20.79c-.69,0-1.25,.27-1.25,.61v2.85c0,.34,.56,.61,1.25,.61Zm1.25-2.85h18.3v1.63h-18.3v-1.63Z"/>
  <path class="cls-16" d="M190.83,183.66l9.67-.06,41.82-.26h.08c.43,0,.78-.41,.78-.92l-.24-37.36c0-.51-.36-.91-.79-.91l-51.56,.32c-.43,0-.78,.41-.78,.92l.24,37.36c0,.51,.36,.91,.79,.91Zm50.49-33.86l.08,12.81-34.94,.22c-.43,0-.78,.41-.78,.92s.36,.91,.79,.91l34.94-.22,.09,13.7-37.05,.23-.18-28.34,37.05-.23Zm-.02-3.73v1.9s-37.82,.24-37.82,.24c-.43,0-.78,.41-.78,.92l.19,30.17c0,.51,.36,.91,.79,.91l37.83-.24v1.54s-40.24,.25-40.24,.25l-.22-35.44,40.25-.25Zm-49.92,.23l8.1-.05,.22,35.53-8.1,.05-.22-35.53Z"/>
  <path class="cls-16" d="M198.09,171.43l-.1-15.26c0-.51-.36-.91-.79-.91l-3.66,.02c-.43,0-.78,.41-.78,.92l.1,15.26c0,.51,.36,.91,.79,.91l3.66-.02c.43,0,.78-.41,.78-.92Zm-3.66-.89l-.08-13.44h2.09s.08,13.42,.08,13.42h-2.09Z"/>
  <rect class="cls-3" x=".5" y=".5" width="1480" height="898"/>
</svg>
