<?xml version="1.0" encoding="UTF-8"?>
<svg id="Lager_1" data-name="Lager 1" xmlns="http://www.w3.org/2000/svg" viewBox="0 0 1803.86 437.01">
  <defs>
    <style>
      .cls-1 {
        fill: #1e1e1c;
      }

      .cls-1, .cls-2, .cls-3, .cls-4, .cls-5, .cls-6, .cls-7, .cls-8, .cls-9, .cls-10, .cls-11 {
        stroke-miterlimit: 10;
      }

      .cls-1, .cls-5 {
        stroke: #1e1e1c;
      }

      .cls-1, .cls-7 {
        stroke-width: .25px;
      }

      .cls-12 {
        fill: #fff;
      }

      .cls-2 {
        stroke-width: .75px;
      }

      .cls-2, .cls-3, .cls-4, .cls-5, .cls-6, .cls-7, .cls-8, .cls-9, .cls-10, .cls-11 {
        fill: none;
      }

      .cls-2, .cls-3, .cls-4, .cls-6, .cls-7, .cls-8, .cls-9, .cls-10, .cls-11 {
        stroke: #010101;
      }

      .cls-3 {
        stroke-width: 3px;
      }

      .cls-13 {
        font-family: MyriadPro-Regular, 'Myriad Pro';
        font-size: 35px;
      }

      .cls-13, .cls-14 {
        fill: #010101;
      }

      .cls-4 {
        stroke-width: 6px;
      }

      .cls-5 {
        stroke-width: .5px;
      }

      .cls-6 {
        stroke-width: 4px;
      }

      .cls-8 {
        stroke-width: 8px;
      }

      .cls-9 {
        stroke-width: 2px;
      }

      .cls-10 {
        stroke-width: 7px;
      }

      .cls-11 {
        stroke-width: 5px;
      }
    </style>
  </defs>
  <line class="cls-11" x1="31.76" y1="360.5" x2="178.76" y2="370.5"/>
  <line class="cls-11" x1="194.09" y1="371.75" x2="399.76" y2="396.5"/>
  <line class="cls-11" x1="417.76" y1="399.5" x2="509.76" y2="407.5"/>
  <line class="cls-11" x1="858.76" y1="424.5" x2="964.76" y2="409.5"/>
  <polyline class="cls-11" points="978.76 407.5 1055.91 395.83 1246.27 367.06"/>
  <polyline class="cls-11" points="1245.76 366.5 1530.76 318.5 1509.93 227 1800.76 175.5 1783.76 110.5"/>
  <line class="cls-11" x1="1492.76" y1="158.5" x2="1712.76" y2="121.5"/>
  <line class="cls-11" x1="1726.76" y1="119.5" x2="1784.76" y2="110.5"/>
  <line class="cls-11" x1="1783.76" y1="111" x2="1783.76" y2="101"/>
  <line class="cls-11" x1="1783.76" y1="83.5" x2="1783.76" y2="73.5"/>
  <line class="cls-11" x1="1783.76" y1="57" x2="1783.76" y2="2.5"/>
  <polyline class="cls-11" points="1784.26 2.5 1210.76 3.5 1210.76 148.5"/>
  <polyline class="cls-11" points="1210.76 165.5 1210.76 204.5 1231.76 331.5"/>
  <polyline class="cls-3" points="1212.76 219.5 1113.76 233.5 1134.76 344.5 1124.76 346.5"/>
  <polyline class="cls-3" points="1113.76 348.5 1040.76 359.5 1025.93 283 1120.2 267.55"/>
  <line class="cls-3" x1="1162.76" y1="340.5" x2="1232.76" y2="329.5"/>
  <polyline class="cls-3" points="1003.76 278.5 1004.76 285.5 1025.76 282.5"/>
  <polyline class="cls-3" points="1001.76 271.5 991.76 212.5 1105.76 195.5 1113.76 233.5"/>
  <polyline class="cls-3" points="1210.76 3.5 630.76 7.5 630.76 86.33 333.59 86.33 333.59 9.67 262.76 9.5 262.76 179.33 262.76 193.22 31.76 176.5 31.76 193.22 22.26 193.22 14.76 276.5 125.76 283.5"/>
  <line class="cls-3" x1="136.76" y1="184.5" x2="127.76" y2="268.5"/>
  <line class="cls-3" x1="128.76" y1="258.5" x2="202.76" y2="263.5"/>
  <polyline class="cls-3" points="213.76 264.5 226.76 264.5 229.76 221.5 252.7 221.5 253.85 192.58"/>
  <polyline class="cls-3" points="100.76 281.5 100.76 296.5 148.76 298.5 148.76 286.33 148.76 283.5 124.76 283.5"/>
  <polyline class="cls-3" points="131.76 366.5 133.76 338.5 148.76 337.89 148.76 313.22"/>
  <polyline class="cls-11" points="14.76 358.5 2.76 358.5 19.15 192.58"/>
  <polyline class="cls-3" points="25.76 192.5 26.76 170.5 262.76 187.22"/>
  <polyline class="cls-3" points="18.76 197.5 20.76 163.5 262.76 180.5"/>
  <polyline class="cls-3" points="8.76 295.5 25.76 295.5 25.76 277.19"/>
  <line class="cls-3" x1="8.76" y1="295.5" x2="25.76" y2="277.5"/>
  <line class="cls-3" x1="100.76" y1="295.5" x2="148.76" y2="283.5"/>
  <line class="cls-3" x1="228.76" y1="236.5" x2="253.76" y2="222.5"/>
  <polyline class="cls-3" points="228.76 236.5 253.76 236.5 253.76 194.76"/>
  <line class="cls-8" x1="243.26" y1="377" x2="246.26" y2="357"/>
  <polyline class="cls-8" points="248.59 344 256.26 283 256.26 279"/>
  <line class="cls-8" x1="256.76" y1="267.17" x2="258.26" y2="193"/>
  <polyline class="cls-3" points="304.26 303.5 270.76 303.5 270.76 284.5 304.76 284.5 304.76 303.5 303.76 303.5"/>
  <line class="cls-3" x1="270.76" y1="303.5" x2="303.76" y2="284.5"/>
  <line class="cls-3" x1="270.76" y1="284.5" x2="257.76" y2="284.5"/>
  <polyline class="cls-11" points="262.76 182.5 310.76 187.5 315.76 187.5"/>
  <polyline class="cls-11" points="324.76 187.5 336.76 187.5 336.76 220.17 634.76 252.5 636.76 252.5"/>
  <line class="cls-11" x1="634.76" y1="252.5" x2="634.76" y2="111.5"/>
  <line class="cls-11" x1="634.76" y1="92.5" x2="634.76" y2="7.5"/>
  <polyline class="cls-11" points="658.76 255.5 669.76 255.5 669.76 244.44 717.76 244.5 717.76 249.5 711.76 249.5 711.76 272.5"/>
  <line class="cls-11" x1="669.76" y1="255.5" x2="669.76" y2="272.5"/>
  <polyline class="cls-11" points="803.93 232.83 863.76 221.5 863.76 211.33 895.15 211.33 895.15 204.33"/>
  <line class="cls-11" x1="894.76" y1="185.5" x2="894.76" y2="177.5"/>
  <line class="cls-11" x1="1162.76" y1="203.5" x2="1167.76" y2="226.5"/>
  <line class="cls-11" x1="1157.76" y1="177.5" x2="1159.76" y2="189.5"/>
  <line class="cls-11" x1="1163.76" y1="207.5" x2="1109.76" y2="217.5"/>
  <line class="cls-11" x1="1105.76" y1="195.5" x2="1159.76" y2="186.5"/>
  <polyline class="cls-3" points="1032.76 318.5 980.76 327.5 976.76 306.5 985.76 304.5"/>
  <line class="cls-3" x1="991.76" y1="303.5" x2="1029.76" y2="297.5"/>
  <polyline class="cls-3" points="1006.76 323.5 1011.76 349.5 1037.81 344.31"/>
  <line class="cls-3" x1="1011.76" y1="349.5" x2="1032.76" y2="319.5"/>
  <polyline class="cls-9" points="945.26 386 913.26 378 892.26 381 863.26 397"/>
  <polyline class="cls-9" points="854.26 383 886.26 365 872.26 326 871.26 324 908.36 319.67 911.76 359.5 950.26 369"/>
  <line class="cls-6" x1="864.26" y1="326" x2="917.26" y2="318"/>
  <line class="cls-6" x1="775.26" y1="339" x2="824.76" y2="331.71"/>
  <line class="cls-8" x1="688.65" y1="426.83" x2="694.26" y2="379"/>
  <polyline class="cls-8" points="710.28 287 710.26 288.94 699.26 361"/>
  <polyline class="cls-3" points="386.09 227 380.76 241.5 364.76 241.5 359.76 272.5 356.76 272.5 356.43 283.5 346.76 337.5 380.76 348.5 382.76 347.5 384.76 313.5 356.76 283.5"/>
  <polyline class="cls-3" points="492.76 347.5 404.76 337.5 403.76 337.5 398.59 337.5"/>
  <polyline class="cls-3" points="490.93 361.94 402.93 351.94 401.76 352.5 396.76 352.5"/>
  <polyline class="cls-3" points="510.76 363 510.76 330 551.76 301.5 556.76 266.5 556.76 260.44"/>
  <polyline class="cls-3" points="556.76 265.5 632.76 274.5 634.76 254.5"/>
  <polyline class="cls-3" points="632.76 275.5 618.76 366.5 609.76 366.5"/>
  <polyline class="cls-3" points="622.76 339.5 647.76 343.5 650.76 315.5 627.02 312.79"/>
  <line class="cls-3" x1="623.76" y1="339.5" x2="650.76" y2="315.5"/>
  <polyline class="cls-3" points="600.76 366.5 598.76 366.5 542.76 357.5 524.76 321.5"/>
  <polyline class="cls-3" points="542.76 357.5 539.76 359.5 535.76 359.5"/>
  <line class="cls-3" x1="528.76" y1="359.5" x2="510.76" y2="359.5"/>
  <line class="cls-3" x1="510.76" y1="361.5" x2="503.76" y2="361.5"/>
  <line class="cls-3" x1="510.76" y1="347.5" x2="503.76" y2="347.5"/>
  <polyline class="cls-3" points="356.76 273.5 340.76 273.5 339.76 270.5 337.76 270.5"/>
  <polyline class="cls-3" points="325.76 270.5 312.76 270.5 312.76 253.33 259.76 253.5"/>
  <polyline class="cls-3" points="236.76 265.5 227.76 265.5 226.95 264.5"/>
  <line class="cls-3" x1="243.76" y1="265.5" x2="253.76" y2="265.5"/>
  <polyline class="cls-11" points="335.76 187.5 335.76 106.5 352.26 106.5 352.26 103.75"/>
  <polyline class="cls-9" points="349.26 104 613.26 104 613.26 122.25 634.34 122.25"/>
  <polyline class="cls-9" points="656.26 87 728.26 87 728.26 8"/>
  <line class="cls-9" x1="728.26" y1="47" x2="745.26" y2="47"/>
  <line class="cls-3" x1="763.26" y1="47" x2="833.26" y2="47"/>
  <line class="cls-3" x1="832.76" y1="5.5" x2="832.76" y2="35.5"/>
  <line class="cls-3" x1="832.76" y1="45.5" x2="832.76" y2="52.5"/>
  <line class="cls-3" x1="832.76" y1="66.5" x2="832.76" y2="136.5"/>
  <polyline class="cls-3" points="832.76 101.5 685.76 101.5 685.76 113.17"/>
  <polyline class="cls-3" points="746.76 101.5 746.76 218.5 718.76 218.5"/>
  <polyline class="cls-3" points="698.76 218.5 660.76 218.5 660.76 160"/>
  <line class="cls-3" x1="660.76" y1="175.5" x2="746.76" y2="175.5"/>
  <polyline class="cls-3" points="660.76 142.5 660.76 128.5 692.26 128.5"/>
  <line class="cls-3" x1="685.76" y1="128.5" x2="685.76" y2="120.5"/>
  <line class="cls-3" x1="700.76" y1="128.5" x2="747.76" y2="128.5"/>
  <polyline class="cls-3" points="787.76 214.5 785.29 214.87 760.76 218.5"/>
  <polyline class="cls-3" points="795.76 213.08 832.76 207.5 832.76 152.5"/>
  <polyline class="cls-3" points="746.76 202.5 777.76 202.5 785.29 214.87"/>
  <line class="cls-3" x1="766.76" y1="6.5" x2="766.76" y2="47.5"/>
  <line class="cls-3" x1="798.76" y1="6.5" x2="797.76" y2="34.5"/>
  <polyline class="cls-3" points="869.76 136.5 869.76 130.5 916.2 130.5"/>
  <line class="cls-9" x1="870.26" y1="130" x2="870.26" y2="104"/>
  <polyline class="cls-3" points="860.76 87.5 925.26 87 925.26 99.67 860.76 99.67 860.76 136.5 870.09 136.5"/>
  <polyline class="cls-9" points="869.76 104 935.04 104 935.04 22.67 910.93 22.67 908.36 22.67 908.36 29.11 925.26 29.22 925.26 79.5 860.76 79.78 860.76 88.56"/>
  <polyline class="cls-3" points="860.76 87.5 860.76 81.11 860.76 79.78 860.76 79"/>
  <line class="cls-3" x1="909.76" y1="48.5" x2="925.76" y2="48.5"/>
  <polyline class="cls-11" points="894.76 179.5 930.76 179.5 931.76 179.5 931.76 185"/>
  <line class="cls-9" x1="969.26" y1="133" x2="969.26" y2="99"/>
  <line class="cls-11" x1="964.76" y1="102.5" x2="964.76" y2="133"/>
  <line class="cls-9" x1="967.26" y1="133" x2="967.26" y2="99"/>
  <polyline class="cls-11" points="964.76 102.5 936.18 102.5 936.18 133"/>
  <polyline class="cls-11" points="964.76 130.75 937.26 130.75 934.59 130.75 933.93 130.75"/>
  <line class="cls-9" x1="936.26" y1="130" x2="966.26" y2="101"/>
  <line class="cls-9" x1="962.26" y1="101" x2="969.26" y2="101"/>
  <line class="cls-11" x1="965.76" y1="92.5" x2="964.76" y2="19.5"/>
  <line class="cls-11" x1="964.76" y1="13.5" x2="964.76" y2="4.5"/>
  <polyline class="cls-9" points="967.26 13 935.26 13 935.26 15.56 923.04 15.56 923.04 12.56 893.81 12.56 893.81 5.69"/>
  <line class="cls-11" x1="832.76" y1="9.5" x2="893.76" y2="9.5"/>
  <line class="cls-11" x1="964.76" y1="22.5" x2="934.76" y2="24.5"/>
  <line class="cls-11" x1="866.76" y1="48.5" x2="866.76" y2="79.5"/>
  <polyline class="cls-11" points="909.76 79.5 909.76 48.5 909.76 37.56 909.76 35.5"/>
  <polyline class="cls-9" points="895.26 182 888.26 182 888.26 178.67 860.37 178.67 860.37 152.5 870.26 152.5 870.26 174.22 870.26 175 888.26 175 888.26 153 898.7 153 898.7 175.22"/>
  <polyline class="cls-9" points="898.26 175 921.26 175 921.26 153 924.26 153"/>
  <polyline class="cls-9" points="931.26 153 945.26 153 945.01 175 963.93 175 963.93 153 969.26 153 969.26 183 965.8 183"/>
  <line class="cls-9" x1="969.26" y1="177" x2="932.26" y2="177"/>
  <line class="cls-9" x1="921.26" y1="175" x2="945.26" y2="175"/>
  <line class="cls-9" x1="946.26" y1="153" x2="948.26" y2="153"/>
  <line class="cls-9" x1="955.26" y1="153" x2="964.26" y2="153"/>
  <line class="cls-8" x1="925.26" y1="268" x2="983.26" y2="256"/>
  <polyline class="cls-4" points="750.26 328 750.26 315 832.26 300 833.76 309.67 853.26 306 850.54 295.17 933.26 291 932.26 286.5"/>
  <line class="cls-8" x1="960.26" y1="262" x2="952.26" y2="222"/>
  <line class="cls-9" x1="950.26" y1="223" x2="992.26" y2="215"/>
  <polyline class="cls-3" points="1248.76 222.5 1270.76 322.5 1479.76 286.5"/>
  <polyline class="cls-3" points="1465.93 262.08 1465.93 261 1464.76 259.5 1448.76 190.5 1448.76 189.5"/>
  <polyline class="cls-3" points="1484.76 260.5 1484.76 257.5 1481.93 255.83 1465.93 186.83"/>
  <path class="cls-3" d="M1249.76,221.5c8.51-9.98,24.93-25.98,50-33,5.66-1.58,11.04-2.51,16-3l117.01-19.8,1.16-.2,6.83,14,13-6-6-14"/>
  <line class="cls-3" x1="1433.76" y1="165.5" x2="1448.76" y2="159.5"/>
  <polyline class="cls-9" points="1449.26 158 1267.26 169 1240.26 199 1248.76 221.5 1250.73 220.38 1248.76 224.56 1247.76 221.5 1248.76 219.5"/>
  <polyline class="cls-9" points="1264.26 293 1288.26 309 1316.26 309 1316.26 315"/>
  <polyline class="cls-3" points="1462.76 289.5 1462.76 272.5 1468.93 272.5 1484.68 272.5 1484.68 268.58"/>
  <line class="cls-3" x1="1479.76" y1="287.5" x2="1479.76" y2="273.5"/>
  <line class="cls-3" x1="1509.76" y1="226.5" x2="1503.76" y2="199.5"/>
  <line class="cls-3" x1="1499.26" y1="185.21" x2="1493.76" y2="156.5"/>
  <polyline class="cls-9" points="1523.26 152 1523.26 126 1601.26 109"/>
  <line class="cls-11" x1="1269.76" y1="117.5" x2="1435.76" y2="109.5"/>
  <line class="cls-4" x1="1436.26" y1="111" x2="1436.26" y2="84"/>
  <line class="cls-4" x1="1436.26" y1="70" x2="1436.26" y2="3"/>
  <line class="cls-4" x1="1269.26" y1="119" x2="1269.26" y2="34"/>
  <line class="cls-4" x1="1269.26" y1="24" x2="1269.26" y2="3"/>
  <line class="cls-11" x1="1295.76" y1="116.5" x2="1294.76" y2="3.5"/>
  <line class="cls-11" x1="1269.76" y1="60.5" x2="1302.76" y2="60.5"/>
  <line class="cls-6" x1="1269.26" y1="119" x2="1295.26" y2="61"/>
  <line class="cls-6" x1="1211.26" y1="116" x2="1254.26" y2="116"/>
  <line class="cls-6" x1="1210.26" y1="82" x2="1245.26" y2="82"/>
  <line class="cls-6" x1="1210.26" y1="61" x2="1245.26" y2="61"/>
  <line class="cls-6" x1="1264.26" y1="34" x2="1264.26" y2="62"/>
  <line class="cls-6" x1="1264.26" y1="24" x2="1264.26" y2="5"/>
  <line class="cls-11" x1="1436.76" y1="62.5" x2="1454.76" y2="62.5"/>
  <line class="cls-11" x1="1466.76" y1="62.5" x2="1524.76" y2="62.5"/>
  <line class="cls-11" x1="1531.76" y1="62.5" x2="1589.76" y2="62.5"/>
  <line class="cls-11" x1="1599.76" y1="62.5" x2="1651.76" y2="62.5"/>
  <line class="cls-4" x1="1688.26" y1="49" x2="1688.26" y2="3"/>
  <line class="cls-4" x1="1604.26" y1="63" x2="1603.26" y2="3"/>
  <line class="cls-4" x1="1519.26" y1="61" x2="1518.26" y2="3"/>
  <polyline class="cls-3" points="1740.76 117.5 1740.76 99.5 1784.81 99.5 1784.76 102.5"/>
  <polyline class="cls-3" points="1749.81 74.5 1740.76 74.5 1740.76 82.5 1749.81 82.5"/>
  <polyline class="cls-3" points="1739.76 44.5 1739.76 57.5 1784.26 58 1784.26 51.25"/>
  <polyline class="cls-3" points="1740.26 26 1740.26 16.5 1766.76 16.5 1766.59 44.5 1740.26 44.5 1740.26 35.56"/>
  <polyline class="cls-3" points="1715.76 3.5 1715.76 23.5 1726.26 23.5 1726.26 16.5 1740.26 16.5"/>
  <polyline class="cls-11" points="1000.76 4.5 1001.76 136.5 1006.59 136.5"/>
  <line class="cls-11" x1="1020.76" y1="136.5" x2="1069.76" y2="136.5"/>
  <line class="cls-11" x1="1054.76" y1="136.5" x2="1053.76" y2="20.5"/>
  <polyline class="cls-11" points="1086.76 136.5 1150.76 136.5 1150.76 127.33"/>
  <line class="cls-11" x1="1119.76" y1="136.5" x2="1118.76" y2="4.5"/>
  <line class="cls-11" x1="1053.76" y1="13.5" x2="1053.76" y2="4.5"/>
  <line class="cls-11" x1="1119.76" y1="70.5" x2="1138.76" y2="70.5"/>
  <line class="cls-11" x1="1148.76" y1="70.5" x2="1148.76" y2="56.5"/>
  <line class="cls-11" x1="1119.76" y1="84.5" x2="1150.76" y2="84.5"/>
  <line class="cls-11" x1="1119.76" y1="109.5" x2="1149.76" y2="109.5"/>
  <line class="cls-11" x1="1172.76" y1="116.5" x2="1172.76" y2="80.5"/>
  <polyline class="cls-11" points="1210.76 136.5 1172.76 136.5 1172.76 127.33"/>
  <line class="cls-11" x1="1151.76" y1="116.5" x2="1151.76" y2="102.5"/>
  <line class="cls-11" x1="1151.76" y1="90.5" x2="1151.76" y2="79.5"/>
  <line class="cls-11" x1="1172.76" y1="75.5" x2="1172.76" y2="56.5"/>
  <line class="cls-11" x1="1149.76" y1="39.5" x2="1149.76" y2="26.5"/>
  <line class="cls-11" x1="1149.76" y1="19.5" x2="1149.76" y2="4.5"/>
  <line class="cls-11" x1="1172.76" y1="19.5" x2="1172.76" y2="3.5"/>
  <line class="cls-11" x1="1172.76" y1="45.5" x2="1172.76" y2="26.5"/>
  <line class="cls-11" x1="1000.76" y1="210.5" x2="1000.76" y2="183.5"/>
  <line class="cls-11" x1="1000.76" y1="177.5" x2="1000.76" y2="168.5"/>
  <polyline class="cls-11" points="1000.76 163.5 1000.76 151.5 1050.26 151.5"/>
  <line class="cls-11" x1="1058.76" y1="151.5" x2="1118.76" y2="151.5"/>
  <polyline class="cls-11" points="1126.76 151.5 1154.76 151.5 1157.9 178.36"/>
  <line class="cls-3" x1="1000.76" y1="175.5" x2="1038.76" y2="169.5"/>
  <line class="cls-3" x1="1034.76" y1="151.5" x2="1046.76" y2="203.5"/>
  <polyline class="cls-11" points="1000.76 200.83 985.76 204.5 931.76 204.5 931.76 213.08 894.76 213.08 865.59 213.08"/>
  <polyline class="cls-11" points="842.76 426.5 780.76 434.5 736.04 430.5"/>
  <line class="cls-11" x1="700.76" y1="425.5" x2="528.76" y2="408.5"/>
  <polyline class="cls-11" points="766.76 311.5 762.76 288.5 744.76 291.5 737.76 244.5 783.76 236.5"/>
  <line class="cls-4" x1="708.26" y1="315" x2="723.26" y2="315"/>
  <polyline class="cls-6" points="699.26 359 669.26 357 669.76 339.22"/>
  <polyline class="cls-6" points="672.26 331 672.26 317 675.26 316 675.26 312.79"/>
  <polyline class="cls-6" points="708.26 297 676.26 297 676.26 299.89"/>
  <line class="cls-3" x1="675.26" y1="316" x2="708.26" y2="316"/>
  <polyline class="cls-10" points="1525.76 297.5 1773.76 256.5 1754.64 183.67"/>
  <line class="cls-11" x1="1751.76" y1="183.5" x2="1745.76" y2="155.5"/>
  <line class="cls-11" x1="1743.15" y1="144.61" x2="1737.15" y2="116.61"/>
  <polyline class="cls-9" points="1725.26 135 1731.26 159 1747.26 156"/>
  <polygon class="cls-12" points="1250.26 224 1260.26 213 1271.26 204 1290.26 193.67 1317.26 187 1433.26 167 1440.26 182 1447.26 190 1447.26 192 1463.2 260.5 1461.26 271 1461.26 288 1317.26 313 1317.26 308 1289.26 308 1266.26 293 1250.26 224"/>
  <polygon class="cls-12" points="1228.26 328 1210.26 222 1116.26 235 1136.26 342 1228.26 328"/>
  <polygon class="cls-12" points="1132.26 343 1118.26 270 1028.26 285 1042.26 357 1132.26 343"/>
  <polygon class="cls-12" points="1118.26 266 1104.26 198 994.26 214 1006.51 283.5 1118.26 266"/>
  <polygon class="cls-12" points="526.26 321 553.26 302 558.26 267 631.26 276 617.26 365 598.26 365 544.26 356 526.26 321"/>
  <polygon class="cls-12" points="358.26 274 358.26 282 386.09 313 385.26 334 509.26 346 509.26 329.22 550.26 301 555.26 266 555.26 246.67 387.26 228 382.26 243 366.26 243 361.26 274 358.26 274"/>
  <polygon class="cls-12" points="27.26 279 99.26 284 99.48 298.5 147.26 300 147.26 336.56 132.26 337.11 130.26 365 32.26 357 5.26 356 11.26 297 27.26 297 27.26 279"/>
  <polygon class="cls-12" points="33.26 178 135.26 186 124.26 282 16.26 275 23.26 195 34.26 195 33.26 178"/>
  <polygon class="cls-12" points="138.26 186 252.26 194 251.26 220 228.26 220 225.26 262 130.26 257 138.26 186"/>
  <text class="cls-13" transform="translate(152.04 233.18)"><tspan x="0" y="0">K25</tspan></text>
  <text class="cls-13" transform="translate(47.42 244.61)"><tspan x="0" y="0">K3</tspan></text>
  <text class="cls-13" transform="translate(44.42 332.61)"><tspan x="0" y="0">K23</tspan></text>
  <text class="cls-13" transform="translate(435.65 299.94)"><tspan x="0" y="0">K1</tspan></text>
  <text class="cls-13" transform="translate(552.75 336.94)"><tspan x="0" y="0">K21</tspan></text>
  <text class="cls-13" transform="translate(1024.75 248.94)"><tspan x="0" y="0">K24</tspan></text>
  <text class="cls-13" transform="translate(1053.75 325.94)"><tspan x="0" y="0">K22</tspan></text>
  <text class="cls-13" transform="translate(1150.75 292.94)"><tspan x="0" y="0">K2</tspan></text>
  <text class="cls-13" transform="translate(1329.75 252.94)"><tspan x="0" y="0">K4</tspan></text>
  <path class="cls-14" d="M676.22,249.55v23.09c0,.19,.3,.35,.68,.35h27.69c.37,0,.68-.16,.68-.35v-23.09c0-.19-.3-.35-.68-.35h-27.69c-.37,0-.68,.16-.68,.35Zm24.86,22.71h-9.5v-15.65c0-.19-.3-.35-.68-.35s-.68,.16-.68,.35v15.65h-10.15v-16.59h21v16.59Zm2.76,0h-1.41v-16.94c0-.19-.3-.35-.68-.35h-22.36c-.37,0-.68,.16-.68,.35v16.94h-1.14v-18.03h26.27v18.03Zm.07-22.36v3.63h-26.33v-3.63h26.33Z"/>
  <path class="cls-14" d="M685.25,252.84h11.31c.37,0,.68-.16,.68-.35v-1.64c0-.19-.3-.35-.68-.35h-11.31c-.37,0-.68,.16-.68,.35v1.64c0,.19,.3,.35,.68,.35Zm.68-1.64h9.96v.93h-9.96v-.93Z"/>
  <path class="cls-14" d="M899.4,184.83v23.09c0,.19,.3,.35,.68,.35h27.69c.37,0,.68-.16,.68-.35v-23.09c0-.19-.3-.35-.68-.35h-27.69c-.37,0-.68,.16-.68,.35Zm24.86,22.71h-9.5v-15.65c0-.19-.3-.35-.68-.35s-.68,.16-.68,.35v15.65h-10.15v-16.59h21v16.59Zm2.76,0h-1.41v-16.94c0-.19-.3-.35-.68-.35h-22.36c-.37,0-.68,.16-.68,.35v16.94h-1.14v-18.03h26.27v18.03Zm.07-22.36v3.63h-26.33v-3.63h26.33Z"/>
  <path class="cls-14" d="M908.43,188.11h11.31c.37,0,.68-.16,.68-.35v-1.64c0-.19-.3-.35-.68-.35h-11.31c-.37,0-.68,.16-.68,.35v1.64c0,.19,.3,.35,.68,.35Zm.68-1.64h9.96v.93h-9.96v-.93Z"/>
  <path class="cls-14" d="M1214.81,80h27.03c.23,0,.41-.18,.41-.39v-16.07c0-.22-.18-.39-.41-.39h-27.03c-.23,0-.41,.18-.41,.39v16.07c0,.22,.18,.39,.41,.39Zm26.58-14.43v5.51h-18.32c-.23,0-.41,.18-.41,.39s.18,.39,.41,.39h18.32v5.89h-19.42v-12.19h19.42Zm0-1.6v.82h-19.83c-.23,0-.41,.18-.41,.39v12.98c0,.22,.18,.39,.41,.39h19.83v.66h-21.1v-15.24h21.1Zm-26.17-.04h4.25v15.28h-4.25v-15.28Z"/>
  <path class="cls-14" d="M1218.66,74.76v-6.57c0-.22-.18-.39-.41-.39h-1.92c-.23,0-.41,.18-.41,.39v6.57c0,.22,.18,.39,.41,.39h1.92c.23,0,.41-.18,.41-.39Zm-1.92-.39v-5.78h1.09v5.78h-1.09Z"/>
  <polyline class="cls-2" points="1244.26 102.62 1224.96 102.98 1224.9 95.22 1244.2 95.06"/>
  <line class="cls-7" x1="1243.84" y1="102.62" x2="1243.8" y2="114.97"/>
  <line class="cls-7" x1="1243.3" y1="102.62" x2="1243.26" y2="114.96"/>
  <line class="cls-7" x1="1242.77" y1="102.64" x2="1242.72" y2="114.98"/>
  <line class="cls-7" x1="1242.23" y1="102.64" x2="1242.18" y2="114.98"/>
  <line class="cls-7" x1="1241.69" y1="102.65" x2="1241.65" y2="114.99"/>
  <line class="cls-7" x1="1241.15" y1="102.65" x2="1241.11" y2="114.99"/>
  <line class="cls-7" x1="1240.61" y1="102.66" x2="1240.57" y2="115"/>
  <line class="cls-7" x1="1240.08" y1="102.66" x2="1240.03" y2="115"/>
  <line class="cls-7" x1="1239.54" y1="102.61" x2="1239.49" y2="114.95"/>
  <line class="cls-7" x1="1239" y1="102.61" x2="1238.96" y2="114.95"/>
  <line class="cls-7" x1="1238.46" y1="102.62" x2="1238.42" y2="114.96"/>
  <line class="cls-7" x1="1237.92" y1="102.62" x2="1237.88" y2="114.96"/>
  <line class="cls-7" x1="1237.39" y1="102.6" x2="1237.34" y2="114.94"/>
  <line class="cls-7" x1="1236.85" y1="102.6" x2="1236.8" y2="114.94"/>
  <line class="cls-7" x1="1236.31" y1="102.61" x2="1236.27" y2="114.95"/>
  <line class="cls-7" x1="1235.77" y1="102.61" x2="1235.73" y2="114.95"/>
  <line class="cls-7" x1="1235.23" y1="102.62" x2="1235.19" y2="114.96"/>
  <line class="cls-7" x1="1234.7" y1="102.62" x2="1234.65" y2="114.96"/>
  <line class="cls-7" x1="1234.16" y1="102.63" x2="1234.12" y2="114.97"/>
  <line class="cls-7" x1="1233.62" y1="102.63" x2="1233.58" y2="114.97"/>
  <line class="cls-7" x1="1233.08" y1="102.58" x2="1233.04" y2="114.92"/>
  <line class="cls-7" x1="1232.54" y1="102.58" x2="1232.5" y2="114.92"/>
  <line class="cls-7" x1="1232.01" y1="102.59" x2="1231.96" y2="114.93"/>
  <line class="cls-7" x1="1231.47" y1="102.59" x2="1231.43" y2="114.93"/>
  <line class="cls-7" x1="1230.93" y1="102.62" x2="1230.89" y2="114.97"/>
  <line class="cls-7" x1="1230.39" y1="102.62" x2="1230.35" y2="114.96"/>
  <line class="cls-7" x1="1229.86" y1="102.64" x2="1229.81" y2="114.98"/>
  <line class="cls-7" x1="1229.32" y1="102.63" x2="1229.27" y2="114.98"/>
  <line class="cls-7" x1="1228.78" y1="102.65" x2="1228.74" y2="114.99"/>
  <line class="cls-7" x1="1228.24" y1="102.65" x2="1228.2" y2="114.99"/>
  <line class="cls-7" x1="1227.7" y1="102.66" x2="1227.66" y2="115"/>
  <line class="cls-7" x1="1227.17" y1="102.66" x2="1227.12" y2="115"/>
  <line class="cls-7" x1="1226.63" y1="102.61" x2="1226.58" y2="114.95"/>
  <line class="cls-7" x1="1226.18" y1="102.61" x2="1226.13" y2="114.96"/>
  <line class="cls-7" x1="1225.73" y1="102.63" x2="1225.68" y2="114.97"/>
  <line class="cls-7" x1="1225.28" y1="102.62" x2="1225.23" y2="114.96"/>
  <line class="cls-7" x1="1224.82" y1="102.61" x2="1224.78" y2="114.95"/>
  <line class="cls-7" x1="1243.62" y1="83" x2="1243.81" y2="95.34"/>
  <line class="cls-7" x1="1243.08" y1="83.01" x2="1243.27" y2="95.35"/>
  <line class="cls-7" x1="1242.54" y1="83.03" x2="1242.74" y2="95.37"/>
  <line class="cls-7" x1="1242.01" y1="83.04" x2="1242.2" y2="95.38"/>
  <line class="cls-7" x1="1241.47" y1="83.06" x2="1241.66" y2="95.4"/>
  <line class="cls-7" x1="1240.93" y1="83.07" x2="1241.12" y2="95.41"/>
  <line class="cls-7" x1="1240.39" y1="83.09" x2="1240.58" y2="95.43"/>
  <line class="cls-7" x1="1239.85" y1="83.1" x2="1240.05" y2="95.44"/>
  <line class="cls-7" x1="1239.32" y1="83.06" x2="1239.51" y2="95.4"/>
  <line class="cls-7" x1="1238.78" y1="83.07" x2="1238.97" y2="95.41"/>
  <line class="cls-7" x1="1238.24" y1="83.09" x2="1238.43" y2="95.43"/>
  <line class="cls-7" x1="1237.7" y1="83.1" x2="1237.89" y2="95.44"/>
  <line class="cls-7" x1="1237.16" y1="83.09" x2="1237.36" y2="95.43"/>
  <line class="cls-7" x1="1236.63" y1="83.1" x2="1236.82" y2="95.44"/>
  <line class="cls-7" x1="1236.09" y1="83.12" x2="1236.28" y2="95.46"/>
  <line class="cls-7" x1="1235.55" y1="83.13" x2="1235.74" y2="95.47"/>
  <line class="cls-7" x1="1235.01" y1="83.15" x2="1235.21" y2="95.49"/>
  <line class="cls-7" x1="1234.48" y1="83.16" x2="1234.67" y2="95.5"/>
  <line class="cls-7" x1="1233.94" y1="83.18" x2="1234.13" y2="95.52"/>
  <line class="cls-7" x1="1233.4" y1="83.19" x2="1233.59" y2="95.53"/>
  <line class="cls-7" x1="1232.86" y1="83.15" x2="1233.05" y2="95.49"/>
  <line class="cls-7" x1="1232.32" y1="83.16" x2="1232.52" y2="95.5"/>
  <line class="cls-7" x1="1231.79" y1="83.18" x2="1231.98" y2="95.52"/>
  <line class="cls-7" x1="1231.25" y1="83.19" x2="1231.44" y2="95.53"/>
  <line class="cls-7" x1="1230.71" y1="83.23" x2="1230.9" y2="95.57"/>
  <line class="cls-7" x1="1230.17" y1="83.24" x2="1230.37" y2="95.58"/>
  <line class="cls-7" x1="1229.64" y1="83.26" x2="1229.83" y2="95.6"/>
  <line class="cls-7" x1="1229.1" y1="83.27" x2="1229.29" y2="95.61"/>
  <line class="cls-7" x1="1228.56" y1="83.29" x2="1228.75" y2="95.63"/>
  <line class="cls-7" x1="1228.02" y1="83.3" x2="1228.21" y2="95.64"/>
  <line class="cls-7" x1="1227.49" y1="83.32" x2="1227.68" y2="95.66"/>
  <line class="cls-7" x1="1226.95" y1="83.33" x2="1227.14" y2="95.67"/>
  <line class="cls-7" x1="1226.41" y1="83.29" x2="1226.6" y2="95.63"/>
  <line class="cls-7" x1="1225.96" y1="83.3" x2="1226.15" y2="95.64"/>
  <line class="cls-7" x1="1225.51" y1="83.33" x2="1225.7" y2="95.67"/>
  <line class="cls-7" x1="1225.06" y1="83.33" x2="1225.25" y2="95.67"/>
  <line class="cls-7" x1="1224.6" y1="83.33" x2="1224.8" y2="95.67"/>
  <line class="cls-7" x1="1225.09" y1="102.98" x2="1212.34" y2="102.95"/>
  <line class="cls-7" x1="1225.1" y1="102.46" x2="1212.34" y2="102.43"/>
  <line class="cls-7" x1="1225.08" y1="101.94" x2="1212.33" y2="101.91"/>
  <line class="cls-7" x1="1225.09" y1="101.42" x2="1212.33" y2="101.39"/>
  <line class="cls-7" x1="1225.07" y1="100.9" x2="1212.32" y2="100.87"/>
  <line class="cls-7" x1="1225.08" y1="100.38" x2="1212.32" y2="100.35"/>
  <line class="cls-7" x1="1225.06" y1="99.86" x2="1212.31" y2="99.83"/>
  <line class="cls-7" x1="1225.06" y1="99.34" x2="1212.31" y2="99.31"/>
  <line class="cls-7" x1="1225.12" y1="98.81" x2="1212.36" y2="98.79"/>
  <line class="cls-7" x1="1225.12" y1="98.29" x2="1212.37" y2="98.27"/>
  <line class="cls-7" x1="1225.05" y1="97.82" x2="1212.29" y2="97.79"/>
  <line class="cls-7" x1="1225.05" y1="97.3" x2="1212.3" y2="97.27"/>
  <line class="cls-7" x1="1225.04" y1="96.78" x2="1212.28" y2="96.75"/>
  <line class="cls-7" x1="1225.04" y1="96.26" x2="1212.28" y2="96.23"/>
  <line class="cls-7" x1="1225.03" y1="95.74" x2="1212.27" y2="95.71"/>
  <line class="cls-7" x1="1225.03" y1="95.22" x2="1212.27" y2="95.19"/>
  <path class="cls-14" d="M874.4,52.49v23.09c0,.19,.3,.35,.68,.35h27.69c.37,0,.68-.16,.68-.35v-23.09c0-.19-.3-.35-.68-.35h-27.69c-.37,0-.68,.16-.68,.35Zm24.86,22.71h-9.5v-15.65c0-.19-.3-.35-.68-.35s-.68,.16-.68,.35v15.65h-10.15v-16.59h21v16.59Zm2.76,0h-1.41v-16.94c0-.19-.3-.35-.68-.35h-22.36c-.37,0-.68,.16-.68,.35v16.94h-1.14v-18.03h26.27v18.03Zm.07-22.36v3.63h-26.33v-3.63h26.33Z"/>
  <path class="cls-14" d="M883.43,55.78h11.31c.37,0,.68-.16,.68-.35v-1.64c0-.19-.3-.35-.68-.35h-11.31c-.37,0-.68,.16-.68,.35v1.64c0,.19,.3,.35,.68,.35Zm.68-1.64h9.96v.93h-9.96v-.93Z"/>
  <path class="cls-14" d="M901.74,153.53v19.18c0,.16,.18,.29,.41,.29h16.7c.23,0,.41-.13,.41-.29v-19.18c0-.16-.18-.29-.41-.29h-16.7c-.23,0-.41,.13-.41,.29Zm15,18.86h-5.73v-12.99c0-.16-.18-.29-.41-.29s-.41,.13-.41,.29v12.99h-6.13v-13.78h12.67v13.78Zm1.67,0h-.85v-14.07c0-.16-.18-.29-.41-.29h-13.49c-.23,0-.41,.13-.41,.29v14.07h-.69v-14.97h15.85v14.97Zm.04-18.56v3.01h-15.89v-3.01h15.89Z"/>
  <path class="cls-14" d="M907.19,156.26h6.82c.23,0,.41-.13,.41-.29v-1.36c0-.16-.18-.29-.41-.29h-6.82c-.23,0-.41,.13-.41,.29v1.36c0,.16,.18,.29,.41,.29Zm.41-1.36h6.01v.78h-6.01v-.78Z"/>
  <line class="cls-5" x1="909.17" y1="331.36" x2="875.34" y2="337.06"/>
  <line class="cls-5" x1="909.22" y1="333.81" x2="876.44" y2="339.34"/>
  <line class="cls-5" x1="909.3" y1="336.13" x2="877.12" y2="341.55"/>
  <line class="cls-5" x1="909.92" y1="338.74" x2="878.39" y2="344.02"/>
  <line class="cls-5" x1="911.06" y1="340.74" x2="878.88" y2="346.15"/>
  <line class="cls-5" x1="910.51" y1="343.12" x2="879.84" y2="348.3"/>
  <line class="cls-5" x1="910.75" y1="345.52" x2="880.79" y2="350.35"/>
  <line class="cls-5" x1="910.37" y1="347.97" x2="882.23" y2="352.72"/>
  <line class="cls-5" x1="910.28" y1="349.96" x2="882.76" y2="354.5"/>
  <line class="cls-5" x1="910.85" y1="352.47" x2="884.19" y2="356.97"/>
  <line class="cls-5" x1="910.65" y1="354.8" x2="884.77" y2="359.17"/>
  <line class="cls-5" x1="910.51" y1="357.04" x2="885.42" y2="361.27"/>
  <line class="cls-5" x1="912.76" y1="360.5" x2="886.86" y2="365"/>
  <line class="cls-5" x1="912.15" y1="358.68" x2="885.99" y2="363.09"/>
  <line class="cls-5" x1="909.01" y1="323.98" x2="872.69" y2="330.07"/>
  <line class="cls-5" x1="909.03" y1="326.44" x2="873.75" y2="332.37"/>
  <line class="cls-5" x1="909.08" y1="328.77" x2="874.52" y2="334.56"/>
  <line class="cls-5" x1="900.61" y1="363" x2="891.07" y2="324.67"/>
  <polygon class="cls-1" points="889.78 325.75 890.82 323.83 892.69 325.24 889.78 325.75"/>
  <line class="cls-5" x1="856.26" y1="383.1" x2="862.99" y2="396"/>
  <line class="cls-5" x1="857.76" y1="381.5" x2="865.16" y2="395"/>
  <line class="cls-5" x1="859.74" y1="381.1" x2="866.76" y2="394.5"/>
  <line class="cls-5" x1="861.76" y1="379.5" x2="868.64" y2="392.99"/>
  <line class="cls-5" x1="863.76" y1="378.5" x2="870.76" y2="392.5"/>
  <line class="cls-5" x1="865.76" y1="377.5" x2="872.76" y2="391.5"/>
  <line class="cls-5" x1="867.26" y1="375.29" x2="875.2" y2="389.77"/>
  <line class="cls-5" x1="869.38" y1="374.86" x2="876.91" y2="389.23"/>
  <line class="cls-5" x1="871.55" y1="373.15" x2="878.93" y2="387.62"/>
  <line class="cls-5" x1="873.69" y1="372.07" x2="881.2" y2="387.09"/>
  <line class="cls-5" x1="875.84" y1="371" x2="883.34" y2="386.02"/>
  <line class="cls-5" x1="877.85" y1="370.88" x2="884.64" y2="383.91"/>
  <line class="cls-5" x1="879.34" y1="369.27" x2="886.82" y2="382.91"/>
  <line class="cls-5" x1="881.33" y1="368.87" x2="888.41" y2="382.42"/>
  <line class="cls-5" x1="883.34" y1="367.27" x2="890.3" y2="380.9"/>
  <line class="cls-5" x1="885.34" y1="366.27" x2="892.41" y2="380.42"/>
  <line class="cls-5" x1="859.76" y1="390.5" x2="890.76" y2="372.5"/>
  <line class="cls-5" x1="949.37" y1="369.42" x2="944.92" y2="386.59"/>
  <line class="cls-5" x1="947.6" y1="368.03" x2="942.58" y2="386.1"/>
  <line class="cls-5" x1="945.55" y1="368.18" x2="940.9" y2="386.03"/>
  <line class="cls-5" x1="943.25" y1="366.96" x2="938.75" y2="384.86"/>
  <line class="cls-5" x1="941.08" y1="366.42" x2="936.55" y2="384.96"/>
  <line class="cls-5" x1="938.91" y1="365.89" x2="934.38" y2="384.42"/>
  <line class="cls-5" x1="936.76" y1="365.5" x2="932.76" y2="383.5"/>
  <line class="cls-5" x1="934.63" y1="364.78" x2="930.75" y2="382.53"/>
  <line class="cls-5" x1="931.76" y1="363.5" x2="927.76" y2="381.5"/>
  <line class="cls-5" x1="929.84" y1="362.92" x2="925.19" y2="381.93"/>
  <line class="cls-5" x1="927.51" y1="362.35" x2="922.86" y2="381.36"/>
  <line class="cls-5" x1="925.69" y1="361.97" x2="921.2" y2="379.32"/>
  <line class="cls-5" x1="923.71" y1="361.43" x2="918.84" y2="378.9"/>
  <line class="cls-5" x1="921.67" y1="361.57" x2="917.16" y2="378.81"/>
  <line class="cls-5" x1="919.37" y1="360.36" x2="915.01" y2="377.67"/>
  <line class="cls-5" x1="917.2" y1="359.83" x2="912.81" y2="377.74"/>
  <polygon class="cls-1" points="889.85 371.3 892.04 371.19 891.81 373.52 889.85 371.3"/>
  <line class="cls-5" x1="947.24" y1="377.57" x2="912.65" y2="368.16"/>
  <polygon class="cls-1" points="912.44 369.65 910.82 368.18 912.64 366.7 912.44 369.65"/>
  <line class="cls-9" x1="978.26" y1="238" x2="974.26" y2="219"/>
  <g>
    <ellipse class="cls-14" cx="971.87" cy="235.25" rx=".93" ry=".89" transform="translate(-27.26 195.17) rotate(-11.31)"/>
    <path class="cls-14" d="M973.52,236.06h0s-.17,.03-.17,.03l-2.52,.5-.17,.03h0c-.44,.09-.73,.5-.65,.93l.03,.16,.54,2.69c.08,.42,.51,.7,.95,.61h0s-.67-3.34-.67-3.34c-.01-.06,.03-.12,.09-.13h.06s1.53,7.63,1.53,7.63c.06,.29,.35,.47,.65,.41s.5-.34,.44-.63l-.81-4.03c-.02-.09,.04-.18,.14-.2s.19,.04,.2,.13l.81,4.03c.06,.29,.35,.47,.65,.41s.5-.34,.44-.63l-1.53-7.65h.06c.06-.02,.12,.01,.14,.08l.67,3.34h0c.44-.09,.73-.5,.65-.93l-.54-2.69-.03-.16c-.08-.42-.51-.7-.95-.61Z"/>
    <g>
      <ellipse class="cls-14" cx="964.12" cy="236.8" rx=".93" ry=".89" transform="translate(-27.72 193.68) rotate(-11.31)"/>
      <path class="cls-14" d="M965.75,238.67l1.42,3.13c.41-.18,.61-.66,.43-1.05l-1.21-2.65c-.09-.2-.25-.34-.45-.41-.11-.04-.22-.05-.34-.04-.07,0-.13,.01-.2,.03l-.26,.05-1.6,.32-.26,.05s-.09,.02-.14,.03c-.13,.04-.25,.09-.35,.19-.15,.14-.25,.33-.26,.55l-.1,2.91c-.01,.43,.35,.8,.8,.8l.11-3.44c0-.05,.04-.1,.09-.11l.08-.02-.03,1.07-.13,4.09,.91-.18,.54,2.71c.03,.14,.12,.26,.23,.34,.12,.07,.26,.11,.41,.08,.3-.06,.5-.34,.44-.63l-.54-2.71,.34-.07,.54,2.71c.03,.14,.12,.26,.23,.34,.12,.07,.26,.11,.41,.08,.3-.06,.5-.34,.44-.63l-.54-2.71,.91-.18-1.7-3.73-.44-.98,.08-.02c.05-.01,.11,.02,.13,.06Z"/>
    </g>
    <rect class="cls-14" x="968.68" y="234.76" width=".47" height="11.85" rx=".23" ry=".23" transform="translate(-28.39 194.69) rotate(-11.31)"/>
  </g>
  <g>
    <ellipse class="cls-14" cx="1569.94" cy="24.18" rx="1.77" ry="1.66"/>
    <path class="cls-14" d="M1572.71,26.25h-5.54c-.86,0-1.55,.65-1.55,1.45v5.39c0,.8,.69,1.45,1.55,1.45h0v-6.32c0-.11,.1-.21,.22-.21h.11v14.45c0,.54,.47,.98,1.05,.98s1.05-.44,1.05-.98v-7.62c0-.17,.15-.31,.33-.31s.33,.14,.33,.31v7.62c0,.54,.47,.98,1.05,.98s1.05-.44,1.05-.98v-14.45h.11c.12,0,.22,.09,.22,.21v6.32h0c.86,0,1.55-.65,1.55-1.45v-5.39c0-.8-.69-1.45-1.55-1.45Z"/>
    <g>
      <ellipse class="cls-14" cx="1554.93" cy="24.18" rx="1.77" ry="1.66"/>
      <path class="cls-14" d="M1557.27,28.17l1.48,6.21c.84-.18,1.37-.97,1.18-1.75l-1.26-5.26c-.09-.39-.35-.71-.68-.91-.19-.11-.39-.17-.62-.2-.12-.02-.25-.02-.38-.02h-4.11c-.09,0-.18,0-.27,0-.27,.02-.51,.08-.73,.21-.33,.2-.59,.52-.68,.91l-1.26,5.26c-.19,.78,.35,1.58,1.18,1.75l1.48-6.21c.02-.09,.11-.16,.22-.16h.15l-.46,1.93-1.77,7.39h1.77v5.13c0,.27,.12,.52,.31,.7,.19,.18,.45,.29,.74,.29,.58,0,1.05-.44,1.05-.98v-5.13h.66v5.13c0,.27,.12,.52,.31,.7,.19,.18,.45,.29,.74,.29,.58,0,1.05-.44,1.05-.98v-5.13h1.77l-1.77-7.39-.46-1.93h.15c.1,0,.19,.07,.22,.16Z"/>
    </g>
    <rect class="cls-14" x="1561.96" y="22" width=".89" height="21.97" rx=".23" ry=".23"/>
  </g>
  <g>
    <ellipse class="cls-14" cx="690.1" cy="331.86" rx=".93" ry=".89"/>
    <path class="cls-14" d="M691.56,332.98h-2.91c-.45,0-.82,.35-.82,.78v2.91c0,.43,.37,.78,.82,.78h0v-3.41c0-.06,.05-.11,.12-.11h.06v7.8c0,.29,.25,.53,.55,.53s.55-.24,.55-.53v-4.11c0-.09,.08-.17,.17-.17s.17,.08,.17,.17v4.11c0,.29,.25,.53,.55,.53s.55-.24,.55-.53v-7.8h.06c.06,0,.12,.05,.12,.11v3.41h0c.45,0,.82-.35,.82-.78v-2.91c0-.43-.37-.78-.82-.78Z"/>
    <g>
      <ellipse class="cls-14" cx="682.21" cy="331.86" rx=".93" ry=".89"/>
      <path class="cls-14" d="M683.44,334.02l.78,3.35c.44-.09,.72-.52,.62-.95l-.67-2.84c-.05-.21-.18-.38-.36-.49-.1-.06-.21-.09-.32-.11-.06,0-.13-.01-.2-.01h-2.16s-.1,0-.14,0c-.14,.01-.27,.04-.38,.11-.18,.11-.31,.28-.36,.49l-.67,2.84c-.1,.42,.18,.85,.62,.95l.78-3.35c.01-.05,.06-.09,.11-.09h.08l-.24,1.04-.93,3.99h.93v2.77c0,.15,.06,.28,.16,.38,.1,.1,.24,.16,.39,.16,.31,0,.55-.24,.55-.53v-2.77h.35v2.77c0,.15,.06,.28,.16,.38,.1,.1,.24,.16,.39,.16,.31,0,.55-.24,.55-.53v-2.77h.93l-.93-3.99-.24-1.04h.08c.05,0,.1,.04,.11,.09Z"/>
    </g>
    <rect class="cls-14" x="685.91" y="330.69" width=".47" height="11.85" rx=".23" ry=".23"/>
  </g>
  <g>
    <ellipse class="cls-14" cx="693.1" cy="302.86" rx=".93" ry=".89"/>
    <path class="cls-14" d="M694.56,303.98h-2.91c-.45,0-.82,.35-.82,.78v2.91c0,.43,.37,.78,.82,.78h0v-3.41c0-.06,.05-.11,.12-.11h.06v7.8c0,.29,.25,.53,.55,.53s.55-.24,.55-.53v-4.11c0-.09,.08-.17,.17-.17s.17,.08,.17,.17v4.11c0,.29,.25,.53,.55,.53s.55-.24,.55-.53v-7.8h.06c.06,0,.12,.05,.12,.11v3.41h0c.45,0,.82-.35,.82-.78v-2.91c0-.43-.37-.78-.82-.78Z"/>
    <g>
      <ellipse class="cls-14" cx="685.21" cy="302.86" rx=".93" ry=".89"/>
      <path class="cls-14" d="M686.44,305.02l.78,3.35c.44-.09,.72-.52,.62-.95l-.67-2.84c-.05-.21-.18-.38-.36-.49-.1-.06-.21-.09-.32-.11-.06,0-.13-.01-.2-.01h-2.16s-.1,0-.14,0c-.14,.01-.27,.04-.38,.11-.18,.11-.31,.28-.36,.49l-.67,2.84c-.1,.42,.18,.85,.62,.95l.78-3.35c.01-.05,.06-.09,.11-.09h.08l-.24,1.04-.93,3.99h.93v2.77c0,.15,.06,.28,.16,.38,.1,.1,.24,.16,.39,.16,.31,0,.55-.24,.55-.53v-2.77h.35v2.77c0,.15,.06,.28,.16,.38,.1,.1,.24,.16,.39,.16,.31,0,.55-.24,.55-.53v-2.77h.93l-.93-3.99-.24-1.04h.08c.05,0,.1,.04,.11,.09Z"/>
    </g>
    <rect class="cls-14" x="688.91" y="301.69" width=".47" height="11.85" rx=".23" ry=".23"/>
  </g>
  <g>
    <ellipse class="cls-14" cx="291.33" cy="257.53" rx=".93" ry=".89"/>
    <path class="cls-14" d="M292.78,258.65h-2.91c-.45,0-.82,.35-.82,.78v2.91c0,.43,.37,.78,.82,.78h0v-3.41c0-.06,.05-.11,.12-.11h.06v7.8c0,.29,.25,.53,.55,.53s.55-.24,.55-.53v-4.11c0-.09,.08-.17,.17-.17s.17,.08,.17,.17v4.11c0,.29,.25,.53,.55,.53s.55-.24,.55-.53v-7.8h.06c.06,0,.12,.05,.12,.11v3.41h0c.45,0,.82-.35,.82-.78v-2.91c0-.43-.37-.78-.82-.78Z"/>
    <g>
      <ellipse class="cls-14" cx="283.43" cy="257.53" rx=".93" ry=".89"/>
      <path class="cls-14" d="M284.66,259.68l.78,3.35c.44-.09,.72-.52,.62-.95l-.67-2.84c-.05-.21-.18-.38-.36-.49-.1-.06-.21-.09-.32-.11-.06,0-.13-.01-.2-.01h-2.16s-.1,0-.14,0c-.14,.01-.27,.04-.38,.11-.18,.11-.31,.28-.36,.49l-.67,2.84c-.1,.42,.18,.85,.62,.95l.78-3.35c.01-.05,.06-.09,.11-.09h.08l-.24,1.04-.93,3.99h.93v2.77c0,.15,.06,.28,.16,.38,.1,.1,.24,.16,.39,.16,.31,0,.55-.24,.55-.53v-2.77h.35v2.77c0,.15,.06,.28,.16,.38,.1,.1,.24,.16,.39,.16,.31,0,.55-.24,.55-.53v-2.77h.93l-.93-3.99-.24-1.04h.08c.05,0,.1,.04,.11,.09Z"/>
    </g>
    <rect class="cls-14" x="287.13" y="256.35" width=".47" height="11.85" rx=".23" ry=".23"/>
  </g>
</svg>
