<?xml version="1.0" encoding="UTF-8"?>
<svg id="Lager_1" data-name="Lager 1" xmlns="http://www.w3.org/2000/svg" viewBox="0 0 913.33 274.22">
  <defs>
    <style>
      .cls-1 {
        stroke-width: .5px;
      }

      .cls-1, .cls-2, .cls-3, .cls-4, .cls-5, .cls-6, .cls-7, .cls-8, .cls-9, .cls-10, .cls-11, .cls-12 {
        stroke-miterlimit: 10;
      }

      .cls-1, .cls-2, .cls-3, .cls-4, .cls-5, .cls-6, .cls-7, .cls-8, .cls-10, .cls-11, .cls-12 {
        fill: none;
      }

      .cls-1, .cls-2, .cls-5, .cls-7, .cls-8, .cls-9, .cls-12 {
        stroke: #1d1d1b;
      }

      .cls-2, .cls-9 {
        stroke-width: .25px;
      }

      .cls-3, .cls-4, .cls-10, .cls-11 {
        stroke: #000;
      }

      .cls-3, .cls-5 {
        stroke-width: 4px;
      }

      .cls-13 {
        letter-spacing: .01em;
      }

      .cls-6 {
        stroke: #010101;
      }

      .cls-7, .cls-10 {
        stroke-width: 3px;
      }

      .cls-14 {
        letter-spacing: 0em;
      }

      .cls-9, .cls-15, .cls-16 {
        fill: #1d1d1b;
      }

      .cls-11, .cls-12 {
        stroke-width: 2px;
      }

      .cls-17 {
        letter-spacing: 0em;
      }

      .cls-15 {
        font-family: MyriadPro-Regular, 'Myriad Pro';
        font-size: 8px;
      }

      .cls-18 {
        letter-spacing: -.01em;
      }

      .cls-19 {
        fill: #010101;
      }
    </style>
  </defs>
  <polyline class="cls-5" points="125.66 181.01 118.59 235.47 350.08 266.06"/>
  <polyline class="cls-5" points="355.3 211.17 348.07 265.79 394.16 272.2 634.91 233.61 622.33 162.53"/>
  <line class="cls-5" x1="357.19" y1="202.1" x2="362.58" y2="152.99"/>
  <line class="cls-10" x1="357.7" y1="197.3" x2="370.19" y2="195.06"/>
  <polyline class="cls-10" points="378.23 193.61 401.13 189.51 394.41 149.72 422.3 144.5 422.85 147.17 413.55 148.86"/>
  <line class="cls-11" x1="394.41" y1="149.72" x2="361.83" y2="155.15"/>
  <line class="cls-5" x1="362.07" y1="155.11" x2="351.41" y2="154.78"/>
  <polyline class="cls-5" points="345.41 154.17 339.52 153.95 339.3 160 333.8 160 333.47 160"/>
  <line class="cls-5" x1="323.24" y1="158.06" x2="313.74" y2="157.45"/>
  <line class="cls-5" x1="304.91" y1="155.11" x2="179.58" y2="139.95"/>
  <line class="cls-5" x1="180.5" y1="140.06" x2="157.82" y2="137.66"/>
  <line class="cls-5" x1="151.24" y1="136.17" x2="130.74" y2="133.39"/>
  <line class="cls-5" x1="132.02" y1="115.83" x2="128.91" y2="148.95"/>
  <line class="cls-5" x1="125.58" y1="181.6" x2="128.08" y2="156.17"/>
  <line class="cls-7" x1="125.51" y1="182.18" x2="108.41" y2="180.97"/>
  <polyline class="cls-7" points="108.85 181.01 1.63 171.06 7.85 104.06 98.63 112.17 98.85 108.72"/>
  <polyline class="cls-7" points="108.85 109.83 108.85 113.83 132.41 114.95 153.85 118.5"/>
  <polyline class="cls-7" points="161.52 119.61 167.97 120.06 166.74 138.35"/>
  <polyline class="cls-11" points="291.19 258.27 285.85 212.61 148.85 194.28 150.52 178.95 147.3 178.95 147.97 164.83 128.74 163.17"/>
  <polyline class="cls-11" points="201.19 201.28 199.74 216.72 146.97 210.17 146.08 217.72"/>
  <polyline class="cls-11" points="259.08 232.5 146.08 217.72 143.3 237.83"/>
  <line class="cls-11" x1="162.27" y1="219.84" x2="159.71" y2="240.9"/>
  <line class="cls-11" x1="178.38" y1="221.95" x2="176.41" y2="242.36"/>
  <line class="cls-11" x1="201.19" y1="224.93" x2="199.59" y2="246.17"/>
  <line class="cls-11" x1="218.56" y1="227.2" x2="216.74" y2="248.95"/>
  <line class="cls-11" x1="236.73" y1="229.58" x2="234.83" y2="250.03"/>
  <polyline class="cls-11" points="217.65 203.49 216.33 219.2 253.66 224.03 253.07 231.72"/>
  <line class="cls-11" x1="251.22" y1="207.98" x2="250.24" y2="224.28"/>
  <line class="cls-11" x1="180.05" y1="198.45" x2="178.91" y2="214.53"/>
  <line class="cls-11" x1="153.12" y1="194.85" x2="151.42" y2="210.72"/>
  <polyline class="cls-11" points="166.74 138.95 160.99 182.28 181.24 184.7"/>
  <polyline class="cls-11" points="185.74 185.11 275.91 197.2 281.88 152.33"/>
  <polyline class="cls-11" points="201.88 187.27 204.91 162.61 279.2 172.49"/>
  <line class="cls-11" x1="204.91" y1="162.61" x2="207.2" y2="143.29"/>
  <line class="cls-11" x1="223.58" y1="165.09" x2="225.26" y2="145.47"/>
  <line class="cls-11" x1="242.24" y1="167.58" x2="244.33" y2="148.61"/>
  <line class="cls-11" x1="260.71" y1="170.03" x2="262.74" y2="150.61"/>
  <line class="cls-11" x1="242.24" y1="167.58" x2="238.99" y2="192.78"/>
  <polyline class="cls-11" points="241.21 175.58 259.49 178.03 257.78 194.77"/>
  <line class="cls-11" x1="203.92" y1="170.69" x2="193.33" y2="169.95"/>
  <polyline class="cls-11" points="190.93 185.81 193.49 163.61 189.16 163.17 192.09 141.46"/>
  <line class="cls-11" x1="189.6" y1="159.89" x2="164.74" y2="157.45"/>
  <line class="cls-11" x1="172.66" y1="158.22" x2="171.12" y2="172.61"/>
  <line class="cls-11" x1="181.24" y1="159.07" x2="178.42" y2="184.36"/>
  <line class="cls-11" x1="162.46" y1="171.17" x2="179.83" y2="173.2"/>
  <line class="cls-11" x1="149.27" y1="190.48" x2="125.49" y2="188.78"/>
  <line class="cls-11" x1="133.5" y1="189.35" x2="134.91" y2="176.53"/>
  <polyline class="cls-11" points="134.83 163.63 133.58 176.86 147.38 177.18"/>
  <line class="cls-11" x1="126.83" y1="179.03" x2="135.08" y2="179.45"/>
  <line class="cls-11" x1="4.03" y1="145.19" x2="127.58" y2="157.11"/>
  <line class="cls-11" x1="19.74" y1="146.71" x2="17.33" y2="171.36"/>
  <line class="cls-11" x1="32.64" y1="147.95" x2="30.74" y2="173.76"/>
  <line class="cls-11" x1="45.56" y1="149.2" x2="43.66" y2="174.45"/>
  <line class="cls-11" x1="57.84" y1="150.38" x2="56.24" y2="175.7"/>
  <line class="cls-11" x1="70.49" y1="151.15" x2="68.99" y2="177.78"/>
  <line class="cls-11" x1="83.73" y1="152.88" x2="82.33" y2="177.86"/>
  <line class="cls-11" x1="95.97" y1="154.06" x2="94.74" y2="179.24"/>
  <line class="cls-11" x1="108.85" y1="155.31" x2="107.74" y2="180.03"/>
  <polyline class="cls-11" points="5.54 128.98 95.35 137.11 96.48 111.98"/>
  <polyline class="cls-11" points="130.47 136.78 105.66 136.28 106.91 114.17 106.87 109.83"/>
  <polyline class="cls-11" points="128.16 147.61 104.49 145.86 104.66 136.03 106.24 136.03"/>
  <line class="cls-11" x1="23.57" y1="105.46" x2="21.59" y2="130.43"/>
  <line class="cls-11" x1="38.23" y1="106.77" x2="36.49" y2="131.78"/>
  <line class="cls-11" x1="74.9" y1="110.05" x2="73.25" y2="135.11"/>
  <polyline class="cls-11" points="65.09 134.37 64.91 142.53 34.74 140.03 35.42 131.69"/>
  <polygon class="cls-11" points="333.47 199.44 332.87 211.8 321.87 217.46 311.47 210.77 312.06 198.41 323.06 192.74 333.47 199.44"/>
  <polygon class="cls-11" points="562.24 64.41 562.13 72.14 555.31 75.8 548.62 71.73 548.74 64 555.55 60.34 562.24 64.41"/>
  <rect class="cls-11" x="440.91" y="11.45" width="36.25" height="53.83"/>
  <rect class="cls-11" x="477.16" y="53.17" width="23.83" height="14.46"/>
  <rect class="cls-11" x="477.16" y="32.67" width="23.83" height="20.5"/>
  <rect class="cls-11" x="477.16" y="10" width="23.83" height="22.67"/>
  <line class="cls-3" x1="440.58" y1="67.06" x2="477.16" y2="67.5"/>
  <line class="cls-10" x1="442.08" y1="77.28" x2="442.08" y2="66.7"/>
  <line class="cls-10" x1="442.08" y1="85.28" x2="442.08" y2="90.45"/>
  <line class="cls-11" x1="452.74" y1="84.28" x2="477.16" y2="84.28"/>
  <line class="cls-11" x1="477.16" y1="67.28" x2="477.16" y2="85.65"/>
  <line class="cls-11" x1="487.49" y1="84.28" x2="493.08" y2="84.28"/>
  <line class="cls-11" x1="482.66" y1="84.28" x2="477.16" y2="84.28"/>
  <line class="cls-11" x1="493.08" y1="86.49" x2="493.08" y2="68.07"/>
  <polyline class="cls-10" points="493.08 95.57 493.08 113.07 474.49 113.07 442.08 113.07 442.08 96.24"/>
  <polyline class="cls-11" points="493.66 110.04 519.99 110.12 522.74 126.7"/>
  <line class="cls-5" x1="622.44" y1="162.84" x2="614.55" y2="110.47"/>
  <line class="cls-5" x1="596.74" y1="116.28" x2="616.66" y2="113.36"/>
  <line class="cls-5" x1="475.68" y1="135.48" x2="589.62" y2="117.32"/>
  <line class="cls-5" x1="440.65" y1="141.06" x2="456.23" y2="138.58"/>
  <line class="cls-5" x1="440.03" y1="137.18" x2="455.61" y2="134.7"/>
  <line class="cls-5" x1="454.33" y1="113.07" x2="454.33" y2="118.37"/>
  <line class="cls-5" x1="454.33" y1="127.53" x2="454.33" y2="139.82"/>
  <line class="cls-5" x1="454.33" y1="132.45" x2="439.83" y2="134.95"/>
  <line class="cls-5" x1="493.99" y1="131.28" x2="474.59" y2="131.28"/>
  <line class="cls-5" x1="493.99" y1="134.61" x2="474.59" y2="134.61"/>
  <line class="cls-5" x1="493.87" y1="133.67" x2="474.71" y2="136.73"/>
  <polyline class="cls-11" points="478.24 199.36 446.41 159.95 442.27 142.14"/>
  <polyline class="cls-11" points="487.86 257.18 474.41 176.03 535.74 166.2 529.22 126.95"/>
  <polyline class="cls-11" points="592.3 139.82 595.41 159.83 620.08 155.65"/>
  <line class="cls-11" x1="588.99" y1="118.37" x2="590.74" y2="131.28"/>
  <polyline class="cls-7" points="615.66 110.61 763.08 101.45 911.83 71.95 911.83 9.78 746.24 9.78"/>
  <line class="cls-7" x1="735.91" y1="9.78" x2="645.24" y2="9.78"/>
  <line class="cls-12" x1="639.58" y1="9.78" x2="475.91" y2="9.78"/>
  <line class="cls-3" x1="617.08" y1="9.78" x2="617.41" y2="42.92"/>
  <line class="cls-3" x1="617.24" y1="51.83" x2="617.24" y2="77.83"/>
  <line class="cls-3" x1="617.24" y1="88.28" x2="617.24" y2="93.17"/>
  <line class="cls-3" x1="617.24" y1="103.28" x2="617.02" y2="111.08"/>
  <line class="cls-7" x1="615.66" y1="77.28" x2="641.08" y2="77.28"/>
  <polyline class="cls-7" points="646.77 77.28 663.55 77.28 663.55 42.2 644.24 42.2"/>
  <line class="cls-7" x1="637.02" y1="42.2" x2="615.66" y2="42.2"/>
  <line class="cls-12" x1="661.91" y1="9.78" x2="661.87" y2="40.78"/>
  <line class="cls-12" x1="647.33" y1="9.78" x2="647.49" y2="34.95"/>
  <line class="cls-12" x1="647.41" y1="39.03" x2="647.41" y2="43.45"/>
  <line class="cls-12" x1="632.74" y1="35.99" x2="632.7" y2="41.99"/>
  <line class="cls-12" x1="632.72" y1="31.95" x2="632.72" y2="9.61"/>
  <polyline class="cls-12" points="617.24 55.78 635.69 55.67 635.63 50.22"/>
  <polygon class="cls-12" points="704.47 75.45 732.58 75.33 732.52 50.95 704.47 50.95 704.47 75.45"/>
  <polyline class="cls-8" points="704.47 58.03 725.45 57.78 725.49 74.65"/>
  <line class="cls-1" x1="709.04" y1="51.13" x2="709.05" y2="57.97"/>
  <line class="cls-1" x1="710.51" y1="51.13" x2="710.53" y2="57.97"/>
  <line class="cls-1" x1="711.59" y1="51.47" x2="711.61" y2="58.31"/>
  <line class="cls-1" x1="713.06" y1="51.47" x2="713.08" y2="58.31"/>
  <line class="cls-1" x1="714.06" y1="51.3" x2="714.08" y2="58.14"/>
  <line class="cls-1" x1="715.54" y1="51.3" x2="715.56" y2="58.14"/>
  <line class="cls-1" x1="716.62" y1="51.64" x2="716.63" y2="58"/>
  <line class="cls-1" x1="718.09" y1="51.64" x2="718.11" y2="58"/>
  <line class="cls-1" x1="719.21" y1="51.28" x2="719.23" y2="58.12"/>
  <line class="cls-1" x1="720.68" y1="51.28" x2="720.7" y2="58.12"/>
  <line class="cls-1" x1="721.76" y1="51.62" x2="721.78" y2="58.08"/>
  <line class="cls-1" x1="723.24" y1="51.62" x2="723.26" y2="58.06"/>
  <line class="cls-1" x1="725.48" y1="51.43" x2="725.5" y2="58.27"/>
  <line class="cls-1" x1="724.32" y1="51.3" x2="724.34" y2="58.14"/>
  <line class="cls-1" x1="732.58" y1="58.19" x2="725.74" y2="58.21"/>
  <line class="cls-1" x1="732.58" y1="59.67" x2="725.74" y2="59.69"/>
  <line class="cls-1" x1="732.24" y1="60.75" x2="725.4" y2="60.77"/>
  <line class="cls-1" x1="732.24" y1="62.22" x2="725.4" y2="62.24"/>
  <line class="cls-1" x1="732.41" y1="63.22" x2="725.57" y2="63.24"/>
  <line class="cls-1" x1="732.41" y1="64.7" x2="725.57" y2="64.72"/>
  <line class="cls-1" x1="732.07" y1="65.78" x2="725.23" y2="65.8"/>
  <line class="cls-1" x1="732.07" y1="67.25" x2="725.23" y2="67.27"/>
  <line class="cls-1" x1="732.43" y1="68.37" x2="725.59" y2="68.39"/>
  <line class="cls-1" x1="732.43" y1="69.84" x2="725.59" y2="69.86"/>
  <line class="cls-1" x1="732.09" y1="70.92" x2="725.25" y2="70.94"/>
  <line class="cls-1" x1="732.09" y1="72.4" x2="725.25" y2="72.42"/>
  <line class="cls-1" x1="732.28" y1="74.64" x2="725.44" y2="74.66"/>
  <line class="cls-1" x1="732.41" y1="73.48" x2="725.57" y2="73.5"/>
  <line class="cls-8" x1="704.47" y1="75.45" x2="725.24" y2="57.78"/>
  <polyline class="cls-12" points="734.52 40.06 762.47 40.06 762.47 30.83 776.85 30.83 776.85 9.39"/>
  <polyline class="cls-12" points="705.52 9.78 705.69 31.11 734.63 31.17 734.41 9.78"/>
  <line class="cls-12" x1="720.08" y1="9.78" x2="720.08" y2="31.17"/>
  <line class="cls-8" x1="776.85" y1="31.53" x2="878.33" y2="31.53"/>
  <line class="cls-8" x1="821.24" y1="9.78" x2="821.24" y2="31.17"/>
  <line class="cls-8" x1="864.83" y1="9.78" x2="864.91" y2="31.17"/>
  <line class="cls-8" x1="878.33" y1="9.78" x2="878.33" y2="79.2"/>
  <line class="cls-8" x1="501.63" y1="67.28" x2="520.19" y2="65"/>
  <line class="cls-8" x1="562.85" y1="64.83" x2="580.63" y2="64.83"/>
  <line class="cls-8" x1="589.02" y1="64.83" x2="616.91" y2="64.83"/>
  <polyline class="cls-8" points="588.58 56.06 588.58 83.45 562.85 83.45 562.85 74.56 581.02 74.61 581.08 56.06"/>
  <line class="cls-1" x1="564.03" y1="74.41" x2="564.06" y2="83.05"/>
  <line class="cls-1" x1="565.56" y1="74.42" x2="565.58" y2="83.05"/>
  <line class="cls-1" x1="566.67" y1="74.84" x2="566.69" y2="83.48"/>
  <line class="cls-1" x1="568.19" y1="74.85" x2="568.22" y2="83.48"/>
  <line class="cls-1" x1="569.23" y1="74.63" x2="569.25" y2="83.27"/>
  <line class="cls-1" x1="570.75" y1="74.63" x2="570.78" y2="83.27"/>
  <line class="cls-1" x1="571.87" y1="75.06" x2="571.89" y2="83.09"/>
  <line class="cls-1" x1="573.39" y1="75.06" x2="573.42" y2="83.09"/>
  <line class="cls-1" x1="574.54" y1="74.61" x2="574.57" y2="83.24"/>
  <line class="cls-1" x1="576.07" y1="74.61" x2="576.1" y2="83.24"/>
  <line class="cls-1" x1="577.18" y1="75.04" x2="577.21" y2="83.2"/>
  <line class="cls-1" x1="578.71" y1="75.04" x2="578.73" y2="83.16"/>
  <line class="cls-1" x1="581.03" y1="74.8" x2="581.06" y2="83.44"/>
  <line class="cls-1" x1="579.83" y1="74.64" x2="579.85" y2="83.28"/>
  <line class="cls-1" x1="588.78" y1="57.21" x2="581.45" y2="57.24"/>
  <line class="cls-1" x1="588.78" y1="58.79" x2="581.45" y2="58.81"/>
  <line class="cls-1" x1="588.42" y1="59.94" x2="581.09" y2="59.96"/>
  <line class="cls-1" x1="588.42" y1="61.51" x2="581.09" y2="61.53"/>
  <line class="cls-1" x1="588.6" y1="62.58" x2="581.27" y2="62.6"/>
  <line class="cls-1" x1="588.6" y1="64.15" x2="581.27" y2="64.17"/>
  <line class="cls-1" x1="588.23" y1="65.3" x2="581.42" y2="65.32"/>
  <line class="cls-1" x1="588.23" y1="66.87" x2="581.42" y2="66.89"/>
  <line class="cls-1" x1="588.62" y1="68.06" x2="581.29" y2="68.09"/>
  <line class="cls-1" x1="588.62" y1="69.64" x2="581.29" y2="69.66"/>
  <line class="cls-1" x1="588.26" y1="70.79" x2="581.33" y2="70.81"/>
  <line class="cls-1" x1="588.26" y1="72.36" x2="581.36" y2="72.38"/>
  <line class="cls-1" x1="588.46" y1="74.76" x2="581.13" y2="74.78"/>
  <line class="cls-1" x1="588.6" y1="73.52" x2="581.27" y2="73.54"/>
  <line class="cls-11" x1="339.85" y1="152.95" x2="346.08" y2="127.06"/>
  <line class="cls-12" x1="300.2" y1="153.78" x2="303.2" y2="125.82"/>
  <polyline class="cls-12" points="304.7 115.9 306.08 107.65 319.83 105.07"/>
  <line class="cls-12" x1="330.74" y1="103.03" x2="341.04" y2="101.77"/>
  <line class="cls-12" x1="358.45" y1="99.65" x2="366.99" y2="98.61"/>
  <line class="cls-12" x1="384.51" y1="95.57" x2="394.42" y2="93.86"/>
  <line class="cls-12" x1="408.8" y1="91.38" x2="442.41" y2="86.45"/>
  <polyline class="cls-8" points="448.85 241.7 455.18 236.89 464.92 236.29 472.49 238.03"/>
  <polyline class="cls-8" points="474.02 228.22 463.58 225.95 463.41 201.06"/>
  <polyline class="cls-8" points="442.97 233.83 451.74 227.83 444.47 204.17"/>
  <path class="cls-8" d="M437.04,211.64l4.22,14.72c.39-.11,8.78-4.18,8.78-4.18"/>
  <polyline class="cls-8" points="473.02 205.83 473.02 219 463.55 221.72"/>
  <line class="cls-1" x1="443.7" y1="233.73" x2="449.32" y2="241.5"/>
  <line class="cls-1" x1="444.94" y1="232.84" x2="450.56" y2="240.61"/>
  <line class="cls-1" x1="445.64" y1="232.04" x2="451.26" y2="239.81"/>
  <line class="cls-1" x1="446.88" y1="231.15" x2="452.5" y2="238.92"/>
  <line class="cls-1" x1="448.06" y1="230.89" x2="453.29" y2="238.11"/>
  <line class="cls-1" x1="449.3" y1="230" x2="454.53" y2="237.22"/>
  <line class="cls-1" x1="471.8" y1="237.35" x2="473.33" y2="227.52"/>
  <line class="cls-1" x1="470.3" y1="237.11" x2="471.83" y2="227.28"/>
  <line class="cls-1" x1="469.24" y1="237.19" x2="470.77" y2="227.36"/>
  <line class="cls-1" x1="467.73" y1="236.95" x2="469.26" y2="227.11"/>
  <line class="cls-1" x1="466.71" y1="236.28" x2="468.13" y2="227.14"/>
  <line class="cls-1" x1="465.2" y1="236.04" x2="466.63" y2="226.9"/>
  <line class="cls-1" x1="463.21" y1="207.74" x2="446.26" y2="210"/>
  <line class="cls-1" x1="463.16" y1="209.24" x2="447.04" y2="211.39"/>
  <line class="cls-1" x1="463.12" y1="210.67" x2="446.99" y2="212.82"/>
  <line class="cls-1" x1="463.32" y1="212.29" x2="447.19" y2="214.44"/>
  <line class="cls-1" x1="463.84" y1="213.56" x2="447.72" y2="215.7"/>
  <line class="cls-1" x1="463.5" y1="215" x2="448.41" y2="217.01"/>
  <line class="cls-1" x1="463.55" y1="216.47" x2="448.81" y2="218.3"/>
  <line class="cls-1" x1="463.29" y1="217.96" x2="449.45" y2="219.81"/>
  <line class="cls-1" x1="463.18" y1="219.18" x2="450.07" y2="220.93"/>
  <line class="cls-1" x1="463.38" y1="220.74" x2="450.27" y2="222.49"/>
  <line class="cls-1" x1="463.21" y1="222.16" x2="450.48" y2="223.86"/>
  <line class="cls-1" x1="463.08" y1="223.53" x2="450.73" y2="225.17"/>
  <line class="cls-1" x1="463.74" y1="225.86" x2="451.32" y2="227.51"/>
  <line class="cls-1" x1="463.83" y1="224.59" x2="450.96" y2="226.31"/>
  <line class="cls-1" x1="463.37" y1="203.21" x2="444.79" y2="205.68"/>
  <line class="cls-1" x1="463.3" y1="204.71" x2="445.62" y2="207.07"/>
  <line class="cls-1" x1="463.23" y1="206.14" x2="445.56" y2="208.5"/>
  <line class="cls-1" x1="458.08" y1="226.81" x2="454.61" y2="202.95"/>
  <polygon class="cls-9" points="453.95 203.56 454.51 202.43 455.38 203.36 453.95 203.56"/>
  <line class="cls-1" x1="446.51" y1="237.81" x2="453.12" y2="232.77"/>
  <polygon class="cls-9" points="452.26 232.49 453.53 232.42 453.14 233.64 452.26 232.49"/>
  <line class="cls-1" x1="472.55" y1="233.03" x2="464.37" y2="231.52"/>
  <polygon class="cls-9" points="464.46 232.18 463.56 231.29 464.72 230.76 464.46 232.18"/>
  <line class="cls-1" x1="473.09" y1="206.08" x2="463.65" y2="206.1"/>
  <line class="cls-1" x1="473.14" y1="207.31" x2="463.7" y2="207.34"/>
  <line class="cls-1" x1="473.14" y1="208.71" x2="463.69" y2="208.74"/>
  <line class="cls-1" x1="472.67" y1="210.03" x2="463.89" y2="210.06"/>
  <line class="cls-1" x1="472.67" y1="211.32" x2="463.89" y2="211.35"/>
  <line class="cls-1" x1="473.13" y1="212.8" x2="463.69" y2="212.82"/>
  <line class="cls-1" x1="473.16" y1="214.08" x2="463.72" y2="214.1"/>
  <line class="cls-1" x1="472.69" y1="215.49" x2="463.77" y2="215.52"/>
  <line class="cls-1" x1="472.69" y1="216.79" x2="463.81" y2="216.82"/>
  <line class="cls-1" x1="473.13" y1="217.95" x2="463.69" y2="217.97"/>
  <line class="cls-1" x1="445.73" y1="208.73" x2="436.83" y2="211.89"/>
  <line class="cls-1" x1="446.18" y1="209.88" x2="437.28" y2="213.04"/>
  <line class="cls-1" x1="446.64" y1="211.2" x2="437.74" y2="214.36"/>
  <line class="cls-1" x1="446.64" y1="212.6" x2="438.37" y2="215.54"/>
  <line class="cls-1" x1="447.06" y1="213.82" x2="438.79" y2="216.75"/>
  <line class="cls-1" x1="447.99" y1="215.05" x2="439.1" y2="218.21"/>
  <line class="cls-1" x1="448.45" y1="216.25" x2="439.55" y2="219.41"/>
  <line class="cls-1" x1="448.47" y1="217.74" x2="440.06" y2="220.73"/>
  <line class="cls-1" x1="448.9" y1="218.97" x2="440.53" y2="221.94"/>
  <line class="cls-1" x1="449.7" y1="219.91" x2="440.8" y2="223.07"/>
  <line class="cls-1" x1="441.13" y1="210.31" x2="445.37" y2="222.66"/>
  <polygon class="cls-9" points="445.9 221.92 445.58 223.15 444.54 222.42 445.9 221.92"/>
  <line class="cls-1" x1="467.86" y1="206.08" x2="467.89" y2="219.13"/>
  <polygon class="cls-9" points="468.63 218.6 467.93 219.67 467.18 218.63 468.63 218.6"/>
  <path class="cls-6" d="M150.39,135.9l.76-9.34c1.31,.44,3.56,1.39,5.71,3.44,2.67,2.55,3.72,5.41,4.13,6.78"/>
  <path class="cls-6" d="M152.96,119.17l.76-9.34c1.31,.44,3.56,1.39,5.71,3.44,2.67,2.55,3.72,5.41,4.13,6.78"/>
  <path class="cls-6" d="M98.26,111.72l.76-9.34c1.31,.44,3.56,1.39,5.71,3.44,2.67,2.55,3.72,5.41,4.13,6.78"/>
  <path class="cls-6" d="M378.72,192.7l1.65,9.22c-1.38-.09-3.8-.43-6.4-1.86-3.24-1.78-4.98-4.28-5.72-5.51"/>
  <path class="cls-6" d="M284.93,212.98l9.31-1.08c-.17,1.37-.66,3.77-2.25,6.28-1.98,3.12-4.58,4.71-5.85,5.37"/>
  <path class="cls-19" d="M344.85,157.78v10.71c0,.09,.11,.16,.24,.16h9.97c.13,0,.24-.07,.24-.16v-10.71c0-.09-.11-.16-.24-.16h-9.97c-.13,0-.24,.07-.24,.16Zm8.96,10.53h-3.42v-7.26c0-.09-.11-.16-.24-.16s-.24,.07-.24,.16v7.26h-3.66v-7.7h7.57v7.7Zm1,0h-.51v-7.86c0-.09-.11-.16-.24-.16h-8.06c-.13,0-.24,.07-.24,.16v7.86h-.41v-8.36h9.46v8.36Zm.02-10.37v1.68h-9.49v-1.68h9.49Z"/>
  <path class="cls-19" d="M348.1,159.3h4.08c.13,0,.24-.07,.24-.16v-.76c0-.09-.11-.16-.24-.16h-4.08c-.13,0-.24,.07-.24,.16v.76c0,.09,.11,.16,.24,.16Zm.24-.76h3.59v.43h-3.59v-.43Z"/>
  <path class="cls-19" d="M473.24,116.32h-15.61c-.13,0-.24,.13-.24,.3v12.24c0,.17,.11,.3,.24,.3h15.61c.13,0,.24-.13,.24-.3v-12.24c0-.17-.11-.3-.24-.3Zm-15.35,10.99v-4.2h10.57c.13,0,.24-.13,.24-.3s-.11-.3-.24-.3h-10.57v-4.49h11.21v9.29h-11.21Zm0,1.22v-.62h11.45c.13,0,.24-.13,.24-.3v-9.89c0-.17-.11-.3-.24-.3h-11.45v-.51h12.18v11.62h-12.18Zm15.11,.03h-2.45v-11.65h2.45v11.65Z"/>
  <path class="cls-19" d="M471.02,120.31v5c0,.17,.11,.3,.24,.3h1.11c.13,0,.24-.13,.24-.3v-5c0-.17-.11-.3-.24-.3h-1.11c-.13,0-.24,.13-.24,.3Zm1.11,.3v4.4h-.63v-4.4h.63Z"/>
  <path class="cls-19" d="M457.86,99.77v10.71c0,.09,.11,.16,.24,.16h9.97c.13,0,.24-.07,.24-.16v-10.71c0-.09-.11-.16-.24-.16h-9.97c-.13,0-.24,.07-.24,.16Zm8.96,10.53h-3.42v-7.26c0-.09-.11-.16-.24-.16s-.24,.07-.24,.16v7.26h-3.66v-7.7h7.57v7.7Zm1,0h-.51v-7.86c0-.09-.11-.16-.24-.16h-8.06c-.13,0-.24,.07-.24,.16v7.86h-.41v-8.36h9.46v8.36Zm.02-10.37v1.68h-9.49v-1.68h9.49Z"/>
  <path class="cls-19" d="M461.11,101.3h4.08c.13,0,.24-.07,.24-.16v-.76c0-.09-.11-.16-.24-.16h-4.08c-.13,0-.24,.07-.24,.16v.76c0,.09,.11,.16,.24,.16Zm.24-.76h3.59v.43h-3.59v-.43Z"/>
  <g>
    <path class="cls-16" d="M272,237.63c-5.33,0-9.68-4.03-9.68-8.98s4.34-8.98,9.68-8.98,9.68,4.03,9.68,8.98-4.34,8.98-9.68,8.98Zm0-17.06c-4.8,0-8.7,3.62-8.7,8.08s3.9,8.08,8.7,8.08,8.7-3.62,8.7-8.08-3.9-8.08-8.7-8.08Z"/>
    <g>
      <path class="cls-16" d="M274.37,232.41l-.48-.32s0,0,0,0c-.07,.18-.15,.36-.25,.53-.09,.17-.21,.32-.34,.45-.13,.13-.28,.22-.45,.25-.13,.02-.21-.03-.26-.15-.05-.12-.08-.22-.1-.3-.08-.37-.07-.77,.02-1.21,.09-.44,.19-.89,.3-1.34,.11-.45,.21-.9,.3-1.34,.09-.44,.1-.85,.01-1.24-.08-.37-.27-.71-.57-1.03-.31-.32-.7-.43-1.18-.35-.25,.05-.51,.17-.78,.37-.27,.2-.54,.44-.81,.72-.07,.07-.14,.15-.2,.22l.46,.45c.12-.11,.24-.19,.35-.24,.12-.05,.27-.09,.46-.13,.19-.03,.25,.17,.19,.61-.06,.44-.17,.96-.32,1.56-.16,.6-.3,1.21-.43,1.82-.13,.62-.16,1.09-.09,1.42,.09,.43,.37,.72,.83,.87,.47,.16,.92,.2,1.36,.12,.67-.12,1.16-.4,1.48-.84,.19-.27,.37-.56,.53-.87l-.04-.03Z"/>
      <path class="cls-16" d="M272.15,225.54c-.36,.07-.67,.01-.91-.16-.24-.17-.4-.42-.47-.74-.07-.34-.02-.66,.15-.96,.17-.3,.45-.48,.83-.55,.35-.06,.66-.02,.95,.14,.29,.16,.46,.4,.53,.72,.07,.35,.01,.68-.19,.99-.2,.3-.5,.49-.9,.56Z"/>
    </g>
  </g>
  <text class="cls-15" transform="translate(252.3 241.99) rotate(7)"><tspan class="cls-13" x="0" y="0">I</tspan><tspan x="1.99" y="0">n</tspan><tspan class="cls-18" x="6.43" y="0">f</tspan><tspan x="8.66" y="0">o</tspan><tspan class="cls-17" x="13.06" y="0">c</tspan><tspan x="16.59" y="0">e</tspan><tspan class="cls-14" x="20.6" y="0">n</tspan><tspan class="cls-17" x="25.01" y="0">t</tspan><tspan x="27.61" y="0">er</tspan></text>
  <line class="cls-2" x1="340.9" y1="101.21" x2="359.92" y2="98.92"/>
  <line class="cls-2" x1="340.8" y1="102.4" x2="359.51" y2="100.06"/>
  <line class="cls-2" x1="366.7" y1="97.97" x2="386.7" y2="94.57"/>
  <line class="cls-2" x1="366.8" y1="99.21" x2="385.6" y2="95.92"/>
  <path class="cls-6" d="M393.91,93.78l-.68-4.63c1.05,.01,2.9,.13,4.81,.79,2.38,.82,3.56,2.05,4.05,2.65"/>
  <path class="cls-6" d="M409.35,91.15l-.79-4.61c-.95,.33-2.58,1-4.1,2.21-1.9,1.51-2.59,3.03-2.85,3.75"/>
  <path class="cls-6" d="M303.67,126.42l-4.63-.68c.27-.68,.82-1.85,1.92-2.93,1.37-1.35,2.84-1.82,3.54-1.99"/>
  <path class="cls-6" d="M304.96,115.52l-4.64-.56c.08,.74,.3,2.04,1.08,3.4,.97,1.69,2.25,2.54,2.88,2.9"/>
  <line class="cls-2" x1="316.93" y1="104.91" x2="335.82" y2="101.68"/>
  <line class="cls-2" x1="316.89" y1="106.1" x2="335.46" y2="102.85"/>
  <path class="cls-6" d="M639.15,9.71l.06-8.7c.81,.31,2.21,1.03,3.59,2.78,1.72,2.17,2.47,4.75,2.77,5.99"/>
  <path class="cls-6" d="M735.3,9.32l.06-8.7c1.48,.32,4.04,1.04,6.58,2.8,3.16,2.18,4.55,4.77,5.11,6.01"/>
  <path class="cls-6" d="M636.46,41.45l.04-5.87c1.06,.21,2.9,.71,4.71,1.89,2.26,1.47,3.26,3.21,3.66,4.05"/>
  <path class="cls-6" d="M640.67,76.25l.04-5.87c.84,.21,2.31,.7,3.76,1.88,1.8,1.47,2.6,3.21,2.92,4.05"/>
  <path class="cls-19" d="M621.11,44.55v9.8h0c0,.1,.11,.16,.24,.16h9.97c.13,0,.24-.07,.24-.15v-9.81c0-.08-.11-.15-.24-.15h-9.97c-.13,0-.24,.07-.24,.15Zm8.96,9.65h-3.42v-6.65c0-.08-.11-.15-.24-.15s-.24,.07-.24,.15v6.65h-3.66v-7.05h7.57v7.05Zm1,0h-.51v-7.2c0-.08-.11-.15-.24-.15h-8.06c-.13,0-.24,.07-.24,.15v7.2h-.41v-7.66h9.46v7.66Zm.02-9.5v1.54h-9.49v-1.54h9.49Z"/>
  <path class="cls-19" d="M624.36,45.95h4.08c.13,0,.24-.07,.24-.15v-.7c0-.08-.11-.15-.24-.15h-4.08c-.13,0-.24,.07-.24,.15v.7c0,.08,.11,.15,.24,.15Zm.24-.7h3.59v.4h-3.59v-.4Z"/>
  <line class="cls-1" x1="453.61" y1="75.73" x2="453.63" y2="84.26"/>
  <line class="cls-1" x1="454.73" y1="76.15" x2="454.75" y2="84.68"/>
  <line class="cls-1" x1="456.25" y1="76.15" x2="456.27" y2="84.68"/>
  <line class="cls-1" x1="457.29" y1="75.94" x2="457.31" y2="84.47"/>
  <line class="cls-1" x1="458.81" y1="75.94" x2="458.83" y2="84.47"/>
  <line class="cls-1" x1="459.92" y1="76.36" x2="459.94" y2="84.29"/>
  <line class="cls-1" x1="461.45" y1="76.36" x2="461.47" y2="84.29"/>
  <line class="cls-1" x1="462.6" y1="75.91" x2="462.62" y2="84.44"/>
  <line class="cls-1" x1="464.13" y1="75.91" x2="464.15" y2="84.44"/>
  <line class="cls-1" x1="465.24" y1="76.33" x2="465.26" y2="84.39"/>
  <line class="cls-1" x1="466.77" y1="76.33" x2="466.79" y2="84.36"/>
  <line class="cls-1" x1="469.09" y1="76.1" x2="469.11" y2="84.63"/>
  <line class="cls-1" x1="467.89" y1="75.94" x2="467.91" y2="84.47"/>
  <polyline class="cls-4" points="469.57 76.28 452.74 76.18 452.74 68.78"/>
  <line class="cls-11" x1="465.91" y1="75.2" x2="465.91" y2="75.22"/>
  <line class="cls-1" x1="454.74" y1="68.05" x2="454.76" y2="76.58"/>
  <line class="cls-1" x1="456.26" y1="68.05" x2="456.28" y2="76.58"/>
  <line class="cls-1" x1="457.3" y1="67.84" x2="457.32" y2="76.37"/>
  <line class="cls-1" x1="458.82" y1="67.84" x2="458.84" y2="76.37"/>
  <line class="cls-1" x1="459.93" y1="68.26" x2="459.95" y2="76.19"/>
  <line class="cls-1" x1="461.46" y1="68.26" x2="461.48" y2="76.19"/>
  <line class="cls-1" x1="462.61" y1="67.81" x2="462.63" y2="76.34"/>
  <line class="cls-1" x1="464.14" y1="67.81" x2="464.16" y2="76.34"/>
  <line class="cls-1" x1="465.25" y1="68.23" x2="465.27" y2="76.3"/>
  <line class="cls-1" x1="466.78" y1="68.23" x2="466.8" y2="76.26"/>
  <line class="cls-1" x1="469.1" y1="68" x2="469.12" y2="76.53"/>
  <line class="cls-1" x1="467.9" y1="67.84" x2="467.92" y2="76.37"/>
  <line class="cls-1" x1="453.41" y1="80.16" x2="470.73" y2="80.15"/>
  <polygon class="cls-9" points="470.32 79.44 471.38 80.15 470.34 80.89 470.32 79.44"/>
  <line class="cls-1" x1="469.26" y1="72.92" x2="453.75" y2="72.72"/>
  <polygon class="cls-9" points="454.1 73.43 453.16 72.71 454.1 71.99 454.1 73.43"/>
  <line class="cls-1" x1="324.6" y1="253.27" x2="325.8" y2="244.64"/>
  <line class="cls-1" x1="325.76" y1="253" x2="326.96" y2="244.37"/>
  <line class="cls-1" x1="327.27" y1="253.21" x2="328.47" y2="244.58"/>
  <line class="cls-1" x1="328.26" y1="253.57" x2="329.47" y2="244.94"/>
  <line class="cls-1" x1="329.77" y1="253.78" x2="330.98" y2="245.15"/>
  <line class="cls-1" x1="330.93" y1="253.51" x2="332.05" y2="245.49"/>
  <line class="cls-1" x1="332.44" y1="253.72" x2="333.57" y2="245.7"/>
  <line class="cls-1" x1="333.52" y1="254.34" x2="334.73" y2="245.71"/>
  <line class="cls-1" x1="335.04" y1="254.56" x2="336.24" y2="245.93"/>
  <line class="cls-1" x1="336.19" y1="254.28" x2="337.33" y2="246.13"/>
  <line class="cls-1" x1="337.71" y1="254.5" x2="338.84" y2="246.37"/>
  <line class="cls-1" x1="339.97" y1="255.06" x2="341.18" y2="246.43"/>
  <line class="cls-1" x1="338.76" y1="255.05" x2="339.97" y2="246.42"/>
  <polyline class="cls-4" points="340.48 254.94 323.8 252.69 322.77 260.18"/>
  <line class="cls-11" x1="336.7" y1="255.53" x2="336.71" y2="255.5"/>
  <line class="cls-1" x1="324.64" y1="261.19" x2="325.85" y2="252.56"/>
  <line class="cls-1" x1="326.15" y1="261.4" x2="327.36" y2="252.77"/>
  <line class="cls-1" x1="327.15" y1="261.76" x2="328.35" y2="253.13"/>
  <line class="cls-1" x1="328.66" y1="261.98" x2="329.86" y2="253.35"/>
  <line class="cls-1" x1="329.82" y1="261.7" x2="330.94" y2="253.68"/>
  <line class="cls-1" x1="331.33" y1="261.92" x2="332.45" y2="253.9"/>
  <line class="cls-1" x1="332.41" y1="262.54" x2="333.61" y2="253.91"/>
  <line class="cls-1" x1="333.92" y1="262.75" x2="335.13" y2="254.12"/>
  <line class="cls-1" x1="335.08" y1="262.48" x2="336.22" y2="254.32"/>
  <line class="cls-1" x1="336.59" y1="262.69" x2="337.73" y2="254.57"/>
  <line class="cls-1" x1="338.86" y1="263.25" x2="340.06" y2="254.62"/>
  <line class="cls-1" x1="337.65" y1="263.25" x2="338.85" y2="254.62"/>
  <line class="cls-1" x1="325.01" y1="248.75" x2="342.16" y2="251.19"/>
  <polygon class="cls-9" points="341.66 251.85 342.8 251.28 341.88 250.39 341.66 251.85"/>
  <line class="cls-1" x1="339.7" y1="258.3" x2="324.31" y2="256.33"/>
  <polygon class="cls-9" points="324.76 255.66 323.73 256.25 324.56 257.12 324.76 255.66"/>
  <line class="cls-4" x1="324.76" y1="243.99" x2="349.41" y2="247.2"/>
</svg>
