
<svg width="382" height="484" viewBox="0 0 382 484" fill="none" xmlns="http://www.w3.org/2000/svg">
<g id="Component 1">
<g id="Spetsen">
<g id="Vector 4" filter="url(#filter0_di_2_82)">
<path d="M241.5 111.5L211 8.5L245 0L272.5 102.5L241.5 111.5Z" fill="#00B9E7"/>
</g>
<g id="TP">
<path id="TP_2" d="M247.474 48.1221C248.697 47.6671 249.527 46.825 249.965 45.5959C250.403 44.3668 250.435 42.9821 250.061 41.4417C249.787 40.3154 249.365 39.3741 248.795 38.6179C248.228 37.87 247.568 37.3376 246.815 37.0205C246.065 36.7117 245.284 36.6559 244.472 36.8531C243.793 37.0182 243.249 37.3215 242.838 37.7633C242.439 38.2113 242.14 38.7312 241.941 39.3232C241.751 39.9131 241.621 40.5149 241.551 41.1283C241.489 41.7398 241.454 42.2966 241.444 42.7989L241.376 45.5518C241.363 46.2566 241.302 47.0521 241.193 47.9381C241.086 48.8325 240.858 49.7167 240.509 50.5909C240.171 51.4713 239.651 52.2555 238.95 52.9433C238.248 53.6312 237.302 54.1201 236.109 54.4099C234.734 54.744 233.404 54.6856 232.12 54.2348C230.837 53.7923 229.701 52.9631 228.713 51.7473C227.726 50.5399 226.996 48.9589 226.521 47.0044C226.078 45.1824 225.989 43.5333 226.253 42.0571C226.519 40.5891 227.085 39.3464 227.952 38.3289C228.82 37.3196 229.938 36.5963 231.305 36.1588L232.078 39.3389C231.138 39.6552 230.421 40.1714 229.928 40.8875C229.446 41.6099 229.158 42.4431 229.062 43.3871C228.978 44.3375 229.058 45.3178 229.304 46.3282C229.589 47.5042 230.036 48.5138 230.645 49.357C231.261 50.1983 231.98 50.8087 232.8 51.1882C233.629 51.5657 234.507 51.6418 235.434 51.4164C236.279 51.2111 236.909 50.808 237.324 50.2072C237.74 49.6063 238.019 48.8805 238.163 48.0298C238.307 47.1791 238.395 46.2764 238.426 45.3216L238.56 41.9737C238.648 39.8473 239.081 38.0755 239.86 36.6584C240.638 35.2414 241.884 34.3246 243.599 33.9079C245.023 33.5618 246.359 33.645 247.606 34.1576C248.864 34.6764 249.945 35.5186 250.851 36.6843C251.768 37.8561 252.423 39.2537 252.818 40.8769C253.216 42.5167 253.276 44.0457 252.998 45.464C252.728 46.8802 252.179 48.0838 251.35 49.0747C250.523 50.0739 249.472 50.7501 248.199 51.1035L247.474 48.1221ZM230.433 61.1537L255.874 54.9709L257.963 63.5673C258.449 65.5632 258.485 67.2822 258.072 68.7244C257.67 70.1729 256.935 71.3515 255.866 72.2602C254.798 73.1689 253.514 73.8054 252.015 74.1696C250.516 74.5339 249.079 74.5586 247.704 74.2436C246.332 73.9369 245.127 73.2386 244.09 72.1486C243.062 71.0566 242.307 69.5209 241.826 67.5416L240.329 61.38L243.062 60.7159L244.535 66.7781C244.867 68.1445 245.37 69.1845 246.043 69.8979C246.716 70.6114 247.5 71.0568 248.394 71.2343C249.298 71.418 250.26 71.3861 251.278 71.1385C252.297 70.891 253.162 70.4791 253.872 69.9029C254.585 69.335 255.068 68.5775 255.32 67.6304C255.58 66.6812 255.542 65.5151 255.206 64.1321L253.89 58.7159L231.182 64.2345L230.433 61.1537Z" fill="white"/>
</g>
</g>
<g id="T&#195;&#164;ppan">
<g id="Vector 3" filter="url(#filter1_di_2_82)">
<a href="/map/TP_P3">
<path id="framSidaTP" d="M72 118.5L61 53L188.5 19.5L225 150.5L131.5 171.5L117 108L72 118.5Z" fill="#00B9E7"/>
</a>
</g>
<g id="TP_3">
<path id="TP_4" d="M134.239 83.1307V80.3182H153.875V83.1307H145.642V106.5H142.472V83.1307H134.239ZM158.768 106.5V80.3182H167.615C169.669 80.3182 171.348 80.6889 172.652 81.4304C173.964 82.1634 174.936 83.1562 175.566 84.4091C176.197 85.6619 176.512 87.0597 176.512 88.6023C176.512 90.1449 176.197 91.5469 175.566 92.8082C174.944 94.0696 173.981 95.0753 172.677 95.8253C171.373 96.5668 169.703 96.9375 167.666 96.9375H161.325V94.125H167.564C168.97 94.125 170.099 93.8821 170.951 93.3963C171.804 92.9105 172.422 92.2543 172.805 91.4276C173.197 90.5923 173.393 89.6506 173.393 88.6023C173.393 87.554 173.197 86.6165 172.805 85.7898C172.422 84.9631 171.799 84.3153 170.939 83.8466C170.078 83.3693 168.936 83.1307 167.512 83.1307H161.939V106.5H158.768Z" fill="white"/>
</g>
</g>
<g id="K&#195;&#165;kenhus">
<g id="Vector 6" filter="url(#filter2_di_2_82)">
<a href="/map/K_P2">
<path id="framSidaK" d="M64 245V285.5L220 266L341 211V198L378 182L369 146.5L207 178.5V198L167 218.5V236L121 241.5L118.5 232.5L64 245Z" fill="#00B9E7"/>
</a>
</g>
<g id="TP_5">
<path id="TP_6" d="M249.873 230.176L239.213 206.263L242.108 204.972L247.397 216.835L247.677 216.71L253.131 200.058L256.914 198.372L251.682 213.637L267.574 222.285L264.071 223.847L250.802 216.437L249.312 221.132L252.768 228.885L249.873 230.176Z" fill="white"/>
</g>
</g>
<g id="Kopparhammar">
<g id="Vector 5" filter="url(#filter3_di_2_82)">
<path d="M4 469V433L202 439V476L4 469Z" fill="#00B9E7"/>
</g>
<g id="TP_7">
<path id="TP_8" d="M86.7744 468.594L87.7514 442.43L90.9196 442.549L90.4349 455.528L90.7415 455.54L102.979 442.999L107.119 443.154L95.6911 454.548L106.142 469.317L102.309 469.174L93.6672 456.672L90.2594 460.23L89.9426 468.712L86.7744 468.594ZM131.577 457.167C131.474 459.926 130.886 462.292 129.815 464.265C128.743 466.238 127.319 467.737 125.54 468.762C123.762 469.788 121.758 470.259 119.526 470.175C117.295 470.092 115.331 469.473 113.634 468.318C111.937 467.163 110.628 465.562 109.707 463.514C108.785 461.467 108.376 459.064 108.479 456.304C108.582 453.545 109.17 451.179 110.241 449.206C111.313 447.233 112.737 445.734 114.516 444.709C116.294 443.684 118.299 443.213 120.53 443.296C122.761 443.38 124.725 443.999 126.422 445.154C128.119 446.309 129.428 447.91 130.349 449.957C131.271 452.004 131.68 454.408 131.577 457.167ZM128.511 457.052C128.595 454.787 128.288 452.861 127.588 451.274C126.897 449.687 125.923 448.47 124.667 447.621C123.419 446.773 122.003 446.319 120.419 446.26C118.835 446.201 117.385 446.548 116.069 447.3C114.762 448.053 113.7 449.195 112.884 450.725C112.076 452.255 111.63 454.153 111.545 456.419C111.461 458.684 111.764 460.61 112.455 462.197C113.155 463.784 114.129 465.001 115.376 465.85C116.633 466.698 118.053 467.152 119.637 467.211C121.221 467.27 122.667 466.924 123.974 466.171C125.29 465.418 126.352 464.277 127.16 462.746C127.976 461.216 128.426 459.318 128.511 457.052Z" fill="white"/>
</g>
</g>
</g>
<defs>
<filter id="filter0_di_2_82" x="207" y="0" width="69.5" height="119.5" filterUnits="userSpaceOnUse" color-interpolation-filters="sRGB">
<feFlood flood-opacity="0" result="BackgroundImageFix"/>
<feColorMatrix in="SourceAlpha" type="matrix" values="0 0 0 0 0 0 0 0 0 0 0 0 0 0 0 0 0 0 127 0" result="hardAlpha"/>
<feOffset dy="4"/>
<feGaussianBlur stdDeviation="2"/>
<feComposite in2="hardAlpha" operator="out"/>
<feColorMatrix type="matrix" values="0 0 0 0 0 0 0 0 0 0 0 0 0 0 0 0 0 0 0.75 0"/>
<feBlend mode="normal" in2="BackgroundImageFix" result="effect1_dropShadow_2_82"/>
<feBlend mode="normal" in="SourceGraphic" in2="effect1_dropShadow_2_82" result="shape"/>
<feColorMatrix in="SourceAlpha" type="matrix" values="0 0 0 0 0 0 0 0 0 0 0 0 0 0 0 0 0 0 127 0" result="hardAlpha"/>
<feOffset dy="4"/>
<feGaussianBlur stdDeviation="2"/>
<feComposite in2="hardAlpha" operator="arithmetic" k2="-1" k3="1"/>
<feColorMatrix type="matrix" values="0 0 0 0 0 0 0 0 0 0 0 0 0 0 0 0 0 0 0.75 0"/>
<feBlend mode="normal" in2="shape" result="effect2_innerShadow_2_82"/>
</filter>
<filter id="filter1_di_2_82" x="57" y="19.5" width="172" height="160" filterUnits="userSpaceOnUse" color-interpolation-filters="sRGB">
<feFlood flood-opacity="0" result="BackgroundImageFix"/>
<feColorMatrix in="SourceAlpha" type="matrix" values="0 0 0 0 0 0 0 0 0 0 0 0 0 0 0 0 0 0 127 0" result="hardAlpha"/>
<feOffset dy="4"/>
<feGaussianBlur stdDeviation="2"/>
<feComposite in2="hardAlpha" operator="out"/>
<feColorMatrix type="matrix" values="0 0 0 0 0 0 0 0 0 0 0 0 0 0 0 0 0 0 0.75 0"/>
<feBlend mode="normal" in2="BackgroundImageFix" result="effect1_dropShadow_2_82"/>
<feBlend mode="normal" in="SourceGraphic" in2="effect1_dropShadow_2_82" result="shape"/>
<feColorMatrix in="SourceAlpha" type="matrix" values="0 0 0 0 0 0 0 0 0 0 0 0 0 0 0 0 0 0 127 0" result="hardAlpha"/>
<feOffset dy="4"/>
<feGaussianBlur stdDeviation="2"/>
<feComposite in2="hardAlpha" operator="arithmetic" k2="-1" k3="1"/>
<feColorMatrix type="matrix" values="0 0 0 0 0 0 0 0 0 0 0 0 0 0 0 0 0 0 0.75 0"/>
<feBlend mode="normal" in2="shape" result="effect2_innerShadow_2_82"/>
</filter>
<filter id="filter2_di_2_82" x="60" y="146.5" width="322" height="147" filterUnits="userSpaceOnUse" color-interpolation-filters="sRGB">
<feFlood flood-opacity="0" result="BackgroundImageFix"/>
<feColorMatrix in="SourceAlpha" type="matrix" values="0 0 0 0 0 0 0 0 0 0 0 0 0 0 0 0 0 0 127 0" result="hardAlpha"/>
<feOffset dy="4"/>
<feGaussianBlur stdDeviation="2"/>
<feComposite in2="hardAlpha" operator="out"/>
<feColorMatrix type="matrix" values="0 0 0 0 0 0 0 0 0 0 0 0 0 0 0 0 0 0 0.75 0"/>
<feBlend mode="normal" in2="BackgroundImageFix" result="effect1_dropShadow_2_82"/>
<feBlend mode="normal" in="SourceGraphic" in2="effect1_dropShadow_2_82" result="shape"/>
<feColorMatrix in="SourceAlpha" type="matrix" values="0 0 0 0 0 0 0 0 0 0 0 0 0 0 0 0 0 0 127 0" result="hardAlpha"/>
<feOffset dy="4"/>
<feGaussianBlur stdDeviation="2"/>
<feComposite in2="hardAlpha" operator="arithmetic" k2="-1" k3="1"/>
<feColorMatrix type="matrix" values="0 0 0 0 0 0 0 0 0 0 0 0 0 0 0 0 0 0 0.75 0"/>
<feBlend mode="normal" in2="shape" result="effect2_innerShadow_2_82"/>
</filter>
<filter id="filter3_di_2_82" x="0" y="433" width="206" height="51" filterUnits="userSpaceOnUse" color-interpolation-filters="sRGB">
<feFlood flood-opacity="0" result="BackgroundImageFix"/>
<feColorMatrix in="SourceAlpha" type="matrix" values="0 0 0 0 0 0 0 0 0 0 0 0 0 0 0 0 0 0 127 0" result="hardAlpha"/>
<feOffset dy="4"/>
<feGaussianBlur stdDeviation="2"/>
<feComposite in2="hardAlpha" operator="out"/>
<feColorMatrix type="matrix" values="0 0 0 0 0 0 0 0 0 0 0 0 0 0 0 0 0 0 0.75 0"/>
<feBlend mode="normal" in2="BackgroundImageFix" result="effect1_dropShadow_2_82"/>
<feBlend mode="normal" in="SourceGraphic" in2="effect1_dropShadow_2_82" result="shape"/>
<feColorMatrix in="SourceAlpha" type="matrix" values="0 0 0 0 0 0 0 0 0 0 0 0 0 0 0 0 0 0 127 0" result="hardAlpha"/>
<feOffset dy="4"/>
<feGaussianBlur stdDeviation="2"/>
<feComposite in2="hardAlpha" operator="arithmetic" k2="-1" k3="1"/>
<feColorMatrix type="matrix" values="0 0 0 0 0 0 0 0 0 0 0 0 0 0 0 0 0 0 0.75 0"/>
<feBlend mode="normal" in2="shape" result="effect2_innerShadow_2_82"/>
</filter>
</defs>
</svg>
