<?xml version="1.0" encoding="UTF-8"?>
<svg id="Lager_1" data-name="Lager 1" xmlns="http://www.w3.org/2000/svg" viewBox="0 0 517.99 426.32">
  <defs>
    <style>
      .cls-1 {
        font-size: 20px;
      }

      .cls-1, .cls-2, .cls-3 {
        font-family: MyriadPro-Regular, 'Myriad Pro';
      }

      .cls-4 {
        fill: #fff;
      }

      .cls-5, .cls-6, .cls-7, .cls-8, .cls-9, .cls-10 {
        fill: none;
        stroke: #010101;
        stroke-miterlimit: 10;
      }

      .cls-6 {
        stroke-width: .75px;
      }

      .cls-7 {
        stroke-width: 3px;
      }

      .cls-11 {
        fill: #1b1b1b;
      }

      .cls-8 {
        stroke-width: 4px;
      }

      .cls-9 {
        stroke-width: .25px;
      }

      .cls-2 {
        font-size: 14px;
      }

      .cls-3 {
        font-size: 13px;
      }

      .cls-10 {
        stroke-width: 2px;
      }

      .cls-12 {
        fill: #010101;
      }
    </style>
  </defs>
  <line class="cls-9" x1="249.42" y1="134.38" x2="228.61" y2="134.38"/>
  <line class="cls-10" x1="139.88" y1="61.51" x2="84.72" y2="61.45"/>
  <line class="cls-5" x1="467.49" y1="134.8" x2="467.51" y2="83.76"/>
  <line class="cls-5" x1="464.36" y1="134.8" x2="464.38" y2="83.76"/>
  <line class="cls-5" x1="461.29" y1="134.92" x2="460.69" y2="83.76"/>
  <line class="cls-5" x1="457.92" y1="134.8" x2="457.07" y2="83.75"/>
  <line class="cls-5" x1="454.22" y1="134.8" x2="453.43" y2="83.75"/>
  <line class="cls-5" x1="450.57" y1="134.87" x2="450.27" y2="83.75"/>
  <line class="cls-10" x1="467.9" y1="106.65" x2="450.27" y2="106.61"/>
  <line class="cls-10" x1="496.55" y1="124.46" x2="496.66" y2="136.45"/>
  <line class="cls-10" x1="496.66" y1="114.59" x2="496.61" y2="83.75"/>
  <polyline class="cls-10" points="501.82 135.36 496.66 135.36 431.93 135.36"/>
  <polyline class="cls-10" points="421.48 286.9 418.26 286.9 415.59 286.57 413.54 276.36 411.48 262.8 408.95 243.87 407.95 233.47 407.37 214.47 407.95 197.14 408.95 177.25 412.15 153.56 413.87 143.38 415.04 136.45 416.89 135.36 423.14 135.36"/>
  <polyline class="cls-10" points="494.02 286.9 432.04 286.9 432.04 282.19"/>
  <line class="cls-10" x1="503.26" y1="286.9" x2="514.47" y2="286.9"/>
  <polyline class="cls-10" points="514.07 321.7 492.77 321.47 492.57 287.43"/>
  <line class="cls-10" x1="492.57" y1="296.48" x2="515.45" y2="296.27"/>
  <line class="cls-10" x1="457.08" y1="287.43" x2="457.4" y2="309.88"/>
  <polyline class="cls-10" points="457.4 326.32 457.4 351.77 514.72 351.77"/>
  <path class="cls-10" d="M457.4,351.77l-.14,39.86s-4.9,2.84-10.44,2.29-9-2.3-9.22-4.54,0-4.91,0-4.91h19.14"/>
  <line class="cls-10" x1="444.48" y1="384.46" x2="444.48" y2="350.54"/>
  <polyline class="cls-10" points="457.4 351.16 437.49 351.3 437.59 384.46"/>
  <line class="cls-10" x1="437.49" y1="351.3" x2="429.91" y2="351.3"/>
  <polyline class="cls-6" points="489.29 392.05 489.05 368.34 498.25 368.34 498.25 392.05"/>
  <line class="cls-9" x1="489.28" y1="391.54" x2="474.65" y2="391.37"/>
  <line class="cls-9" x1="489.29" y1="390.88" x2="474.65" y2="390.71"/>
  <line class="cls-9" x1="489.28" y1="390.22" x2="474.64" y2="390.05"/>
  <line class="cls-9" x1="489.29" y1="389.56" x2="474.65" y2="389.39"/>
  <line class="cls-9" x1="489.28" y1="388.9" x2="474.64" y2="388.72"/>
  <line class="cls-9" x1="489.29" y1="388.23" x2="474.65" y2="388.06"/>
  <line class="cls-9" x1="489.28" y1="387.57" x2="474.64" y2="387.4"/>
  <line class="cls-9" x1="489.28" y1="386.91" x2="474.64" y2="386.74"/>
  <line class="cls-9" x1="489.35" y1="386.25" x2="474.71" y2="386.08"/>
  <line class="cls-9" x1="489.35" y1="385.59" x2="474.71" y2="385.42"/>
  <line class="cls-9" x1="489.34" y1="384.93" x2="474.7" y2="384.76"/>
  <line class="cls-9" x1="489.35" y1="384.27" x2="474.71" y2="384.1"/>
  <line class="cls-9" x1="489.38" y1="383.61" x2="474.74" y2="383.44"/>
  <line class="cls-9" x1="489.39" y1="382.95" x2="474.75" y2="382.78"/>
  <line class="cls-9" x1="489.38" y1="382.29" x2="474.74" y2="382.11"/>
  <line class="cls-9" x1="489.38" y1="381.62" x2="474.74" y2="381.45"/>
  <line class="cls-9" x1="489.38" y1="380.96" x2="474.74" y2="380.79"/>
  <line class="cls-9" x1="489.38" y1="380.3" x2="474.74" y2="380.13"/>
  <line class="cls-9" x1="489.37" y1="379.64" x2="474.73" y2="379.47"/>
  <line class="cls-9" x1="489.38" y1="378.98" x2="474.74" y2="378.81"/>
  <line class="cls-9" x1="489.44" y1="378.32" x2="474.8" y2="378.15"/>
  <line class="cls-9" x1="489.45" y1="377.66" x2="474.81" y2="377.49"/>
  <line class="cls-9" x1="489.44" y1="377" x2="474.8" y2="376.83"/>
  <line class="cls-9" x1="489.45" y1="376.34" x2="474.81" y2="376.17"/>
  <line class="cls-9" x1="489.41" y1="375.68" x2="474.77" y2="375.5"/>
  <line class="cls-9" x1="489.42" y1="375.01" x2="474.78" y2="374.84"/>
  <line class="cls-9" x1="489.41" y1="374.35" x2="474.77" y2="374.18"/>
  <line class="cls-9" x1="489.42" y1="373.69" x2="474.78" y2="373.52"/>
  <line class="cls-9" x1="489.41" y1="373.03" x2="474.77" y2="372.86"/>
  <line class="cls-9" x1="489.41" y1="372.37" x2="474.78" y2="372.2"/>
  <line class="cls-9" x1="489.4" y1="371.71" x2="474.77" y2="371.54"/>
  <line class="cls-9" x1="489.41" y1="371.05" x2="474.77" y2="370.88"/>
  <line class="cls-9" x1="489.48" y1="370.39" x2="474.84" y2="370.22"/>
  <line class="cls-9" x1="489.47" y1="369.83" x2="474.83" y2="369.66"/>
  <line class="cls-9" x1="489.46" y1="369.28" x2="474.82" y2="369.11"/>
  <line class="cls-9" x1="489.48" y1="368.73" x2="474.84" y2="368.55"/>
  <line class="cls-9" x1="489.49" y1="368.17" x2="474.85" y2="368"/>
  <line class="cls-9" x1="512.57" y1="391.45" x2="497.93" y2="391.57"/>
  <line class="cls-9" x1="512.56" y1="390.79" x2="497.92" y2="390.91"/>
  <line class="cls-9" x1="512.54" y1="390.13" x2="497.9" y2="390.25"/>
  <line class="cls-9" x1="512.54" y1="389.47" x2="497.9" y2="389.59"/>
  <line class="cls-9" x1="512.52" y1="388.81" x2="497.88" y2="388.93"/>
  <line class="cls-9" x1="512.51" y1="388.15" x2="497.87" y2="388.27"/>
  <line class="cls-9" x1="512.49" y1="387.49" x2="497.85" y2="387.61"/>
  <line class="cls-9" x1="512.48" y1="386.83" x2="497.85" y2="386.95"/>
  <line class="cls-9" x1="512.54" y1="386.17" x2="497.9" y2="386.28"/>
  <line class="cls-9" x1="512.53" y1="385.5" x2="497.89" y2="385.62"/>
  <line class="cls-9" x1="512.51" y1="384.84" x2="497.87" y2="384.96"/>
  <line class="cls-9" x1="512.51" y1="384.18" x2="497.87" y2="384.3"/>
  <line class="cls-9" x1="512.53" y1="383.52" x2="497.89" y2="383.64"/>
  <line class="cls-9" x1="512.52" y1="382.86" x2="497.88" y2="382.98"/>
  <line class="cls-9" x1="512.5" y1="382.2" x2="497.86" y2="382.32"/>
  <line class="cls-9" x1="512.49" y1="381.54" x2="497.86" y2="381.66"/>
  <line class="cls-9" x1="512.48" y1="380.88" x2="497.84" y2="381"/>
  <line class="cls-9" x1="512.47" y1="380.22" x2="497.83" y2="380.34"/>
  <line class="cls-9" x1="512.45" y1="379.56" x2="497.81" y2="379.67"/>
  <line class="cls-9" x1="512.44" y1="378.9" x2="497.8" y2="379.01"/>
  <line class="cls-9" x1="512.5" y1="378.23" x2="497.86" y2="378.35"/>
  <line class="cls-9" x1="512.49" y1="377.57" x2="497.85" y2="377.69"/>
  <line class="cls-9" x1="512.47" y1="376.91" x2="497.83" y2="377.03"/>
  <line class="cls-9" x1="512.47" y1="376.25" x2="497.83" y2="376.37"/>
  <line class="cls-9" x1="512.42" y1="375.59" x2="497.78" y2="375.71"/>
  <line class="cls-9" x1="512.42" y1="374.93" x2="497.78" y2="375.05"/>
  <line class="cls-9" x1="512.39" y1="374.27" x2="497.75" y2="374.39"/>
  <line class="cls-9" x1="512.39" y1="373.61" x2="497.75" y2="373.73"/>
  <line class="cls-9" x1="512.37" y1="372.95" x2="497.73" y2="373.07"/>
  <line class="cls-9" x1="512.37" y1="372.29" x2="497.73" y2="372.4"/>
  <line class="cls-9" x1="512.34" y1="371.63" x2="497.7" y2="371.74"/>
  <line class="cls-9" x1="512.34" y1="370.96" x2="497.7" y2="371.08"/>
  <line class="cls-9" x1="512.39" y1="370.3" x2="497.75" y2="370.42"/>
  <line class="cls-9" x1="512.38" y1="369.75" x2="497.74" y2="369.87"/>
  <line class="cls-9" x1="512.36" y1="369.19" x2="497.72" y2="369.31"/>
  <line class="cls-9" x1="512.36" y1="368.64" x2="497.72" y2="368.76"/>
  <line class="cls-9" x1="512.37" y1="368.09" x2="497.73" y2="368.2"/>
  <line class="cls-9" x1="489.05" y1="368.5" x2="489.21" y2="352.83"/>
  <line class="cls-9" x1="489.67" y1="368.51" x2="489.83" y2="352.84"/>
  <line class="cls-9" x1="490.28" y1="368.5" x2="490.44" y2="352.83"/>
  <line class="cls-9" x1="490.9" y1="368.5" x2="491.06" y2="352.83"/>
  <line class="cls-9" x1="491.52" y1="368.49" x2="491.68" y2="352.82"/>
  <line class="cls-9" x1="492.14" y1="368.5" x2="492.3" y2="352.83"/>
  <line class="cls-9" x1="492.75" y1="368.49" x2="492.91" y2="352.82"/>
  <line class="cls-9" x1="493.37" y1="368.5" x2="493.53" y2="352.83"/>
  <line class="cls-9" x1="493.99" y1="368.57" x2="494.15" y2="352.9"/>
  <line class="cls-9" x1="494.61" y1="368.57" x2="494.77" y2="352.9"/>
  <line class="cls-9" x1="495.17" y1="368.49" x2="495.33" y2="352.82"/>
  <line class="cls-9" x1="495.79" y1="368.5" x2="495.95" y2="352.83"/>
  <line class="cls-9" x1="496.41" y1="368.49" x2="496.57" y2="352.82"/>
  <line class="cls-9" x1="497.02" y1="368.49" x2="497.18" y2="352.82"/>
  <line class="cls-9" x1="497.64" y1="368.48" x2="497.8" y2="352.81"/>
  <line class="cls-9" x1="498.26" y1="368.49" x2="498.42" y2="352.82"/>
  <line class="cls-5" x1="474.23" y1="392.24" x2="474.4" y2="352.51"/>
  <line class="cls-5" x1="457.76" y1="365.25" x2="474.34" y2="365.24"/>
  <line class="cls-10" x1="376.84" y1="351.16" x2="403.27" y2="351.16"/>
  <polyline class="cls-10" points="410.48 351.16 420.93 351.3 421.21 407.54"/>
  <polyline class="cls-10" points="432.04 274.34 432.04 263.55 445.55 263.8 464.3 277.01"/>
  <line class="cls-10" x1="469.22" y1="280" x2="479.34" y2="287.09"/>
  <line class="cls-10" x1="421.68" y1="263.55" x2="411.34" y2="263.55"/>
  <line class="cls-10" x1="411.32" y1="159.71" x2="421.93" y2="159.69"/>
  <polyline class="cls-10" points="430.6 159.75 445.13 159.69 481.26 135.36"/>
  <line class="cls-10" x1="433.43" y1="159.75" x2="433.48" y2="152.14"/>
  <line class="cls-10" x1="433.45" y1="135.73" x2="433.45" y2="142.03"/>
  <line class="cls-10" x1="467.98" y1="135.73" x2="467.98" y2="143.92"/>
  <line class="cls-10" x1="277.76" y1="139.21" x2="304.93" y2="139.01"/>
  <line class="cls-10" x1="314.42" y1="139.01" x2="321.2" y2="139.01"/>
  <line class="cls-10" x1="328.86" y1="139.01" x2="335.8" y2="139.01"/>
  <line class="cls-10" x1="344.38" y1="139.01" x2="373.98" y2="139.21"/>
  <line class="cls-10" x1="284.51" y1="100.56" x2="306.93" y2="100.56"/>
  <line class="cls-10" x1="314.51" y1="100.44" x2="320.59" y2="100.44"/>
  <line class="cls-10" x1="328.57" y1="100.44" x2="335.95" y2="100.44"/>
  <line class="cls-5" x1="344.43" y1="100.56" x2="373.98" y2="100.56"/>
  <path class="cls-5" d="M314.92,139.78l-.03,9.37c-1.34-.33-3.66-1.11-5.96-2.98-2.86-2.34-4.13-5.11-4.64-6.44"/>
  <path class="cls-5" d="M329.37,139.92l-.03,9.23c-1.1-.33-3.02-1.09-4.92-2.94-2.36-2.3-3.41-5.03-3.83-6.35"/>
  <path class="cls-5" d="M344.95,139.92l-.03,9.37c-1.21-.33-3.32-1.11-5.4-2.98-2.59-2.34-3.74-5.11-4.2-6.45"/>
  <line class="cls-10" x1="152.95" y1="123.9" x2="100.97" y2="123.14"/>
  <line class="cls-10" x1="130.79" y1="123.58" x2="130.79" y2="148.97"/>
  <polyline class="cls-10" points="102.12 148.54 163.17 148.97 163.49 148.97 163.49 151.65"/>
  <polyline class="cls-10" points="132.65 148.97 159.69 168.39 163.49 168.34 163.49 159.29"/>
  <line class="cls-10" x1="174.15" y1="168.34" x2="183.68" y2="168.34"/>
  <line class="cls-10" x1="107.93" y1="147.91" x2="107.91" y2="135.53"/>
  <line class="cls-10" x1="87.64" y1="148.54" x2="92.94" y2="148.54"/>
  <line class="cls-10" x1="152.72" y1="122.26" x2="152.71" y2="132.45"/>
  <line class="cls-10" x1="152.71" y1="139.95" x2="152.71" y2="148.26"/>
  <polyline class="cls-10" points="178.91 149.33 180.59 155.15 184.05 178.25 185.65 199.8 185.65 218.47 185.26 235.07 184.05 250.24 181.37 265.28 179.59 272.4 177.48 275.03 174.7 275.48 172.59 275.68"/>
  <line class="cls-10" x1="163.17" y1="275.48" x2="86.35" y2="275.48"/>
  <polyline class="cls-10" points="142.62 275.52 142.62 302.42 130.41 302.42"/>
  <line class="cls-10" x1="119.73" y1="275.68" x2="119.73" y2="303.6"/>
  <path class="cls-10" d="M133.62,342.53c2.64-.06,5.64-.06,8.64-.06v-18c-19,0-37,0-55.66,.01"/>
  <path class="cls-10" d="M94.11,342.53h31.16"/>
  <line class="cls-10" x1="114.38" y1="324.48" x2="114.38" y2="342.89"/>
  <line class="cls-10" x1="105.22" y1="316.6" x2="105.22" y2="308.74"/>
  <line class="cls-10" x1="105.22" y1="301.48" x2="105.22" y2="295.55"/>
  <line class="cls-10" x1="105.22" y1="290.46" x2="105.22" y2="282.52"/>
  <line class="cls-10" x1="105.22" y1="312.67" x2="86.6" y2="312.67"/>
  <line class="cls-10" x1="105.22" y1="298.51" x2="86.35" y2="298.51"/>
  <line class="cls-10" x1="105.22" y1="286.2" x2="85.5" y2="286.41"/>
  <line class="cls-9" x1="249.42" y1="133.08" x2="228.61" y2="133.08"/>
  <line class="cls-9" x1="249.4" y1="131.78" x2="228.59" y2="131.78"/>
  <line class="cls-9" x1="249.4" y1="130.47" x2="228.59" y2="130.47"/>
  <line class="cls-9" x1="249.38" y1="129.17" x2="228.56" y2="129.17"/>
  <line class="cls-9" x1="249.38" y1="127.87" x2="228.56" y2="127.87"/>
  <line class="cls-9" x1="249.35" y1="126.57" x2="228.54" y2="126.57"/>
  <line class="cls-9" x1="249.35" y1="125.27" x2="228.54" y2="125.27"/>
  <line class="cls-9" x1="249.43" y1="123.97" x2="228.62" y2="123.97"/>
  <line class="cls-9" x1="249.43" y1="122.67" x2="228.62" y2="122.67"/>
  <line class="cls-9" x1="249.41" y1="121.37" x2="228.6" y2="121.37"/>
  <line class="cls-9" x1="249.41" y1="120.07" x2="228.6" y2="120.07"/>
  <line class="cls-9" x1="249.44" y1="118.77" x2="228.63" y2="118.77"/>
  <line class="cls-9" x1="249.44" y1="117.47" x2="228.63" y2="117.47"/>
  <line class="cls-9" x1="249.42" y1="116.17" x2="228.61" y2="116.17"/>
  <line class="cls-9" x1="249.42" y1="114.87" x2="228.61" y2="114.87"/>
  <line class="cls-9" x1="249.4" y1="113.57" x2="228.59" y2="113.57"/>
  <line class="cls-9" x1="249.4" y1="112.27" x2="228.59" y2="112.27"/>
  <line class="cls-9" x1="249.37" y1="110.97" x2="228.56" y2="110.97"/>
  <line class="cls-9" x1="249.37" y1="109.67" x2="228.56" y2="109.67"/>
  <line class="cls-9" x1="249.45" y1="108.36" x2="228.64" y2="108.36"/>
  <line class="cls-9" x1="249.45" y1="107.06" x2="228.64" y2="107.06"/>
  <line class="cls-9" x1="249.43" y1="105.76" x2="228.62" y2="105.76"/>
  <line class="cls-9" x1="249.43" y1="104.46" x2="228.62" y2="104.46"/>
  <line class="cls-9" x1="249.37" y1="103.16" x2="228.56" y2="103.16"/>
  <line class="cls-9" x1="249.37" y1="101.86" x2="228.56" y2="101.86"/>
  <line class="cls-9" x1="249.35" y1="100.56" x2="228.54" y2="100.56"/>
  <line class="cls-9" x1="249.35" y1="99.26" x2="228.54" y2="99.26"/>
  <line class="cls-9" x1="249.33" y1="97.96" x2="228.52" y2="97.96"/>
  <line class="cls-9" x1="249.33" y1="96.66" x2="228.52" y2="96.66"/>
  <line class="cls-9" x1="249.3" y1="95.36" x2="228.49" y2="95.36"/>
  <line class="cls-9" x1="249.3" y1="94.06" x2="228.49" y2="94.06"/>
  <line class="cls-9" x1="249.38" y1="92.76" x2="228.57" y2="92.76"/>
  <line class="cls-9" x1="249.37" y1="91.67" x2="228.56" y2="91.67"/>
  <line class="cls-9" x1="249.35" y1="90.58" x2="228.54" y2="90.58"/>
  <line class="cls-9" x1="249.36" y1="89.49" x2="228.55" y2="89.49"/>
  <line class="cls-9" x1="249.37" y1="88.4" x2="228.56" y2="88.4"/>
  <line class="cls-9" x1="275.65" y1="140.08" x2="251.94" y2="134.25"/>
  <line class="cls-9" x1="275.87" y1="138.87" x2="252.16" y2="133.04"/>
  <line class="cls-9" x1="276.07" y1="137.66" x2="252.35" y2="131.83"/>
  <line class="cls-9" x1="276.29" y1="136.46" x2="252.57" y2="130.63"/>
  <line class="cls-9" x1="276.49" y1="135.25" x2="252.77" y2="129.42"/>
  <line class="cls-9" x1="276.71" y1="134.04" x2="252.99" y2="128.21"/>
  <line class="cls-9" x1="276.9" y1="132.83" x2="253.18" y2="127"/>
  <line class="cls-9" x1="277.12" y1="131.62" x2="253.41" y2="125.79"/>
  <line class="cls-9" x1="277.44" y1="130.44" x2="253.72" y2="124.61"/>
  <line class="cls-9" x1="277.66" y1="129.23" x2="253.94" y2="123.4"/>
  <line class="cls-9" x1="277.85" y1="128.02" x2="254.14" y2="122.19"/>
  <line class="cls-9" x1="278.07" y1="126.82" x2="254.36" y2="120.99"/>
  <line class="cls-9" x1="278.33" y1="125.62" x2="254.62" y2="119.79"/>
  <line class="cls-9" x1="278.55" y1="124.42" x2="254.84" y2="118.59"/>
  <line class="cls-9" x1="278.75" y1="123.2" x2="255.03" y2="117.37"/>
  <line class="cls-9" x1="278.97" y1="122" x2="255.25" y2="116.17"/>
  <line class="cls-9" x1="279.16" y1="120.79" x2="255.45" y2="114.96"/>
  <line class="cls-9" x1="279.39" y1="119.58" x2="255.67" y2="113.75"/>
  <line class="cls-9" x1="279.58" y1="118.37" x2="255.86" y2="112.54"/>
  <line class="cls-9" x1="279.8" y1="117.17" x2="256.08" y2="111.34"/>
  <line class="cls-9" x1="280.11" y1="115.98" x2="256.4" y2="110.15"/>
  <line class="cls-9" x1="280.34" y1="114.78" x2="256.62" y2="108.95"/>
  <line class="cls-9" x1="280.53" y1="113.57" x2="256.81" y2="107.74"/>
  <line class="cls-9" x1="280.75" y1="112.36" x2="257.03" y2="106.53"/>
  <line class="cls-9" x1="280.91" y1="111.14" x2="257.19" y2="105.31"/>
  <line class="cls-9" x1="281.13" y1="109.93" x2="257.41" y2="104.1"/>
  <line class="cls-9" x1="281.32" y1="108.72" x2="257.6" y2="102.89"/>
  <line class="cls-9" x1="281.54" y1="107.52" x2="257.83" y2="101.69"/>
  <line class="cls-9" x1="281.74" y1="106.31" x2="258.02" y2="100.48"/>
  <line class="cls-9" x1="281.96" y1="105.1" x2="258.24" y2="99.27"/>
  <line class="cls-9" x1="282.15" y1="103.89" x2="258.44" y2="98.06"/>
  <line class="cls-9" x1="282.37" y1="102.68" x2="258.66" y2="96.85"/>
  <line class="cls-9" x1="282.69" y1="101.5" x2="258.97" y2="95.67"/>
  <line class="cls-9" x1="282.86" y1="100.49" x2="259.14" y2="94.66"/>
  <line class="cls-9" x1="283.02" y1="99.47" x2="259.3" y2="93.64"/>
  <line class="cls-9" x1="283.22" y1="98.46" x2="259.5" y2="92.63"/>
  <line class="cls-9" x1="283.42" y1="97.46" x2="259.7" y2="91.62"/>
  <polyline class="cls-6" points="249.85 88.04 249.85 134.38 251.72 134.38 259.31 90.96"/>
  <polyline class="cls-8" points="283.22 98.46 273.34 157.68 226.77 157.68 226.45 350.01 255.95 350.01 254.83 405.53 139.37 404.88 139.37 416.25 111.61 415.8"/>
  <polyline class="cls-8" points="92.7 416.25 92.93 342.53 85.5 342.53 85.74 137.4"/>
  <polyline class="cls-8" points="86.35 124.31 86.84 87.5 26.26 86.99 26.96 48.47 27.72 16.64 47.28 16.64"/>
  <line class="cls-8" x1="86.84" y1="87.5" x2="87.07" y2="62.49"/>
  <line class="cls-5" x1="139.37" y1="123.43" x2="139.39" y2="62.05"/>
  <line class="cls-5" x1="137.08" y1="123.43" x2="137.09" y2="62.05"/>
  <line class="cls-5" x1="134.82" y1="123.57" x2="134.39" y2="62.05"/>
  <line class="cls-5" x1="132.35" y1="123.43" x2="131.73" y2="62.05"/>
  <line class="cls-5" x1="129.64" y1="123.43" x2="129.06" y2="62.05"/>
  <line class="cls-5" x1="126.96" y1="123.52" x2="126.75" y2="62.05"/>
  <line class="cls-10" x1="139.68" y1="89.58" x2="126.74" y2="89.54"/>
  <line class="cls-10" x1="227.33" y1="87.68" x2="228.64" y2="156.4"/>
  <polyline class="cls-10" points="168.6 361.42 123.47 361.48 122.72 415.11"/>
  <line class="cls-10" x1="140.24" y1="404.88" x2="123.66" y2="404.88"/>
  <line class="cls-10" x1="181.71" y1="405.43" x2="181.71" y2="350.91"/>
  <line class="cls-10" x1="199.87" y1="350.83" x2="226.45" y2="350.91"/>
  <line class="cls-10" x1="191.14" y1="350.87" x2="180.78" y2="350.87"/>
  <line class="cls-10" x1="177.7" y1="361.42" x2="182.18" y2="361.42"/>
  <polyline class="cls-8" points="374.75 98.91 375.57 350.21 346.72 350.17 346.73 406.56 443.86 407.54 443.86 417.98 514.47 417.99 514.09 82.82 467.89 82.82 467.89 72.8"/>
  <line class="cls-8" x1="467.89" y1="63.64" x2="467.89" y2="52.8"/>
  <polyline class="cls-8" points="467.89 44.54 467.89 34.18 515.96 34.18 515.45 1.62"/>
  <polyline class="cls-8" points="510.01 1.62 510.01 24.06 444.26 24.1 444.26 33.29 405.99 33.29"/>
  <line class="cls-8" x1="431.43" y1="33.29" x2="431.3" y2="1.39"/>
  <path class="cls-5" d="M314.94,100.62l-.03,9.37c-1.13-.33-3.08-1.1-5.02-2.98-2.41-2.34-3.48-5.11-3.9-6.45"/>
  <path class="cls-5" d="M329.11,101.03l-.03,8.96c-1.15-.32-3.16-1.06-5.15-2.85-2.47-2.23-3.56-4.89-4-6.16"/>
  <path class="cls-5" d="M344.95,101.03l-.03,9.11c-1.21-.33-3.32-1.07-5.4-2.9-2.59-2.27-3.74-4.97-4.2-6.26"/>
  <path class="cls-5" d="M402.67,350.51v-9.37c1.08,.33,2.96,1.09,4.83,2.96,2.32,2.33,3.35,5.1,3.77,6.43"/>
  <path class="cls-5" d="M421.48,350.51v-9.37c1.15,.33,3.14,1.09,5.12,2.96,2.46,2.33,3.55,5.1,3.99,6.43"/>
  <path class="cls-5" d="M431.55,287.36l.09,9.42c-1.34-.32-3.67-1.07-5.99-2.92-2.89-2.31-4.19-5.09-4.71-6.42"/>
  <path class="cls-5" d="M430.98,282.91h-7.5c.26-1.19,.88-3.26,2.37-5.31,1.86-2.55,4.08-3.68,5.15-4.14"/>
  <path class="cls-5" d="M430.76,264.21v7.5c-1.19-.26-3.26-.88-5.31-2.37-2.55-1.86-3.68-4.08-4.14-5.15"/>
  <path class="cls-5" d="M431.26,160.33l.05,7.48c-1.25-.25-3.42-.85-5.58-2.33-2.69-1.84-3.89-4.04-4.38-5.1"/>
  <path class="cls-5" d="M432.62,152.55h-7.5c.26-1.4,.88-3.82,2.37-6.23,1.86-2.99,4.08-4.32,5.15-4.86"/>
  <path class="cls-5" d="M422.72,134.91v-7.17c1.25,.25,3.42,.84,5.57,2.27,2.68,1.78,3.87,3.9,4.35,4.92"/>
  <line class="cls-10" x1="467.5" y1="82.8" x2="449.54" y2="82.86"/>
  <path class="cls-5" d="M466.36,53.28l-9.65,.04c.34-1.18,1.11-3.23,3.03-5.27,2.39-2.54,5.23-3.67,6.61-4.13"/>
  <path class="cls-5" d="M466.37,73.27l-9.67,.04c.34-1.29,1.11-3.54,3.03-5.78,2.39-2.78,5.24-4.02,6.61-4.52"/>
  <path class="cls-5" d="M493.46,286.07v-9.42c1.34,.33,3.66,1.1,5.97,2.98,2.87,2.34,4.14,5.12,4.66,6.46"/>
  <path class="cls-5" d="M134.29,342.53l.09,9.42c-1.34-.32-3.67-1.07-5.99-2.92-2.89-2.31-4.19-5.09-4.71-6.42"/>
  <path class="cls-5" d="M105,316.08h8.37c-.3,.99-.98,2.72-2.65,4.43-2.08,2.13-4.55,3.08-5.74,3.46"/>
  <path class="cls-5" d="M106.01,300.85h8.37c-.3,1.04-.98,2.86-2.65,4.65-2.08,2.24-4.55,3.23-5.74,3.63"/>
  <path class="cls-5" d="M105.54,289.86h8.37c-.3,.85-.98,2.32-2.65,3.77-2.08,1.81-4.55,2.62-5.74,2.94"/>
  <path class="cls-5" d="M105.24,275.52h8.37c-.3,.99-.98,2.72-2.65,4.43-2.08,2.13-4.55,3.08-5.74,3.46"/>
  <path class="cls-5" d="M130.96,302.94l.09,8.37c-1.36-.28-3.74-.94-6.11-2.58-2.95-2.05-4.27-4.51-4.8-5.69"/>
  <path class="cls-5" d="M173.29,275.68l.09,8.37c-1.36-.28-3.74-.94-6.11-2.58-2.95-2.05-4.27-4.51-4.8-5.69"/>
  <polyline class="cls-8" points="2 86.99 3.3 2 118.17 2.28"/>
  <line class="cls-10" x1="114.47" y1="2.5" x2="114.47" y2="34.78"/>
  <line class="cls-5" x1="114.47" y1="31.95" x2="234.03" y2="31.84"/>
  <line class="cls-5" x1="114.47" y1="34.25" x2="234.04" y2="34.15"/>
  <line class="cls-7" x1="131.74" y1="1.39" x2="131.74" y2="31.89"/>
  <line class="cls-7" x1="205" y1="1.69" x2="205" y2="32.19"/>
  <line class="cls-10" x1="149.55" y1="1.69" x2="233.59" y2="1.62"/>
  <line class="cls-7" x1="252.9" y1="1.69" x2="252.9" y2="32.19"/>
  <line class="cls-10" x1="249.38" y1="1.69" x2="249.38" y2="33.97"/>
  <line class="cls-5" x1="248.38" y1="34.21" x2="292.61" y2="34.17"/>
  <line class="cls-5" x1="248.8" y1="31.67" x2="293.03" y2="31.63"/>
  <line class="cls-10" x1="246.89" y1="1.61" x2="262.39" y2="1.59"/>
  <line class="cls-10" x1="271.91" y1="1.58" x2="301.47" y2="1.56"/>
  <line class="cls-7" x1="291.89" y1="1.69" x2="291.89" y2="34.62"/>
  <polyline class="cls-7" points="302.55 33.3 315.94 33.18 315.91 6 292.61 6"/>
  <line class="cls-7" x1="315.91" y1="6" x2="380.22" y2="5.89"/>
  <line class="cls-10" x1="349.09" y1="6" x2="349.09" y2="34.74"/>
  <line class="cls-8" x1="332.9" y1="6.42" x2="333.11" y2="34.62"/>
  <line class="cls-5" x1="348.08" y1="34.67" x2="388" y2="34.67"/>
  <line class="cls-10" x1="378.94" y1="27.34" x2="378.94" y2="34.91"/>
  <line class="cls-10" x1="378.94" y1="5.37" x2="378.94" y2="12.18"/>
  <line class="cls-10" x1="386.99" y1="31.12" x2="386.99" y2="35.02"/>
  <polyline class="cls-10" points="27.72 48.54 62.77 48.53 62.63 61.45"/>
  <line class="cls-10" x1="73.81" y1="60.69" x2="73.87" y2="87.68"/>
  <line class="cls-10" x1="61.33" y1="1.45" x2="61.76" y2="39.3"/>
  <line class="cls-10" x1="61.92" y1="23.47" x2="114.47" y2="23.47"/>
  <polyline class="cls-10" points="162.75 254.04 160.61 254.05 132.12 274.64 132.12 275.52"/>
  <line class="cls-10" x1="172.59" y1="254.04" x2="183" y2="254.04"/>
  <line class="cls-10" x1="469.96" y1="337.35" x2="470.03" y2="351.49"/>
  <line class="cls-10" x1="482.79" y1="337.38" x2="482.86" y2="351.52"/>
  <line class="cls-10" x1="492.94" y1="330.7" x2="493.04" y2="351.52"/>
  <line class="cls-10" x1="469.36" y1="287.28" x2="469.43" y2="302.31"/>
  <line class="cls-10" x1="482.06" y1="287.62" x2="482.13" y2="302.65"/>
  <polygon class="cls-4" points="412.29 160.76 445.71 160.82 481.26 136.42 511.89 136.45 512.03 285.68 479.45 285.56 445.93 262.63 412.29 262.44 408.45 211.98 412.29 160.76"/>
  <polygon class="cls-4" points="88.07 149.9 87.97 273.92 130.41 273.82 159.91 252.53 182.45 252.53 184.05 212.05 180.81 170.21 158.94 170.08 131.7 150.33 88.07 149.9"/>
  <line class="cls-7" x1="230.03" y1="20.04" x2="230.03" y2="32.19"/>
  <line class="cls-7" x1="230.37" y1="1.47" x2="230.37" y2="13.63"/>
  <line class="cls-5" x1="348.2" y1="31.67" x2="387.98" y2="31.63"/>
  <polygon class="cls-4" points="183.31 351.84 252.9 351.84 252.76 403.37 182.66 402.69 183.31 351.84"/>
  <polygon class="cls-4" points="348.65 352.51 419.57 352.51 419.43 405.12 347.99 404.42 348.65 352.51"/>
  <text class="cls-1" transform="translate(120.45 223.04)"><tspan x="0" y="0">TP2</tspan></text>
  <polygon class="cls-4" points="124.63 362.47 180.67 362.47 180.56 402.97 124.1 402.43 124.63 362.47"/>
  <text class="cls-3" transform="translate(135.21 389.53)"><tspan x="0" y="0">TP301</tspan></text>
  <text class="cls-2" transform="translate(202.89 383.75)"><tspan x="0" y="0">TP32</tspan></text>
  <text class="cls-2" transform="translate(370.73 385.01)"><tspan x="0" y="0">TP31</tspan></text>
  <text class="cls-1" transform="translate(450.89 226.75)"><tspan x="0" y="0">TP1</tspan></text>
  <path class="cls-12" d="M318.41,10.42V30.39c0,.17,.11,.3,.25,.3h10.4c.14,0,.25-.14,.25-.3V10.42c0-.17-.11-.3-.25-.3h-10.4c-.14,0-.25,.14-.25,.3Zm9.33,19.64h-3.57v-13.53c0-.17-.11-.3-.25-.3s-.25,.14-.25,.3v13.53h-3.81V15.71h7.89v14.35Zm1.04,0h-.53V15.41c0-.17-.11-.3-.25-.3h-8.4c-.14,0-.25,.14-.25,.3v14.65h-.43V14.47h9.86v15.59Zm.02-19.33v3.14h-9.89v-3.14h9.89Z"/>
  <path class="cls-12" d="M321.8,13.26h4.25c.14,0,.25-.14,.25-.3v-1.42c0-.17-.11-.3-.25-.3h-4.25c-.14,0-.25,.14-.25,.3v1.42c0,.17,.11,.3,.25,.3Zm.25-1.42h3.74v.81h-3.74v-.81Z"/>
  <path class="cls-12" d="M459.51,368.41v21.12c0,.18,.13,.32,.3,.32h12.15c.16,0,.3-.14,.3-.32v-21.12c0-.18-.13-.32-.3-.32h-12.15c-.16,0-.3,.14-.3,.32Zm10.91,20.77h-4.17v-14.31c0-.18-.13-.32-.3-.32s-.3,.14-.3,.32v14.31h-4.46v-15.17h9.22v15.17Zm1.21,0h-.62v-15.49c0-.18-.13-.32-.3-.32h-9.82c-.16,0-.3,.14-.3,.32v15.49h-.5v-16.48h11.53v16.48Zm.03-20.45v3.32h-11.56v-3.32h11.56Z"/>
  <path class="cls-12" d="M463.47,371.41h4.97c.16,0,.3-.14,.3-.32v-1.5c0-.18-.13-.32-.3-.32h-4.97c-.16,0-.3,.14-.3,.32v1.5c0,.18,.13,.32,.3,.32Zm.3-1.5h4.37v.85h-4.37v-.85Z"/>
  <g>
    <path class="cls-11" d="M310.11,19.96h-1.78c-.09,0-.16,.07-.16,.16v1.26h-2c-.09,0-.16,.07-.16,.16v1.37h-2.09c-.09,0-.16,.07-.16,.16v1.45h-1.96c-.09,0-.16,.07-.16,.16v1.37h-2.05c-.09,0-.16,.07-.16,.16v1.62c0,.09,.07,.16,.16,.16s.16-.07,.16-.16v-1.47h2.05c.09,0,.16-.07,.16-.16v-1.37h1.96c.09,0,.16-.07,.16-.16v-1.45h2.09c.09,0,.16-.07,.16-.16v-1.37h2c.09,0,.16-.07,.16-.16v-1.26h1.62c.09,0,.16-.07,.16-.16s-.07-.16-.16-.16Z"/>
    <ellipse class="cls-11" cx="303.42" cy="15.33" rx=".95" ry=".94"/>
    <path class="cls-11" d="M300.87,19.62s.03,0,.04,0c.15,0,.29-.11,.31-.27l.21-1.41,.96-.65c-.01,.05-.02,.11-.02,.16l.09,2.86-.9,3.63c-.04,.17,.06,.33,.23,.37,.03,0,.05,0,.07,0,.14,0,.27-.09,.31-.24l.9-3.64h.24l1.21,.56v1.35c0,.17,.14,.31,.32,.31s.32-.14,.32-.31v-1.55c0-.12-.07-.23-.18-.28l-1.32-.61-.04-2.39,.54,.56s.09,.07,.15,.09l1.46,.37c.17,.04,.34-.06,.38-.22,.04-.17-.06-.33-.23-.38l-1.37-.35-.69-.72c-.45-.47-1.17-.54-1.71-.18l-1.18,.79c-.07,.05-.12,.13-.13,.21l-.22,1.55c-.02,.17,.1,.33,.27,.35Z"/>
  </g>
  <g>
    <ellipse class="cls-12" cx="482.8" cy="312.42" rx="1.3" ry="1.23"/>
    <path class="cls-12" d="M484.84,313.96h-4.08c-.63,0-1.14,.48-1.14,1.08v4.01c0,.6,.51,1.08,1.14,1.08h0v-4.7c0-.09,.07-.15,.16-.15h.08v10.75c0,.4,.35,.73,.77,.73s.77-.33,.77-.73v-5.67c0-.13,.11-.23,.24-.23s.24,.1,.24,.23v5.67c0,.4,.35,.73,.77,.73s.77-.33,.77-.73v-10.75h.08c.09,0,.16,.07,.16,.15v4.7h0c.63,0,1.14-.48,1.14-1.08v-4.01c0-.6-.51-1.08-1.14-1.08Z"/>
    <g>
      <ellipse class="cls-12" cx="471.75" cy="312.42" rx="1.3" ry="1.23"/>
      <path class="cls-12" d="M473.47,315.39l1.09,4.62c.62-.13,1.01-.72,.87-1.3l-.93-3.91c-.07-.29-.26-.53-.5-.67-.14-.08-.29-.13-.45-.15-.09-.01-.18-.02-.28-.02h-3.02c-.07,0-.14,0-.2,0-.2,.02-.37,.06-.54,.16-.25,.15-.43,.38-.5,.67l-.93,3.91c-.14,.58,.26,1.17,.87,1.3l1.09-4.62c.02-.07,.08-.12,.16-.12h.11l-.34,1.44-1.3,5.5h1.3v3.82c0,.2,.09,.39,.23,.52,.14,.13,.33,.21,.55,.21,.43,0,.77-.33,.77-.73v-3.82h.49v3.82c0,.2,.09,.39,.23,.52,.14,.13,.33,.21,.55,.21,.43,0,.77-.33,.77-.73v-3.82h1.3l-1.3-5.5-.34-1.44h.11c.08,0,.14,.05,.16,.12Z"/>
    </g>
    <rect class="cls-12" x="476.93" y="310.8" width=".65" height="16.34" rx=".23" ry=".23"/>
  </g>
  <g>
    <ellipse class="cls-12" cx="148.05" cy="307.41" rx="1.3" ry="1.23"/>
    <path class="cls-12" d="M150.09,308.95h-4.08c-.63,0-1.14,.48-1.14,1.08v4.01c0,.6,.51,1.08,1.14,1.08h0v-4.7c0-.09,.07-.15,.16-.15h.08v10.75c0,.4,.35,.73,.77,.73s.77-.33,.77-.73v-5.67c0-.13,.11-.23,.24-.23s.24,.1,.24,.23v5.67c0,.4,.35,.73,.77,.73s.77-.33,.77-.73v-10.75h.08c.09,0,.16,.07,.16,.15v4.7h0c.63,0,1.14-.48,1.14-1.08v-4.01c0-.6-.51-1.08-1.14-1.08Z"/>
    <g>
      <ellipse class="cls-12" cx="137" cy="307.41" rx="1.3" ry="1.23"/>
      <path class="cls-12" d="M138.72,310.38l1.09,4.62c.62-.13,1.01-.72,.87-1.3l-.93-3.91c-.07-.29-.26-.53-.5-.67-.14-.08-.29-.13-.45-.15-.09-.01-.18-.02-.28-.02h-3.02c-.07,0-.14,0-.2,0-.2,.02-.37,.06-.54,.16-.25,.15-.43,.38-.5,.67l-.93,3.91c-.14,.58,.26,1.17,.87,1.3l1.09-4.62c.02-.07,.08-.12,.16-.12h.11l-.34,1.44-1.3,5.5h1.3v3.82c0,.2,.09,.39,.23,.52,.14,.13,.33,.21,.55,.21,.43,0,.77-.33,.77-.73v-3.82h.49v3.82c0,.2,.09,.39,.23,.52,.14,.13,.33,.21,.55,.21,.43,0,.77-.33,.77-.73v-3.82h1.3l-1.3-5.5-.34-1.44h.11c.08,0,.14,.05,.16,.12Z"/>
    </g>
    <rect class="cls-12" x="142.18" y="305.79" width=".65" height="16.34" rx=".23" ry=".23"/>
  </g>
  <path class="cls-5" d="M122.79,352.34h8.14c-.29,1.09-.95,2.99-2.57,4.88-2.02,2.34-4.43,3.38-5.58,3.8"/>
  <line class="cls-10" x1="122.72" y1="342.3" x2="122.72" y2="352.76"/>
  <path class="cls-12" d="M336.38,10.53V30.5c0,.17,.11,.3,.25,.3h10.4c.14,0,.25-.14,.25-.3V10.53c0-.17-.11-.3-.25-.3h-10.4c-.14,0-.25,.14-.25,.3Zm9.33,19.64h-3.57v-13.53c0-.17-.11-.3-.25-.3s-.25,.14-.25,.3v13.53h-3.81V15.82h7.89v14.35Zm1.04,0h-.53V15.52c0-.17-.11-.3-.25-.3h-8.4c-.14,0-.25,.14-.25,.3v14.65h-.43V14.58h9.86v15.59Zm.02-19.33v3.14h-9.89v-3.14h9.89Z"/>
  <path class="cls-12" d="M339.77,13.37h4.25c.14,0,.25-.14,.25-.3v-1.42c0-.17-.11-.3-.25-.3h-4.25c-.14,0-.25,.14-.25,.3v1.42c0,.17,.11,.3,.25,.3Zm.25-1.42h3.74v.81h-3.74v-.81Z"/>
  <path class="cls-5" d="M406.73,35l.04,9.34c-1.25-.32-3.41-1.08-5.57-2.93-2.68-2.31-3.88-5.06-4.36-6.39"/>
  <path class="cls-5" d="M387.5,35.08l.04,9.67c1.29-.35,3.53-1.14,5.75-3.08,2.76-2.41,3.98-5.27,4.47-6.65"/>
  <path class="cls-5" d="M233.75,31.81v11.87c1.94-.42,5.31-1.39,8.66-3.75,4.16-2.95,6.01-6.45,6.76-8.14"/>
  <path class="cls-5" d="M112.16,415.99l.04,9.26c-1.16-.32-3.18-1.07-5.19-2.91-2.5-2.29-3.62-5.02-4.07-6.34"/>
  <path class="cls-5" d="M94.22,416.07l.04,9.58c1.2-.34,3.3-1.13,5.37-3.05,2.58-2.39,3.71-5.23,4.17-6.6"/>
  <path class="cls-5" d="M24.76,86.59l.04,9.26c-1.38-.32-3.77-1.07-6.15-2.91-2.96-2.29-4.28-5.02-4.82-6.34"/>
  <path class="cls-5" d="M3.51,86.67l.04,9.58c1.42-.34,3.9-1.13,6.35-3.05,3.05-2.39,4.4-5.23,4.94-6.6"/>
  <path class="cls-5" d="M510.33,53.69l-9.65,.04c.34-1.18,1.11-3.23,3.03-5.27,2.39-2.54,5.23-3.67,6.61-4.13"/>
  <path class="cls-5" d="M510.35,73.68l-9.67,.04c.34-1.29,1.11-3.54,3.03-5.78,2.39-2.78,5.24-4.02,6.61-4.52"/>
  <line class="cls-8" x1="511.59" y1="84.1" x2="511.59" y2="73.26"/>
  <line class="cls-8" x1="511.59" y1="64.09" x2="511.59" y2="53.26"/>
  <line class="cls-8" x1="511.59" y1="45.09" x2="511.59" y2="34.25"/>
</svg>