<?xml version="1.0" encoding="UTF-8"?>
<svg id="Lager_1" data-name="Lager 1" xmlns="http://www.w3.org/2000/svg" viewBox="0 0 438.98 432.55">
  <defs>
    <style>
      .cls-1 {
        fill: #fff;
      }

      .cls-2, .cls-3, .cls-4, .cls-5, .cls-6, .cls-7, .cls-8, .cls-9, .cls-10 {
        stroke-miterlimit: 10;
      }

      .cls-2, .cls-3, .cls-6, .cls-10 {
        stroke: #000;
      }

      .cls-2, .cls-4, .cls-5, .cls-6, .cls-7, .cls-8, .cls-9, .cls-10 {
        fill: none;
      }

      .cls-3, .cls-8 {
        stroke-width: .25px;
      }

      .cls-4 {
        stroke-width: .75px;
      }

      .cls-4, .cls-5, .cls-7, .cls-8, .cls-9 {
        stroke: #010101;
      }

      .cls-5 {
        stroke-width: 3px;
      }

      .cls-11 {
        font-size: 9px;
      }

      .cls-11, .cls-12, .cls-13, .cls-14 {
        font-family: MyriadPro-Regular, 'Myriad Pro';
      }

      .cls-11, .cls-12, .cls-13, .cls-14, .cls-15 {
        fill: #010101;
      }

      .cls-12 {
        font-size: 12px;
      }

      .cls-6, .cls-9 {
        stroke-width: 2px;
      }

      .cls-7 {
        stroke-width: 4px;
      }

      .cls-13 {
        font-size: 13px;
      }

      .cls-14 {
        font-size: 16px;
      }

      .cls-10 {
        stroke-width: .5px;
      }
    </style>
  </defs>
  <line class="cls-7" x1="145.32" y1="217.57" x2="143.88" y2="353.59"/>
  <polyline class="cls-9" points="149.38 382.13 149.38 431.02 437.08 431.54 437.09 391.18"/>
  <line class="cls-7" x1="436.38" y1="391.47" x2="436.38" y2="215.68"/>
  <polyline class="cls-7" points="436.38 215.68 431.19 215.68 431.19 183.57 436.98 183.57 436.98 2 18.64 2.91 2.16 219.54 145.05 219.54 144.36 352.19 148.17 352.19 148.17 381.74 148.17 383.15"/>
  <line class="cls-9" x1="8.19" y1="162.46" x2="63.19" y2="162.46"/>
  <polyline class="cls-9" points="63.19 162.46 63.36 121.82 63.19 166.33"/>
  <line class="cls-9" x1="10.94" y1="103.01" x2="63.19" y2="102.43"/>
  <polyline class="cls-9" points="63.19 102.43 63.07 112.31 63.36 96.93"/>
  <polyline class="cls-9" points="63.21 81.89 63.07 38.01 16.06 37.72"/>
  <line class="cls-9" x1="63.36" y1="175.12" x2="63.53" y2="219.26"/>
  <line class="cls-9" x1="97.13" y1="183.97" x2="129.16" y2="183.97"/>
  <polyline class="cls-9" points="128.12 184.37 128.12 164.7 76.31 164.28 76.03 183.14 87.13 183.47"/>
  <polyline class="cls-9" points="103.15 164.28 102.47 141.98 128.12 141.98 128.12 106.87 118.68 106.87 118.38 97.45 110.88 97.45"/>
  <polyline class="cls-9" points="102.47 141.98 77.17 141.95 77.27 97.75 101.13 97.75"/>
  <line class="cls-9" x1="77.17" y1="141.95" x2="77.27" y2="148.47"/>
  <line class="cls-9" x1="76.36" y1="164.28" x2="76.14" y2="156.75"/>
  <line class="cls-9" x1="206.02" y1="219.06" x2="206.12" y2="218.75"/>
  <polyline class="cls-9" points="145.31 218.5 206.12 218.75 206.19 243.05"/>
  <polyline class="cls-9" points="144.56 313.27 206.19 313.27 206.27 357.98 206.27 306.76"/>
  <line class="cls-9" x1="206.27" y1="402.19" x2="169.1" y2="402.22"/>
  <line class="cls-9" x1="205.54" y1="430.98" x2="205.36" y2="411.47"/>
  <line class="cls-9" x1="169.71" y1="430.98" x2="170.04" y2="402.37"/>
  <line class="cls-9" x1="172.55" y1="383.06" x2="149.8" y2="382.9"/>
  <line class="cls-9" x1="206.45" y1="299.26" x2="206.45" y2="249.49"/>
  <polyline class="cls-9" points="308.4 431.31 308.4 400.27 321.82 400.27"/>
  <polyline class="cls-9" points="241.58 430.98 241.58 400.27 264.05 400.27"/>
  <polyline class="cls-9" points="274.54 430.98 274.53 400.27 296.16 400.27"/>
  <line class="cls-9" x1="274.53" y1="400.27" x2="269.51" y2="400.27"/>
  <polygon class="cls-7" points="325.12 375.66 325.12 356.81 340.01 356.81 339 252.77 273.16 252.77 270.2 265.49 240.95 266.13 239.58 356.27 258.14 356.81 258.08 375.73 325.12 375.66"/>
  <polyline class="cls-5" points="339 252.77 339.23 227.67 278.04 227.81 273.16 252.77"/>
  <polyline class="cls-9" points="176.09 183.97 144.36 183.97 144.36 175.69"/>
  <g>
    <polyline class="cls-9" points="321.23 183.97 321.16 168.89 313.04 168.92 313.04 183.97 309.05 183.97 309.05 169.13 302.07 169.13 302.07 183.97 176.09 183.97 176.11 157.31 144.36 157.31 144.36 168.42 144.21 142.65"/>
    <polyline class="cls-9" points="176.5 164.28 339.72 165.01 339.83 153.39 357.32 153.39 357.32 158.17 346.49 157.96 346.62 169.13 324.53 169.05 324.53 180.19 343.98 180.19 343.98 184.37"/>
  </g>
  <line class="cls-9" x1="321.22" y1="182.74" x2="321.22" y2="184.92"/>
  <line class="cls-9" x1="321.22" y1="183.97" x2="344.96" y2="183.83"/>
  <polyline class="cls-9" points="356.04 146.17 356.04 106.84 350.96 106.84"/>
  <polyline class="cls-9" points="356.16 136.1 290.38 136.1 291.04 106.84 312.39 106.84"/>
  <polyline class="cls-9" points="323.27 136.2 323.27 106.84 345.46 106.84 318.3 106.84"/>
  <line class="cls-9" x1="290.38" y1="136.1" x2="290.05" y2="164.79"/>
  <line class="cls-9" x1="291.04" y1="106.84" x2="267.71" y2="106.52"/>
  <polyline class="cls-9" points="233.58 164.53 233.86 106.87 210.38 106.97"/>
  <polyline class="cls-9" points="176.11 157.31 176.49 106.97 202.15 107.22 172.61 106.84"/>
  <polyline class="cls-9" points="176.02 132.08 144.21 132.24 144.36 106.97 166.15 106.97"/>
  <line class="cls-9" x1="144.21" y1="132.24" x2="144.21" y2="137.52"/>
  <polyline class="cls-9" points="53.09 3.45 53.09 27.86 84.97 27.35 84.97 3.86"/>
  <polyline class="cls-9" points="84.97 27.35 129.33 26.97 129.34 22.48"/>
  <line class="cls-9" x1="129.47" y1="16.41" x2="129.47" y2="3.86"/>
  <polyline class="cls-9" points="76.09 27.12 76.09 74.81 100.97 74.72"/>
  <polyline class="cls-9" points="76.77 38.34 129.27 38.24 129.34 43.29"/>
  <polyline class="cls-9" points="118.39 38.81 118.56 74.81 109.49 74.81"/>
  <polyline class="cls-9" points="144.21 3.21 145.05 64.74 149.31 64.77"/>
  <line class="cls-9" x1="158.05" y1="64.77" x2="214.54" y2="64.65"/>
  <line class="cls-9" x1="210.09" y1="64.65" x2="209.89" y2="3.86"/>
  <line class="cls-9" x1="222.67" y1="64.74" x2="280.05" y2="64.74"/>
  <line class="cls-9" x1="275.24" y1="2.66" x2="276.2" y2="64.12"/>
  <line class="cls-9" x1="289.06" y1="64.65" x2="338.85" y2="64.74"/>
  <line class="cls-9" x1="323.27" y1="64.65" x2="323.27" y2="3.86"/>
  <polyline class="cls-9" points="347.82 64.65 356.71 64.65 356.42 2.78"/>
  <line class="cls-9" x1="387.68" y1="2.44" x2="387.86" y2="22.08"/>
  <polyline class="cls-9" points="436.64 33.39 377.95 33.39 377.96 64.65 377.95 65.69"/>
  <polyline class="cls-5" points="436.94 96.45 378.27 96.45 377.95 79.52"/>
  <polyline class="cls-9" points="436.98 158.23 378.27 158.03 378.27 106.68"/>
  <line class="cls-5" x1="436.38" y1="159.93" x2="377.32" y2="159.93"/>
  <line class="cls-5" x1="388.02" y1="159.93" x2="388.02" y2="169.41"/>
  <path class="cls-5" d="M430.6,183.12l-43.6-.29"/>
  <polyline class="cls-9" points="430.57 216.34 374 216.34 374 235.52"/>
  <polyline class="cls-9" points="435.6 275.31 374.48 275.42 374.06 241.24 374.23 284.02"/>
  <polyline class="cls-9" points="436.38 331.9 374.56 331.9 374.06 290.19"/>
  <line class="cls-9" x1="374.56" y1="331.9" x2="374.48" y2="338.94"/>
  <polyline class="cls-9" points="436.57 390.47 370.74 390.47 370.74 394.69"/>
  <line class="cls-9" x1="374.99" y1="346.73" x2="374.51" y2="390.47"/>
  <line class="cls-9" x1="387.44" y1="390.47" x2="387.38" y2="415.79"/>
  <line class="cls-9" x1="398.3" y1="401.53" x2="398.21" y2="390.47"/>
  <line class="cls-4" x1="387.44" y1="390.47" x2="398.3" y2="415.71"/>
  <polyline class="cls-4" points="420.94 416.91 420.77 401.53 427.16 401.53 427.16 416.91"/>
  <line class="cls-8" x1="420.93" y1="416.58" x2="410.77" y2="416.47"/>
  <line class="cls-8" x1="420.94" y1="416.15" x2="410.77" y2="416.04"/>
  <line class="cls-8" x1="420.93" y1="415.72" x2="410.77" y2="415.61"/>
  <line class="cls-8" x1="420.93" y1="415.29" x2="410.77" y2="415.18"/>
  <line class="cls-8" x1="420.93" y1="414.86" x2="410.77" y2="414.75"/>
  <line class="cls-8" x1="420.93" y1="414.43" x2="410.77" y2="414.32"/>
  <line class="cls-8" x1="420.93" y1="414.01" x2="410.76" y2="413.9"/>
  <line class="cls-8" x1="420.93" y1="413.58" x2="410.77" y2="413.47"/>
  <line class="cls-8" x1="420.98" y1="413.15" x2="410.81" y2="413.04"/>
  <line class="cls-8" x1="420.98" y1="412.72" x2="410.82" y2="412.61"/>
  <line class="cls-8" x1="420.97" y1="412.29" x2="410.81" y2="412.18"/>
  <line class="cls-8" x1="420.98" y1="411.86" x2="410.81" y2="411.75"/>
  <line class="cls-8" x1="421" y1="411.43" x2="410.84" y2="411.32"/>
  <line class="cls-8" x1="421" y1="411.01" x2="410.84" y2="410.89"/>
  <line class="cls-8" x1="421" y1="410.58" x2="410.83" y2="410.47"/>
  <line class="cls-8" x1="421" y1="410.15" x2="410.84" y2="410.04"/>
  <line class="cls-8" x1="421" y1="409.72" x2="410.83" y2="409.61"/>
  <line class="cls-8" x1="421" y1="409.29" x2="410.84" y2="409.18"/>
  <line class="cls-8" x1="420.99" y1="408.86" x2="410.83" y2="408.75"/>
  <line class="cls-8" x1="421" y1="408.43" x2="410.83" y2="408.32"/>
  <line class="cls-8" x1="421.04" y1="408" x2="410.88" y2="407.89"/>
  <line class="cls-8" x1="421.05" y1="407.58" x2="410.88" y2="407.46"/>
  <line class="cls-8" x1="421.04" y1="407.15" x2="410.88" y2="407.04"/>
  <line class="cls-8" x1="421.04" y1="406.72" x2="410.88" y2="406.61"/>
  <line class="cls-8" x1="421.02" y1="406.29" x2="410.86" y2="406.18"/>
  <line class="cls-8" x1="421.03" y1="405.86" x2="410.86" y2="405.75"/>
  <line class="cls-8" x1="421.02" y1="405.43" x2="410.86" y2="405.32"/>
  <line class="cls-8" x1="421.02" y1="405" x2="410.86" y2="404.89"/>
  <line class="cls-8" x1="421.02" y1="404.58" x2="410.85" y2="404.46"/>
  <line class="cls-8" x1="421.02" y1="404.15" x2="410.86" y2="404.04"/>
  <line class="cls-8" x1="421.02" y1="403.72" x2="410.85" y2="403.61"/>
  <line class="cls-8" x1="421.02" y1="403.29" x2="410.86" y2="403.18"/>
  <line class="cls-8" x1="421.06" y1="402.86" x2="410.9" y2="402.75"/>
  <line class="cls-8" x1="421.06" y1="402.5" x2="410.9" y2="402.39"/>
  <line class="cls-8" x1="421.05" y1="402.14" x2="410.89" y2="402.03"/>
  <line class="cls-8" x1="421.06" y1="401.78" x2="410.9" y2="401.67"/>
  <line class="cls-8" x1="421.07" y1="401.42" x2="410.91" y2="401.31"/>
  <line class="cls-8" x1="437.09" y1="416.52" x2="426.93" y2="416.6"/>
  <line class="cls-8" x1="437.09" y1="416.09" x2="426.93" y2="416.17"/>
  <line class="cls-8" x1="437.08" y1="415.67" x2="426.91" y2="415.74"/>
  <line class="cls-8" x1="437.07" y1="415.24" x2="426.91" y2="415.31"/>
  <line class="cls-8" x1="437.06" y1="414.81" x2="426.9" y2="414.89"/>
  <line class="cls-8" x1="437.06" y1="414.38" x2="426.89" y2="414.46"/>
  <line class="cls-8" x1="437.04" y1="413.95" x2="426.88" y2="414.03"/>
  <line class="cls-8" x1="437.04" y1="413.52" x2="426.87" y2="413.6"/>
  <line class="cls-8" x1="437.07" y1="413.09" x2="426.91" y2="413.17"/>
  <line class="cls-8" x1="437.07" y1="412.66" x2="426.91" y2="412.74"/>
  <line class="cls-8" x1="437.06" y1="412.24" x2="426.89" y2="412.31"/>
  <line class="cls-8" x1="437.05" y1="411.81" x2="426.89" y2="411.88"/>
  <line class="cls-8" x1="437.07" y1="411.38" x2="426.9" y2="411.45"/>
  <line class="cls-8" x1="437.06" y1="410.95" x2="426.9" y2="411.03"/>
  <line class="cls-8" x1="437.05" y1="410.52" x2="426.89" y2="410.6"/>
  <line class="cls-8" x1="437.05" y1="410.09" x2="426.88" y2="410.17"/>
  <line class="cls-8" x1="437.03" y1="409.66" x2="426.87" y2="409.74"/>
  <line class="cls-8" x1="437.03" y1="409.24" x2="426.86" y2="409.31"/>
  <line class="cls-8" x1="437.01" y1="408.81" x2="426.85" y2="408.88"/>
  <line class="cls-8" x1="437.01" y1="408.38" x2="426.85" y2="408.45"/>
  <line class="cls-8" x1="437.05" y1="407.95" x2="426.88" y2="408.03"/>
  <line class="cls-8" x1="437.04" y1="407.52" x2="426.88" y2="407.6"/>
  <line class="cls-8" x1="437.03" y1="407.09" x2="426.87" y2="407.17"/>
  <line class="cls-8" x1="437.03" y1="406.66" x2="426.86" y2="406.74"/>
  <line class="cls-8" x1="436.99" y1="406.23" x2="426.83" y2="406.31"/>
  <line class="cls-8" x1="436.99" y1="405.81" x2="426.83" y2="405.88"/>
  <line class="cls-8" x1="436.98" y1="405.38" x2="426.81" y2="405.45"/>
  <line class="cls-8" x1="436.97" y1="404.95" x2="426.81" y2="405.03"/>
  <line class="cls-8" x1="436.96" y1="404.52" x2="426.8" y2="404.6"/>
  <line class="cls-8" x1="436.96" y1="404.09" x2="426.79" y2="404.17"/>
  <line class="cls-8" x1="436.94" y1="403.66" x2="426.78" y2="403.74"/>
  <line class="cls-8" x1="436.94" y1="403.23" x2="426.77" y2="403.31"/>
  <line class="cls-8" x1="436.97" y1="402.81" x2="426.81" y2="402.88"/>
  <line class="cls-8" x1="436.97" y1="402.45" x2="426.8" y2="402.52"/>
  <line class="cls-8" x1="436.95" y1="402.09" x2="426.79" y2="402.16"/>
  <line class="cls-8" x1="436.95" y1="401.73" x2="426.79" y2="401.8"/>
  <line class="cls-8" x1="436.96" y1="401.37" x2="426.79" y2="401.44"/>
  <line class="cls-8" x1="420.77" y1="401.64" x2="420.88" y2="391.47"/>
  <line class="cls-8" x1="421.2" y1="401.64" x2="421.31" y2="391.48"/>
  <line class="cls-8" x1="421.63" y1="401.63" x2="421.74" y2="391.47"/>
  <line class="cls-8" x1="422.06" y1="401.64" x2="422.17" y2="391.48"/>
  <line class="cls-8" x1="422.48" y1="401.63" x2="422.59" y2="391.47"/>
  <line class="cls-8" x1="422.91" y1="401.64" x2="423.02" y2="391.47"/>
  <line class="cls-8" x1="423.34" y1="401.63" x2="423.45" y2="391.47"/>
  <line class="cls-8" x1="423.77" y1="401.63" x2="423.88" y2="391.47"/>
  <line class="cls-8" x1="424.2" y1="401.68" x2="424.31" y2="391.52"/>
  <line class="cls-8" x1="424.63" y1="401.68" x2="424.74" y2="391.52"/>
  <line class="cls-8" x1="425.02" y1="401.63" x2="425.13" y2="391.47"/>
  <line class="cls-8" x1="425.45" y1="401.63" x2="425.56" y2="391.47"/>
  <line class="cls-8" x1="425.88" y1="401.63" x2="425.99" y2="391.46"/>
  <line class="cls-8" x1="426.3" y1="401.63" x2="426.42" y2="391.47"/>
  <line class="cls-8" x1="426.73" y1="401.63" x2="426.84" y2="391.46"/>
  <line class="cls-8" x1="427.16" y1="401.63" x2="427.27" y2="391.47"/>
  <line class="cls-9" x1="308.4" y1="400.27" x2="303.05" y2="400.27"/>
  <polyline class="cls-9" points="329.82 400.27 341.81 400.27 342.03 431.15"/>
  <line class="cls-9" x1="410.63" y1="391.15" x2="410.45" y2="416.83"/>
  <path class="cls-9" d="M410.45,401.53h-12.16v14.18l-27.56,.08c.03,5.23,0,5.55,0,5.55"/>
  <line class="cls-9" x1="370.74" y1="415.79" x2="370.74" y2="400.27"/>
  <line class="cls-8" x1="255.4" y1="250.54" x2="242.71" y2="250.54"/>
  <line class="cls-8" x1="255.4" y1="249.86" x2="242.71" y2="249.86"/>
  <line class="cls-8" x1="255.39" y1="249.17" x2="242.7" y2="249.17"/>
  <line class="cls-8" x1="255.39" y1="248.49" x2="242.7" y2="248.49"/>
  <line class="cls-8" x1="255.37" y1="247.8" x2="242.68" y2="247.8"/>
  <line class="cls-8" x1="255.37" y1="247.12" x2="242.68" y2="247.12"/>
  <line class="cls-8" x1="255.36" y1="246.43" x2="242.67" y2="246.43"/>
  <line class="cls-8" x1="255.36" y1="245.75" x2="242.67" y2="245.75"/>
  <line class="cls-8" x1="255.41" y1="245.06" x2="242.72" y2="245.06"/>
  <line class="cls-8" x1="255.41" y1="244.38" x2="242.72" y2="244.38"/>
  <line class="cls-8" x1="255.39" y1="243.69" x2="242.7" y2="243.69"/>
  <line class="cls-8" x1="255.39" y1="243.01" x2="242.7" y2="243.01"/>
  <line class="cls-8" x1="255.41" y1="242.32" x2="242.72" y2="242.32"/>
  <line class="cls-8" x1="255.41" y1="241.63" x2="242.72" y2="241.63"/>
  <line class="cls-8" x1="255.4" y1="240.95" x2="242.71" y2="240.95"/>
  <line class="cls-8" x1="255.4" y1="240.26" x2="242.71" y2="240.26"/>
  <line class="cls-8" x1="255.39" y1="239.58" x2="242.7" y2="239.58"/>
  <line class="cls-8" x1="255.39" y1="238.89" x2="242.7" y2="238.89"/>
  <line class="cls-8" x1="255.37" y1="238.21" x2="242.68" y2="238.21"/>
  <line class="cls-8" x1="255.37" y1="237.52" x2="242.68" y2="237.52"/>
  <line class="cls-8" x1="255.42" y1="236.84" x2="242.73" y2="236.84"/>
  <line class="cls-8" x1="255.42" y1="236.15" x2="242.73" y2="236.15"/>
  <line class="cls-8" x1="255.41" y1="235.47" x2="242.72" y2="235.47"/>
  <line class="cls-8" x1="255.41" y1="234.78" x2="242.72" y2="234.78"/>
  <line class="cls-8" x1="255.37" y1="234.1" x2="242.68" y2="234.1"/>
  <line class="cls-8" x1="255.37" y1="233.41" x2="242.68" y2="233.41"/>
  <line class="cls-8" x1="255.36" y1="232.73" x2="242.67" y2="232.73"/>
  <line class="cls-8" x1="255.36" y1="232.04" x2="242.67" y2="232.04"/>
  <line class="cls-8" x1="255.34" y1="231.36" x2="242.65" y2="231.36"/>
  <line class="cls-8" x1="255.34" y1="230.67" x2="242.65" y2="230.67"/>
  <line class="cls-8" x1="255.33" y1="229.99" x2="242.64" y2="229.99"/>
  <line class="cls-8" x1="255.33" y1="229.3" x2="242.64" y2="229.3"/>
  <line class="cls-8" x1="255.38" y1="228.62" x2="242.69" y2="228.62"/>
  <line class="cls-8" x1="255.37" y1="228.04" x2="242.68" y2="228.04"/>
  <line class="cls-8" x1="255.36" y1="227.47" x2="242.67" y2="227.47"/>
  <line class="cls-8" x1="255.36" y1="226.9" x2="242.67" y2="226.9"/>
  <line class="cls-8" x1="255.37" y1="226.32" x2="242.68" y2="226.32"/>
  <line class="cls-8" x1="271.4" y1="253.55" x2="256.94" y2="250.47"/>
  <line class="cls-8" x1="271.53" y1="252.91" x2="257.07" y2="249.84"/>
  <line class="cls-8" x1="271.65" y1="252.27" x2="257.19" y2="249.2"/>
  <line class="cls-8" x1="271.79" y1="251.64" x2="257.32" y2="248.57"/>
  <line class="cls-8" x1="271.91" y1="251" x2="257.44" y2="247.93"/>
  <line class="cls-8" x1="272.04" y1="250.36" x2="257.58" y2="247.29"/>
  <line class="cls-8" x1="272.16" y1="249.73" x2="257.7" y2="246.66"/>
  <line class="cls-8" x1="272.29" y1="249.09" x2="257.83" y2="246.02"/>
  <line class="cls-8" x1="272.49" y1="248.47" x2="258.02" y2="245.4"/>
  <line class="cls-8" x1="272.62" y1="247.83" x2="258.16" y2="244.76"/>
  <line class="cls-8" x1="272.74" y1="247.19" x2="258.28" y2="244.12"/>
  <line class="cls-8" x1="272.87" y1="246.56" x2="258.41" y2="243.49"/>
  <line class="cls-8" x1="273.03" y1="245.93" x2="258.57" y2="242.86"/>
  <line class="cls-8" x1="273.17" y1="245.29" x2="258.7" y2="242.22"/>
  <line class="cls-8" x1="273.28" y1="244.66" x2="258.82" y2="241.59"/>
  <line class="cls-8" x1="273.42" y1="244.02" x2="258.96" y2="240.95"/>
  <line class="cls-8" x1="273.54" y1="243.38" x2="259.08" y2="240.31"/>
  <line class="cls-8" x1="273.67" y1="242.75" x2="259.21" y2="239.68"/>
  <line class="cls-8" x1="273.79" y1="242.11" x2="259.33" y2="239.04"/>
  <line class="cls-8" x1="273.93" y1="241.48" x2="259.46" y2="238.4"/>
  <line class="cls-8" x1="274.12" y1="240.85" x2="259.66" y2="237.78"/>
  <line class="cls-8" x1="274.25" y1="240.22" x2="259.79" y2="237.15"/>
  <line class="cls-8" x1="274.37" y1="239.58" x2="259.91" y2="236.51"/>
  <line class="cls-8" x1="274.51" y1="238.94" x2="260.04" y2="235.87"/>
  <line class="cls-8" x1="274.6" y1="238.3" x2="260.14" y2="235.23"/>
  <line class="cls-8" x1="274.74" y1="237.67" x2="260.27" y2="234.6"/>
  <line class="cls-8" x1="274.85" y1="237.03" x2="260.39" y2="233.96"/>
  <line class="cls-8" x1="274.99" y1="236.39" x2="260.53" y2="233.32"/>
  <line class="cls-8" x1="275.11" y1="235.76" x2="260.65" y2="232.68"/>
  <line class="cls-8" x1="275.24" y1="235.12" x2="260.78" y2="232.05"/>
  <line class="cls-8" x1="275.36" y1="234.48" x2="260.9" y2="231.41"/>
  <line class="cls-8" x1="275.5" y1="233.85" x2="261.03" y2="230.78"/>
  <line class="cls-8" x1="275.69" y1="233.22" x2="261.23" y2="230.15"/>
  <line class="cls-8" x1="275.79" y1="232.69" x2="261.33" y2="229.62"/>
  <line class="cls-8" x1="275.89" y1="232.15" x2="261.43" y2="229.08"/>
  <line class="cls-8" x1="276.01" y1="231.62" x2="261.55" y2="228.55"/>
  <line class="cls-8" x1="276.13" y1="231.09" x2="261.67" y2="228.02"/>
  <polyline class="cls-4" points="310.3 377.66 310.46 388.72 280.1 388.72"/>
  <line class="cls-8" x1="280.46" y1="388.34" x2="280.46" y2="377.7"/>
  <line class="cls-8" x1="280.89" y1="388.36" x2="280.89" y2="377.73"/>
  <line class="cls-8" x1="281.32" y1="388.36" x2="281.32" y2="377.73"/>
  <line class="cls-8" x1="281.74" y1="388.35" x2="281.74" y2="377.71"/>
  <line class="cls-8" x1="282.17" y1="388.35" x2="282.17" y2="377.71"/>
  <line class="cls-8" x1="282.6" y1="388.34" x2="282.6" y2="377.7"/>
  <line class="cls-8" x1="283.03" y1="388.34" x2="283.03" y2="377.7"/>
  <line class="cls-8" x1="283.46" y1="388.33" x2="283.46" y2="377.69"/>
  <line class="cls-8" x1="283.89" y1="388.33" x2="283.89" y2="377.69"/>
  <line class="cls-8" x1="284.32" y1="388.37" x2="284.32" y2="377.73"/>
  <line class="cls-8" x1="284.75" y1="388.37" x2="284.75" y2="377.73"/>
  <line class="cls-8" x1="285.17" y1="388.36" x2="285.17" y2="377.72"/>
  <line class="cls-8" x1="285.6" y1="388.36" x2="285.6" y2="377.72"/>
  <line class="cls-8" x1="286.03" y1="388.37" x2="286.03" y2="377.74"/>
  <line class="cls-8" x1="286.46" y1="388.37" x2="286.46" y2="377.74"/>
  <line class="cls-8" x1="286.89" y1="388.36" x2="286.89" y2="377.72"/>
  <line class="cls-8" x1="287.32" y1="388.36" x2="287.32" y2="377.72"/>
  <line class="cls-8" x1="287.75" y1="388.35" x2="287.75" y2="377.71"/>
  <line class="cls-8" x1="288.17" y1="388.35" x2="288.17" y2="377.71"/>
  <line class="cls-8" x1="288.6" y1="388.34" x2="288.6" y2="377.7"/>
  <line class="cls-8" x1="289.03" y1="388.34" x2="289.03" y2="377.7"/>
  <line class="cls-8" x1="289.46" y1="388.38" x2="289.46" y2="377.74"/>
  <line class="cls-8" x1="289.89" y1="388.38" x2="289.89" y2="377.74"/>
  <line class="cls-8" x1="290.32" y1="388.37" x2="290.32" y2="377.73"/>
  <line class="cls-8" x1="290.75" y1="388.37" x2="290.75" y2="377.73"/>
  <line class="cls-8" x1="291.18" y1="388.34" x2="291.18" y2="377.7"/>
  <line class="cls-8" x1="291.6" y1="388.34" x2="291.6" y2="377.7"/>
  <line class="cls-8" x1="292.03" y1="388.33" x2="292.03" y2="377.69"/>
  <line class="cls-8" x1="292.46" y1="388.33" x2="292.46" y2="377.69"/>
  <line class="cls-8" x1="292.89" y1="388.32" x2="292.89" y2="377.68"/>
  <line class="cls-8" x1="293.32" y1="388.32" x2="293.32" y2="377.68"/>
  <line class="cls-8" x1="293.75" y1="388.3" x2="293.75" y2="377.67"/>
  <line class="cls-8" x1="294.18" y1="388.3" x2="294.18" y2="377.67"/>
  <line class="cls-8" x1="294.6" y1="388.35" x2="294.6" y2="377.71"/>
  <line class="cls-8" x1="294.96" y1="388.34" x2="294.96" y2="377.7"/>
  <line class="cls-8" x1="295.32" y1="388.33" x2="295.32" y2="377.69"/>
  <line class="cls-8" x1="295.68" y1="388.33" x2="295.68" y2="377.69"/>
  <line class="cls-8" x1="296.04" y1="388.34" x2="296.04" y2="377.7"/>
  <line class="cls-8" x1="296.47" y1="388.34" x2="296.47" y2="377.7"/>
  <line class="cls-8" x1="296.9" y1="388.38" x2="296.9" y2="377.74"/>
  <line class="cls-8" x1="297.32" y1="388.38" x2="297.32" y2="377.74"/>
  <line class="cls-8" x1="297.75" y1="388.37" x2="297.75" y2="377.73"/>
  <line class="cls-8" x1="298.18" y1="388.37" x2="298.18" y2="377.73"/>
  <line class="cls-8" x1="298.61" y1="388.34" x2="298.61" y2="377.7"/>
  <line class="cls-8" x1="299.04" y1="388.34" x2="299.04" y2="377.7"/>
  <line class="cls-8" x1="299.47" y1="388.32" x2="299.47" y2="377.69"/>
  <line class="cls-8" x1="299.9" y1="388.32" x2="299.9" y2="377.69"/>
  <line class="cls-8" x1="300.32" y1="388.31" x2="300.32" y2="377.67"/>
  <line class="cls-8" x1="300.75" y1="388.31" x2="300.75" y2="377.67"/>
  <line class="cls-8" x1="301.18" y1="388.3" x2="301.18" y2="377.66"/>
  <line class="cls-8" x1="301.61" y1="388.3" x2="301.61" y2="377.66"/>
  <line class="cls-8" x1="302.04" y1="388.34" x2="302.04" y2="377.7"/>
  <line class="cls-8" x1="302.4" y1="388.34" x2="302.4" y2="377.7"/>
  <line class="cls-8" x1="302.76" y1="388.32" x2="302.76" y2="377.69"/>
  <line class="cls-8" x1="303.12" y1="388.33" x2="303.12" y2="377.69"/>
  <line class="cls-8" x1="303.48" y1="388.34" x2="303.48" y2="377.7"/>
  <line class="cls-8" x1="303.87" y1="388.33" x2="303.87" y2="377.69"/>
  <line class="cls-8" x1="304.29" y1="388.33" x2="304.29" y2="377.69"/>
  <line class="cls-8" x1="304.72" y1="388.32" x2="304.72" y2="377.68"/>
  <line class="cls-8" x1="305.15" y1="388.32" x2="305.15" y2="377.68"/>
  <line class="cls-8" x1="305.58" y1="388.31" x2="305.58" y2="377.67"/>
  <line class="cls-8" x1="306.01" y1="388.31" x2="306.01" y2="377.67"/>
  <line class="cls-8" x1="306.44" y1="388.35" x2="306.44" y2="377.71"/>
  <line class="cls-8" x1="306.8" y1="388.34" x2="306.8" y2="377.7"/>
  <line class="cls-8" x1="307.16" y1="388.33" x2="307.16" y2="377.69"/>
  <line class="cls-8" x1="307.52" y1="388.34" x2="307.52" y2="377.7"/>
  <line class="cls-8" x1="307.88" y1="388.34" x2="307.88" y2="377.7"/>
  <line class="cls-8" x1="308.21" y1="388.34" x2="308.21" y2="377.7"/>
  <line class="cls-8" x1="308.57" y1="388.33" x2="308.57" y2="377.69"/>
  <line class="cls-8" x1="308.93" y1="388.32" x2="308.93" y2="377.68"/>
  <line class="cls-8" x1="309.29" y1="388.32" x2="309.29" y2="377.69"/>
  <line class="cls-8" x1="309.65" y1="388.33" x2="309.65" y2="377.69"/>
  <line class="cls-7" x1="240.95" y1="266.13" x2="240.95" y2="225.78"/>
  <polyline class="cls-4" points="255.66 226.13 255.66 250.54 256.81 250.54 261.43 227.67"/>
  <line class="cls-8" x1="310.01" y1="388.33" x2="310.01" y2="377.69"/>
  <line class="cls-6" x1="176.49" y1="164.79" x2="302.06" y2="183.97"/>
  <line class="cls-9" x1="171.44" y1="392.24" x2="171.53" y2="382.62"/>
  <line class="cls-9" x1="183.77" y1="392.39" x2="183.94" y2="372.86"/>
  <line class="cls-9" x1="206.27" y1="391.47" x2="176.6" y2="391.47"/>
  <line class="cls-9" x1="205.41" y1="392.27" x2="205.49" y2="382.65"/>
  <polyline class="cls-9" points="149.38 371.91 206.27 371.91 206.27 363.63"/>
  <line class="cls-9" x1="166.96" y1="382.21" x2="167.05" y2="372.6"/>
  <line class="cls-5" x1="388.02" y1="174.83" x2="388.02" y2="184.31"/>
  <line class="cls-9" x1="257.19" y1="106.66" x2="233.86" y2="106.7"/>
  <rect id="TP42" class="cls-1" x="147.15" y="220.35" width="57.73" height="91.57"/>
  <polygon id="TP44" class="cls-1" points="146.6 314.25 146.6 349.79 149.91 349.79 149.91 370.68 205.04 370.68 204.89 314.25 146.6 314.25"/>
  <rect id="TP404" class="cls-1" x="171.49" y="403.4" width="32.64" height="26.66"/>
  <rect id="TP403" class="cls-1" x="242.75" y="401.56" width="30.74" height="28.5"/>
  <rect id="TP402" class="cls-1" x="275.85" y="401.56" width="31.67" height="28.5"/>
  <rect id="TP401" class="cls-1" x="309.29" y="401.56" width="31.84" height="28.5"/>
  <rect id="TP45" class="cls-1" x="375.55" y="332.99" width="58.58" height="56.61"/>
  <rect id="TP43" class="cls-1" x="375.55" y="276.64" width="58.58" height="53.99"/>
  <rect id="TP41" class="cls-1" x="375.55" y="217.53" width="58.58" height="56.74"/>
  <text class="cls-14" transform="translate(160.22 271.89)"><tspan x="0" y="0">TP42</tspan></text>
  <text class="cls-14" transform="translate(160.63 347.04)"><tspan x="0" y="0">TP44</tspan></text>
  <text class="cls-12" transform="translate(171.94 420.54)"><tspan x="0" y="0">TP404</tspan></text>
  <text class="cls-12" transform="translate(242.75 420.88)"><tspan x="0" y="0">TP403</tspan></text>
  <text class="cls-12" transform="translate(276.34 421.25)"><tspan x="0" y="0">TP402</tspan></text>
  <text class="cls-12" transform="translate(310.01 421.62)"><tspan x="0" y="0">TP401</tspan></text>
  <text class="cls-14" transform="translate(388.03 366.82)"><tspan x="0" y="0">TP45</tspan></text>
  <text class="cls-14" transform="translate(388.03 308.72)"><tspan x="0" y="0">TP43</tspan></text>
  <text class="cls-14" transform="translate(388.03 251.59)"><tspan x="0" y="0">TP41</tspan></text>
  <polygon id="TP4003" class="cls-1" points="8.49 163.5 62.15 163.55 62.49 217.45 4.43 217.45 8.49 163.5"/>
  <polygon id="TP4004" class="cls-1" points="8.64 161.37 62.15 161.37 62.01 103.64 12.9 104.13 8.64 161.37"/>
  <polygon id="TP4005" class="cls-1" points="13.19 101.9 62.15 101.42 61.96 39.05 18.03 38.81 13.19 101.9"/>
  <polygon id="TP4009" class="cls-1" points="78.38 98.87 117.41 98.68 117.54 108.03 127.03 108.03 127.03 140.87 78.38 140.87 78.38 98.87"/>
  <polygon class="cls-1" points="177.54 108.1 232.72 108.03 232.72 163.31 177.22 163.31 177.54 108.1"/>
  <polygon class="cls-1" points="235.18 108.1 288.86 108.03 288.87 163.27 234.86 163.27 235.18 108.1"/>
  <polygon class="cls-1" points="292.12 108.03 322.06 108.03 322.06 135 291.67 135 292.12 108.03"/>
  <polygon class="cls-1" points="324.42 108.04 354.96 108.04 354.96 135 323.96 135 324.42 108.04"/>
  <polygon id="TP4041" class="cls-1" points="380.22 98.29 434.77 98.29 434.77 156.87 379.4 156.87 380.22 98.29"/>
  <polygon id="TP4040" class="cls-1" points="380.87 34.55 434.77 34.55 434.77 94.93 380.06 94.93 380.87 34.55"/>
  <polygon id="TP4030" class="cls-1" points="324.38 63.71 355.61 63.64 355.35 4.29 324.38 4.29 324.38 63.71"/>
  <polygon id="TP4029" class="cls-1" points="277.54 63.96 322.18 63.87 321.87 4.52 277.59 4.54 277.54 63.96"/>
  <polygon id="TP4028" class="cls-1" points="211.12 63.55 274.15 63.42 273.75 4.49 211.25 4.56 211.12 63.55"/>
  <polygon id="TP4027" class="cls-1" points="146.09 63.71 208.82 63.58 208.43 4.92 146.22 4.98 146.09 63.71"/>
  <rect id="TP4008" class="cls-8" x="77.17" y="38.81" width="40.21" height="34.83"/>
  <text class="cls-13" transform="translate(16.06 194.91)"><tspan x="0" y="0">TP4003</tspan></text>
  <text class="cls-13" transform="translate(17.28 137.89)"><tspan x="0" y="0">TP4004</tspan></text>
  <text class="cls-13" transform="translate(19.25 75.18)"><tspan x="0" y="0">TP4005</tspan></text>
  <text class="cls-13" transform="translate(82.32 126.38)"><tspan x="0" y="0">TP4009</tspan></text>
  <text id="TP4008" class="cls-12" transform="translate(79.4 61.14)"><tspan x="0" y="0">TP4008</tspan></text>
  <text class="cls-13" transform="translate(185.81 139.87)"><tspan x="0" y="0">TP4035</tspan></text>
  <text class="cls-13" transform="translate(242.73 140.38)"><tspan x="0" y="0">TP4034</tspan></text>
  <text class="cls-11" transform="translate(293.45 125.99)"><tspan x="0" y="0">TP4033</tspan></text>
  <text class="cls-11" transform="translate(326.17 125.99)"><tspan x="0" y="0">TP4032</tspan></text>
  <text class="cls-13" transform="translate(387.06 134.14)"><tspan x="0" y="0">TP4041</tspan></text>
  <text class="cls-13" transform="translate(387.24 69.18)"><tspan x="0" y="0">TP4040</tspan></text>
  <text class="cls-11" transform="translate(326.17 42.46)"><tspan x="0" y="0">TP4030</tspan></text>
  <text class="cls-13" transform="translate(279.35 42.92)"><tspan x="0" y="0">TP4029</tspan></text>
  <text class="cls-13" transform="translate(222.34 42.82)"><tspan x="0" y="0">TP4028</tspan></text>
  <text class="cls-13" transform="translate(157.07 43.29)"><tspan x="0" y="0">TP4027</tspan></text>
  <path class="cls-15" d="M314.3,171.18v11.93c0,.1,.06,.18,.13,.18h5.34c.07,0,.13-.08,.13-.18v-11.93c0-.1-.06-.18-.13-.18h-5.34c-.07,0-.13,.08-.13,.18Zm4.8,11.73h-1.83v-8.09c0-.1-.06-.18-.13-.18s-.13,.08-.13,.18v8.09h-1.96v-8.57h4.05v8.57Zm.53,0h-.27v-8.76c0-.1-.06-.18-.13-.18h-4.31c-.07,0-.13,.08-.13,.18v8.76h-.22v-9.31h5.07v9.31Zm.01-11.55v1.88h-5.08v-1.88h5.08Z"/>
  <path class="cls-15" d="M316.05,172.87h2.18c.07,0,.13-.08,.13-.18v-.85c0-.1-.06-.18-.13-.18h-2.18c-.07,0-.13,.08-.13,.18v.85c0,.1,.06,.18,.13,.18Zm.13-.85h1.92v.48h-1.92v-.48Z"/>
  <path class="cls-15" d="M303.05,171.18v11.93c0,.1,.05,.18,.11,.18h4.57c.06,0,.11-.08,.11-.18v-11.93c0-.1-.05-.18-.11-.18h-4.57c-.06,0-.11,.08-.11,.18Zm4.1,11.73h-1.57v-8.09c0-.1-.05-.18-.11-.18s-.11,.08-.11,.18v8.09h-1.68v-8.57h3.47v8.57Zm.46,0h-.23v-8.76c0-.1-.05-.18-.11-.18h-3.69c-.06,0-.11,.08-.11,.18v8.76h-.19v-9.31h4.34v9.31Zm.01-11.55v1.88h-4.35v-1.88h4.35Z"/>
  <path class="cls-15" d="M304.54,172.87h1.87c.06,0,.11-.08,.11-.18v-.85c0-.1-.05-.18-.11-.18h-1.87c-.06,0-.11,.08-.11,.18v.85c0,.1,.05,.18,.11,.18Zm.11-.85h1.64v.48h-1.64v-.48Z"/>
  <path class="cls-15" d="M399.62,403.33v13.14c0,.11,.1,.2,.22,.2h9.04c.12,0,.22-.09,.22-.2v-13.14c0-.11-.1-.2-.22-.2h-9.04c-.12,0-.22,.09-.22,.2Zm8.12,12.92h-3.1v-8.9c0-.11-.1-.2-.22-.2s-.22,.09-.22,.2v8.9h-3.32v-9.44h6.86v9.44Zm.9,0h-.46v-9.64c0-.11-.1-.2-.22-.2h-7.3c-.12,0-.22,.09-.22,.2v9.64h-.37v-10.26h8.58v10.26Zm.02-12.72v2.07h-8.6v-2.07h8.6Z"/>
  <path class="cls-15" d="M402.57,405.2h3.69c.12,0,.22-.09,.22-.2v-.93c0-.11-.1-.2-.22-.2h-3.69c-.12,0-.22,.09-.22,.2v.93c0,.11,.1,.2,.22,.2Zm.22-.93h3.25v.53h-3.25v-.53Z"/>
  <path class="cls-15" d="M326.36,178.61l3.19,.02,13.77,.09h.03c.14,0,.26-.08,.26-.19l.05-7.8c0-.11-.11-.19-.26-.19l-16.98-.11c-.14,0-.26,.08-.26,.19l-.05,7.8c0,.11,.11,.19,.26,.19Zm16.74-6.89l-.02,2.68-11.51-.08c-.14,0-.26,.08-.26,.19s.11,.19,.26,.19l11.51,.08-.02,2.86-12.2-.08,.04-5.92,12.2,.08Zm0-.78v.4s-12.46-.08-12.46-.08c-.14,0-.26,.08-.26,.19l-.04,6.3c0,.11,.11,.19,.26,.19l12.46,.08v.32s-13.26-.09-13.26-.09l.05-7.4,13.25,.09Zm-16.44-.13l2.67,.02-.05,7.42-2.67-.02,.05-7.42Z"/>
  <path class="cls-15" d="M328.8,176.09l.02-3.19c0-.11-.11-.19-.26-.19h-1.2c-.14,0-.26,.08-.26,.18l-.02,3.19c0,.11,.11,.19,.26,.19h1.2c.14,0,.26-.08,.26-.18Zm-1.2-.2l.02-2.81h.69s-.02,2.81-.02,2.81h-.69Z"/>
  <polyline class="cls-9" points="129.34 50.97 129.41 64.71 119.43 64.74"/>
  <g>
    <ellipse class="cls-15" cx="127.09" cy="44.09" rx=".6" ry=".57"/>
    <path class="cls-15" d="M128.03,44.8h-1.88c-.29,0-.53,.22-.53,.5v1.86c0,.28,.24,.5,.53,.5h0v-2.18s.03-.07,.08-.07h.04v4.99c0,.19,.16,.34,.36,.34s.36-.15,.36-.34v-2.63c0-.06,.05-.11,.11-.11s.11,.05,.11,.11v2.63c0,.19,.16,.34,.36,.34s.36-.15,.36-.34v-4.99h.04s.08,.03,.08,.07v2.18h0c.29,0,.53-.22,.53-.5v-1.86c0-.28-.24-.5-.53-.5Z"/>
    <g>
      <ellipse class="cls-15" cx="121.99" cy="44.09" rx=".6" ry=".57"/>
      <path class="cls-15" d="M122.78,45.47l.5,2.14c.28-.06,.47-.33,.4-.6l-.43-1.81c-.03-.13-.12-.24-.23-.31-.06-.04-.13-.06-.21-.07-.04,0-.09,0-.13,0h-1.4s-.06,0-.09,0c-.09,0-.17,.03-.25,.07-.11,.07-.2,.18-.23,.31l-.43,1.81c-.06,.27,.12,.54,.4,.6l.5-2.14s.04-.06,.07-.06h.05l-.16,.67-.6,2.55h.6v1.77c0,.09,.04,.18,.1,.24,.06,.06,.15,.1,.25,.1,.2,0,.36-.15,.36-.34v-1.77h.23v1.77c0,.09,.04,.18,.1,.24,.06,.06,.15,.1,.25,.1,.2,0,.36-.15,.36-.34v-1.77h.6l-.6-2.55-.16-.67h.05s.07,.02,.07,.06Z"/>
    </g>
    <rect class="cls-15" x="124.38" y="43.34" width=".3" height="7.58" rx=".15" ry=".15"/>
  </g>
  <g>
    <ellipse class="cls-15" cx="417" cy="166.29" rx="1.05" ry=".95"/>
    <path class="cls-15" d="M418.63,167.48h-3.27c-.51,0-.91,.37-.91,.83v3.08c0,.46,.41,.83,.91,.83h0v-3.61c0-.07,.06-.12,.13-.12h.07v8.25c0,.31,.28,.56,.62,.56s.62-.25,.62-.56v-4.35c0-.1,.09-.18,.2-.18s.2,.08,.2,.18v4.35c0,.31,.28,.56,.62,.56s.62-.25,.62-.56v-8.25h.07c.07,0,.13,.05,.13,.12v3.61h0c.51,0,.91-.37,.91-.83v-3.08c0-.46-.41-.83-.91-.83Z"/>
    <g>
      <ellipse class="cls-15" cx="408.15" cy="166.29" rx="1.05" ry=".95"/>
      <path class="cls-15" d="M409.53,168.57l.87,3.55c.49-.1,.81-.55,.7-1l-.75-3c-.06-.22-.21-.4-.4-.52-.11-.06-.23-.1-.36-.11-.07,0-.15-.01-.23-.01h-2.42c-.05,0-.11,0-.16,0-.16,.01-.3,.05-.43,.12-.2,.11-.35,.3-.4,.52l-.75,3c-.11,.45,.2,.9,.7,1l.87-3.55c.01-.05,.07-.09,.13-.09h.09l-.27,1.1-1.05,4.22h1.05v2.93c0,.15,.07,.3,.18,.4,.11,.1,.27,.16,.44,.16,.34,0,.62-.25,.62-.56v-2.93h.39v2.93c0,.15,.07,.3,.18,.4,.11,.1,.27,.16,.44,.16,.34,0,.62-.25,.62-.56v-2.93h1.05l-1.05-4.22-.27-1.1h.09c.06,0,.11,.04,.13,.09Z"/>
    </g>
    <rect class="cls-15" x="412.29" y="165.05" width=".52" height="12.54" rx=".23" ry=".23"/>
  </g>
  <g>
    <ellipse class="cls-15" cx="383.2" cy="398.78" rx=".93" ry=".89"/>
    <path class="cls-15" d="M384.66,399.9h-2.91c-.45,0-.82,.35-.82,.78v2.91c0,.43,.37,.78,.82,.78h0v-3.41c0-.06,.05-.11,.12-.11h.06v7.8c0,.29,.25,.53,.55,.53s.55-.24,.55-.53v-4.11c0-.09,.08-.17,.17-.17s.17,.08,.17,.17v4.11c0,.29,.25,.53,.55,.53s.55-.24,.55-.53v-7.8h.06c.06,0,.12,.05,.12,.11v3.41h0c.45,0,.82-.35,.82-.78v-2.91c0-.43-.37-.78-.82-.78Z"/>
    <g>
      <ellipse class="cls-15" cx="375.3" cy="398.78" rx=".93" ry=".89"/>
      <path class="cls-15" d="M376.53,400.93l.78,3.35c.44-.09,.72-.52,.62-.95l-.67-2.84c-.05-.21-.18-.38-.36-.49-.1-.06-.21-.09-.32-.11-.06,0-.13-.01-.2-.01h-2.16s-.1,0-.14,0c-.14,.01-.27,.04-.38,.11-.18,.11-.31,.28-.36,.49l-.67,2.84c-.1,.42,.18,.85,.62,.95l.78-3.35c.01-.05,.06-.09,.11-.09h.08l-.24,1.04-.93,3.99h.93v2.77c0,.15,.06,.28,.16,.38,.1,.1,.24,.16,.39,.16,.31,0,.55-.24,.55-.53v-2.77h.35v2.77c0,.15,.06,.28,.16,.38,.1,.1,.24,.16,.39,.16,.31,0,.55-.24,.55-.53v-2.77h.93l-.93-3.99-.24-1.04h.08c.05,0,.1,.04,.11,.09Z"/>
    </g>
    <rect class="cls-15" x="379" y="397.6" width=".47" height="11.85" rx=".23" ry=".23"/>
  </g>
  <g>
    <ellipse class="cls-15" cx="199.04" cy="377.38" rx=".93" ry=".89"/>
    <path class="cls-15" d="M200.5,378.5h-2.91c-.45,0-.82,.35-.82,.78v2.91c0,.43,.37,.78,.82,.78h0v-3.41c0-.06,.05-.11,.12-.11h.06v7.8c0,.29,.25,.53,.55,.53s.55-.24,.55-.53v-4.11c0-.09,.08-.17,.17-.17s.17,.08,.17,.17v4.11c0,.29,.25,.53,.55,.53s.55-.24,.55-.53v-7.8h.06c.06,0,.12,.05,.12,.11v3.41h0c.45,0,.82-.35,.82-.78v-2.91c0-.43-.37-.78-.82-.78Z"/>
    <g>
      <ellipse class="cls-15" cx="191.14" cy="377.38" rx=".93" ry=".89"/>
      <path class="cls-15" d="M192.37,379.54l.78,3.35c.44-.09,.72-.52,.62-.95l-.67-2.84c-.05-.21-.18-.38-.36-.49-.1-.06-.21-.09-.32-.11-.06,0-.13-.01-.2-.01h-2.16s-.1,0-.14,0c-.14,.01-.27,.04-.38,.11-.18,.11-.31,.28-.36,.49l-.67,2.84c-.1,.42,.18,.85,.62,.95l.78-3.35c.01-.05,.06-.09,.11-.09h.08l-.24,1.04-.93,3.99h.93v2.77c0,.15,.06,.28,.16,.38,.1,.1,.24,.16,.39,.16,.31,0,.55-.24,.55-.53v-2.77h.35v2.77c0,.15,.06,.28,.16,.38,.1,.1,.24,.16,.39,.16,.31,0,.55-.24,.55-.53v-2.77h.93l-.93-3.99-.24-1.04h.08c.05,0,.1,.04,.11,.09Z"/>
    </g>
    <rect class="cls-15" x="194.84" y="376.21" width=".47" height="11.85" rx=".23" ry=".23"/>
  </g>
  <g>
    <ellipse class="cls-15" cx="164.25" cy="166.92" rx=".93" ry=".89"/>
    <path class="cls-15" d="M165.71,168.04h-2.91c-.45,0-.82,.35-.82,.78v2.91c0,.43,.37,.78,.82,.78h0v-3.41c0-.06,.05-.11,.12-.11h.06v7.8c0,.29,.25,.53,.55,.53s.55-.24,.55-.53v-4.11c0-.09,.08-.17,.17-.17s.17,.08,.17,.17v4.11c0,.29,.25,.53,.55,.53s.55-.24,.55-.53v-7.8h.06c.06,0,.12,.05,.12,.11v3.41h0c.45,0,.82-.35,.82-.78v-2.91c0-.43-.37-.78-.82-.78Z"/>
    <g>
      <ellipse class="cls-15" cx="156.35" cy="166.92" rx=".93" ry=".89"/>
      <path class="cls-15" d="M157.58,169.08l.78,3.35c.44-.09,.72-.52,.62-.95l-.67-2.84c-.05-.21-.18-.38-.36-.49-.1-.06-.21-.09-.32-.11-.06,0-.13-.01-.2-.01h-2.16s-.1,0-.14,0c-.14,.01-.27,.04-.38,.11-.18,.11-.31,.28-.36,.49l-.67,2.84c-.1,.42,.18,.85,.62,.95l.78-3.35c.01-.05,.06-.09,.11-.09h.08l-.24,1.04-.93,3.99h.93v2.77c0,.15,.06,.28,.16,.38,.1,.1,.24,.16,.39,.16,.31,0,.55-.24,.55-.53v-2.77h.35v2.77c0,.15,.06,.28,.16,.38,.1,.1,.24,.16,.39,.16,.31,0,.55-.24,.55-.53v-2.77h.93l-.93-3.99-.24-1.04h.08c.05,0,.1,.04,.11,.09Z"/>
    </g>
    <rect class="cls-15" x="160.05" y="165.75" width=".47" height="11.85" rx=".23" ry=".23"/>
  </g>
  <line class="cls-10" x1="101.52" y1="175.18" x2="101.64" y2="165.33"/>
  <line class="cls-10" x1="102.68" y1="174.71" x2="102.8" y2="164.86"/>
  <line class="cls-10" x1="104.27" y1="174.74" x2="104.39" y2="164.89"/>
  <line class="cls-10" x1="105.34" y1="175" x2="105.46" y2="165.15"/>
  <line class="cls-10" x1="106.93" y1="175.03" x2="107.05" y2="165.18"/>
  <line class="cls-10" x1="108.09" y1="174.56" x2="108.2" y2="165.4"/>
  <line class="cls-10" x1="109.68" y1="174.59" x2="109.79" y2="165.43"/>
  <line class="cls-10" x1="110.88" y1="175.13" x2="110.99" y2="165.28"/>
  <line class="cls-10" x1="112.46" y1="175.16" x2="112.58" y2="165.31"/>
  <line class="cls-10" x1="113.62" y1="174.69" x2="113.73" y2="165.38"/>
  <line class="cls-10" x1="115.21" y1="174.72" x2="115.32" y2="165.45"/>
  <line class="cls-10" x1="117.62" y1="175.03" x2="117.74" y2="165.18"/>
  <line class="cls-10" x1="116.37" y1="175.19" x2="116.49" y2="165.34"/>
  <polyline class="cls-2" points="118.13 174.83 100.62 174.64 100.54 183.19"/>
  <line class="cls-6" x1="114.31" y1="176.02" x2="114.31" y2="175.98"/>
  <line class="cls-10" x1="102.61" y1="184.07" x2="102.72" y2="174.21"/>
  <line class="cls-10" x1="104.19" y1="184.09" x2="104.31" y2="174.24"/>
  <line class="cls-10" x1="105.27" y1="184.36" x2="105.38" y2="174.5"/>
  <line class="cls-10" x1="106.85" y1="184.38" x2="106.97" y2="174.53"/>
  <line class="cls-10" x1="108.01" y1="183.92" x2="108.12" y2="174.76"/>
  <line class="cls-10" x1="109.6" y1="183.94" x2="109.71" y2="174.78"/>
  <line class="cls-10" x1="110.8" y1="184.49" x2="110.91" y2="174.63"/>
  <line class="cls-10" x1="112.38" y1="184.51" x2="112.5" y2="174.66"/>
  <line class="cls-10" x1="113.55" y1="184.05" x2="113.65" y2="174.73"/>
  <line class="cls-10" x1="115.13" y1="184.07" x2="115.24" y2="174.8"/>
  <line class="cls-10" x1="117.55" y1="184.38" x2="117.66" y2="174.53"/>
  <line class="cls-10" x1="116.29" y1="184.55" x2="116.41" y2="174.69"/>
  <line class="cls-10" x1="101.36" y1="170.05" x2="119.37" y2="170.38"/>
  <polygon class="cls-3" points="118.94 171.19 120.05 170.4 118.98 169.52 118.94 171.19"/>
  <line class="cls-10" x1="117.77" y1="178.71" x2="101.63" y2="178.66"/>
  <polygon class="cls-3" points="102.01 177.84 101.02 178.65 101.99 179.51 102.01 177.84"/>
</svg>
