<svg id="Lager_2" data-name="Lager 2" xmlns="http://www.w3.org/2000/svg" viewBox="0 0 438.98 432.55">
  <defs>
    <style>
      .cls-1, .cls-2, .cls-3, .cls-4, .cls-5, .cls-6 {
        fill: none;
      }

      .cls-1, .cls-2, .cls-4, .cls-5, .cls-6 {
        stroke: #000;
        stroke-miterlimit: 10;
      }

      .cls-1 {
        stroke-width: 4px;
      }

      .cls-2 {
        stroke-width: 2px;
      }

      .cls-4 {
        stroke-width: 3px;
      }

      .cls-5 {
        stroke-width: 0.75px;
      }

      .cls-6 {
        stroke-width: 0.25px;
      }

      .cls-7 {
        fill: #fff;
      }

      .cls-8 {
        font-size: 13px;
      }

      .cls-10, .cls-11, .cls-8, .cls-9 {
        font-family: MyriadPro-Regular, Myriad Pro;
      }

      .cls-9 {
        font-size: 16px;
      }

      .cls-10 {
        font-size: 12px;
      }

      .cls-11 {
        font-size: 9px;
      }
    </style>
  </defs>
  <line class="cls-1" x1="145.32" y1="217.57" x2="143.88" y2="353.59"/>
  <polyline class="cls-2" points="149.38 382.13 149.38 431.02 437.08 431.55 437.1 391.18"/>
  <line class="cls-1" x1="436.38" y1="391.47" x2="436.38" y2="215.68"/>
  <polyline class="cls-1" points="436.38 215.68 431.19 215.68 431.19 183.57 436.98 183.57 436.98 2 18.64 2.9 2.16 219.54 145.05 219.54 144.36 352.19 148.17 352.19 148.17 381.75 148.17 383.15"/>
  <line class="cls-2" x1="8.19" y1="162.46" x2="63.19" y2="162.46"/>
  <polyline class="cls-2" points="63.2 162.46 63.36 121.82 63.2 166.33"/>
  <line class="cls-2" x1="10.94" y1="103.01" x2="63.19" y2="102.43"/>
  <polyline class="cls-2" points="63.2 102.43 63.07 112.31 63.36 96.93"/>
  <polyline class="cls-2" points="63.22 81.89 63.07 38.01 16.06 37.73"/>
  <line class="cls-2" x1="63.36" y1="175.12" x2="63.53" y2="219.26"/>
  <line class="cls-2" x1="97.13" y1="183.97" x2="129.16" y2="183.97"/>
  <polyline class="cls-2" points="128.12 184.37 128.12 164.71 76.31 164.28 76.03 183.14 87.13 183.47"/>
  <polyline class="cls-2" points="103.15 164.28 102.47 141.98 128.12 141.98 128.12 106.87 118.68 106.87 118.38 97.44 110.88 97.44"/>
  <polyline class="cls-2" points="102.47 141.98 77.17 141.95 77.27 97.75 101.13 97.75"/>
  <line class="cls-2" x1="77.17" y1="141.95" x2="77.27" y2="148.47"/>
  <line class="cls-2" x1="76.36" y1="164.28" x2="76.14" y2="156.75"/>
  <line class="cls-3" x1="145.31" y1="218.5" x2="145.31" y2="218.5"/>
  <line class="cls-2" x1="206.02" y1="219.06" x2="206.12" y2="218.75"/>
  <polyline class="cls-2" points="145.31 218.5 206.12 218.75 206.19 243.06"/>
  <polyline class="cls-2" points="144.56 313.27 206.19 313.27 206.27 357.98 206.27 306.76"/>
  <line class="cls-2" x1="206.27" y1="402.19" x2="169.1" y2="402.22"/>
  <line class="cls-2" x1="205.54" y1="430.98" x2="205.36" y2="411.47"/>
  <line class="cls-2" x1="169.71" y1="430.98" x2="170.04" y2="402.37"/>
  <line class="cls-2" x1="172.55" y1="383.06" x2="149.8" y2="382.9"/>
  <line class="cls-2" x1="206.45" y1="299.26" x2="206.45" y2="249.49"/>
  <polyline class="cls-2" points="308.4 431.31 308.4 400.27 321.82 400.27"/>
  <polyline class="cls-2" points="241.58 430.98 241.58 400.27 264.05 400.27"/>
  <line class="cls-2" x1="207.11" y1="254.59" x2="145.48" y2="254.26"/>
  <polyline class="cls-2" points="274.54 430.98 274.53 400.27 296.16 400.27"/>
  <line class="cls-2" x1="274.53" y1="400.27" x2="269.51" y2="400.27"/>
  <polygon class="cls-1" points="325.12 375.66 325.12 356.81 340.01 356.81 339 252.77 273.16 252.77 270.2 265.49 240.95 266.13 239.58 356.27 258.14 356.81 258.08 375.73 325.12 375.66"/>
  <polyline class="cls-4" points="339 252.77 339.23 227.67 278.04 227.81 273.16 252.77"/>
  <polyline class="cls-2" points="176.09 183.97 144.36 183.97 144.36 175.69"/>
  <g>
    <polyline class="cls-2" points="321.22 183.97 321.16 168.89 313.03 168.92 313.03 183.97 309.05 183.97 309.05 169.13 302.06 169.13 302.06 183.97 176.09 183.97 176.11 157.31 144.36 157.31 144.36 168.42 144.21 142.65"/>
    <polyline class="cls-2" points="176.49 164.28 339.71 165.01 339.82 153.39 357.32 153.39 357.32 158.17 346.49 157.96 346.62 169.13 324.52 169.05 324.52 180.19 343.98 180.19 343.98 184.37"/>
  </g>
  <line class="cls-2" x1="321.22" y1="182.74" x2="321.22" y2="182.74"/>
  <line class="cls-2" x1="321.22" y1="182.74" x2="321.22" y2="184.92"/>
  <line class="cls-2" x1="321.22" y1="183.97" x2="344.96" y2="183.83"/>
  <polyline class="cls-2" points="356.04 146.17 356.04 106.84 350.96 106.84"/>
  <polyline class="cls-2" points="356.16 136.1 290.38 136.1 291.04 106.84 312.39 106.84"/>
  <polyline class="cls-2" points="323.27 136.19 323.27 106.84 345.46 106.84 318.3 106.84"/>
  <line class="cls-2" x1="290.38" y1="136.1" x2="290.05" y2="164.79"/>
  <line class="cls-2" x1="291.04" y1="106.84" x2="267.71" y2="106.52"/>
  <polyline class="cls-2" points="233.58 164.53 233.86 106.87 210.38 106.97"/>
  <polyline class="cls-2" points="176.11 157.31 176.49 106.97 202.15 107.22 172.6 106.84"/>
  <polyline class="cls-2" points="176.02 132.07 144.21 132.24 144.36 106.97 166.15 106.97"/>
  <line class="cls-2" x1="144.21" y1="132.24" x2="144.21" y2="137.52"/>
  <polyline class="cls-2" points="53.09 3.45 53.09 27.86 84.97 27.36 84.97 3.86"/>
  <polyline class="cls-2" points="84.97 27.36 129.33 26.97 129.34 22.48"/>
  <line class="cls-2" x1="129.47" y1="16.41" x2="129.47" y2="3.86"/>
  <polyline class="cls-2" points="76.09 27.12 76.09 74.81 100.97 74.72"/>
  <line class="cls-2" x1="76.77" y1="38.34" x2="129.27" y2="38.24"/>
  <polyline class="cls-2" points="118.39 38.81 118.56 74.81 109.49 74.81"/>
  <polyline class="cls-2" points="144.21 3.21 145.05 64.74 149.31 64.77"/>
  <line class="cls-2" x1="158.05" y1="64.77" x2="214.54" y2="64.65"/>
  <line class="cls-2" x1="210.09" y1="64.65" x2="209.89" y2="3.86"/>
  <line class="cls-2" x1="222.67" y1="64.74" x2="280.05" y2="64.74"/>
  <line class="cls-2" x1="275.24" y1="2.66" x2="276.2" y2="64.12"/>
  <line class="cls-2" x1="289.06" y1="64.65" x2="338.85" y2="64.74"/>
  <line class="cls-2" x1="323.27" y1="64.65" x2="323.27" y2="3.86"/>
  <polyline class="cls-2" points="347.82 64.65 356.7 64.65 356.43 2.78"/>
  <line class="cls-2" x1="387.68" y1="2.44" x2="387.86" y2="22.08"/>
  <polyline class="cls-2" points="436.64 33.39 377.95 33.39 377.96 64.65 377.95 65.69"/>
  <polyline class="cls-4" points="436.94 96.45 378.27 96.45 377.95 79.52"/>
  <polyline class="cls-2" points="436.98 158.23 378.27 158.03 378.27 106.68"/>
  <line class="cls-4" x1="436.38" y1="159.93" x2="377.32" y2="159.93"/>
  <line class="cls-4" x1="388.02" y1="159.93" x2="388.02" y2="169.41"/>
  <path class="cls-4" d="M506.22,389l-43.61-.29" transform="translate(-75.62 -205.92)"/>
  <polyline class="cls-2" points="430.57 216.34 374 216.34 374 235.52"/>
  <polyline class="cls-2" points="435.6 275.31 374.48 275.42 374.06 241.24 374.23 284.02"/>
  <polyline class="cls-2" points="436.38 331.9 374.56 331.9 374.06 290.19"/>
  <line class="cls-2" x1="374.56" y1="331.9" x2="374.48" y2="338.94"/>
  <polyline class="cls-2" points="436.57 390.47 370.74 390.47 370.74 394.69"/>
  <line class="cls-2" x1="374.99" y1="346.73" x2="374.51" y2="390.47"/>
  <line class="cls-2" x1="387.44" y1="390.47" x2="387.38" y2="415.79"/>
  <line class="cls-2" x1="398.3" y1="401.53" x2="398.21" y2="390.47"/>
  <line class="cls-5" x1="387.44" y1="390.47" x2="398.3" y2="415.71"/>
  <polyline class="cls-5" points="420.94 416.91 420.77 401.53 427.16 401.53 427.16 416.91"/>
  <line class="cls-6" x1="420.93" y1="416.58" x2="410.77" y2="416.47"/>
  <line class="cls-6" x1="420.94" y1="416.15" x2="410.77" y2="416.04"/>
  <line class="cls-6" x1="420.93" y1="415.72" x2="410.77" y2="415.61"/>
  <line class="cls-6" x1="420.93" y1="415.29" x2="410.77" y2="415.18"/>
  <line class="cls-6" x1="420.93" y1="414.86" x2="410.77" y2="414.75"/>
  <line class="cls-6" x1="420.93" y1="414.43" x2="410.77" y2="414.32"/>
  <line class="cls-6" x1="420.93" y1="414.01" x2="410.76" y2="413.9"/>
  <line class="cls-6" x1="420.93" y1="413.58" x2="410.77" y2="413.47"/>
  <line class="cls-6" x1="420.98" y1="413.15" x2="410.81" y2="413.04"/>
  <line class="cls-6" x1="420.98" y1="412.72" x2="410.82" y2="412.61"/>
  <line class="cls-6" x1="420.97" y1="412.29" x2="410.81" y2="412.18"/>
  <line class="cls-6" x1="420.98" y1="411.86" x2="410.81" y2="411.75"/>
  <line class="cls-6" x1="421" y1="411.43" x2="410.84" y2="411.32"/>
  <line class="cls-6" x1="421" y1="411.01" x2="410.84" y2="410.89"/>
  <line class="cls-6" x1="421" y1="410.58" x2="410.83" y2="410.47"/>
  <line class="cls-6" x1="421" y1="410.15" x2="410.84" y2="410.04"/>
  <line class="cls-6" x1="421" y1="409.72" x2="410.83" y2="409.61"/>
  <line class="cls-6" x1="421" y1="409.29" x2="410.84" y2="409.18"/>
  <line class="cls-6" x1="420.99" y1="408.86" x2="410.83" y2="408.75"/>
  <line class="cls-6" x1="421" y1="408.43" x2="410.83" y2="408.32"/>
  <line class="cls-6" x1="421.04" y1="408" x2="410.88" y2="407.89"/>
  <line class="cls-6" x1="421.05" y1="407.58" x2="410.88" y2="407.46"/>
  <line class="cls-6" x1="421.04" y1="407.15" x2="410.88" y2="407.04"/>
  <line class="cls-6" x1="421.04" y1="406.72" x2="410.88" y2="406.61"/>
  <line class="cls-6" x1="421.02" y1="406.29" x2="410.86" y2="406.18"/>
  <line class="cls-6" x1="421.03" y1="405.86" x2="410.86" y2="405.75"/>
  <line class="cls-6" x1="421.02" y1="405.43" x2="410.86" y2="405.32"/>
  <line class="cls-6" x1="421.02" y1="405" x2="410.86" y2="404.89"/>
  <line class="cls-6" x1="421.02" y1="404.58" x2="410.85" y2="404.46"/>
  <line class="cls-6" x1="421.02" y1="404.15" x2="410.86" y2="404.04"/>
  <line class="cls-6" x1="421.02" y1="403.72" x2="410.85" y2="403.61"/>
  <line class="cls-6" x1="421.02" y1="403.29" x2="410.86" y2="403.18"/>
  <line class="cls-6" x1="421.06" y1="402.86" x2="410.9" y2="402.75"/>
  <line class="cls-6" x1="421.06" y1="402.5" x2="410.9" y2="402.39"/>
  <line class="cls-6" x1="421.05" y1="402.14" x2="410.89" y2="402.03"/>
  <line class="cls-6" x1="421.06" y1="401.78" x2="410.9" y2="401.67"/>
  <line class="cls-6" x1="421.07" y1="401.42" x2="410.91" y2="401.31"/>
  <line class="cls-6" x1="437.09" y1="416.52" x2="426.93" y2="416.6"/>
  <line class="cls-6" x1="437.09" y1="416.09" x2="426.93" y2="416.17"/>
  <line class="cls-6" x1="437.08" y1="415.67" x2="426.91" y2="415.74"/>
  <line class="cls-6" x1="437.07" y1="415.24" x2="426.91" y2="415.31"/>
  <line class="cls-6" x1="437.06" y1="414.81" x2="426.9" y2="414.89"/>
  <line class="cls-6" x1="437.06" y1="414.38" x2="426.89" y2="414.46"/>
  <line class="cls-6" x1="437.04" y1="413.95" x2="426.88" y2="414.03"/>
  <line class="cls-6" x1="437.04" y1="413.52" x2="426.87" y2="413.6"/>
  <line class="cls-6" x1="437.07" y1="413.09" x2="426.91" y2="413.17"/>
  <line class="cls-6" x1="437.07" y1="412.66" x2="426.91" y2="412.74"/>
  <line class="cls-6" x1="437.06" y1="412.24" x2="426.89" y2="412.31"/>
  <line class="cls-6" x1="437.05" y1="411.81" x2="426.89" y2="411.88"/>
  <line class="cls-6" x1="437.07" y1="411.38" x2="426.9" y2="411.45"/>
  <line class="cls-6" x1="437.06" y1="410.95" x2="426.9" y2="411.03"/>
  <line class="cls-6" x1="437.05" y1="410.52" x2="426.89" y2="410.6"/>
  <line class="cls-6" x1="437.05" y1="410.09" x2="426.88" y2="410.17"/>
  <line class="cls-6" x1="437.03" y1="409.66" x2="426.87" y2="409.74"/>
  <line class="cls-6" x1="437.03" y1="409.24" x2="426.86" y2="409.31"/>
  <line class="cls-6" x1="437.01" y1="408.81" x2="426.85" y2="408.88"/>
  <line class="cls-6" x1="437.01" y1="408.38" x2="426.85" y2="408.45"/>
  <line class="cls-6" x1="437.05" y1="407.95" x2="426.88" y2="408.03"/>
  <line class="cls-6" x1="437.04" y1="407.52" x2="426.88" y2="407.6"/>
  <line class="cls-6" x1="437.03" y1="407.09" x2="426.87" y2="407.17"/>
  <line class="cls-6" x1="437.03" y1="406.66" x2="426.86" y2="406.74"/>
  <line class="cls-6" x1="436.99" y1="406.23" x2="426.83" y2="406.31"/>
  <line class="cls-6" x1="436.99" y1="405.81" x2="426.83" y2="405.88"/>
  <line class="cls-6" x1="436.98" y1="405.38" x2="426.81" y2="405.45"/>
  <line class="cls-6" x1="436.97" y1="404.95" x2="426.81" y2="405.03"/>
  <line class="cls-6" x1="436.96" y1="404.52" x2="426.8" y2="404.6"/>
  <line class="cls-6" x1="436.96" y1="404.09" x2="426.79" y2="404.17"/>
  <line class="cls-6" x1="436.94" y1="403.66" x2="426.78" y2="403.74"/>
  <line class="cls-6" x1="436.94" y1="403.23" x2="426.77" y2="403.31"/>
  <line class="cls-6" x1="436.97" y1="402.81" x2="426.81" y2="402.88"/>
  <line class="cls-6" x1="436.97" y1="402.45" x2="426.8" y2="402.52"/>
  <line class="cls-6" x1="436.95" y1="402.09" x2="426.79" y2="402.16"/>
  <line class="cls-6" x1="436.95" y1="401.73" x2="426.79" y2="401.8"/>
  <line class="cls-6" x1="436.96" y1="401.37" x2="426.79" y2="401.44"/>
  <line class="cls-6" x1="420.77" y1="401.64" x2="420.88" y2="391.47"/>
  <line class="cls-6" x1="421.2" y1="401.64" x2="421.31" y2="391.48"/>
  <line class="cls-6" x1="421.63" y1="401.63" x2="421.74" y2="391.47"/>
  <line class="cls-6" x1="422.06" y1="401.64" x2="422.17" y2="391.48"/>
  <line class="cls-6" x1="422.48" y1="401.63" x2="422.59" y2="391.47"/>
  <line class="cls-6" x1="422.91" y1="401.64" x2="423.02" y2="391.47"/>
  <line class="cls-6" x1="423.34" y1="401.63" x2="423.45" y2="391.47"/>
  <line class="cls-6" x1="423.77" y1="401.63" x2="423.88" y2="391.47"/>
  <line class="cls-6" x1="424.2" y1="401.68" x2="424.31" y2="391.52"/>
  <line class="cls-6" x1="424.63" y1="401.68" x2="424.74" y2="391.52"/>
  <line class="cls-6" x1="425.02" y1="401.63" x2="425.13" y2="391.47"/>
  <line class="cls-6" x1="425.45" y1="401.63" x2="425.56" y2="391.47"/>
  <line class="cls-6" x1="425.88" y1="401.63" x2="425.99" y2="391.46"/>
  <line class="cls-6" x1="426.3" y1="401.63" x2="426.42" y2="391.47"/>
  <line class="cls-6" x1="426.73" y1="401.63" x2="426.84" y2="391.46"/>
  <line class="cls-6" x1="427.16" y1="401.63" x2="427.27" y2="391.47"/>
  <line class="cls-2" x1="308.4" y1="400.27" x2="303.05" y2="400.27"/>
  <polyline class="cls-2" points="329.82 400.27 341.81 400.27 342.03 431.15"/>
  <line class="cls-2" x1="410.63" y1="391.15" x2="410.45" y2="416.83"/>
  <path class="cls-2" d="M486.07,607.45H473.92v14.18l-27.56.08c0,5.24,0,5.56,0,5.56" transform="translate(-75.62 -205.92)"/>
  <line class="cls-2" x1="370.74" y1="415.79" x2="370.74" y2="400.27"/>
  <line class="cls-6" x1="255.4" y1="250.54" x2="242.71" y2="250.54"/>
  <line class="cls-6" x1="255.4" y1="249.86" x2="242.71" y2="249.86"/>
  <line class="cls-6" x1="255.39" y1="249.17" x2="242.7" y2="249.17"/>
  <line class="cls-6" x1="255.39" y1="248.49" x2="242.7" y2="248.49"/>
  <line class="cls-6" x1="255.37" y1="247.8" x2="242.68" y2="247.8"/>
  <line class="cls-6" x1="255.37" y1="247.12" x2="242.68" y2="247.12"/>
  <line class="cls-6" x1="255.36" y1="246.43" x2="242.67" y2="246.43"/>
  <line class="cls-6" x1="255.36" y1="245.75" x2="242.67" y2="245.75"/>
  <line class="cls-6" x1="255.41" y1="245.06" x2="242.72" y2="245.06"/>
  <line class="cls-6" x1="255.41" y1="244.38" x2="242.72" y2="244.38"/>
  <line class="cls-6" x1="255.39" y1="243.69" x2="242.7" y2="243.69"/>
  <line class="cls-6" x1="255.39" y1="243.01" x2="242.7" y2="243.01"/>
  <line class="cls-6" x1="255.41" y1="242.32" x2="242.72" y2="242.32"/>
  <line class="cls-6" x1="255.41" y1="241.63" x2="242.72" y2="241.63"/>
  <line class="cls-6" x1="255.4" y1="240.95" x2="242.71" y2="240.95"/>
  <line class="cls-6" x1="255.4" y1="240.26" x2="242.71" y2="240.26"/>
  <line class="cls-6" x1="255.39" y1="239.58" x2="242.7" y2="239.58"/>
  <line class="cls-6" x1="255.39" y1="238.89" x2="242.7" y2="238.89"/>
  <line class="cls-6" x1="255.37" y1="238.21" x2="242.68" y2="238.21"/>
  <line class="cls-6" x1="255.37" y1="237.52" x2="242.68" y2="237.52"/>
  <line class="cls-6" x1="255.42" y1="236.84" x2="242.73" y2="236.84"/>
  <line class="cls-6" x1="255.42" y1="236.15" x2="242.73" y2="236.15"/>
  <line class="cls-6" x1="255.41" y1="235.47" x2="242.72" y2="235.47"/>
  <line class="cls-6" x1="255.41" y1="234.78" x2="242.72" y2="234.78"/>
  <line class="cls-6" x1="255.37" y1="234.1" x2="242.68" y2="234.1"/>
  <line class="cls-6" x1="255.37" y1="233.41" x2="242.68" y2="233.41"/>
  <line class="cls-6" x1="255.36" y1="232.73" x2="242.67" y2="232.73"/>
  <line class="cls-6" x1="255.36" y1="232.04" x2="242.67" y2="232.04"/>
  <line class="cls-6" x1="255.34" y1="231.36" x2="242.65" y2="231.36"/>
  <line class="cls-6" x1="255.34" y1="230.67" x2="242.65" y2="230.67"/>
  <line class="cls-6" x1="255.33" y1="229.99" x2="242.64" y2="229.99"/>
  <line class="cls-6" x1="255.33" y1="229.3" x2="242.64" y2="229.3"/>
  <line class="cls-6" x1="255.38" y1="228.62" x2="242.69" y2="228.62"/>
  <line class="cls-6" x1="255.37" y1="228.04" x2="242.68" y2="228.04"/>
  <line class="cls-6" x1="255.36" y1="227.47" x2="242.67" y2="227.47"/>
  <line class="cls-6" x1="255.36" y1="226.9" x2="242.67" y2="226.9"/>
  <line class="cls-6" x1="255.37" y1="226.32" x2="242.68" y2="226.32"/>
  <line class="cls-6" x1="271.4" y1="253.55" x2="256.94" y2="250.47"/>
  <line class="cls-6" x1="271.53" y1="252.91" x2="257.07" y2="249.84"/>
  <line class="cls-6" x1="271.65" y1="252.27" x2="257.19" y2="249.2"/>
  <line class="cls-6" x1="271.79" y1="251.64" x2="257.32" y2="248.57"/>
  <line class="cls-6" x1="271.91" y1="251" x2="257.44" y2="247.93"/>
  <line class="cls-6" x1="272.04" y1="250.36" x2="257.58" y2="247.29"/>
  <line class="cls-6" x1="272.16" y1="249.73" x2="257.7" y2="246.66"/>
  <line class="cls-6" x1="272.29" y1="249.09" x2="257.83" y2="246.02"/>
  <line class="cls-6" x1="272.49" y1="248.47" x2="258.02" y2="245.4"/>
  <line class="cls-6" x1="272.62" y1="247.83" x2="258.16" y2="244.76"/>
  <line class="cls-6" x1="272.74" y1="247.19" x2="258.28" y2="244.12"/>
  <line class="cls-6" x1="272.87" y1="246.56" x2="258.41" y2="243.49"/>
  <line class="cls-6" x1="273.03" y1="245.93" x2="258.57" y2="242.86"/>
  <line class="cls-6" x1="273.17" y1="245.29" x2="258.7" y2="242.22"/>
  <line class="cls-6" x1="273.28" y1="244.66" x2="258.82" y2="241.59"/>
  <line class="cls-6" x1="273.42" y1="244.02" x2="258.96" y2="240.95"/>
  <line class="cls-6" x1="273.54" y1="243.38" x2="259.08" y2="240.31"/>
  <line class="cls-6" x1="273.67" y1="242.75" x2="259.21" y2="239.68"/>
  <line class="cls-6" x1="273.79" y1="242.11" x2="259.33" y2="239.04"/>
  <line class="cls-6" x1="273.93" y1="241.48" x2="259.46" y2="238.4"/>
  <line class="cls-6" x1="274.12" y1="240.85" x2="259.66" y2="237.78"/>
  <line class="cls-6" x1="274.25" y1="240.22" x2="259.79" y2="237.15"/>
  <line class="cls-6" x1="274.37" y1="239.58" x2="259.91" y2="236.51"/>
  <line class="cls-6" x1="274.51" y1="238.94" x2="260.04" y2="235.87"/>
  <line class="cls-6" x1="274.6" y1="238.3" x2="260.14" y2="235.23"/>
  <line class="cls-6" x1="274.74" y1="237.67" x2="260.27" y2="234.6"/>
  <line class="cls-6" x1="274.85" y1="237.03" x2="260.39" y2="233.96"/>
  <line class="cls-6" x1="274.99" y1="236.39" x2="260.53" y2="233.32"/>
  <line class="cls-6" x1="275.11" y1="235.76" x2="260.65" y2="232.68"/>
  <line class="cls-6" x1="275.24" y1="235.12" x2="260.78" y2="232.05"/>
  <line class="cls-6" x1="275.36" y1="234.48" x2="260.9" y2="231.41"/>
  <line class="cls-6" x1="275.5" y1="233.85" x2="261.03" y2="230.78"/>
  <line class="cls-6" x1="275.69" y1="233.22" x2="261.23" y2="230.15"/>
  <line class="cls-6" x1="275.79" y1="232.69" x2="261.33" y2="229.62"/>
  <line class="cls-6" x1="275.89" y1="232.15" x2="261.43" y2="229.08"/>
  <line class="cls-6" x1="276.01" y1="231.62" x2="261.55" y2="228.55"/>
  <line class="cls-6" x1="276.13" y1="231.09" x2="261.67" y2="228.02"/>
  <polyline class="cls-5" points="310.3 377.66 310.46 388.72 280.1 388.72"/>
  <line class="cls-6" x1="280.46" y1="388.34" x2="280.46" y2="377.7"/>
  <line class="cls-6" x1="280.89" y1="388.36" x2="280.89" y2="377.73"/>
  <line class="cls-6" x1="281.32" y1="388.36" x2="281.32" y2="377.73"/>
  <line class="cls-6" x1="281.74" y1="388.35" x2="281.74" y2="377.71"/>
  <line class="cls-6" x1="282.17" y1="388.35" x2="282.17" y2="377.71"/>
  <line class="cls-6" x1="282.6" y1="388.34" x2="282.6" y2="377.7"/>
  <line class="cls-6" x1="283.03" y1="388.34" x2="283.03" y2="377.7"/>
  <line class="cls-6" x1="283.46" y1="388.33" x2="283.46" y2="377.69"/>
  <line class="cls-6" x1="283.89" y1="388.33" x2="283.89" y2="377.69"/>
  <line class="cls-6" x1="284.32" y1="388.37" x2="284.32" y2="377.73"/>
  <line class="cls-6" x1="284.75" y1="388.37" x2="284.75" y2="377.73"/>
  <line class="cls-6" x1="285.17" y1="388.36" x2="285.17" y2="377.72"/>
  <line class="cls-6" x1="285.6" y1="388.36" x2="285.6" y2="377.72"/>
  <line class="cls-6" x1="286.03" y1="388.37" x2="286.03" y2="377.74"/>
  <line class="cls-6" x1="286.46" y1="388.37" x2="286.46" y2="377.74"/>
  <line class="cls-6" x1="286.89" y1="388.36" x2="286.89" y2="377.72"/>
  <line class="cls-6" x1="287.32" y1="388.36" x2="287.32" y2="377.72"/>
  <line class="cls-6" x1="287.75" y1="388.35" x2="287.75" y2="377.71"/>
  <line class="cls-6" x1="288.17" y1="388.35" x2="288.17" y2="377.71"/>
  <line class="cls-6" x1="288.6" y1="388.34" x2="288.6" y2="377.7"/>
  <line class="cls-6" x1="289.03" y1="388.34" x2="289.03" y2="377.7"/>
  <line class="cls-6" x1="289.46" y1="388.38" x2="289.46" y2="377.74"/>
  <line class="cls-6" x1="289.89" y1="388.38" x2="289.89" y2="377.74"/>
  <line class="cls-6" x1="290.32" y1="388.37" x2="290.32" y2="377.73"/>
  <line class="cls-6" x1="290.75" y1="388.37" x2="290.75" y2="377.73"/>
  <line class="cls-6" x1="291.18" y1="388.34" x2="291.18" y2="377.7"/>
  <line class="cls-6" x1="291.6" y1="388.34" x2="291.6" y2="377.7"/>
  <line class="cls-6" x1="292.03" y1="388.33" x2="292.03" y2="377.69"/>
  <line class="cls-6" x1="292.46" y1="388.33" x2="292.46" y2="377.69"/>
  <line class="cls-6" x1="292.89" y1="388.32" x2="292.89" y2="377.68"/>
  <line class="cls-6" x1="293.32" y1="388.32" x2="293.32" y2="377.68"/>
  <line class="cls-6" x1="293.75" y1="388.3" x2="293.75" y2="377.67"/>
  <line class="cls-6" x1="294.18" y1="388.3" x2="294.18" y2="377.67"/>
  <line class="cls-6" x1="294.6" y1="388.35" x2="294.6" y2="377.71"/>
  <line class="cls-6" x1="294.96" y1="388.34" x2="294.96" y2="377.7"/>
  <line class="cls-6" x1="295.32" y1="388.33" x2="295.32" y2="377.69"/>
  <line class="cls-6" x1="295.68" y1="388.33" x2="295.68" y2="377.69"/>
  <line class="cls-6" x1="296.04" y1="388.34" x2="296.04" y2="377.7"/>
  <line class="cls-6" x1="296.47" y1="388.34" x2="296.47" y2="377.7"/>
  <line class="cls-6" x1="296.9" y1="388.38" x2="296.9" y2="377.74"/>
  <line class="cls-6" x1="297.32" y1="388.38" x2="297.32" y2="377.74"/>
  <line class="cls-6" x1="297.75" y1="388.37" x2="297.75" y2="377.73"/>
  <line class="cls-6" x1="298.18" y1="388.37" x2="298.18" y2="377.73"/>
  <line class="cls-6" x1="298.61" y1="388.34" x2="298.61" y2="377.7"/>
  <line class="cls-6" x1="299.04" y1="388.34" x2="299.04" y2="377.7"/>
  <line class="cls-6" x1="299.47" y1="388.32" x2="299.47" y2="377.69"/>
  <line class="cls-6" x1="299.9" y1="388.32" x2="299.9" y2="377.69"/>
  <line class="cls-6" x1="300.32" y1="388.31" x2="300.32" y2="377.67"/>
  <line class="cls-6" x1="300.75" y1="388.31" x2="300.75" y2="377.67"/>
  <line class="cls-6" x1="301.18" y1="388.3" x2="301.18" y2="377.66"/>
  <line class="cls-6" x1="301.61" y1="388.3" x2="301.61" y2="377.66"/>
  <line class="cls-6" x1="302.04" y1="388.34" x2="302.04" y2="377.7"/>
  <line class="cls-6" x1="302.4" y1="388.34" x2="302.4" y2="377.7"/>
  <line class="cls-6" x1="302.76" y1="388.32" x2="302.76" y2="377.69"/>
  <line class="cls-6" x1="303.12" y1="388.33" x2="303.12" y2="377.69"/>
  <line class="cls-6" x1="303.48" y1="388.34" x2="303.48" y2="377.7"/>
  <line class="cls-6" x1="303.87" y1="388.33" x2="303.87" y2="377.69"/>
  <line class="cls-6" x1="304.29" y1="388.33" x2="304.29" y2="377.69"/>
  <line class="cls-6" x1="304.72" y1="388.32" x2="304.72" y2="377.68"/>
  <line class="cls-6" x1="305.15" y1="388.32" x2="305.15" y2="377.68"/>
  <line class="cls-6" x1="305.58" y1="388.31" x2="305.58" y2="377.67"/>
  <line class="cls-6" x1="306.01" y1="388.31" x2="306.01" y2="377.67"/>
  <line class="cls-6" x1="306.44" y1="388.35" x2="306.44" y2="377.71"/>
  <line class="cls-6" x1="306.8" y1="388.34" x2="306.8" y2="377.7"/>
  <line class="cls-6" x1="307.16" y1="388.33" x2="307.16" y2="377.69"/>
  <line class="cls-6" x1="307.52" y1="388.34" x2="307.52" y2="377.7"/>
  <line class="cls-6" x1="307.88" y1="388.34" x2="307.88" y2="377.7"/>
  <line class="cls-6" x1="308.21" y1="388.34" x2="308.21" y2="377.7"/>
  <line class="cls-6" x1="308.57" y1="388.33" x2="308.57" y2="377.69"/>
  <line class="cls-6" x1="308.93" y1="388.32" x2="308.93" y2="377.68"/>
  <line class="cls-6" x1="309.29" y1="388.32" x2="309.29" y2="377.69"/>
  <line class="cls-6" x1="309.65" y1="388.33" x2="309.65" y2="377.69"/>
  <line class="cls-1" x1="240.95" y1="266.13" x2="240.95" y2="225.78"/>
  <polyline class="cls-5" points="255.66 226.13 255.66 250.54 256.81 250.54 261.43 227.67"/>
  <line class="cls-6" x1="310.01" y1="388.33" x2="310.01" y2="377.69"/>
  <line class="cls-2" x1="176.49" y1="164.79" x2="302.06" y2="183.97"/>
  <line class="cls-2" x1="171.44" y1="392.24" x2="171.53" y2="382.62"/>
  <line class="cls-2" x1="183.77" y1="392.39" x2="183.94" y2="372.86"/>
  <line class="cls-2" x1="206.27" y1="391.47" x2="176.6" y2="391.47"/>
  <line class="cls-2" x1="205.41" y1="392.27" x2="205.49" y2="382.65"/>
  <polyline class="cls-2" points="149.38 371.91 206.27 371.91 206.27 363.63"/>
  <line class="cls-2" x1="166.96" y1="382.21" x2="167.05" y2="372.6"/>
  <line class="cls-4" x1="388.02" y1="174.83" x2="388.02" y2="184.31"/>
  <line class="cls-2" x1="257.19" y1="106.66" x2="233.86" y2="106.7"/>
  <g id="bakgrund">
    <rect class="cls-7" x="147.15" y="218.9" width="57.73" height="34.55"/>
    <rect class="cls-7" x="147.15" y="255.4" width="57.73" height="56.52"/>
    <polygon class="cls-7" points="146.6 314.25 146.6 349.79 149.91 349.79 149.91 370.68 205.04 370.68 204.89 314.25 146.6 314.25"/>
    <rect class="cls-7" x="171.49" y="403.4" width="32.64" height="26.66"/>
    <rect class="cls-7" x="242.75" y="401.56" width="30.74" height="28.5"/>
    <rect class="cls-7" x="275.85" y="401.56" width="31.67" height="28.5"/>
    <rect class="cls-7" x="309.29" y="401.56" width="31.84" height="28.5"/>
    <rect class="cls-7" x="375.55" y="332.99" width="58.58" height="56.61"/>
    <rect class="cls-7" x="375.55" y="276.64" width="58.58" height="53.99"/>
    <rect class="cls-7" x="375.55" y="217.53" width="58.58" height="56.74"/>
  </g>
  <g id="text">
    <text class="cls-8" transform="translate(155.91 241.31)">TP4084</text>
    <text class="cls-9" transform="translate(158.28 288.41)">TP42</text>
    <text class="cls-9" transform="translate(160.63 347.04)">TP44</text>
    <text class="cls-10" transform="translate(171.94 420.54)">TP404</text>
    <text class="cls-10" transform="translate(242.75 420.88)">TP403</text>
    <text class="cls-10" transform="translate(276.34 421.25)">TP402</text>
    <text class="cls-10" transform="translate(310.01 421.62)">TP401</text>
    <text class="cls-9" transform="translate(388.03 366.82)">TP45</text>
    <text class="cls-9" transform="translate(388.03 308.72)">TP43</text>
    <text class="cls-9" transform="translate(388.03 251.59)">TP41</text>
  </g>
  <polygon class="cls-7" points="8.49 163.5 62.15 163.55 62.49 217.45 4.43 217.45 8.49 163.5"/>
  <polygon class="cls-7" points="8.64 161.37 62.15 161.37 62.01 103.64 12.9 104.13 8.64 161.37"/>
  <polygon class="cls-7" points="13.19 101.9 62.15 101.42 61.96 39.05 18.02 38.81 13.19 101.9"/>
  <polygon class="cls-7" points="78.38 98.87 117.41 98.68 117.54 108.03 127.03 108.03 127.03 140.87 78.38 140.87 78.38 98.87"/>
  <polygon class="cls-7" points="177.54 108.1 232.72 108.03 232.72 163.31 177.22 163.31 177.54 108.1"/>
  <polygon class="cls-7" points="235.18 108.09 288.86 108.03 288.87 163.27 234.86 163.27 235.18 108.09"/>
  <polygon class="cls-7" points="292.12 108.03 322.06 108.03 322.06 135 291.67 135 292.12 108.03"/>
  <polygon class="cls-7" points="324.42 108.04 354.96 108.04 354.96 135 323.96 135 324.42 108.04"/>
  <polygon class="cls-7" points="380.22 98.29 434.77 98.29 434.77 156.87 379.4 156.87 380.22 98.29"/>
  <polygon class="cls-7" points="380.87 34.55 434.77 34.55 434.77 94.94 380.06 94.94 380.87 34.55"/>
  <polygon class="cls-7" points="324.38 63.71 355.61 63.65 355.35 4.29 324.38 4.29 324.38 63.71"/>
  <polygon class="cls-7" points="277.54 63.96 322.18 63.87 321.87 4.52 277.59 4.54 277.54 63.96"/>
  <polygon class="cls-7" points="211.12 63.55 274.15 63.42 273.75 4.49 211.25 4.56 211.12 63.55"/>
  <polygon class="cls-7" points="146.09 63.71 208.82 63.58 208.43 4.92 146.22 4.98 146.09 63.71"/>
  <text class="cls-8" transform="translate(16.06 194.91)">TP4003</text>
  <text class="cls-8" transform="translate(17.28 137.89)">TP4004</text>
  <text class="cls-8" transform="translate(19.25 75.18)">TP4005</text>
  <text class="cls-8" transform="translate(82.32 126.38)">TP4009</text>
  <text class="cls-10" transform="translate(79.4 61.14)">TP4008</text>
  <text class="cls-8" transform="translate(185.81 139.87)">TP4035</text>
  <text class="cls-8" transform="translate(242.73 140.38)">TP4034</text>
  <text class="cls-11" transform="translate(293.45 125.99)">TP4033</text>
  <text class="cls-11" transform="translate(326.17 125.99)">TP4032</text>
  <text class="cls-8" transform="translate(387.06 134.14)">TP4041</text>
  <text class="cls-8" transform="translate(387.24 69.18)">TP4040</text>
  <text class="cls-11" transform="translate(326.17 42.46)">TP4030</text>
  <text class="cls-8" transform="translate(279.35 42.92)">TP4029</text>
  <text class="cls-8" transform="translate(222.34 42.82)">TP4028</text>
  <text class="cls-8" transform="translate(157.07 43.29)">TP4027</text>
</svg>
