<?xml version="1.0" encoding="UTF-8"?>
<svg id="Lager_1" data-name="Lager 1" xmlns="http://www.w3.org/2000/svg" viewBox="0 0 516.51 427.96">
  <defs>
    <style>
      .cls-1 {
        font-size: 20px;
      }

      .cls-1, .cls-2, .cls-3 {
        font-family: MyriadPro-Regular, 'Myriad Pro';
      }

      .cls-4 {
        fill: #fff;
      }

      .cls-5, .cls-6, .cls-7, .cls-8, .cls-9, .cls-10 {
        fill: none;
        stroke: #010101;
        stroke-miterlimit: 10;
      }

      .cls-6 {
        stroke-width: .75px;
      }

      .cls-7 {
        stroke-width: 3px;
      }

      .cls-11 {
        fill: #1b1b1b;
      }

      .cls-8 {
        stroke-width: 4px;
      }

      .cls-9 {
        stroke-width: .25px;
      }

      .cls-2 {
        font-size: 14px;
      }

      .cls-3 {
        font-size: 13px;
      }

      .cls-10 {
        stroke-width: 2px;
      }

      .cls-12 {
        fill: #010101;
      }
    </style>
  </defs>
  <line class="cls-9" x1="247.94" y1="136.02" x2="227.13" y2="136.02"/>
  <line class="cls-10" x1="138.39" y1="63.15" x2="83.24" y2="63.09"/>
  <line class="cls-5" x1="466.01" y1="136.44" x2="466.02" y2="85.4"/>
  <line class="cls-5" x1="462.88" y1="136.44" x2="462.9" y2="85.4"/>
  <line class="cls-5" x1="459.8" y1="136.56" x2="459.21" y2="85.4"/>
  <line class="cls-5" x1="456.44" y1="136.44" x2="455.59" y2="85.4"/>
  <line class="cls-5" x1="452.74" y1="136.44" x2="451.94" y2="85.4"/>
  <line class="cls-5" x1="449.09" y1="136.51" x2="448.79" y2="85.4"/>
  <line class="cls-10" x1="466.42" y1="108.29" x2="448.78" y2="108.25"/>
  <line class="cls-10" x1="495.07" y1="126.1" x2="495.18" y2="138.1"/>
  <line class="cls-10" x1="495.18" y1="116.23" x2="495.12" y2="85.39"/>
  <polyline class="cls-10" points="500.33 137 495.18 137 430.44 137"/>
  <polyline class="cls-10" points="420 288.54 416.78 288.54 414.11 288.22 412.05 278 410 264.44 407.46 245.51 406.47 235.11 405.89 216.11 406.47 198.78 407.46 178.89 410.67 155.2 412.39 145.02 413.56 138.1 415.4 137 421.65 137"/>
  <polyline class="cls-10" points="492.54 288.54 430.56 288.54 430.56 283.83"/>
  <line class="cls-10" x1="501.78" y1="288.54" x2="512.98" y2="288.54"/>
  <polyline class="cls-10" points="512.59 323.34 491.29 323.11 491.09 289.08"/>
  <line class="cls-10" x1="491.09" y1="298.12" x2="513.97" y2="297.91"/>
  <line class="cls-10" x1="455.6" y1="289.08" x2="455.92" y2="311.53"/>
  <polyline class="cls-10" points="455.92 327.96 455.92 353.41 513.23 353.41"/>
  <path class="cls-10" d="M455.92,353.41l-.14,39.86s-4.9,2.84-10.44,2.29-9-2.3-9.22-4.54,0-4.91,0-4.91h19.14"/>
  <line class="cls-10" x1="443" y1="386.11" x2="443" y2="352.18"/>
  <polyline class="cls-10" points="455.92 352.8 436.01 352.94 436.11 386.11"/>
  <line class="cls-10" x1="436.01" y1="352.94" x2="428.42" y2="352.94"/>
  <polyline class="cls-6" points="487.81 393.69 487.57 369.98 496.77 369.98 496.77 393.69"/>
  <line class="cls-9" x1="487.8" y1="393.18" x2="473.16" y2="393.01"/>
  <line class="cls-9" x1="487.81" y1="392.52" x2="473.17" y2="392.35"/>
  <line class="cls-9" x1="487.8" y1="391.86" x2="473.16" y2="391.69"/>
  <line class="cls-9" x1="487.81" y1="391.2" x2="473.17" y2="391.03"/>
  <line class="cls-9" x1="487.8" y1="390.54" x2="473.16" y2="390.37"/>
  <line class="cls-9" x1="487.8" y1="389.88" x2="473.16" y2="389.7"/>
  <line class="cls-9" x1="487.79" y1="389.22" x2="473.15" y2="389.04"/>
  <line class="cls-9" x1="487.8" y1="388.55" x2="473.16" y2="388.38"/>
  <line class="cls-9" x1="487.86" y1="387.89" x2="473.23" y2="387.72"/>
  <line class="cls-9" x1="487.87" y1="387.23" x2="473.23" y2="387.06"/>
  <line class="cls-9" x1="487.86" y1="386.57" x2="473.22" y2="386.4"/>
  <line class="cls-9" x1="487.87" y1="385.91" x2="473.23" y2="385.74"/>
  <line class="cls-9" x1="487.9" y1="385.25" x2="473.26" y2="385.08"/>
  <line class="cls-9" x1="487.91" y1="384.59" x2="473.27" y2="384.42"/>
  <line class="cls-9" x1="487.9" y1="383.93" x2="473.26" y2="383.76"/>
  <line class="cls-9" x1="487.9" y1="383.27" x2="473.26" y2="383.09"/>
  <line class="cls-9" x1="487.89" y1="382.61" x2="473.25" y2="382.43"/>
  <line class="cls-9" x1="487.9" y1="381.94" x2="473.26" y2="381.77"/>
  <line class="cls-9" x1="487.89" y1="381.28" x2="473.25" y2="381.11"/>
  <line class="cls-9" x1="487.9" y1="380.62" x2="473.26" y2="380.45"/>
  <line class="cls-9" x1="487.96" y1="379.96" x2="473.32" y2="379.79"/>
  <line class="cls-9" x1="487.97" y1="379.3" x2="473.33" y2="379.13"/>
  <line class="cls-9" x1="487.96" y1="378.64" x2="473.32" y2="378.47"/>
  <line class="cls-9" x1="487.96" y1="377.98" x2="473.32" y2="377.81"/>
  <line class="cls-9" x1="487.93" y1="377.32" x2="473.29" y2="377.15"/>
  <line class="cls-9" x1="487.94" y1="376.66" x2="473.3" y2="376.49"/>
  <line class="cls-9" x1="487.93" y1="376" x2="473.29" y2="375.82"/>
  <line class="cls-9" x1="487.93" y1="375.33" x2="473.29" y2="375.16"/>
  <line class="cls-9" x1="487.93" y1="374.67" x2="473.29" y2="374.5"/>
  <line class="cls-9" x1="487.93" y1="374.01" x2="473.29" y2="373.84"/>
  <line class="cls-9" x1="487.92" y1="373.35" x2="473.28" y2="373.18"/>
  <line class="cls-9" x1="487.93" y1="372.69" x2="473.29" y2="372.52"/>
  <line class="cls-9" x1="487.99" y1="372.03" x2="473.35" y2="371.86"/>
  <line class="cls-9" x1="487.99" y1="371.48" x2="473.35" y2="371.3"/>
  <line class="cls-9" x1="487.98" y1="370.92" x2="473.34" y2="370.75"/>
  <line class="cls-9" x1="487.99" y1="370.37" x2="473.35" y2="370.2"/>
  <line class="cls-9" x1="488.01" y1="369.81" x2="473.37" y2="369.64"/>
  <line class="cls-9" x1="511.08" y1="393.1" x2="496.44" y2="393.21"/>
  <line class="cls-9" x1="511.08" y1="392.43" x2="496.44" y2="392.55"/>
  <line class="cls-9" x1="511.06" y1="391.77" x2="496.42" y2="391.89"/>
  <line class="cls-9" x1="511.05" y1="391.11" x2="496.41" y2="391.23"/>
  <line class="cls-9" x1="511.03" y1="390.45" x2="496.39" y2="390.57"/>
  <line class="cls-9" x1="511.03" y1="389.79" x2="496.39" y2="389.91"/>
  <line class="cls-9" x1="511.01" y1="389.13" x2="496.37" y2="389.25"/>
  <line class="cls-9" x1="511" y1="388.47" x2="496.36" y2="388.59"/>
  <line class="cls-9" x1="511.06" y1="387.81" x2="496.42" y2="387.93"/>
  <line class="cls-9" x1="511.05" y1="387.15" x2="496.41" y2="387.26"/>
  <line class="cls-9" x1="511.03" y1="386.49" x2="496.39" y2="386.6"/>
  <line class="cls-9" x1="511.02" y1="385.82" x2="496.38" y2="385.94"/>
  <line class="cls-9" x1="511.04" y1="385.16" x2="496.4" y2="385.28"/>
  <line class="cls-9" x1="511.04" y1="384.5" x2="496.4" y2="384.62"/>
  <line class="cls-9" x1="511.02" y1="383.84" x2="496.38" y2="383.96"/>
  <line class="cls-9" x1="511.01" y1="383.18" x2="496.37" y2="383.3"/>
  <line class="cls-9" x1="510.99" y1="382.52" x2="496.35" y2="382.64"/>
  <line class="cls-9" x1="510.99" y1="381.86" x2="496.35" y2="381.98"/>
  <line class="cls-9" x1="510.97" y1="381.2" x2="496.33" y2="381.32"/>
  <line class="cls-9" x1="510.96" y1="380.54" x2="496.32" y2="380.66"/>
  <line class="cls-9" x1="511.01" y1="379.87" x2="496.37" y2="379.99"/>
  <line class="cls-9" x1="511.01" y1="379.21" x2="496.37" y2="379.33"/>
  <line class="cls-9" x1="510.99" y1="378.55" x2="496.35" y2="378.67"/>
  <line class="cls-9" x1="510.98" y1="377.89" x2="496.34" y2="378.01"/>
  <line class="cls-9" x1="510.94" y1="377.23" x2="496.3" y2="377.35"/>
  <line class="cls-9" x1="510.93" y1="376.57" x2="496.29" y2="376.69"/>
  <line class="cls-9" x1="510.91" y1="375.91" x2="496.27" y2="376.03"/>
  <line class="cls-9" x1="510.91" y1="375.25" x2="496.27" y2="375.37"/>
  <line class="cls-9" x1="510.89" y1="374.59" x2="496.25" y2="374.71"/>
  <line class="cls-9" x1="510.88" y1="373.93" x2="496.24" y2="374.05"/>
  <line class="cls-9" x1="510.86" y1="373.27" x2="496.22" y2="373.38"/>
  <line class="cls-9" x1="510.86" y1="372.61" x2="496.22" y2="372.72"/>
  <line class="cls-9" x1="510.91" y1="371.94" x2="496.27" y2="372.06"/>
  <line class="cls-9" x1="510.9" y1="371.39" x2="496.26" y2="371.51"/>
  <line class="cls-9" x1="510.88" y1="370.84" x2="496.24" y2="370.95"/>
  <line class="cls-9" x1="510.88" y1="370.28" x2="496.24" y2="370.4"/>
  <line class="cls-9" x1="510.89" y1="369.73" x2="496.25" y2="369.84"/>
  <line class="cls-9" x1="487.57" y1="370.14" x2="487.73" y2="354.47"/>
  <line class="cls-9" x1="488.18" y1="370.15" x2="488.34" y2="354.48"/>
  <line class="cls-9" x1="488.8" y1="370.14" x2="488.96" y2="354.47"/>
  <line class="cls-9" x1="489.42" y1="370.14" x2="489.58" y2="354.47"/>
  <line class="cls-9" x1="490.04" y1="370.14" x2="490.2" y2="354.47"/>
  <line class="cls-9" x1="490.65" y1="370.14" x2="490.81" y2="354.47"/>
  <line class="cls-9" x1="491.27" y1="370.13" x2="491.43" y2="354.46"/>
  <line class="cls-9" x1="491.89" y1="370.14" x2="492.05" y2="354.47"/>
  <line class="cls-9" x1="492.51" y1="370.21" x2="492.67" y2="354.54"/>
  <line class="cls-9" x1="493.12" y1="370.22" x2="493.28" y2="354.54"/>
  <line class="cls-9" x1="493.69" y1="370.13" x2="493.85" y2="354.46"/>
  <line class="cls-9" x1="494.31" y1="370.14" x2="494.47" y2="354.47"/>
  <line class="cls-9" x1="494.92" y1="370.13" x2="495.08" y2="354.46"/>
  <line class="cls-9" x1="495.54" y1="370.13" x2="495.7" y2="354.46"/>
  <line class="cls-9" x1="496.16" y1="370.13" x2="496.32" y2="354.46"/>
  <line class="cls-9" x1="496.78" y1="370.13" x2="496.94" y2="354.46"/>
  <line class="cls-5" x1="472.75" y1="393.88" x2="472.92" y2="354.15"/>
  <line class="cls-5" x1="456.28" y1="366.89" x2="472.86" y2="366.88"/>
  <line class="cls-10" x1="375.36" y1="352.8" x2="401.78" y2="352.8"/>
  <polyline class="cls-10" points="409 352.8 419.45 352.94 419.73 409.18"/>
  <polyline class="cls-10" points="430.56 275.99 430.56 265.19 444.07 265.44 462.82 278.65"/>
  <line class="cls-10" x1="467.74" y1="281.64" x2="477.86" y2="288.74"/>
  <line class="cls-10" x1="420.19" y1="265.19" x2="409.86" y2="265.19"/>
  <line class="cls-10" x1="409.84" y1="161.35" x2="420.44" y2="161.33"/>
  <polyline class="cls-10" points="429.11 161.39 443.64 161.33 479.78 137"/>
  <line class="cls-10" x1="431.94" y1="161.39" x2="432" y2="153.78"/>
  <line class="cls-10" x1="431.97" y1="137.37" x2="431.97" y2="143.67"/>
  <line class="cls-10" x1="466.5" y1="137.37" x2="466.5" y2="145.56"/>
  <line class="cls-10" x1="276.28" y1="140.85" x2="303.45" y2="140.65"/>
  <line class="cls-10" x1="312.93" y1="140.65" x2="319.72" y2="140.65"/>
  <line class="cls-10" x1="327.37" y1="140.65" x2="334.32" y2="140.65"/>
  <line class="cls-10" x1="342.9" y1="140.65" x2="372.5" y2="140.85"/>
  <line class="cls-10" x1="283.03" y1="102.2" x2="305.45" y2="102.2"/>
  <line class="cls-10" x1="313.03" y1="102.08" x2="319.11" y2="102.08"/>
  <line class="cls-10" x1="327.09" y1="102.08" x2="334.47" y2="102.08"/>
  <line class="cls-5" x1="342.95" y1="102.2" x2="372.49" y2="102.2"/>
  <path class="cls-5" d="M313.44,141.42l-.03,9.37c-1.34-.33-3.66-1.11-5.96-2.98-2.86-2.34-4.13-5.11-4.64-6.44"/>
  <path class="cls-5" d="M327.89,141.56l-.03,9.23c-1.1-.33-3.02-1.09-4.92-2.94-2.36-2.3-3.41-5.03-3.83-6.35"/>
  <path class="cls-5" d="M343.47,141.56l-.03,9.37c-1.21-.33-3.32-1.11-5.4-2.98-2.59-2.34-3.74-5.11-4.2-6.45"/>
  <line class="cls-10" x1="151.46" y1="125.54" x2="99.49" y2="124.78"/>
  <line class="cls-10" x1="129.3" y1="125.22" x2="129.3" y2="150.61"/>
  <polyline class="cls-10" points="100.64 150.18 161.69 150.61 162 150.61 162 153.29"/>
  <polyline class="cls-10" points="131.16 150.61 158.21 170.03 162 169.98 162 160.93"/>
  <line class="cls-10" x1="172.67" y1="169.98" x2="182.19" y2="169.98"/>
  <line class="cls-10" x1="106.44" y1="149.56" x2="106.42" y2="137.17"/>
  <line class="cls-10" x1="86.16" y1="150.18" x2="91.46" y2="150.18"/>
  <line class="cls-10" x1="151.24" y1="123.91" x2="151.23" y2="134.09"/>
  <line class="cls-10" x1="151.23" y1="141.59" x2="151.23" y2="149.9"/>
  <polyline class="cls-10" points="177.43 150.98 179.1 156.8 182.56 179.89 184.17 201.44 184.17 220.11 183.78 236.71 182.56 251.88 179.89 266.92 178.11 274.04 176 276.67 173.22 277.13 171.11 277.32"/>
  <line class="cls-10" x1="161.69" y1="277.13" x2="84.87" y2="277.13"/>
  <polyline class="cls-10" points="141.13 277.17 141.13 304.06 128.93 304.06"/>
  <line class="cls-10" x1="118.25" y1="277.32" x2="118.25" y2="305.24"/>
  <path class="cls-10" d="M132.14,344.17c2.64-.06,5.64-.06,8.64-.06v-18c-19,0-37,0-55.66,.01"/>
  <path class="cls-10" d="M92.62,344.17h31.16"/>
  <line class="cls-10" x1="112.9" y1="326.12" x2="112.9" y2="344.53"/>
  <line class="cls-10" x1="103.74" y1="318.24" x2="103.74" y2="310.38"/>
  <line class="cls-10" x1="103.74" y1="303.12" x2="103.74" y2="297.19"/>
  <line class="cls-10" x1="103.74" y1="292.1" x2="103.74" y2="284.16"/>
  <line class="cls-10" x1="103.74" y1="314.31" x2="85.12" y2="314.31"/>
  <line class="cls-10" x1="103.74" y1="300.16" x2="84.87" y2="300.16"/>
  <line class="cls-10" x1="103.74" y1="287.84" x2="84.02" y2="288.05"/>
  <line class="cls-9" x1="247.94" y1="134.72" x2="227.13" y2="134.72"/>
  <line class="cls-9" x1="247.91" y1="133.42" x2="227.1" y2="133.42"/>
  <line class="cls-9" x1="247.91" y1="132.12" x2="227.1" y2="132.12"/>
  <line class="cls-9" x1="247.89" y1="130.82" x2="227.08" y2="130.82"/>
  <line class="cls-9" x1="247.89" y1="129.52" x2="227.08" y2="129.52"/>
  <line class="cls-9" x1="247.87" y1="128.22" x2="227.06" y2="128.22"/>
  <line class="cls-9" x1="247.87" y1="126.91" x2="227.06" y2="126.91"/>
  <line class="cls-9" x1="247.95" y1="125.61" x2="227.14" y2="125.61"/>
  <line class="cls-9" x1="247.95" y1="124.31" x2="227.14" y2="124.31"/>
  <line class="cls-9" x1="247.93" y1="123.01" x2="227.12" y2="123.01"/>
  <line class="cls-9" x1="247.93" y1="121.71" x2="227.12" y2="121.71"/>
  <line class="cls-9" x1="247.96" y1="120.41" x2="227.15" y2="120.41"/>
  <line class="cls-9" x1="247.96" y1="119.11" x2="227.15" y2="119.11"/>
  <line class="cls-9" x1="247.94" y1="117.81" x2="227.13" y2="117.81"/>
  <line class="cls-9" x1="247.94" y1="116.51" x2="227.13" y2="116.51"/>
  <line class="cls-9" x1="247.91" y1="115.21" x2="227.1" y2="115.21"/>
  <line class="cls-9" x1="247.91" y1="113.91" x2="227.1" y2="113.91"/>
  <line class="cls-9" x1="247.89" y1="112.61" x2="227.08" y2="112.61"/>
  <line class="cls-9" x1="247.89" y1="111.31" x2="227.08" y2="111.31"/>
  <line class="cls-9" x1="247.97" y1="110.01" x2="227.16" y2="110.01"/>
  <line class="cls-9" x1="247.97" y1="108.71" x2="227.16" y2="108.71"/>
  <line class="cls-9" x1="247.95" y1="107.4" x2="227.14" y2="107.4"/>
  <line class="cls-9" x1="247.95" y1="106.1" x2="227.14" y2="106.1"/>
  <line class="cls-9" x1="247.89" y1="104.8" x2="227.08" y2="104.8"/>
  <line class="cls-9" x1="247.89" y1="103.5" x2="227.08" y2="103.5"/>
  <line class="cls-9" x1="247.87" y1="102.2" x2="227.06" y2="102.2"/>
  <line class="cls-9" x1="247.87" y1="100.9" x2="227.06" y2="100.9"/>
  <line class="cls-9" x1="247.84" y1="99.6" x2="227.03" y2="99.6"/>
  <line class="cls-9" x1="247.84" y1="98.3" x2="227.03" y2="98.3"/>
  <line class="cls-9" x1="247.82" y1="97" x2="227.01" y2="97"/>
  <line class="cls-9" x1="247.82" y1="95.7" x2="227.01" y2="95.7"/>
  <line class="cls-9" x1="247.9" y1="94.4" x2="227.09" y2="94.4"/>
  <line class="cls-9" x1="247.89" y1="93.31" x2="227.08" y2="93.31"/>
  <line class="cls-9" x1="247.87" y1="92.22" x2="227.06" y2="92.22"/>
  <line class="cls-9" x1="247.88" y1="91.13" x2="227.07" y2="91.13"/>
  <line class="cls-9" x1="247.89" y1="90.04" x2="227.08" y2="90.04"/>
  <line class="cls-9" x1="274.17" y1="141.72" x2="250.46" y2="135.89"/>
  <line class="cls-9" x1="274.39" y1="140.52" x2="250.68" y2="134.68"/>
  <line class="cls-9" x1="274.59" y1="139.3" x2="250.87" y2="133.47"/>
  <line class="cls-9" x1="274.81" y1="138.1" x2="251.09" y2="132.27"/>
  <line class="cls-9" x1="275" y1="136.89" x2="251.29" y2="131.06"/>
  <line class="cls-9" x1="275.22" y1="135.68" x2="251.51" y2="129.85"/>
  <line class="cls-9" x1="275.42" y1="134.47" x2="251.7" y2="128.64"/>
  <line class="cls-9" x1="275.64" y1="133.27" x2="251.92" y2="127.43"/>
  <line class="cls-9" x1="275.95" y1="132.08" x2="252.24" y2="126.25"/>
  <line class="cls-9" x1="276.18" y1="130.88" x2="252.46" y2="125.05"/>
  <line class="cls-9" x1="276.37" y1="129.66" x2="252.65" y2="123.83"/>
  <line class="cls-9" x1="276.59" y1="128.46" x2="252.87" y2="122.63"/>
  <line class="cls-9" x1="276.85" y1="127.26" x2="253.13" y2="121.43"/>
  <line class="cls-9" x1="277.07" y1="126.06" x2="253.35" y2="120.23"/>
  <line class="cls-9" x1="277.26" y1="124.85" x2="253.55" y2="119.02"/>
  <line class="cls-9" x1="277.49" y1="123.64" x2="253.77" y2="117.81"/>
  <line class="cls-9" x1="277.68" y1="122.43" x2="253.97" y2="116.6"/>
  <line class="cls-9" x1="277.9" y1="121.22" x2="254.19" y2="115.39"/>
  <line class="cls-9" x1="278.1" y1="120.01" x2="254.38" y2="114.18"/>
  <line class="cls-9" x1="278.32" y1="118.81" x2="254.6" y2="112.98"/>
  <line class="cls-9" x1="278.63" y1="117.62" x2="254.92" y2="111.79"/>
  <line class="cls-9" x1="278.85" y1="116.42" x2="255.14" y2="110.59"/>
  <line class="cls-9" x1="279.05" y1="115.21" x2="255.33" y2="109.38"/>
  <line class="cls-9" x1="279.27" y1="114" x2="255.55" y2="108.17"/>
  <line class="cls-9" x1="279.42" y1="112.78" x2="255.71" y2="106.95"/>
  <line class="cls-9" x1="279.64" y1="111.58" x2="255.93" y2="105.75"/>
  <line class="cls-9" x1="279.84" y1="110.36" x2="256.12" y2="104.53"/>
  <line class="cls-9" x1="280.06" y1="109.16" x2="256.34" y2="103.33"/>
  <line class="cls-9" x1="280.26" y1="107.95" x2="256.54" y2="102.12"/>
  <line class="cls-9" x1="280.48" y1="106.74" x2="256.76" y2="100.91"/>
  <line class="cls-9" x1="280.67" y1="105.53" x2="256.95" y2="99.7"/>
  <line class="cls-9" x1="280.89" y1="104.33" x2="257.18" y2="98.5"/>
  <line class="cls-9" x1="281.21" y1="103.14" x2="257.49" y2="97.31"/>
  <line class="cls-9" x1="281.38" y1="102.13" x2="257.66" y2="96.3"/>
  <line class="cls-9" x1="281.54" y1="101.11" x2="257.82" y2="95.28"/>
  <line class="cls-9" x1="281.73" y1="100.1" x2="258.02" y2="94.27"/>
  <line class="cls-9" x1="281.93" y1="99.1" x2="258.22" y2="93.27"/>
  <polyline class="cls-6" points="248.37 89.68 248.37 136.02 250.24 136.02 257.83 92.6"/>
  <polyline class="cls-8" points="281.73 100.1 271.86 159.32 225.29 159.32 224.97 351.65 254.47 351.65 253.35 407.17 137.89 406.52 137.89 417.89 110.13 417.44"/>
  <polyline class="cls-8" points="91.22 417.89 91.44 344.17 84.02 344.17 84.26 139.04"/>
  <polyline class="cls-8" points="84.87 125.95 85.36 89.14 24.78 88.63 25.48 50.12 26.24 18.29 45.79 18.29"/>
  <line class="cls-8" x1="85.36" y1="89.14" x2="85.58" y2="64.14"/>
  <line class="cls-5" x1="137.89" y1="125.07" x2="137.9" y2="63.69"/>
  <line class="cls-5" x1="135.59" y1="125.07" x2="135.61" y2="63.69"/>
  <line class="cls-5" x1="133.34" y1="125.22" x2="132.9" y2="63.69"/>
  <line class="cls-5" x1="130.86" y1="125.07" x2="130.25" y2="63.69"/>
  <line class="cls-5" x1="128.16" y1="125.07" x2="127.58" y2="63.69"/>
  <line class="cls-5" x1="125.48" y1="125.16" x2="125.26" y2="63.69"/>
  <line class="cls-10" x1="138.19" y1="91.22" x2="125.26" y2="91.18"/>
  <line class="cls-10" x1="225.85" y1="89.32" x2="227.16" y2="158.04"/>
  <polyline class="cls-10" points="167.12 363.06 121.99 363.12 121.24 416.76"/>
  <line class="cls-10" x1="138.76" y1="406.52" x2="122.18" y2="406.52"/>
  <line class="cls-10" x1="180.23" y1="407.07" x2="180.23" y2="352.55"/>
  <line class="cls-10" x1="198.38" y1="352.47" x2="224.97" y2="352.55"/>
  <line class="cls-10" x1="189.66" y1="352.51" x2="179.3" y2="352.51"/>
  <line class="cls-10" x1="176.22" y1="363.06" x2="180.7" y2="363.06"/>
  <polyline class="cls-8" points="373.27 100.55 374.09 351.85 345.24 351.81 345.24 408.2 442.38 409.18 442.38 419.63 512.98 419.63 512.61 84.46 466.41 84.46 466.41 74.44"/>
  <line class="cls-8" x1="466.41" y1="65.28" x2="466.41" y2="54.44"/>
  <polyline class="cls-8" points="466.41 46.19 466.41 35.82 514.48 35.82 513.97 3.26"/>
  <polyline class="cls-8" points="508.53 3.26 508.53 25.7 442.78 25.74 442.78 34.93 404.51 34.93"/>
  <line class="cls-8" x1="429.94" y1="34.93" x2="429.82" y2="3.04"/>
  <path class="cls-5" d="M313.46,102.26l-.03,9.37c-1.13-.33-3.08-1.1-5.02-2.98-2.41-2.34-3.48-5.11-3.9-6.45"/>
  <path class="cls-5" d="M327.63,102.67l-.03,8.96c-1.15-.32-3.16-1.06-5.15-2.85-2.47-2.23-3.56-4.89-4-6.16"/>
  <path class="cls-5" d="M343.47,102.67l-.03,9.11c-1.21-.33-3.32-1.07-5.4-2.9-2.59-2.27-3.74-4.97-4.2-6.26"/>
  <path class="cls-5" d="M401.19,352.16v-9.37c1.08,.33,2.96,1.09,4.83,2.96,2.32,2.33,3.35,5.1,3.77,6.43"/>
  <path class="cls-5" d="M420,352.16v-9.37c1.15,.33,3.14,1.09,5.12,2.96,2.46,2.33,3.55,5.1,3.99,6.43"/>
  <path class="cls-5" d="M430.07,289l.09,9.42c-1.34-.32-3.67-1.07-5.99-2.92-2.89-2.31-4.19-5.09-4.71-6.42"/>
  <path class="cls-5" d="M429.5,284.56h-7.5c.26-1.19,.88-3.26,2.37-5.31,1.86-2.55,4.08-3.68,5.15-4.14"/>
  <path class="cls-5" d="M429.28,265.85v7.5c-1.19-.26-3.26-.88-5.31-2.37-2.55-1.86-3.68-4.08-4.14-5.15"/>
  <path class="cls-5" d="M429.78,161.97l.05,7.48c-1.25-.25-3.42-.85-5.58-2.33-2.69-1.84-3.89-4.04-4.38-5.1"/>
  <path class="cls-5" d="M431.14,154.19h-7.5c.26-1.4,.88-3.82,2.37-6.23,1.86-2.99,4.08-4.32,5.15-4.86"/>
  <path class="cls-5" d="M421.24,136.55v-7.17c1.25,.25,3.42,.84,5.57,2.27,2.68,1.78,3.87,3.9,4.35,4.92"/>
  <line class="cls-10" x1="466.02" y1="84.44" x2="448.06" y2="84.5"/>
  <path class="cls-5" d="M464.87,54.93l-9.65,.04c.34-1.18,1.11-3.23,3.03-5.27,2.39-2.54,5.23-3.67,6.61-4.13"/>
  <path class="cls-5" d="M464.89,74.91l-9.67,.04c.34-1.29,1.11-3.54,3.03-5.78,2.39-2.78,5.24-4.02,6.61-4.52"/>
  <path class="cls-5" d="M491.98,287.71v-9.42c1.34,.33,3.66,1.1,5.97,2.98,2.87,2.34,4.14,5.12,4.66,6.46"/>
  <path class="cls-5" d="M132.8,344.17l.09,9.42c-1.34-.32-3.67-1.07-5.99-2.92-2.89-2.31-4.19-5.09-4.71-6.42"/>
  <path class="cls-5" d="M103.52,317.72h8.37c-.3,.99-.98,2.72-2.65,4.43-2.08,2.13-4.55,3.08-5.74,3.46"/>
  <path class="cls-5" d="M104.53,302.49h8.37c-.3,1.04-.98,2.86-2.65,4.65-2.08,2.24-4.55,3.23-5.74,3.63"/>
  <path class="cls-5" d="M104.06,291.5h8.37c-.3,.85-.98,2.32-2.65,3.77-2.08,1.81-4.55,2.62-5.74,2.94"/>
  <path class="cls-5" d="M103.76,277.17h8.37c-.3,.99-.98,2.72-2.65,4.43-2.08,2.13-4.55,3.08-5.74,3.46"/>
  <path class="cls-5" d="M129.47,304.58l.09,8.37c-1.36-.28-3.74-.94-6.11-2.58-2.95-2.05-4.27-4.51-4.8-5.69"/>
  <path class="cls-5" d="M171.8,277.32l.09,8.37c-1.36-.28-3.74-.94-6.11-2.58-2.95-2.05-4.27-4.51-4.8-5.69"/>
  <line class="cls-10" x1="112.99" y1="3.04" x2="112.99" y2="36.42"/>
  <line class="cls-5" x1="112.99" y1="33.59" x2="232.55" y2="33.48"/>
  <line class="cls-5" x1="112.99" y1="35.89" x2="232.55" y2="35.79"/>
  <line class="cls-7" x1="130.26" y1="3.04" x2="130.26" y2="33.54"/>
  <line class="cls-7" x1="203.52" y1="3.33" x2="203.52" y2="33.83"/>
  <line class="cls-10" x1="148.44" y1="2.56" x2="232.11" y2="3.26"/>
  <line class="cls-7" x1="251.42" y1="3.33" x2="251.42" y2="33.83"/>
  <line class="cls-10" x1="247.9" y1="3.33" x2="247.9" y2="35.61"/>
  <line class="cls-5" x1="246.9" y1="35.85" x2="291.13" y2="35.82"/>
  <line class="cls-5" x1="247.32" y1="33.31" x2="291.55" y2="33.27"/>
  <line class="cls-10" x1="245.4" y1="3.25" x2="260.91" y2="3.23"/>
  <line class="cls-10" x1="270.42" y1="3.23" x2="299.99" y2="3.2"/>
  <line class="cls-7" x1="290.41" y1="3.33" x2="290.41" y2="36.26"/>
  <polyline class="cls-7" points="301.07 34.94 314.45 34.83 314.43 7.64 291.13 7.64"/>
  <line class="cls-7" x1="314.43" y1="7.64" x2="378.74" y2="7.53"/>
  <line class="cls-10" x1="347.61" y1="7.64" x2="347.61" y2="36.38"/>
  <line class="cls-8" x1="331.41" y1="8.06" x2="331.63" y2="36.26"/>
  <line class="cls-5" x1="346.6" y1="36.31" x2="386.51" y2="36.32"/>
  <line class="cls-10" x1="377.46" y1="28.98" x2="377.46" y2="36.55"/>
  <line class="cls-10" x1="377.46" y1="7.01" x2="377.46" y2="13.82"/>
  <line class="cls-10" x1="385.5" y1="32.76" x2="385.5" y2="36.66"/>
  <polyline class="cls-10" points="26.24 50.18 61.29 50.17 61.15 63.09"/>
  <line class="cls-10" x1="72.32" y1="62.34" x2="72.39" y2="89.32"/>
  <line class="cls-10" x1="59.85" y1="3.09" x2="60.28" y2="40.94"/>
  <line class="cls-10" x1="60.44" y1="25.11" x2="112.99" y2="25.11"/>
  <polyline class="cls-10" points="161.27 255.68 159.13 255.69 130.63 276.28 130.63 277.17"/>
  <line class="cls-10" x1="171.11" y1="255.68" x2="181.52" y2="255.68"/>
  <line class="cls-10" x1="468.48" y1="338.99" x2="468.55" y2="353.13"/>
  <line class="cls-10" x1="481.31" y1="339.02" x2="481.38" y2="353.16"/>
  <line class="cls-10" x1="491.46" y1="332.34" x2="491.56" y2="353.17"/>
  <line class="cls-10" x1="467.88" y1="288.92" x2="467.95" y2="303.95"/>
  <line class="cls-10" x1="480.58" y1="289.26" x2="480.65" y2="304.29"/>
  <polygon class="cls-4" points="410.81 162.4 444.23 162.47 479.78 138.06 510.41 138.1 510.55 287.32 477.97 287.2 444.45 264.27 410.81 264.08 406.97 213.63 410.81 162.4"/>
  <polygon class="cls-4" points="86.59 151.54 86.49 275.56 128.93 275.46 158.42 254.18 180.97 254.18 182.56 213.69 179.33 171.85 157.46 171.72 130.22 151.97 86.59 151.54"/>
  <line class="cls-7" x1="228.55" y1="21.68" x2="228.55" y2="33.83"/>
  <line class="cls-7" x1="228.89" y1="3.12" x2="228.89" y2="15.27"/>
  <line class="cls-5" x1="346.71" y1="33.31" x2="386.5" y2="33.27"/>
  <polygon class="cls-4" points="181.83 353.48 251.42 353.48 251.28 405.01 181.18 404.33 181.83 353.48"/>
  <polygon class="cls-4" points="347.17 354.15 418.09 354.15 417.94 406.76 346.5 406.06 347.17 354.15"/>
  <text class="cls-1" transform="translate(118.97 224.68)"><tspan x="0" y="0">TP2</tspan></text>
  <polygon class="cls-4" points="123.15 364.11 179.19 364.11 179.08 404.61 122.62 404.07 123.15 364.11"/>
  <text class="cls-3" transform="translate(133.72 391.18)"><tspan x="0" y="0">TP301</tspan></text>
  <text class="cls-2" transform="translate(201.41 385.39)"><tspan x="0" y="0">TP32</tspan></text>
  <text class="cls-2" transform="translate(369.25 386.65)"><tspan x="0" y="0">TP31</tspan></text>
  <text class="cls-1" transform="translate(449.41 228.39)"><tspan x="0" y="0">TP1</tspan></text>
  <path class="cls-12" d="M316.92,12.06v19.97c0,.17,.11,.3,.25,.3h10.4c.14,0,.25-.14,.25-.3V12.06c0-.17-.11-.3-.25-.3h-10.4c-.14,0-.25,.14-.25,.3Zm9.33,19.64h-3.57v-13.53c0-.17-.11-.3-.25-.3s-.25,.14-.25,.3v13.53h-3.81v-14.35h7.89v14.35Zm1.04,0h-.53v-14.65c0-.17-.11-.3-.25-.3h-8.4c-.14,0-.25,.14-.25,.3v14.65h-.43v-15.59h9.86v15.59Zm.02-19.33v3.14h-9.89v-3.14h9.89Z"/>
  <path class="cls-12" d="M320.31,14.91h4.25c.14,0,.25-.14,.25-.3v-1.42c0-.17-.11-.3-.25-.3h-4.25c-.14,0-.25,.14-.25,.3v1.42c0,.17,.11,.3,.25,.3Zm.25-1.42h3.74v.81h-3.74v-.81Z"/>
  <path class="cls-12" d="M458.03,370.05v21.12c0,.18,.13,.32,.3,.32h12.15c.16,0,.3-.14,.3-.32v-21.12c0-.18-.13-.32-.3-.32h-12.15c-.16,0-.3,.14-.3,.32Zm10.91,20.77h-4.17v-14.31c0-.18-.13-.32-.3-.32s-.3,.14-.3,.32v14.31h-4.46v-15.17h9.22v15.17Zm1.21,0h-.62v-15.49c0-.18-.13-.32-.3-.32h-9.82c-.16,0-.3,.14-.3,.32v15.49h-.5v-16.48h11.53v16.48Zm.03-20.45v3.32h-11.56v-3.32h11.56Z"/>
  <path class="cls-12" d="M461.99,373.05h4.97c.16,0,.3-.14,.3-.32v-1.5c0-.18-.13-.32-.3-.32h-4.97c-.16,0-.3,.14-.3,.32v1.5c0,.18,.13,.32,.3,.32Zm.3-1.5h4.37v.85h-4.37v-.85Z"/>
  <g>
    <path class="cls-11" d="M308.63,21.61h-1.78c-.09,0-.16,.07-.16,.16v1.26h-2c-.09,0-.16,.07-.16,.16v1.37h-2.09c-.09,0-.16,.07-.16,.16v1.45h-1.96c-.09,0-.16,.07-.16,.16v1.37h-2.05c-.09,0-.16,.07-.16,.16v1.62c0,.09,.07,.16,.16,.16s.16-.07,.16-.16v-1.47h2.05c.09,0,.16-.07,.16-.16v-1.37h1.96c.09,0,.16-.07,.16-.16v-1.45h2.09c.09,0,.16-.07,.16-.16v-1.37h2c.09,0,.16-.07,.16-.16v-1.26h1.62c.09,0,.16-.07,.16-.16s-.07-.16-.16-.16Z"/>
    <ellipse class="cls-11" cx="301.94" cy="16.97" rx=".95" ry=".94"/>
    <path class="cls-11" d="M299.39,21.26s.03,0,.04,0c.15,0,.29-.11,.31-.27l.21-1.41,.96-.65c-.01,.05-.02,.11-.02,.16l.09,2.86-.9,3.63c-.04,.17,.06,.33,.23,.37,.03,0,.05,0,.07,0,.14,0,.27-.09,.31-.24l.9-3.64h.24l1.21,.56v1.35c0,.17,.14,.31,.32,.31s.32-.14,.32-.31v-1.55c0-.12-.07-.23-.18-.28l-1.32-.61-.04-2.39,.54,.56s.09,.07,.15,.09l1.46,.37c.17,.04,.34-.06,.38-.22,.04-.17-.06-.33-.23-.38l-1.37-.35-.69-.72c-.45-.47-1.17-.54-1.71-.18l-1.18,.79c-.07,.05-.12,.13-.13,.21l-.22,1.55c-.02,.17,.1,.33,.27,.35Z"/>
  </g>
  <g>
    <ellipse class="cls-12" cx="481.31" cy="314.06" rx="1.3" ry="1.23"/>
    <path class="cls-12" d="M483.35,315.6h-4.08c-.63,0-1.14,.48-1.14,1.08v4.01c0,.6,.51,1.08,1.14,1.08h0v-4.7c0-.09,.07-.15,.16-.15h.08v10.75c0,.4,.35,.73,.77,.73s.77-.33,.77-.73v-5.67c0-.13,.11-.23,.24-.23s.24,.1,.24,.23v5.67c0,.4,.35,.73,.77,.73s.77-.33,.77-.73v-10.75h.08c.09,0,.16,.07,.16,.15v4.7h0c.63,0,1.14-.48,1.14-1.08v-4.01c0-.6-.51-1.08-1.14-1.08Z"/>
    <g>
      <ellipse class="cls-12" cx="470.27" cy="314.06" rx="1.3" ry="1.23"/>
      <path class="cls-12" d="M471.99,317.03l1.09,4.62c.62-.13,1.01-.72,.87-1.3l-.93-3.91c-.07-.29-.26-.53-.5-.67-.14-.08-.29-.13-.45-.15-.09-.01-.18-.02-.28-.02h-3.02c-.07,0-.14,0-.2,0-.2,.02-.37,.06-.54,.16-.25,.15-.43,.38-.5,.67l-.93,3.91c-.14,.58,.26,1.17,.87,1.3l1.09-4.62c.02-.07,.08-.12,.16-.12h.11l-.34,1.44-1.3,5.5h1.3v3.82c0,.2,.09,.39,.23,.52,.14,.13,.33,.21,.55,.21,.43,0,.77-.33,.77-.73v-3.82h.49v3.82c0,.2,.09,.39,.23,.52,.14,.13,.33,.21,.55,.21,.43,0,.77-.33,.77-.73v-3.82h1.3l-1.3-5.5-.34-1.44h.11c.08,0,.14,.05,.16,.12Z"/>
    </g>
    <rect class="cls-12" x="475.44" y="312.44" width=".65" height="16.34" rx=".23" ry=".23"/>
  </g>
  <g>
    <ellipse class="cls-12" cx="146.57" cy="309.05" rx="1.3" ry="1.23"/>
    <path class="cls-12" d="M148.6,310.59h-4.08c-.63,0-1.14,.48-1.14,1.08v4.01c0,.6,.51,1.08,1.14,1.08h0v-4.7c0-.09,.07-.15,.16-.15h.08v10.75c0,.4,.35,.73,.77,.73s.77-.33,.77-.73v-5.67c0-.13,.11-.23,.24-.23s.24,.1,.24,.23v5.67c0,.4,.35,.73,.77,.73s.77-.33,.77-.73v-10.75h.08c.09,0,.16,.07,.16,.15v4.7h0c.63,0,1.14-.48,1.14-1.08v-4.01c0-.6-.51-1.08-1.14-1.08Z"/>
    <g>
      <ellipse class="cls-12" cx="135.52" cy="309.05" rx="1.3" ry="1.23"/>
      <path class="cls-12" d="M137.24,312.02l1.09,4.62c.62-.13,1.01-.72,.87-1.3l-.93-3.91c-.07-.29-.26-.53-.5-.67-.14-.08-.29-.13-.45-.15-.09-.01-.18-.02-.28-.02h-3.02c-.07,0-.14,0-.2,0-.2,.02-.37,.06-.54,.16-.25,.15-.43,.38-.5,.67l-.93,3.91c-.14,.58,.26,1.17,.87,1.3l1.09-4.62c.02-.07,.08-.12,.16-.12h.11l-.34,1.44-1.3,5.5h1.3v3.82c0,.2,.09,.39,.23,.52,.14,.13,.33,.21,.55,.21,.43,0,.77-.33,.77-.73v-3.82h.49v3.82c0,.2,.09,.39,.23,.52,.14,.13,.33,.21,.55,.21,.43,0,.77-.33,.77-.73v-3.82h1.3l-1.3-5.5-.34-1.44h.11c.08,0,.14,.05,.16,.12Z"/>
    </g>
    <rect class="cls-12" x="140.7" y="307.43" width=".65" height="16.34" rx=".23" ry=".23"/>
  </g>
  <path class="cls-5" d="M121.31,353.99h8.14c-.29,1.09-.95,2.99-2.57,4.88-2.02,2.34-4.43,3.38-5.58,3.8"/>
  <line class="cls-10" x1="121.24" y1="343.94" x2="121.24" y2="354.4"/>
  <path class="cls-12" d="M334.9,12.18v19.97c0,.17,.11,.3,.25,.3h10.4c.14,0,.25-.14,.25-.3V12.18c0-.17-.11-.3-.25-.3h-10.4c-.14,0-.25,.14-.25,.3Zm9.33,19.64h-3.57v-13.53c0-.17-.11-.3-.25-.3s-.25,.14-.25,.3v13.53h-3.81v-14.35h7.89v14.35Zm1.04,0h-.53v-14.65c0-.17-.11-.3-.25-.3h-8.4c-.14,0-.25,.14-.25,.3v14.65h-.43v-15.59h9.86v15.59Zm.02-19.33v3.14h-9.89v-3.14h9.89Z"/>
  <path class="cls-12" d="M338.29,15.02h4.25c.14,0,.25-.14,.25-.3v-1.42c0-.17-.11-.3-.25-.3h-4.25c-.14,0-.25,.14-.25,.3v1.42c0,.17,.11,.3,.25,.3Zm.25-1.42h3.74v.81h-3.74v-.81Z"/>
  <path class="cls-5" d="M405.25,36.64l.04,9.34c-1.25-.32-3.41-1.08-5.57-2.93-2.68-2.31-3.88-5.06-4.36-6.39"/>
  <path class="cls-5" d="M386.02,36.72l.04,9.67c1.29-.35,3.53-1.14,5.75-3.08,2.76-2.41,3.98-5.27,4.47-6.65"/>
  <path class="cls-5" d="M232.27,33.45v11.87c1.94-.42,5.31-1.39,8.66-3.75,4.16-2.95,6.01-6.45,6.76-8.14"/>
  <path class="cls-5" d="M110.68,417.63l.04,9.26c-1.16-.32-3.18-1.07-5.19-2.91-2.5-2.29-3.62-5.02-4.07-6.34"/>
  <path class="cls-5" d="M92.74,417.71l.04,9.58c1.2-.34,3.3-1.13,5.37-3.05,2.58-2.39,3.71-5.23,4.17-6.6"/>
  <path class="cls-5" d="M23.28,88.23l.04,9.26c-1.38-.32-3.77-1.07-6.15-2.91-2.96-2.29-4.28-5.02-4.82-6.34"/>
  <path class="cls-5" d="M2.03,88.31l.04,9.58c1.42-.34,3.9-1.13,6.35-3.05,3.05-2.39,4.4-5.23,4.94-6.6"/>
  <path class="cls-5" d="M508.85,55.34l-9.65,.04c.34-1.18,1.11-3.23,3.03-5.27,2.39-2.54,5.23-3.67,6.61-4.13"/>
  <path class="cls-5" d="M508.87,75.32l-9.67,.04c.34-1.29,1.11-3.54,3.03-5.78,2.39-2.78,5.24-4.02,6.61-4.52"/>
  <line class="cls-8" x1="510.11" y1="85.74" x2="510.11" y2="74.9"/>
  <line class="cls-8" x1="510.11" y1="65.73" x2="510.11" y2="54.9"/>
  <line class="cls-8" x1="510.11" y1="46.73" x2="510.11" y2="35.89"/>
  <line class="cls-8" x1="2.03" y1="90.56" x2="2.03" y2="2"/>
  <line class="cls-8" y1="2" x2="150.22" y2="2"/>
</svg>