<svg id="Lager_2" data-name="Lager 2" xmlns="http://www.w3.org/2000/svg" viewBox="0 0 687.37 454.17">
  <defs>
    <style>
      .cls-1, .cls-2, .cls-3, .cls-4, .cls-5, .cls-6 {
        fill: none;
        stroke: #000;
        stroke-miterlimit: 10;
      }

      .cls-1 {
        stroke-width: 0.25px;
      }

      .cls-2 {
        stroke-width: 2px;
      }

      .cls-4 {
        stroke-width: 0.75px;
      }

      .cls-5 {
        stroke-width: 4px;
      }

      .cls-6 {
        stroke-width: 3px;
      }

      .cls-7 {
        fill: #fff;
      }

      .cls-8 {
        font-size: 20px;
      }

      .cls-10, .cls-8, .cls-9 {
        font-family: MyriadPro-Regular, Myriad Pro;
      }

      .cls-9 {
        font-size: 13px;
      }

      .cls-10 {
        font-size: 14px;
      }
    </style>
  </defs>
  <line class="cls-1" x1="280.75" y1="149.52" x2="259.94" y2="149.52"/>
  <line class="cls-2" x1="171.21" y1="76.65" x2="116.05" y2="76.59"/>
  <line class="cls-3" x1="498.82" y1="149.94" x2="498.83" y2="98.9"/>
  <line class="cls-3" x1="495.69" y1="149.94" x2="495.71" y2="98.9"/>
  <line class="cls-3" x1="492.62" y1="150.06" x2="492.02" y2="98.9"/>
  <line class="cls-3" x1="489.25" y1="149.94" x2="488.4" y2="98.89"/>
  <line class="cls-3" x1="485.55" y1="149.94" x2="484.75" y2="98.89"/>
  <line class="cls-3" x1="481.9" y1="150.01" x2="481.6" y2="98.89"/>
  <line class="cls-2" x1="499.23" y1="121.79" x2="481.6" y2="121.75"/>
  <line class="cls-2" x1="527.88" y1="139.6" x2="527.99" y2="151.59"/>
  <line class="cls-2" x1="527.99" y1="129.73" x2="527.93" y2="98.89"/>
  <polyline class="cls-2" points="533.14 150.5 527.99 150.5 463.26 150.5"/>
  <polyline class="cls-2" points="452.81 302.04 449.59 302.04 446.92 301.71 444.86 291.5 442.81 277.94 440.28 259.01 439.28 248.61 438.7 229.61 439.28 212.28 440.28 192.39 443.48 168.69 445.2 158.52 446.37 151.59 448.21 150.5 454.46 150.5"/>
  <polyline class="cls-2" points="525.35 302.04 463.37 302.04 463.37 297.33"/>
  <line class="cls-2" x1="534.59" y1="302.04" x2="545.8" y2="302.04"/>
  <polyline class="cls-2" points="545.4 336.84 524.1 336.61 523.9 302.57"/>
  <line class="cls-2" x1="523.9" y1="311.62" x2="546.78" y2="311.41"/>
  <line class="cls-2" x1="488.41" y1="302.57" x2="488.73" y2="325.02"/>
  <polyline class="cls-2" points="488.73 341.46 488.73 366.9 546.05 366.9"/>
  <path class="cls-2" d="M502.14,562.19,502,602.05a19.4,19.4,0,0,1-10.44,2.28c-5.55-.55-9-2.3-9.23-4.53a32.3,32.3,0,0,1,0-4.91h19.15" transform="translate(-13.41 -195.28)"/>
  <line class="cls-2" x1="475.81" y1="399.6" x2="475.81" y2="365.68"/>
  <polyline class="cls-2" points="488.73 366.3 468.82 366.44 468.92 399.6"/>
  <line class="cls-2" x1="468.82" y1="366.44" x2="461.23" y2="366.44"/>
  <polyline class="cls-4" points="520.62 407.19 520.38 383.48 529.58 383.48 529.58 407.19"/>
  <line class="cls-1" x1="520.61" y1="406.68" x2="505.97" y2="406.51"/>
  <line class="cls-1" x1="520.62" y1="406.02" x2="505.98" y2="405.85"/>
  <line class="cls-1" x1="520.61" y1="405.36" x2="505.97" y2="405.19"/>
  <line class="cls-1" x1="520.62" y1="404.7" x2="505.98" y2="404.52"/>
  <line class="cls-1" x1="520.61" y1="404.03" x2="505.97" y2="403.86"/>
  <line class="cls-1" x1="520.62" y1="403.37" x2="505.98" y2="403.2"/>
  <line class="cls-1" x1="520.61" y1="402.71" x2="505.97" y2="402.54"/>
  <line class="cls-1" x1="520.61" y1="402.05" x2="505.97" y2="401.88"/>
  <line class="cls-1" x1="520.68" y1="401.39" x2="506.04" y2="401.22"/>
  <line class="cls-1" x1="520.68" y1="400.73" x2="506.04" y2="400.56"/>
  <line class="cls-1" x1="520.67" y1="400.07" x2="506.03" y2="399.9"/>
  <line class="cls-1" x1="520.68" y1="399.41" x2="506.04" y2="399.24"/>
  <line class="cls-1" x1="520.71" y1="398.75" x2="506.07" y2="398.58"/>
  <line class="cls-1" x1="520.72" y1="398.09" x2="506.08" y2="397.91"/>
  <line class="cls-1" x1="520.71" y1="397.43" x2="506.07" y2="397.25"/>
  <line class="cls-1" x1="520.71" y1="396.76" x2="506.07" y2="396.59"/>
  <line class="cls-1" x1="520.7" y1="396.1" x2="506.07" y2="395.93"/>
  <line class="cls-1" x1="520.71" y1="395.44" x2="506.07" y2="395.27"/>
  <line class="cls-1" x1="520.7" y1="394.78" x2="506.06" y2="394.61"/>
  <line class="cls-1" x1="520.71" y1="394.12" x2="506.07" y2="393.95"/>
  <line class="cls-1" x1="520.77" y1="393.46" x2="506.13" y2="393.29"/>
  <line class="cls-1" x1="520.78" y1="392.8" x2="506.14" y2="392.63"/>
  <line class="cls-1" x1="520.77" y1="392.14" x2="506.13" y2="391.97"/>
  <line class="cls-1" x1="520.78" y1="391.48" x2="506.14" y2="391.3"/>
  <line class="cls-1" x1="520.74" y1="390.82" x2="506.1" y2="390.64"/>
  <line class="cls-1" x1="520.75" y1="390.15" x2="506.11" y2="389.98"/>
  <line class="cls-1" x1="520.74" y1="389.49" x2="506.1" y2="389.32"/>
  <line class="cls-1" x1="520.75" y1="388.83" x2="506.11" y2="388.66"/>
  <line class="cls-1" x1="520.74" y1="388.17" x2="506.1" y2="388"/>
  <line class="cls-1" x1="520.74" y1="387.51" x2="506.1" y2="387.34"/>
  <line class="cls-1" x1="520.73" y1="386.85" x2="506.09" y2="386.68"/>
  <line class="cls-1" x1="520.74" y1="386.19" x2="506.1" y2="386.02"/>
  <line class="cls-1" x1="520.8" y1="385.53" x2="506.16" y2="385.36"/>
  <line class="cls-1" x1="520.8" y1="384.97" x2="506.16" y2="384.8"/>
  <line class="cls-1" x1="520.79" y1="384.42" x2="506.15" y2="384.25"/>
  <line class="cls-1" x1="520.8" y1="383.86" x2="506.16" y2="383.69"/>
  <line class="cls-1" x1="520.82" y1="383.31" x2="506.18" y2="383.14"/>
  <line class="cls-1" x1="543.9" y1="406.59" x2="529.26" y2="406.71"/>
  <line class="cls-1" x1="543.89" y1="405.93" x2="529.25" y2="406.05"/>
  <line class="cls-1" x1="543.87" y1="405.27" x2="529.23" y2="405.39"/>
  <line class="cls-1" x1="543.86" y1="404.61" x2="529.22" y2="404.73"/>
  <line class="cls-1" x1="543.84" y1="403.95" x2="529.2" y2="404.07"/>
  <line class="cls-1" x1="543.84" y1="403.29" x2="529.2" y2="403.41"/>
  <line class="cls-1" x1="543.82" y1="402.63" x2="529.18" y2="402.75"/>
  <line class="cls-1" x1="543.81" y1="401.97" x2="529.17" y2="402.09"/>
  <line class="cls-1" x1="543.87" y1="401.3" x2="529.23" y2="401.42"/>
  <line class="cls-1" x1="543.86" y1="400.64" x2="529.22" y2="400.76"/>
  <line class="cls-1" x1="543.84" y1="399.98" x2="529.2" y2="400.1"/>
  <line class="cls-1" x1="543.84" y1="399.32" x2="529.2" y2="399.44"/>
  <line class="cls-1" x1="543.85" y1="398.66" x2="529.21" y2="398.78"/>
  <line class="cls-1" x1="543.85" y1="398" x2="529.21" y2="398.12"/>
  <line class="cls-1" x1="543.83" y1="397.34" x2="529.19" y2="397.46"/>
  <line class="cls-1" x1="543.82" y1="396.68" x2="529.18" y2="396.8"/>
  <line class="cls-1" x1="543.8" y1="396.02" x2="529.16" y2="396.14"/>
  <line class="cls-1" x1="543.8" y1="395.36" x2="529.16" y2="395.47"/>
  <line class="cls-1" x1="543.78" y1="394.7" x2="529.14" y2="394.81"/>
  <line class="cls-1" x1="543.77" y1="394.03" x2="529.13" y2="394.15"/>
  <line class="cls-1" x1="543.83" y1="393.37" x2="529.19" y2="393.49"/>
  <line class="cls-1" x1="543.82" y1="392.71" x2="529.18" y2="392.83"/>
  <line class="cls-1" x1="543.8" y1="392.05" x2="529.16" y2="392.17"/>
  <line class="cls-1" x1="543.8" y1="391.39" x2="529.16" y2="391.51"/>
  <line class="cls-1" x1="543.75" y1="390.73" x2="529.11" y2="390.85"/>
  <line class="cls-1" x1="543.75" y1="390.07" x2="529.11" y2="390.19"/>
  <line class="cls-1" x1="543.72" y1="389.41" x2="529.08" y2="389.53"/>
  <line class="cls-1" x1="543.72" y1="388.75" x2="529.08" y2="388.87"/>
  <line class="cls-1" x1="543.7" y1="388.09" x2="529.06" y2="388.2"/>
  <line class="cls-1" x1="543.69" y1="387.43" x2="529.05" y2="387.54"/>
  <line class="cls-1" x1="543.67" y1="386.76" x2="529.03" y2="386.88"/>
  <line class="cls-1" x1="543.67" y1="386.1" x2="529.03" y2="386.22"/>
  <line class="cls-1" x1="543.72" y1="385.44" x2="529.08" y2="385.56"/>
  <line class="cls-1" x1="543.71" y1="384.89" x2="529.07" y2="385.01"/>
  <line class="cls-1" x1="543.69" y1="384.33" x2="529.05" y2="384.45"/>
  <line class="cls-1" x1="543.69" y1="383.78" x2="529.05" y2="383.9"/>
  <line class="cls-1" x1="543.7" y1="383.22" x2="529.06" y2="383.34"/>
  <line class="cls-1" x1="520.38" y1="383.64" x2="520.54" y2="367.97"/>
  <line class="cls-1" x1="521" y1="383.65" x2="521.16" y2="367.98"/>
  <line class="cls-1" x1="521.61" y1="383.64" x2="521.77" y2="367.96"/>
  <line class="cls-1" x1="522.23" y1="383.64" x2="522.39" y2="367.97"/>
  <line class="cls-1" x1="522.85" y1="383.63" x2="523.01" y2="367.96"/>
  <line class="cls-1" x1="523.47" y1="383.64" x2="523.63" y2="367.97"/>
  <line class="cls-1" x1="524.08" y1="383.63" x2="524.24" y2="367.96"/>
  <line class="cls-1" x1="524.7" y1="383.64" x2="524.86" y2="367.97"/>
  <line class="cls-1" x1="525.32" y1="383.71" x2="525.48" y2="368.04"/>
  <line class="cls-1" x1="525.94" y1="383.71" x2="526.1" y2="368.04"/>
  <line class="cls-1" x1="526.5" y1="383.63" x2="526.66" y2="367.96"/>
  <line class="cls-1" x1="527.12" y1="383.64" x2="527.28" y2="367.97"/>
  <line class="cls-1" x1="527.74" y1="383.63" x2="527.9" y2="367.95"/>
  <line class="cls-1" x1="528.35" y1="383.63" x2="528.51" y2="367.96"/>
  <line class="cls-1" x1="528.97" y1="383.62" x2="529.13" y2="367.95"/>
  <line class="cls-1" x1="529.59" y1="383.63" x2="529.75" y2="367.96"/>
  <line class="cls-3" x1="505.56" y1="407.38" x2="505.73" y2="367.65"/>
  <line class="cls-3" x1="489.09" y1="380.39" x2="505.67" y2="380.38"/>
  <line class="cls-2" x1="408.17" y1="366.3" x2="434.6" y2="366.3"/>
  <polyline class="cls-2" points="441.81 366.3 452.26 366.44 452.54 422.68"/>
  <polyline class="cls-2" points="463.37 289.48 463.37 278.69 476.88 278.94 495.63 292.15"/>
  <line class="cls-2" x1="500.55" y1="295.14" x2="510.67" y2="302.23"/>
  <line class="cls-2" x1="453.01" y1="278.69" x2="442.67" y2="278.69"/>
  <line class="cls-2" x1="442.65" y1="174.85" x2="453.26" y2="174.83"/>
  <polyline class="cls-2" points="461.92 174.89 476.45 174.83 512.59 150.5"/>
  <line class="cls-2" x1="464.76" y1="174.89" x2="464.81" y2="167.28"/>
  <line class="cls-2" x1="464.78" y1="150.87" x2="464.78" y2="157.16"/>
  <line class="cls-2" x1="499.31" y1="150.87" x2="499.31" y2="159.06"/>
  <line class="cls-2" x1="309.09" y1="154.35" x2="336.26" y2="154.15"/>
  <line class="cls-2" x1="345.75" y1="154.15" x2="352.53" y2="154.15"/>
  <line class="cls-2" x1="360.19" y1="154.15" x2="367.13" y2="154.15"/>
  <line class="cls-2" x1="375.71" y1="154.15" x2="405.31" y2="154.35"/>
  <line class="cls-2" x1="315.84" y1="115.7" x2="338.26" y2="115.7"/>
  <line class="cls-2" x1="345.84" y1="115.58" x2="351.92" y2="115.58"/>
  <line class="cls-2" x1="359.9" y1="115.58" x2="367.28" y2="115.58"/>
  <line class="cls-3" x1="375.76" y1="115.7" x2="405.31" y2="115.7"/>
  <path class="cls-3" d="M359.66,350.2l0,9.37a15.32,15.32,0,0,1-10.6-9.43" transform="translate(-13.41 -195.28)"/>
  <path class="cls-3" d="M374.11,350.34l0,9.23a12,12,0,0,1-4.92-2.94,15.59,15.59,0,0,1-3.83-6.34" transform="translate(-13.41 -195.28)"/>
  <path class="cls-3" d="M389.69,350.34l0,9.38a13.44,13.44,0,0,1-5.4-3,15.46,15.46,0,0,1-4.2-6.44" transform="translate(-13.41 -195.28)"/>
  <line class="cls-2" x1="184.27" y1="139.04" x2="132.3" y2="138.28"/>
  <line class="cls-2" x1="162.12" y1="138.72" x2="162.12" y2="164.11"/>
  <polyline class="cls-2" points="133.45 163.68 194.5 164.11 194.81 164.11 194.81 166.79"/>
  <polyline class="cls-2" points="163.97 164.11 191.02 183.53 194.81 183.48 194.81 174.43"/>
  <line class="cls-2" x1="205.48" y1="183.48" x2="215.01" y2="183.48"/>
  <line class="cls-2" x1="139.26" y1="163.05" x2="139.24" y2="150.67"/>
  <line class="cls-2" x1="118.97" y1="163.68" x2="124.27" y2="163.68"/>
  <line class="cls-2" x1="184.05" y1="137.4" x2="184.04" y2="147.59"/>
  <line class="cls-2" x1="184.04" y1="155.09" x2="184.04" y2="163.4"/>
  <polyline class="cls-2" points="210.24 164.47 211.92 170.29 215.38 193.39 216.98 214.94 216.98 233.61 216.59 250.21 215.38 265.38 212.7 280.42 210.92 287.54 208.81 290.16 206.03 290.62 203.92 290.82"/>
  <line class="cls-2" x1="194.5" y1="290.62" x2="117.68" y2="290.62"/>
  <polyline class="cls-2" points="173.94 290.66 173.94 317.56 161.74 317.56"/>
  <line class="cls-2" x1="151.06" y1="290.82" x2="151.06" y2="318.73"/>
  <path class="cls-2" d="M178.36,553c2.64-.06,5.64-.06,8.64-.06v-18H131.34" transform="translate(-13.41 -195.28)"/>
  <path class="cls-2" d="M138.85,553H170" transform="translate(-13.41 -195.28)"/>
  <line class="cls-2" x1="145.71" y1="339.62" x2="145.71" y2="358.03"/>
  <line class="cls-2" x1="136.55" y1="331.74" x2="136.55" y2="323.88"/>
  <line class="cls-2" x1="136.55" y1="316.62" x2="136.55" y2="310.69"/>
  <line class="cls-2" x1="136.55" y1="305.6" x2="136.55" y2="297.66"/>
  <line class="cls-2" x1="136.55" y1="327.81" x2="117.93" y2="327.81"/>
  <line class="cls-2" x1="136.55" y1="313.65" x2="117.68" y2="313.65"/>
  <line class="cls-2" x1="136.55" y1="301.34" x2="116.83" y2="301.55"/>
  <line class="cls-1" x1="280.75" y1="148.21" x2="259.94" y2="148.21"/>
  <line class="cls-1" x1="280.73" y1="146.91" x2="259.92" y2="146.91"/>
  <line class="cls-1" x1="280.73" y1="145.61" x2="259.92" y2="145.61"/>
  <line class="cls-1" x1="280.7" y1="144.31" x2="259.89" y2="144.31"/>
  <line class="cls-1" x1="280.7" y1="143.01" x2="259.89" y2="143.01"/>
  <line class="cls-1" x1="280.68" y1="141.71" x2="259.87" y2="141.71"/>
  <line class="cls-1" x1="280.68" y1="140.41" x2="259.87" y2="140.41"/>
  <line class="cls-1" x1="280.76" y1="139.11" x2="259.95" y2="139.11"/>
  <line class="cls-1" x1="280.76" y1="137.81" x2="259.95" y2="137.81"/>
  <line class="cls-1" x1="280.74" y1="136.51" x2="259.93" y2="136.51"/>
  <line class="cls-1" x1="280.74" y1="135.21" x2="259.93" y2="135.21"/>
  <line class="cls-1" x1="280.77" y1="133.91" x2="259.96" y2="133.91"/>
  <line class="cls-1" x1="280.77" y1="132.61" x2="259.96" y2="132.61"/>
  <line class="cls-1" x1="280.75" y1="131.31" x2="259.94" y2="131.31"/>
  <line class="cls-1" x1="280.75" y1="130.01" x2="259.94" y2="130.01"/>
  <line class="cls-1" x1="280.73" y1="128.71" x2="259.92" y2="128.71"/>
  <line class="cls-1" x1="280.73" y1="127.41" x2="259.92" y2="127.41"/>
  <line class="cls-1" x1="280.7" y1="126.11" x2="259.89" y2="126.11"/>
  <line class="cls-1" x1="280.7" y1="124.81" x2="259.89" y2="124.81"/>
  <line class="cls-1" x1="280.78" y1="123.5" x2="259.97" y2="123.5"/>
  <line class="cls-1" x1="280.78" y1="122.2" x2="259.97" y2="122.2"/>
  <line class="cls-1" x1="280.76" y1="120.9" x2="259.95" y2="120.9"/>
  <line class="cls-1" x1="280.76" y1="119.6" x2="259.95" y2="119.6"/>
  <line class="cls-1" x1="280.7" y1="118.3" x2="259.89" y2="118.3"/>
  <line class="cls-1" x1="280.7" y1="117" x2="259.89" y2="117"/>
  <line class="cls-1" x1="280.68" y1="115.7" x2="259.87" y2="115.7"/>
  <line class="cls-1" x1="280.68" y1="114.4" x2="259.87" y2="114.4"/>
  <line class="cls-1" x1="280.66" y1="113.1" x2="259.85" y2="113.1"/>
  <line class="cls-1" x1="280.66" y1="111.8" x2="259.85" y2="111.8"/>
  <line class="cls-1" x1="280.63" y1="110.5" x2="259.82" y2="110.5"/>
  <line class="cls-1" x1="280.63" y1="109.2" x2="259.82" y2="109.2"/>
  <line class="cls-1" x1="280.71" y1="107.9" x2="259.9" y2="107.9"/>
  <line class="cls-1" x1="280.7" y1="106.81" x2="259.89" y2="106.81"/>
  <line class="cls-1" x1="280.68" y1="105.72" x2="259.87" y2="105.72"/>
  <line class="cls-1" x1="280.69" y1="104.63" x2="259.88" y2="104.63"/>
  <line class="cls-1" x1="280.7" y1="103.54" x2="259.89" y2="103.54"/>
  <line class="cls-1" x1="306.98" y1="155.22" x2="283.27" y2="149.39"/>
  <line class="cls-1" x1="307.2" y1="154.01" x2="283.49" y2="148.18"/>
  <line class="cls-1" x1="307.4" y1="152.8" x2="283.68" y2="146.97"/>
  <line class="cls-1" x1="307.62" y1="151.6" x2="283.9" y2="145.77"/>
  <line class="cls-1" x1="307.82" y1="150.39" x2="284.1" y2="144.55"/>
  <line class="cls-1" x1="308.04" y1="149.18" x2="284.32" y2="143.35"/>
  <line class="cls-1" x1="308.23" y1="147.97" x2="284.51" y2="142.14"/>
  <line class="cls-1" x1="308.45" y1="146.76" x2="284.74" y2="140.93"/>
  <line class="cls-1" x1="308.77" y1="145.58" x2="285.05" y2="139.75"/>
  <line class="cls-1" x1="308.99" y1="144.37" x2="285.27" y2="138.54"/>
  <line class="cls-1" x1="309.18" y1="143.16" x2="285.46" y2="137.33"/>
  <line class="cls-1" x1="309.4" y1="141.96" x2="285.69" y2="136.13"/>
  <line class="cls-1" x1="309.66" y1="140.76" x2="285.94" y2="134.93"/>
  <line class="cls-1" x1="309.88" y1="139.56" x2="286.17" y2="133.73"/>
  <line class="cls-1" x1="310.08" y1="138.34" x2="286.36" y2="132.51"/>
  <line class="cls-1" x1="310.3" y1="137.14" x2="286.58" y2="131.31"/>
  <line class="cls-1" x1="310.49" y1="135.93" x2="286.78" y2="130.1"/>
  <line class="cls-1" x1="310.71" y1="134.72" x2="287" y2="128.89"/>
  <line class="cls-1" x1="310.91" y1="133.51" x2="287.19" y2="127.68"/>
  <line class="cls-1" x1="311.13" y1="132.31" x2="287.41" y2="126.48"/>
  <line class="cls-1" x1="311.44" y1="131.12" x2="287.73" y2="125.29"/>
  <line class="cls-1" x1="311.66" y1="129.92" x2="287.95" y2="124.09"/>
  <line class="cls-1" x1="311.86" y1="128.71" x2="288.14" y2="122.87"/>
  <line class="cls-1" x1="312.08" y1="127.5" x2="288.36" y2="121.67"/>
  <line class="cls-1" x1="312.23" y1="126.28" x2="288.52" y2="120.45"/>
  <line class="cls-1" x1="312.46" y1="125.07" x2="288.74" y2="119.24"/>
  <line class="cls-1" x1="312.65" y1="123.86" x2="288.93" y2="118.03"/>
  <line class="cls-1" x1="312.87" y1="122.66" x2="289.15" y2="116.83"/>
  <line class="cls-1" x1="313.07" y1="121.45" x2="289.35" y2="115.62"/>
  <line class="cls-1" x1="313.29" y1="120.24" x2="289.57" y2="114.41"/>
  <line class="cls-1" x1="313.48" y1="119.03" x2="289.77" y2="113.2"/>
  <line class="cls-1" x1="313.7" y1="117.82" x2="289.99" y2="111.99"/>
  <line class="cls-1" x1="314.02" y1="116.64" x2="290.3" y2="110.81"/>
  <line class="cls-1" x1="314.19" y1="115.63" x2="290.47" y2="109.8"/>
  <line class="cls-1" x1="314.35" y1="114.61" x2="290.63" y2="108.78"/>
  <line class="cls-1" x1="314.55" y1="113.6" x2="290.83" y2="107.77"/>
  <line class="cls-1" x1="314.75" y1="112.59" x2="291.03" y2="106.76"/>
  <polyline class="cls-4" points="281.18 103.18 281.18 149.51 283.05 149.51 290.64 106.1"/>
  <polyline class="cls-5" points="314.55 113.6 304.67 172.82 258.1 172.82 257.78 365.15 287.28 365.15 286.16 420.67 170.7 420.02 170.7 431.39 142.94 430.94"/>
  <polyline class="cls-5" points="124.03 431.39 124.26 357.67 116.83 357.67 117.07 152.54"/>
  <polyline class="cls-5" points="117.68 139.45 118.17 102.64 57.59 102.13 58.29 63.61 59.05 31.78 78.61 31.78"/>
  <line class="cls-5" x1="118.17" y1="102.64" x2="118.4" y2="77.63"/>
  <line class="cls-3" x1="170.7" y1="138.57" x2="170.72" y2="77.19"/>
  <line class="cls-3" x1="168.41" y1="138.57" x2="168.42" y2="77.19"/>
  <line class="cls-3" x1="166.15" y1="138.71" x2="165.72" y2="77.19"/>
  <line class="cls-3" x1="163.68" y1="138.57" x2="163.06" y2="77.19"/>
  <line class="cls-3" x1="160.97" y1="138.57" x2="160.39" y2="77.19"/>
  <line class="cls-3" x1="158.29" y1="138.66" x2="158.08" y2="77.19"/>
  <line class="cls-2" x1="171" y1="104.72" x2="158.07" y2="104.68"/>
  <line class="cls-2" x1="258.66" y1="102.82" x2="259.97" y2="171.54"/>
  <polyline class="cls-2" points="199.93 376.56 154.8 376.62 154.05 430.25"/>
  <line class="cls-2" x1="171.57" y1="420.02" x2="154.99" y2="420.02"/>
  <line class="cls-2" x1="213.04" y1="420.57" x2="213.04" y2="366.05"/>
  <line class="cls-2" x1="231.2" y1="365.97" x2="257.78" y2="366.05"/>
  <line class="cls-2" x1="222.47" y1="366.01" x2="212.11" y2="366.01"/>
  <line class="cls-2" x1="209.03" y1="376.56" x2="213.51" y2="376.56"/>
  <polyline class="cls-5" points="406.08 114.05 406.9 365.35 378.05 365.31 378.05 421.69 475.19 422.68 475.19 433.12 545.79 433.13 545.42 97.96 499.22 97.96 499.22 87.94"/>
  <line class="cls-5" x1="499.22" y1="78.78" x2="499.22" y2="67.94"/>
  <polyline class="cls-5" points="499.22 59.68 499.22 49.32 547.29 49.32 546.78 16.76"/>
  <polyline class="cls-5" points="541.34 16.76 541.34 39.2 475.59 39.24 475.59 48.43 437.32 48.43"/>
  <line class="cls-5" x1="462.76" y1="48.43" x2="462.56" y2="0.01"/>
  <path class="cls-3" d="M359.68,311l0,9.37a12,12,0,0,1-5-3,15.7,15.7,0,0,1-3.91-6.45" transform="translate(-13.41 -195.28)"/>
  <path class="cls-3" d="M373.85,311.45l0,9a12.8,12.8,0,0,1-5.15-2.85,15,15,0,0,1-4-6.16" transform="translate(-13.41 -195.28)"/>
  <path class="cls-3" d="M389.69,311.45l0,9.11a13.63,13.63,0,0,1-5.4-2.9,15,15,0,0,1-4.2-6.26" transform="translate(-13.41 -195.28)"/>
  <path class="cls-3" d="M447.41,560.93v-9.36a11.53,11.53,0,0,1,4.82,3A15.77,15.77,0,0,1,456,561" transform="translate(-13.41 -195.28)"/>
  <path class="cls-3" d="M466.22,560.93v-9.36a12.43,12.43,0,0,1,5.12,3,15.48,15.48,0,0,1,4,6.43" transform="translate(-13.41 -195.28)"/>
  <path class="cls-3" d="M476.29,497.78l.09,9.42a15.23,15.23,0,0,1-10.71-9.35" transform="translate(-13.41 -195.28)"/>
  <path class="cls-3" d="M475.72,493.33h-7.5a14.43,14.43,0,0,1,2.38-5.3,12.51,12.51,0,0,1,5.14-4.14" transform="translate(-13.41 -195.28)"/>
  <path class="cls-3" d="M475.5,474.63v7.5a14.31,14.31,0,0,1-5.3-2.37,12.35,12.35,0,0,1-4.14-5.15" transform="translate(-13.41 -195.28)"/>
  <path class="cls-3" d="M476,370.75l.05,7.48a15.53,15.53,0,0,1-5.58-2.33,12.56,12.56,0,0,1-4.38-5.1" transform="translate(-13.41 -195.28)"/>
  <path class="cls-3" d="M477.36,363h-7.5a18.51,18.51,0,0,1,2.37-6.23,12.91,12.91,0,0,1,5.15-4.85" transform="translate(-13.41 -195.28)"/>
  <path class="cls-3" d="M467.46,345.33v-7.17a15.75,15.75,0,0,1,5.57,2.27,12.12,12.12,0,0,1,4.35,4.92" transform="translate(-13.41 -195.28)"/>
  <line class="cls-2" x1="498.83" y1="97.94" x2="480.87" y2="98"/>
  <path class="cls-3" d="M511.1,263.71l-9.65,0a12.67,12.67,0,0,1,3-5.26,16.12,16.12,0,0,1,6.6-4.13" transform="translate(-13.41 -195.28)"/>
  <path class="cls-3" d="M511.11,283.69l-9.66,0a14.3,14.3,0,0,1,3-5.77,15.88,15.88,0,0,1,6.62-4.53" transform="translate(-13.41 -195.28)"/>
  <path class="cls-3" d="M538.2,496.49v-9.42a15.42,15.42,0,0,1,6,3,15.62,15.62,0,0,1,4.66,6.47" transform="translate(-13.41 -195.28)"/>
  <path class="cls-3" d="M179,553l.08,9.42a15.27,15.27,0,0,1-6-2.93A15.55,15.55,0,0,1,168.4,553" transform="translate(-13.41 -195.28)"/>
  <path class="cls-3" d="M149.74,526.5h8.37a10.66,10.66,0,0,1-2.65,4.43,14.05,14.05,0,0,1-5.74,3.46" transform="translate(-13.41 -195.28)"/>
  <path class="cls-3" d="M150.75,511.27h8.37a11.38,11.38,0,0,1-2.65,4.66,14,14,0,0,1-5.74,3.63" transform="translate(-13.41 -195.28)"/>
  <path class="cls-3" d="M150.28,500.28h8.37a9,9,0,0,1-2.65,3.77,14.86,14.86,0,0,1-5.74,2.95" transform="translate(-13.41 -195.28)"/>
  <path class="cls-3" d="M150,486h8.37a10.84,10.84,0,0,1-2.65,4.43,14.07,14.07,0,0,1-5.74,3.45" transform="translate(-13.41 -195.28)"/>
  <path class="cls-3" d="M175.7,513.36l.09,8.36a16.45,16.45,0,0,1-6.11-2.58,14,14,0,0,1-4.81-5.69" transform="translate(-13.41 -195.28)"/>
  <path class="cls-3" d="M218,486.1l.08,8.37a16.66,16.66,0,0,1-6.1-2.58,14,14,0,0,1-4.81-5.69" transform="translate(-13.41 -195.28)"/>
  <polyline class="cls-5" points="33.33 102.13 34.63 17.14 149.5 17.42"/>
  <line class="cls-6" x1="33.98" y1="39.13" x2="0.02" y2="38.61"/>
  <line class="cls-2" x1="145.8" y1="17.64" x2="145.8" y2="49.92"/>
  <line class="cls-3" x1="145.8" y1="47.09" x2="265.36" y2="46.98"/>
  <line class="cls-3" x1="145.8" y1="49.39" x2="265.37" y2="49.29"/>
  <line class="cls-6" x1="163.07" y1="16.53" x2="163.07" y2="47.03"/>
  <line class="cls-6" x1="236.33" y1="16.83" x2="236.33" y2="47.33"/>
  <line class="cls-2" x1="180.88" y1="16.83" x2="264.92" y2="16.76"/>
  <line class="cls-6" x1="284.23" y1="16.83" x2="284.23" y2="47.33"/>
  <line class="cls-2" x1="280.71" y1="16.83" x2="280.71" y2="49.11"/>
  <line class="cls-3" x1="279.71" y1="49.35" x2="323.94" y2="49.31"/>
  <line class="cls-3" x1="280.13" y1="46.81" x2="324.36" y2="46.77"/>
  <line class="cls-2" x1="278.21" y1="16.74" x2="293.72" y2="16.73"/>
  <line class="cls-2" x1="303.23" y1="16.72" x2="332.8" y2="16.7"/>
  <line class="cls-6" x1="323.22" y1="16.83" x2="323.22" y2="49.76"/>
  <polyline class="cls-6" points="333.88 48.44 347.26 48.32 347.24 21.14 323.94 21.14"/>
  <line class="cls-6" x1="347.24" y1="21.14" x2="411.55" y2="21.03"/>
  <line class="cls-2" x1="380.42" y1="21.14" x2="380.42" y2="49.88"/>
  <line class="cls-5" x1="363.43" y1="21.56" x2="363.64" y2="49.76"/>
  <line class="cls-3" x1="379.41" y1="49.81" x2="419.32" y2="49.81"/>
  <line class="cls-2" x1="410.27" y1="42.48" x2="410.27" y2="50.05"/>
  <line class="cls-2" x1="410.27" y1="20.51" x2="410.27" y2="27.32"/>
  <line class="cls-2" x1="418.31" y1="46.26" x2="418.31" y2="50.16"/>
  <polyline class="cls-2" points="59.05 63.68 94.1 63.67 93.96 76.59"/>
  <line class="cls-2" x1="105.14" y1="75.83" x2="105.2" y2="102.82"/>
  <line class="cls-2" x1="92.66" y1="16.58" x2="93.09" y2="54.43"/>
  <line class="cls-2" x1="93.25" y1="38.61" x2="145.8" y2="38.61"/>
  <polyline class="cls-2" points="194.08 269.18 191.94 269.19 163.45 289.78 163.45 290.66"/>
  <line class="cls-2" x1="203.92" y1="269.18" x2="214.33" y2="269.18"/>
  <line class="cls-2" x1="501.29" y1="352.49" x2="501.36" y2="366.63"/>
  <line class="cls-2" x1="686.3" y1="440.02" x2="686.37" y2="454.16"/>
  <line class="cls-2" x1="686.3" y1="440.02" x2="686.37" y2="454.16"/>
  <line class="cls-2" x1="686.3" y1="440.02" x2="686.37" y2="454.16"/>
  <line class="cls-2" x1="514.12" y1="352.52" x2="514.19" y2="366.66"/>
  <line class="cls-2" x1="524.27" y1="345.84" x2="524.37" y2="366.66"/>
  <line class="cls-2" x1="500.69" y1="302.42" x2="500.76" y2="317.45"/>
  <line class="cls-2" x1="513.39" y1="302.76" x2="513.46" y2="317.79"/>
  <polygon id="TP1" class="cls-7" points="443.62 175.9 477.04 175.96 512.59 151.56 543.22 151.59 543.36 300.82 510.78 300.7 477.26 277.77 443.62 277.58 439.78 227.12 443.62 175.9"/>
  <polygon id="TP2" class="cls-7" points="119.4 165.03 119.3 289.06 161.74 288.96 191.23 267.67 213.78 267.67 215.38 227.19 212.14 185.35 190.27 185.22 163.03 165.47 119.4 165.03"/>
  <line class="cls-6" x1="261.36" y1="35.18" x2="261.36" y2="47.33"/>
  <line class="cls-6" x1="261.7" y1="16.61" x2="261.7" y2="28.76"/>
  <line class="cls-3" x1="379.53" y1="46.81" x2="419.31" y2="46.77"/>
  <polygon id="TP32" class="cls-7" points="214.64 366.98 284.23 366.98 284.09 418.51 213.99 417.83 214.64 366.98"/>
  <polygon id="TP31" class="cls-7" points="379.98 367.65 450.9 367.65 450.75 420.26 379.31 419.56 379.98 367.65"/>
  <text class="cls-8" transform="translate(151.78 238.18)">TP2</text>
  <polygon id="TP301" class="cls-7" points="155.96 377.61 212 377.61 211.89 418.11 155.43 417.57 155.96 377.61"/>
  <text class="cls-9" transform="translate(166.53 404.67)">TP301</text>
  <text class="cls-10" transform="translate(234.22 398.89)">TP32</text>
  <text class="cls-10" transform="translate(402.06 400.15)">TP31</text>
  <text class="cls-8" transform="translate(482.22 241.88)">TP1</text>
</svg>
