<?xml version="1.0" encoding="UTF-8"?>
<svg id="Lager_2" data-name="Lager 2" xmlns="http://www.w3.org/2000/svg" viewBox="0 0 440.2 440.76">
  <defs>
    <style>
      .cls-1 {
        stroke-width: 3px;
      }

      .cls-1, .cls-2, .cls-3, .cls-4, .cls-5 {
        fill: none;
        stroke: #000;
        stroke-miterlimit: 10;
      }

      .cls-6 {
        font-size: 13px;
      }

      .cls-6, .cls-7, .cls-8 {
        font-family: MyriadPro-Regular, 'Myriad Pro';
      }

      .cls-9 {
        fill: #fff;
      }

      .cls-2 {
        stroke-width: .75px;
      }

      .cls-7 {
        font-size: 12px;
      }

      .cls-3 {
        stroke-width: 2px;
      }

      .cls-4 {
        stroke-width: 4px;
      }

      .cls-8 {
        font-size: 16px;
      }

      .cls-5 {
        stroke-width: .25px;
      }
    </style>
  </defs>
  <line class="cls-4" x1="146.53" y1="218.41" x2="145.09" y2="354.43"/>
  <polyline class="cls-3" points="150.59 382.97 150.59 431.86 438.29 432.38 438.31 392.02"/>
  <line class="cls-4" x1="437.59" y1="392.31" x2="437.59" y2="216.52"/>
  <polyline class="cls-4" points="437.59 216.52 432.4 216.52 432.4 184.41 438.2 184.41 438.2 2.84 19.85 3.74 3.37 220.37 146.26 220.37 145.57 353.03 149.38 353.03 149.38 382.58 149.38 383.99"/>
  <line class="cls-3" x1="9.41" y1="163.3" x2="64.41" y2="163.3"/>
  <polyline class="cls-3" points="64.41 163.3 64.58 122.66 64.41 167.17"/>
  <line class="cls-3" x1="12.15" y1="103.85" x2="64.41" y2="103.27"/>
  <polyline class="cls-3" points="64.41 103.27 64.28 113.15 64.58 97.77"/>
  <polyline class="cls-3" points="64.43 82.73 64.28 38.85 17.27 38.56"/>
  <line class="cls-3" x1="64.58" y1="175.96" x2="64.74" y2="220.1"/>
  <line class="cls-3" x1="98.34" y1="184.81" x2="130.37" y2="184.81"/>
  <polyline class="cls-3" points="129.33 185.21 129.33 165.54 77.52 165.11 77.25 183.98 88.34 184.31"/>
  <polyline class="cls-3" points="104.36 165.11 103.68 142.81 129.33 142.81 129.33 107.71 119.89 107.71 119.59 98.28 112.09 98.28"/>
  <polyline class="cls-3" points="103.68 142.81 78.38 142.79 78.48 98.58 102.34 98.58"/>
  <line class="cls-3" x1="78.38" y1="142.79" x2="78.48" y2="149.31"/>
  <line class="cls-3" x1="77.57" y1="165.11" x2="77.35" y2="157.59"/>
  <line class="cls-3" x1="207.24" y1="219.89" x2="207.33" y2="219.59"/>
  <polyline class="cls-3" points="146.52 219.34 207.33 219.59 207.4 243.89"/>
  <polyline class="cls-3" points="145.77 314.1 207.4 314.1 207.48 358.81 207.48 307.6"/>
  <line class="cls-3" x1="207.48" y1="403.03" x2="170.31" y2="403.06"/>
  <line class="cls-3" x1="206.75" y1="431.82" x2="206.57" y2="412.31"/>
  <line class="cls-3" x1="170.92" y1="431.82" x2="171.25" y2="403.21"/>
  <line class="cls-3" x1="173.76" y1="383.9" x2="151.01" y2="383.74"/>
  <line class="cls-3" x1="207.66" y1="300.1" x2="207.66" y2="250.32"/>
  <polyline class="cls-3" points="309.61 432.15 309.61 401.11 323.03 401.11"/>
  <polyline class="cls-3" points="242.79 431.82 242.79 401.11 265.26 401.11"/>
  <line class="cls-3" x1="208.32" y1="255.43" x2="146.69" y2="255.09"/>
  <polyline class="cls-3" points="275.75 431.82 275.74 401.11 297.37 401.11"/>
  <line class="cls-3" x1="275.74" y1="401.11" x2="270.72" y2="401.11"/>
  <polygon class="cls-4" points="326.33 376.5 326.33 357.65 341.22 357.65 340.21 253.61 274.37 253.61 271.41 266.33 242.16 266.96 240.79 357.11 259.36 357.65 259.29 376.57 326.33 376.5"/>
  <polyline class="cls-1" points="340.21 253.61 340.44 228.51 279.25 228.65 274.37 253.61"/>
  <polyline class="cls-3" points="177.3 184.81 145.57 184.81 145.57 176.53"/>
  <g>
    <polyline class="cls-3" points="322.43 184.81 322.37 169.73 314.24 169.76 314.24 184.81 310.26 184.81 310.26 169.97 303.27 169.97 303.27 184.81 177.3 184.81 177.32 158.15 145.57 158.15 145.57 169.26 145.42 143.49"/>
    <polyline class="cls-3" points="177.7 165.12 340.92 165.85 341.03 154.23 358.53 154.23 358.53 159.01 347.7 158.8 347.83 169.97 325.73 169.89 325.73 181.03 345.19 181.03 345.19 185.21"/>
  </g>
  <line class="cls-3" x1="322.43" y1="183.58" x2="322.44" y2="185.76"/>
  <line class="cls-3" x1="322.44" y1="184.81" x2="346.17" y2="184.67"/>
  <polyline class="cls-3" points="357.25 147.01 357.25 107.68 352.17 107.68"/>
  <polyline class="cls-3" points="357.37 136.94 291.59 136.94 292.25 107.68 313.6 107.68"/>
  <polyline class="cls-3" points="324.48 137.03 324.48 107.68 346.67 107.68 319.51 107.68"/>
  <line class="cls-3" x1="291.59" y1="136.94" x2="291.26" y2="165.62"/>
  <line class="cls-3" x1="292.25" y1="107.68" x2="268.92" y2="107.35"/>
  <polyline class="cls-3" points="234.79 165.37 235.07 107.71 211.59 107.81"/>
  <polyline class="cls-3" points="177.32 158.15 177.71 107.81 203.36 108.05 173.82 107.68"/>
  <polyline class="cls-3" points="177.23 132.91 145.42 133.08 145.57 107.81 167.36 107.81"/>
  <line class="cls-3" x1="145.42" y1="133.08" x2="145.42" y2="138.36"/>
  <polyline class="cls-3" points="54.3 4.29 54.3 28.7 86.18 28.19 86.18 4.7"/>
  <polyline class="cls-3" points="86.18 28.19 130.54 27.81 130.56 23.32"/>
  <line class="cls-3" x1="130.68" y1="17.25" x2="130.68" y2="4.7"/>
  <polyline class="cls-3" points="77.3 27.96 77.3 75.65 102.18 75.56"/>
  <line class="cls-3" x1="77.3" y1="36.69" x2="130.48" y2="36.59"/>
  <polyline class="cls-3" points="119.42 36.61 119.6 75.65 110.71 75.65"/>
  <polyline class="cls-3" points="145.42 4.05 146.26 65.58 150.52 65.6"/>
  <line class="cls-3" x1="159.26" y1="65.6" x2="215.75" y2="65.49"/>
  <line class="cls-3" x1="211.3" y1="65.49" x2="211.1" y2="4.7"/>
  <line class="cls-3" x1="223.88" y1="65.58" x2="281.26" y2="65.58"/>
  <line class="cls-3" x1="276.46" y1="3.5" x2="277.41" y2="64.96"/>
  <line class="cls-3" x1="290.27" y1="65.49" x2="340.06" y2="65.58"/>
  <line class="cls-3" x1="324.48" y1="65.49" x2="324.48" y2="4.7"/>
  <polyline class="cls-3" points="349.03 65.49 357.92 65.49 357.64 3.61"/>
  <line class="cls-3" x1="388.89" y1="3.28" x2="389.07" y2="22.92"/>
  <polyline class="cls-3" points="437.85 34.23 379.16 34.23 379.17 65.49 379.16 66.52"/>
  <polyline class="cls-1" points="438.15 97.29 379.48 97.29 379.16 80.36"/>
  <polyline class="cls-3" points="438.2 159.07 379.48 158.86 379.48 107.52"/>
  <line class="cls-1" x1="437.59" y1="160.77" x2="378.53" y2="160.77"/>
  <line class="cls-1" x1="389.23" y1="160.77" x2="389.23" y2="170.25"/>
  <path class="cls-1" d="M431.81,183.95l-43.6-.29"/>
  <polyline class="cls-3" points="431.79 217.18 375.21 217.18 375.21 236.35"/>
  <polyline class="cls-3" points="436.81 276.15 375.69 276.26 375.28 242.08 375.44 284.86"/>
  <polyline class="cls-3" points="437.59 332.74 375.77 332.74 375.28 291.03"/>
  <line class="cls-3" x1="375.77" y1="332.74" x2="375.69" y2="339.78"/>
  <polyline class="cls-3" points="437.78 391.31 371.95 391.31 371.95 395.53"/>
  <line class="cls-3" x1="376.2" y1="347.57" x2="375.72" y2="391.31"/>
  <line class="cls-3" x1="388.65" y1="391.31" x2="388.59" y2="416.63"/>
  <line class="cls-3" x1="399.51" y1="402.37" x2="399.42" y2="391.31"/>
  <line class="cls-2" x1="388.65" y1="391.31" x2="399.51" y2="416.55"/>
  <polyline class="cls-2" points="422.15 417.75 421.98 402.37 428.37 402.37 428.37 417.75"/>
  <line class="cls-5" x1="422.14" y1="417.42" x2="411.98" y2="417.31"/>
  <line class="cls-5" x1="422.15" y1="416.99" x2="411.98" y2="416.88"/>
  <line class="cls-5" x1="422.14" y1="416.56" x2="411.98" y2="416.45"/>
  <line class="cls-5" x1="422.15" y1="416.13" x2="411.98" y2="416.02"/>
  <line class="cls-5" x1="422.14" y1="415.7" x2="411.98" y2="415.59"/>
  <line class="cls-5" x1="422.14" y1="415.27" x2="411.98" y2="415.16"/>
  <line class="cls-5" x1="422.14" y1="414.84" x2="411.97" y2="414.73"/>
  <line class="cls-5" x1="422.14" y1="414.42" x2="411.98" y2="414.3"/>
  <line class="cls-5" x1="422.19" y1="413.99" x2="412.02" y2="413.88"/>
  <line class="cls-5" x1="422.19" y1="413.56" x2="412.03" y2="413.45"/>
  <line class="cls-5" x1="422.18" y1="413.13" x2="412.02" y2="413.02"/>
  <line class="cls-5" x1="422.19" y1="412.7" x2="412.03" y2="412.59"/>
  <line class="cls-5" x1="422.21" y1="412.27" x2="412.05" y2="412.16"/>
  <line class="cls-5" x1="422.21" y1="411.84" x2="412.05" y2="411.73"/>
  <line class="cls-5" x1="422.21" y1="411.41" x2="412.04" y2="411.3"/>
  <line class="cls-5" x1="422.21" y1="410.99" x2="412.05" y2="410.88"/>
  <line class="cls-5" x1="422.21" y1="410.56" x2="412.04" y2="410.45"/>
  <line class="cls-5" x1="422.21" y1="410.13" x2="412.05" y2="410.02"/>
  <line class="cls-5" x1="422.2" y1="409.7" x2="412.04" y2="409.59"/>
  <line class="cls-5" x1="422.21" y1="409.27" x2="412.05" y2="409.16"/>
  <line class="cls-5" x1="422.25" y1="408.84" x2="412.09" y2="408.73"/>
  <line class="cls-5" x1="422.26" y1="408.41" x2="412.09" y2="408.3"/>
  <line class="cls-5" x1="422.25" y1="407.99" x2="412.09" y2="407.87"/>
  <line class="cls-5" x1="422.26" y1="407.56" x2="412.09" y2="407.45"/>
  <line class="cls-5" x1="422.23" y1="407.13" x2="412.07" y2="407.02"/>
  <line class="cls-5" x1="422.24" y1="406.7" x2="412.07" y2="406.59"/>
  <line class="cls-5" x1="422.23" y1="406.27" x2="412.07" y2="406.16"/>
  <line class="cls-5" x1="422.23" y1="405.84" x2="412.07" y2="405.73"/>
  <line class="cls-5" x1="422.23" y1="405.41" x2="412.07" y2="405.3"/>
  <line class="cls-5" x1="422.23" y1="404.98" x2="412.07" y2="404.87"/>
  <line class="cls-5" x1="422.23" y1="404.56" x2="412.06" y2="404.45"/>
  <line class="cls-5" x1="422.23" y1="404.13" x2="412.07" y2="404.02"/>
  <line class="cls-5" x1="422.28" y1="403.7" x2="412.11" y2="403.59"/>
  <line class="cls-5" x1="422.27" y1="403.34" x2="412.11" y2="403.23"/>
  <line class="cls-5" x1="422.27" y1="402.98" x2="412.1" y2="402.87"/>
  <line class="cls-5" x1="422.28" y1="402.62" x2="412.11" y2="402.51"/>
  <line class="cls-5" x1="422.29" y1="402.26" x2="412.12" y2="402.15"/>
  <line class="cls-5" x1="438.31" y1="417.36" x2="428.14" y2="417.44"/>
  <line class="cls-5" x1="438.3" y1="416.93" x2="428.14" y2="417.01"/>
  <line class="cls-5" x1="438.29" y1="416.5" x2="428.12" y2="416.58"/>
  <line class="cls-5" x1="438.28" y1="416.08" x2="428.12" y2="416.15"/>
  <line class="cls-5" x1="438.27" y1="415.65" x2="428.11" y2="415.72"/>
  <line class="cls-5" x1="438.27" y1="415.22" x2="428.1" y2="415.29"/>
  <line class="cls-5" x1="438.25" y1="414.79" x2="428.09" y2="414.87"/>
  <line class="cls-5" x1="438.25" y1="414.36" x2="428.09" y2="414.44"/>
  <line class="cls-5" x1="438.29" y1="413.93" x2="428.12" y2="414.01"/>
  <line class="cls-5" x1="438.28" y1="413.5" x2="428.12" y2="413.58"/>
  <line class="cls-5" x1="438.27" y1="413.07" x2="428.1" y2="413.15"/>
  <line class="cls-5" x1="438.26" y1="412.65" x2="428.1" y2="412.72"/>
  <line class="cls-5" x1="438.28" y1="412.22" x2="428.11" y2="412.29"/>
  <line class="cls-5" x1="438.27" y1="411.79" x2="428.11" y2="411.86"/>
  <line class="cls-5" x1="438.26" y1="411.36" x2="428.1" y2="411.44"/>
  <line class="cls-5" x1="438.26" y1="410.93" x2="428.09" y2="411.01"/>
  <line class="cls-5" x1="438.24" y1="410.5" x2="428.08" y2="410.58"/>
  <line class="cls-5" x1="438.24" y1="410.07" x2="428.08" y2="410.15"/>
  <line class="cls-5" x1="438.22" y1="409.64" x2="428.06" y2="409.72"/>
  <line class="cls-5" x1="438.22" y1="409.22" x2="428.06" y2="409.29"/>
  <line class="cls-5" x1="438.26" y1="408.79" x2="428.09" y2="408.86"/>
  <line class="cls-5" x1="438.25" y1="408.36" x2="428.09" y2="408.43"/>
  <line class="cls-5" x1="438.24" y1="407.93" x2="428.08" y2="408.01"/>
  <line class="cls-5" x1="438.24" y1="407.5" x2="428.07" y2="407.58"/>
  <line class="cls-5" x1="438.21" y1="407.07" x2="428.04" y2="407.15"/>
  <line class="cls-5" x1="438.2" y1="406.64" x2="428.04" y2="406.72"/>
  <line class="cls-5" x1="438.19" y1="406.22" x2="428.02" y2="406.29"/>
  <line class="cls-5" x1="438.18" y1="405.79" x2="428.02" y2="405.86"/>
  <line class="cls-5" x1="438.17" y1="405.36" x2="428.01" y2="405.44"/>
  <line class="cls-5" x1="438.17" y1="404.93" x2="428" y2="405.01"/>
  <line class="cls-5" x1="438.15" y1="404.5" x2="427.99" y2="404.58"/>
  <line class="cls-5" x1="438.15" y1="404.07" x2="427.99" y2="404.15"/>
  <line class="cls-5" x1="438.19" y1="403.64" x2="428.02" y2="403.72"/>
  <line class="cls-5" x1="438.18" y1="403.28" x2="428.01" y2="403.36"/>
  <line class="cls-5" x1="438.16" y1="402.92" x2="428" y2="403"/>
  <line class="cls-5" x1="438.17" y1="402.56" x2="428" y2="402.64"/>
  <line class="cls-5" x1="438.17" y1="402.21" x2="428" y2="402.28"/>
  <line class="cls-5" x1="421.98" y1="402.47" x2="422.09" y2="392.31"/>
  <line class="cls-5" x1="422.41" y1="402.48" x2="422.52" y2="392.32"/>
  <line class="cls-5" x1="422.84" y1="402.47" x2="422.95" y2="392.31"/>
  <line class="cls-5" x1="423.27" y1="402.48" x2="423.38" y2="392.31"/>
  <line class="cls-5" x1="423.69" y1="402.47" x2="423.81" y2="392.31"/>
  <line class="cls-5" x1="424.12" y1="402.48" x2="424.23" y2="392.31"/>
  <line class="cls-5" x1="424.55" y1="402.47" x2="424.66" y2="392.31"/>
  <line class="cls-5" x1="424.98" y1="402.47" x2="425.09" y2="392.31"/>
  <line class="cls-5" x1="425.41" y1="402.52" x2="425.52" y2="392.35"/>
  <line class="cls-5" x1="425.84" y1="402.52" x2="425.95" y2="392.36"/>
  <line class="cls-5" x1="426.23" y1="402.47" x2="426.34" y2="392.3"/>
  <line class="cls-5" x1="426.66" y1="402.47" x2="426.77" y2="392.31"/>
  <line class="cls-5" x1="427.09" y1="402.47" x2="427.2" y2="392.3"/>
  <line class="cls-5" x1="427.52" y1="402.47" x2="427.63" y2="392.31"/>
  <line class="cls-5" x1="427.94" y1="402.46" x2="428.06" y2="392.3"/>
  <line class="cls-5" x1="428.37" y1="402.47" x2="428.48" y2="392.31"/>
  <line class="cls-3" x1="309.61" y1="401.11" x2="304.26" y2="401.11"/>
  <polyline class="cls-3" points="331.04 401.11 343.02 401.11 343.24 431.99"/>
  <line class="cls-3" x1="411.84" y1="391.98" x2="411.67" y2="417.67"/>
  <path class="cls-3" d="M411.67,402.37h-12.16v14.18l-27.56,.08c.03,5.23,0,5.55,0,5.55"/>
  <line class="cls-3" x1="371.95" y1="416.63" x2="371.95" y2="401.11"/>
  <line class="cls-5" x1="256.61" y1="251.38" x2="243.92" y2="251.38"/>
  <line class="cls-5" x1="256.61" y1="250.69" x2="243.92" y2="250.69"/>
  <line class="cls-5" x1="256.6" y1="250.01" x2="243.91" y2="250.01"/>
  <line class="cls-5" x1="256.6" y1="249.32" x2="243.91" y2="249.32"/>
  <line class="cls-5" x1="256.58" y1="248.64" x2="243.89" y2="248.64"/>
  <line class="cls-5" x1="256.58" y1="247.95" x2="243.89" y2="247.95"/>
  <line class="cls-5" x1="256.57" y1="247.27" x2="243.88" y2="247.27"/>
  <line class="cls-5" x1="256.57" y1="246.58" x2="243.88" y2="246.58"/>
  <line class="cls-5" x1="256.62" y1="245.9" x2="243.93" y2="245.9"/>
  <line class="cls-5" x1="256.62" y1="245.21" x2="243.93" y2="245.21"/>
  <line class="cls-5" x1="256.61" y1="244.53" x2="243.91" y2="244.53"/>
  <line class="cls-5" x1="256.61" y1="243.84" x2="243.91" y2="243.84"/>
  <line class="cls-5" x1="256.63" y1="243.16" x2="243.94" y2="243.16"/>
  <line class="cls-5" x1="256.63" y1="242.47" x2="243.94" y2="242.47"/>
  <line class="cls-5" x1="256.61" y1="241.79" x2="243.92" y2="241.79"/>
  <line class="cls-5" x1="256.61" y1="241.1" x2="243.92" y2="241.1"/>
  <line class="cls-5" x1="256.6" y1="240.42" x2="243.91" y2="240.42"/>
  <line class="cls-5" x1="256.6" y1="239.73" x2="243.91" y2="239.73"/>
  <line class="cls-5" x1="256.58" y1="239.05" x2="243.89" y2="239.05"/>
  <line class="cls-5" x1="256.58" y1="238.36" x2="243.89" y2="238.36"/>
  <line class="cls-5" x1="256.63" y1="237.68" x2="243.94" y2="237.68"/>
  <line class="cls-5" x1="256.63" y1="236.99" x2="243.94" y2="236.99"/>
  <line class="cls-5" x1="256.62" y1="236.31" x2="243.93" y2="236.31"/>
  <line class="cls-5" x1="256.62" y1="235.62" x2="243.93" y2="235.62"/>
  <line class="cls-5" x1="256.58" y1="234.94" x2="243.89" y2="234.94"/>
  <line class="cls-5" x1="256.58" y1="234.25" x2="243.89" y2="234.25"/>
  <line class="cls-5" x1="256.57" y1="233.57" x2="243.88" y2="233.57"/>
  <line class="cls-5" x1="256.57" y1="232.88" x2="243.88" y2="232.88"/>
  <line class="cls-5" x1="256.56" y1="232.2" x2="243.87" y2="232.2"/>
  <line class="cls-5" x1="256.56" y1="231.51" x2="243.87" y2="231.51"/>
  <line class="cls-5" x1="256.54" y1="230.83" x2="243.85" y2="230.83"/>
  <line class="cls-5" x1="256.54" y1="230.14" x2="243.85" y2="230.14"/>
  <line class="cls-5" x1="256.59" y1="229.46" x2="243.9" y2="229.46"/>
  <line class="cls-5" x1="256.58" y1="228.88" x2="243.89" y2="228.88"/>
  <line class="cls-5" x1="256.57" y1="228.31" x2="243.88" y2="228.31"/>
  <line class="cls-5" x1="256.58" y1="227.73" x2="243.89" y2="227.73"/>
  <line class="cls-5" x1="256.58" y1="227.16" x2="243.89" y2="227.16"/>
  <line class="cls-5" x1="272.61" y1="254.38" x2="258.15" y2="251.31"/>
  <line class="cls-5" x1="272.74" y1="253.75" x2="258.28" y2="250.68"/>
  <line class="cls-5" x1="272.86" y1="253.11" x2="258.4" y2="250.04"/>
  <line class="cls-5" x1="273" y1="252.48" x2="258.54" y2="249.4"/>
  <line class="cls-5" x1="273.12" y1="251.84" x2="258.65" y2="248.77"/>
  <line class="cls-5" x1="273.25" y1="251.2" x2="258.79" y2="248.13"/>
  <line class="cls-5" x1="273.37" y1="250.56" x2="258.91" y2="247.49"/>
  <line class="cls-5" x1="273.5" y1="249.93" x2="259.04" y2="246.86"/>
  <line class="cls-5" x1="273.7" y1="249.31" x2="259.23" y2="246.23"/>
  <line class="cls-5" x1="273.83" y1="248.67" x2="259.37" y2="245.6"/>
  <line class="cls-5" x1="273.95" y1="248.03" x2="259.49" y2="244.96"/>
  <line class="cls-5" x1="274.08" y1="247.4" x2="259.62" y2="244.33"/>
  <line class="cls-5" x1="274.24" y1="246.77" x2="259.78" y2="243.7"/>
  <line class="cls-5" x1="274.38" y1="246.13" x2="259.92" y2="243.06"/>
  <line class="cls-5" x1="274.5" y1="245.49" x2="260.03" y2="242.42"/>
  <line class="cls-5" x1="274.63" y1="244.86" x2="260.17" y2="241.79"/>
  <line class="cls-5" x1="274.75" y1="244.22" x2="260.29" y2="241.15"/>
  <line class="cls-5" x1="274.88" y1="243.59" x2="260.42" y2="240.52"/>
  <line class="cls-5" x1="275" y1="242.95" x2="260.54" y2="239.88"/>
  <line class="cls-5" x1="275.14" y1="242.31" x2="260.68" y2="239.24"/>
  <line class="cls-5" x1="275.33" y1="241.69" x2="260.87" y2="238.62"/>
  <line class="cls-5" x1="275.46" y1="241.06" x2="261" y2="237.98"/>
  <line class="cls-5" x1="275.58" y1="240.42" x2="261.12" y2="237.35"/>
  <line class="cls-5" x1="275.72" y1="239.78" x2="261.26" y2="236.71"/>
  <line class="cls-5" x1="275.81" y1="239.14" x2="261.35" y2="236.07"/>
  <line class="cls-5" x1="275.95" y1="238.5" x2="261.48" y2="235.43"/>
  <line class="cls-5" x1="276.06" y1="237.87" x2="261.6" y2="234.79"/>
  <line class="cls-5" x1="276.2" y1="237.23" x2="261.74" y2="234.16"/>
  <line class="cls-5" x1="276.32" y1="236.59" x2="261.86" y2="233.52"/>
  <line class="cls-5" x1="276.45" y1="235.96" x2="261.99" y2="232.89"/>
  <line class="cls-5" x1="276.57" y1="235.32" x2="262.11" y2="232.25"/>
  <line class="cls-5" x1="276.71" y1="234.69" x2="262.25" y2="231.61"/>
  <line class="cls-5" x1="276.9" y1="234.06" x2="262.44" y2="230.99"/>
  <line class="cls-5" x1="277" y1="233.53" x2="262.54" y2="230.46"/>
  <line class="cls-5" x1="277.1" y1="232.99" x2="262.64" y2="229.92"/>
  <line class="cls-5" x1="277.22" y1="232.46" x2="262.76" y2="229.39"/>
  <line class="cls-5" x1="277.34" y1="231.93" x2="262.88" y2="228.86"/>
  <polyline class="cls-2" points="311.51 378.5 311.67 389.55 281.31 389.55"/>
  <line class="cls-5" x1="281.67" y1="389.18" x2="281.67" y2="378.54"/>
  <line class="cls-5" x1="282.1" y1="389.2" x2="282.1" y2="378.56"/>
  <line class="cls-5" x1="282.53" y1="389.2" x2="282.53" y2="378.56"/>
  <line class="cls-5" x1="282.96" y1="389.19" x2="282.96" y2="378.55"/>
  <line class="cls-5" x1="283.38" y1="389.19" x2="283.38" y2="378.55"/>
  <line class="cls-5" x1="283.81" y1="389.18" x2="283.81" y2="378.54"/>
  <line class="cls-5" x1="284.24" y1="389.18" x2="284.24" y2="378.54"/>
  <line class="cls-5" x1="284.67" y1="389.17" x2="284.67" y2="378.53"/>
  <line class="cls-5" x1="285.1" y1="389.17" x2="285.1" y2="378.53"/>
  <line class="cls-5" x1="285.53" y1="389.21" x2="285.53" y2="378.57"/>
  <line class="cls-5" x1="285.96" y1="389.21" x2="285.96" y2="378.57"/>
  <line class="cls-5" x1="286.38" y1="389.2" x2="286.38" y2="378.56"/>
  <line class="cls-5" x1="286.81" y1="389.2" x2="286.81" y2="378.56"/>
  <line class="cls-5" x1="287.24" y1="389.21" x2="287.24" y2="378.57"/>
  <line class="cls-5" x1="287.67" y1="389.21" x2="287.67" y2="378.57"/>
  <line class="cls-5" x1="288.1" y1="389.2" x2="288.1" y2="378.56"/>
  <line class="cls-5" x1="288.53" y1="389.2" x2="288.53" y2="378.56"/>
  <line class="cls-5" x1="288.96" y1="389.19" x2="288.96" y2="378.55"/>
  <line class="cls-5" x1="289.39" y1="389.19" x2="289.39" y2="378.55"/>
  <line class="cls-5" x1="289.81" y1="389.18" x2="289.81" y2="378.54"/>
  <line class="cls-5" x1="290.24" y1="389.18" x2="290.24" y2="378.54"/>
  <line class="cls-5" x1="290.67" y1="389.22" x2="290.67" y2="378.58"/>
  <line class="cls-5" x1="291.1" y1="389.22" x2="291.1" y2="378.58"/>
  <line class="cls-5" x1="291.53" y1="389.21" x2="291.53" y2="378.57"/>
  <line class="cls-5" x1="291.96" y1="389.21" x2="291.96" y2="378.57"/>
  <line class="cls-5" x1="292.39" y1="389.18" x2="292.39" y2="378.54"/>
  <line class="cls-5" x1="292.82" y1="389.18" x2="292.82" y2="378.54"/>
  <line class="cls-5" x1="293.24" y1="389.16" x2="293.24" y2="378.53"/>
  <line class="cls-5" x1="293.67" y1="389.16" x2="293.67" y2="378.53"/>
  <line class="cls-5" x1="294.1" y1="389.15" x2="294.1" y2="378.52"/>
  <line class="cls-5" x1="294.53" y1="389.15" x2="294.53" y2="378.52"/>
  <line class="cls-5" x1="294.96" y1="389.14" x2="294.96" y2="378.5"/>
  <line class="cls-5" x1="295.39" y1="389.14" x2="295.39" y2="378.5"/>
  <line class="cls-5" x1="295.82" y1="389.18" x2="295.82" y2="378.55"/>
  <line class="cls-5" x1="296.18" y1="389.18" x2="296.18" y2="378.54"/>
  <line class="cls-5" x1="296.53" y1="389.16" x2="296.53" y2="378.53"/>
  <line class="cls-5" x1="296.89" y1="389.17" x2="296.89" y2="378.53"/>
  <line class="cls-5" x1="297.25" y1="389.18" x2="297.25" y2="378.54"/>
  <line class="cls-5" x1="297.68" y1="389.17" x2="297.68" y2="378.54"/>
  <line class="cls-5" x1="298.11" y1="389.22" x2="298.11" y2="378.58"/>
  <line class="cls-5" x1="298.54" y1="389.22" x2="298.54" y2="378.58"/>
  <line class="cls-5" x1="298.96" y1="389.2" x2="298.96" y2="378.57"/>
  <line class="cls-5" x1="299.39" y1="389.2" x2="299.39" y2="378.57"/>
  <line class="cls-5" x1="299.82" y1="389.17" x2="299.82" y2="378.54"/>
  <line class="cls-5" x1="300.25" y1="389.17" x2="300.25" y2="378.54"/>
  <line class="cls-5" x1="300.68" y1="389.16" x2="300.68" y2="378.52"/>
  <line class="cls-5" x1="301.11" y1="389.16" x2="301.11" y2="378.52"/>
  <line class="cls-5" x1="301.54" y1="389.15" x2="301.54" y2="378.51"/>
  <line class="cls-5" x1="301.96" y1="389.15" x2="301.96" y2="378.51"/>
  <line class="cls-5" x1="302.39" y1="389.14" x2="302.39" y2="378.5"/>
  <line class="cls-5" x1="302.82" y1="389.14" x2="302.82" y2="378.5"/>
  <line class="cls-5" x1="303.25" y1="389.18" x2="303.25" y2="378.54"/>
  <line class="cls-5" x1="303.61" y1="389.17" x2="303.61" y2="378.54"/>
  <line class="cls-5" x1="303.97" y1="389.16" x2="303.97" y2="378.52"/>
  <line class="cls-5" x1="304.33" y1="389.17" x2="304.33" y2="378.53"/>
  <line class="cls-5" x1="304.69" y1="389.17" x2="304.69" y2="378.54"/>
  <line class="cls-5" x1="305.08" y1="389.17" x2="305.08" y2="378.53"/>
  <line class="cls-5" x1="305.51" y1="389.17" x2="305.51" y2="378.53"/>
  <line class="cls-5" x1="305.93" y1="389.16" x2="305.93" y2="378.52"/>
  <line class="cls-5" x1="306.36" y1="389.16" x2="306.36" y2="378.52"/>
  <line class="cls-5" x1="306.79" y1="389.15" x2="306.79" y2="378.51"/>
  <line class="cls-5" x1="307.22" y1="389.15" x2="307.22" y2="378.51"/>
  <line class="cls-5" x1="307.65" y1="389.19" x2="307.65" y2="378.55"/>
  <line class="cls-5" x1="308.01" y1="389.18" x2="308.01" y2="378.54"/>
  <line class="cls-5" x1="308.37" y1="389.17" x2="308.37" y2="378.53"/>
  <line class="cls-5" x1="308.73" y1="389.17" x2="308.73" y2="378.54"/>
  <line class="cls-5" x1="309.09" y1="389.18" x2="309.09" y2="378.54"/>
  <line class="cls-5" x1="309.42" y1="389.18" x2="309.42" y2="378.54"/>
  <line class="cls-5" x1="309.78" y1="389.17" x2="309.78" y2="378.53"/>
  <line class="cls-5" x1="310.14" y1="389.16" x2="310.14" y2="378.52"/>
  <line class="cls-5" x1="310.5" y1="389.16" x2="310.5" y2="378.52"/>
  <line class="cls-5" x1="310.86" y1="389.17" x2="310.86" y2="378.53"/>
  <line class="cls-4" x1="242.16" y1="266.96" x2="242.16" y2="226.62"/>
  <polyline class="cls-2" points="256.88 226.97 256.88 251.38 258.02 251.38 262.64 228.51"/>
  <line class="cls-5" x1="311.22" y1="389.17" x2="311.22" y2="378.53"/>
  <line class="cls-3" x1="177.71" y1="165.62" x2="303.28" y2="184.81"/>
  <line class="cls-3" x1="172.66" y1="393.08" x2="172.74" y2="383.46"/>
  <line class="cls-3" x1="184.98" y1="393.22" x2="185.15" y2="373.69"/>
  <line class="cls-3" x1="207.48" y1="392.31" x2="177.81" y2="392.31"/>
  <line class="cls-3" x1="206.62" y1="393.11" x2="206.7" y2="383.49"/>
  <polyline class="cls-3" points="150.59 372.75 207.48 372.75 207.48 364.47"/>
  <line class="cls-3" x1="168.17" y1="383.05" x2="168.26" y2="373.44"/>
  <line class="cls-1" x1="389.23" y1="175.67" x2="389.23" y2="185.15"/>
  <line class="cls-3" x1="258.4" y1="107.5" x2="235.07" y2="107.54"/>
  <g id="bakgrund">
    <rect id="TP4084" class="cls-9" x="148.36" y="219.74" width="57.73" height="34.55"/>
    <rect id="TP42" class="cls-9" x="148.36" y="256.24" width="57.73" height="56.52"/>
    <polygon id="TP44" class="cls-9" points="147.81 315.09 147.81 350.63 151.12 350.63 151.12 371.52 206.25 371.52 206.1 315.09 147.81 315.09"/>
    <rect id="TP404" class="cls-9" x="172.7" y="404.23" width="32.64" height="26.66"/>
    <rect id="TP403" class="cls-9" x="243.96" y="402.39" width="30.74" height="28.5"/>
    <rect id="TP402" class="cls-9" x="277.06" y="402.39" width="31.67" height="28.5"/>
    <rect id="TP401" class="cls-9" x="310.5" y="402.39" width="31.84" height="28.5"/>
    <rect id="TP45" class="cls-9" x="376.76" y="333.83" width="58.58" height="56.61"/>
    <rect id="TP43" class="cls-9" x="376.76" y="277.48" width="58.58" height="53.99"/>
    <rect id="TP41" class="cls-9" x="376.76" y="218.37" width="58.58" height="56.74"/>
  </g>
  <g id="text">
    <text class="cls-6" transform="translate(157.12 242.15)"><tspan x="0" y="0">TP4084</tspan></text>
    <text class="cls-8" transform="translate(159.49 289.25)"><tspan x="0" y="0">TP42</tspan></text>
    <text class="cls-8" transform="translate(161.84 347.88)"><tspan x="0" y="0">TP44</tspan></text>
    <text class="cls-7" transform="translate(173.15 421.38)"><tspan x="0" y="0">TP404</tspan></text>
    <text class="cls-7" transform="translate(243.96 421.72)"><tspan x="0" y="0">TP403</tspan></text>
    <text class="cls-7" transform="translate(277.55 422.09)"><tspan x="0" y="0">TP402</tspan></text>
    <text class="cls-7" transform="translate(311.22 422.46)"><tspan x="0" y="0">TP401</tspan></text>
    <text class="cls-8" transform="translate(389.24 367.66)"><tspan x="0" y="0">TP45</tspan></text>
    <text class="cls-8" transform="translate(389.24 309.55)"><tspan x="0" y="0">TP43</tspan></text>
    <text class="cls-8" transform="translate(389.24 252.42)"><tspan x="0" y="0">TP41</tspan></text>
  </g>
</svg>